<svg width="1440" height="900" viewBox="0 0 1440 900" fill="none" xmlns="http://www.w3.org/2000/svg">
<g clip-path="url(#clip0_8_3)">
<path opacity="0.78" d="M1.26001 3.94H1441.26V903.94H1.26001V3.94Z" fill="#81C9F9"/>
<g opacity="0.5">
<g opacity="0.5">
<path d="M1012.51 -0.139997C1012.51 -0.139997 1012.53 -0.139997 1012.54 -0.139997C1012.54 -1.91 1012.54 -3.68 1012.54 -5.43C1012.52 -8.8 1447 3.79 1447 3.79C1447 3.79 1445.49 245.07 1429.76 246.61C1417.86 247.77 1405.86 247.11 1393.94 247.69C1379.24 248.4 1364.57 249.97 1349.88 250.96C1325.25 252.61 1296.78 254.6 1274.07 243.03C1254.71 233.16 1248.81 210.32 1243.46 191.15C1240.17 179.37 1236.35 167.76 1228.41 158.23C1218.38 146.19 1201.77 142.39 1187.06 139.87C1153.67 134.15 1120.26 139.79 1087.58 128.54C1060.39 119.17 1036.03 99.63 1023.74 73.44C1013.88 52.43 1012.73 28.23 1012.57 5.11C1012.55 5.11 1012.53 5.11 1012.52 5.11C1009.22 4.71 1009.18 -0.519997 1012.52 -0.119997L1012.51 -0.139997Z" fill="#6D8FC2"/>
</g>
<path opacity="0.5" d="M4.25998 110.07C59.06 120.94 124.37 108.43 174.76 104.83C239.02 100.24 350.81 110.46 341.47 202.58C336.91 247.54 287.36 275.77 267.73 313.41C254.49 338.79 255.7 369.94 250.76 397.52C245.55 426.62 229.74 444.7 210.93 466.09C181.84 499.18 134.33 524.16 94.1199 540.18C63.5699 552.35 31.6 557.28 4.24997 540.95V110.07H4.25998Z" fill="#6D8FC2"/>
<path opacity="0.5" d="M1045.89 321.89C1118.64 299.74 1213.6 332.04 1253.51 397.6C1270.16 424.96 1280.83 457.65 1310.32 474.37C1335.63 488.72 1435.7 470.69 1435.7 470.69C1435.7 470.69 1466.69 901.59 1426.05 883.41C1378.97 862.35 1363.72 792.75 1321.17 761.84C1276.61 729.47 1224.09 713.35 1174.77 690.09C1154.47 680.51 1135.21 668.93 1118.88 653.45C1101.2 636.7 1091.26 612.58 1081.84 590.66C1071.31 566.14 1061.17 541.64 1043.72 521.07C1030.11 505.02 1011.32 493.13 995.01 480.07C969 459.25 944.39 432.49 956.39 397.14C969.03 359.92 1010.14 332.77 1045.89 321.89Z" fill="#6D8FC2"/>
</g>
<path d="M1187.47 707.828C1161.77 729.648 1135.78 751.283 1114.5 777.703C1069.88 833.212 1049.72 906.116 993.476 950.439C884.286 1036.52 758.751 974.619 657.203 865.357C605.063 809.252 574.271 759.894 513.76 718.005C442.517 668.731 367.463 635.868 299.76 576.827C201.175 490.851 194.273 392.936 243.969 279.857C333.69 93.056 505.464 150.901 651.855 93.5518C824.56 35.6273 784.304 -25.1244 863.617 -183.684C963.676 -383.806 1416.06 -405.108 1537.69 -183.684C1615.95 -41.2464 1573.25 319.279 1553 475C1532.95 629.287 1323.32 575.374 1231.38 668.161C1217.55 682.134 1202.55 694.991 1187.47 707.828Z" fill="white" style="mix-blend-mode:luminosity"/>
<g filter="url(#filter0_d_8_3)">
<path d="M1093.31 348.045C1092.93 348.215 1092.77 348.735 1092.88 349.115C1093 349.535 1093.37 349.775 1093.79 349.805C1095.35 349.935 1096.92 349.775 1098.43 349.375C1098.23 349.735 1098.02 350.085 1097.83 350.445C1097.61 350.855 1097.4 351.245 1097.2 351.665C1097 352.055 1096.9 352.465 1096.69 352.865C1096.32 353.585 1097.33 354.165 1097.78 353.495C1097.89 353.325 1098 353.165 1098.11 352.995C1098.65 352.495 1099.02 351.805 1099.41 351.195C1099.71 350.735 1099.99 350.255 1100.27 349.785C1107.79 350.505 1115.87 348.865 1122.62 346.275C1124.01 345.735 1125.37 345.105 1126.69 344.415C1129.54 342.925 1132.5 341.245 1134.65 338.825C1134.99 338.445 1134.56 337.915 1134.11 338.125C1131.37 339.435 1128.83 341.135 1126.07 342.455C1123.4 343.735 1120.66 344.815 1117.82 345.655C1115 346.495 1112.09 347.095 1109.17 347.435C1106.12 347.775 1103.11 347.735 1100.05 347.635C1099.99 347.635 1099.94 347.635 1099.88 347.645C1099.81 347.615 1099.75 347.605 1099.68 347.575C1099.62 347.505 1099.56 347.445 1099.48 347.395C1097.9 346.365 1096.35 345.275 1094.73 344.315C1094.33 344.075 1093.72 344.145 1093.43 344.515C1093.04 345.025 1093.23 345.645 1093.7 345.975C1094.37 346.435 1095.05 346.885 1095.74 347.325C1094.91 347.455 1094.09 347.705 1093.33 348.065L1093.31 348.045Z" fill="#0F1F2C"/>
<path d="M1165.65 235.965C1166.74 239.955 1168.2 243.965 1170.94 247.135C1173.19 249.735 1178.06 255.065 1194.04 245.525C1197.35 243.555 1200.5 241.325 1203.46 238.855C1209.4 233.905 1214.55 227.865 1218 220.915C1224.47 207.885 1225.22 191.115 1216.59 178.855C1214.38 175.715 1211.57 172.935 1208.17 171.105C1205.26 169.535 1202.05 168.605 1198.77 168.285C1192.24 167.635 1185.4 169.325 1179.91 172.915C1167.21 181.235 1161.97 196.925 1162.06 211.515C1162.12 219.735 1163.49 228.045 1165.64 235.965H1165.65Z" fill="#81C7DB"/>
<path d="M1162.64 232.735C1163.63 237.025 1164.75 241.365 1166.96 245.205C1168.93 248.645 1171.78 251.505 1175.53 252.905C1178.97 254.195 1181.12 253.825 1189.74 250.285C1204.76 244.115 1217.28 231.285 1222.56 215.565C1225.02 208.225 1225.85 200.265 1224.47 192.615C1223.04 184.675 1219.21 176.795 1212.85 171.655C1207.28 167.155 1199.95 165.445 1192.89 166.155C1185.64 166.895 1178.87 170.135 1173.62 175.185C1168.13 180.485 1164.29 187.325 1162.16 194.625C1159.78 202.775 1159.49 211.365 1160.39 219.765C1160.86 224.125 1161.65 228.455 1162.64 232.735ZM1170.93 247.135C1168.19 243.965 1166.73 239.955 1165.64 235.965C1163.48 228.035 1162.11 219.735 1162.06 211.515C1161.97 196.935 1167.21 181.235 1179.91 172.915C1185.4 169.325 1192.23 167.635 1198.77 168.285C1202.05 168.605 1205.26 169.535 1208.17 171.105C1211.57 172.935 1214.38 175.715 1216.59 178.855C1225.22 191.115 1224.47 207.885 1218 220.915C1214.55 227.855 1209.39 233.895 1203.46 238.855C1200.5 241.325 1197.35 243.555 1194.04 245.525C1178.06 255.065 1173.19 249.735 1170.94 247.135H1170.93Z" fill="#0F1F2C"/>
<g style="mix-blend-mode:multiply" opacity="0.4">
<path d="M1165.65 235.965C1163.49 228.035 1162.12 219.735 1162.07 211.515C1161.98 196.935 1167.22 181.235 1179.92 172.915C1183.49 170.585 1187.63 169.055 1191.88 168.445C1189.04 174.245 1186.43 180.155 1184.17 186.225C1178.93 200.255 1176.07 216.625 1177.31 231.575C1177.85 238.085 1179.5 245.365 1184.4 250.035C1175.9 252.665 1172.66 249.105 1170.95 247.125C1168.21 243.955 1166.75 239.945 1165.66 235.955L1165.65 235.965Z" fill="#81C7DB"/>
</g>
<path d="M1198.08 376.705C1197.83 377.085 1196.9 378.445 1197.38 378.925C1197.84 379.375 1199.47 378.565 1199.95 378.375C1200.88 377.995 1201.78 377.495 1202.61 376.935C1203.97 376.015 1205.14 374.845 1206.1 373.525C1205.97 373.245 1205.94 373.185 1205.81 372.905C1203.77 372.825 1201.79 373.425 1200.14 374.615C1199.34 375.185 1198.63 375.895 1198.07 376.705H1198.08Z" fill="#FE7E50"/>
<path d="M1198.2 373.425C1196.53 374.815 1194.17 377.725 1195.53 380.025C1197 382.525 1200.99 380.425 1202.77 379.395C1205.17 378.005 1207.18 376.015 1208.63 373.665C1208.95 373.155 1208.72 372.515 1208.25 372.195C1204.48 369.705 1202.13 365.305 1202.22 360.785C1202.26 358.535 1202.94 356.345 1204.05 354.385C1204.59 353.415 1205.22 352.505 1205.96 351.675C1206.7 350.865 1207.53 350.155 1208.2 349.285C1208.5 348.895 1208 348.415 1207.61 348.505C1205.26 349.085 1203.26 351.555 1202.11 353.565C1200.83 355.795 1200.11 358.355 1200.08 360.925C1200.04 364.595 1201.39 368.145 1203.7 370.925C1201.69 371.255 1199.8 372.125 1198.22 373.435L1198.2 373.425ZM1197.38 378.935C1196.89 378.445 1197.82 377.085 1198.08 376.715C1198.64 375.915 1199.35 375.195 1200.15 374.625C1201.81 373.435 1203.78 372.835 1205.82 372.915C1205.95 373.195 1205.98 373.255 1206.11 373.535C1205.15 374.865 1203.98 376.025 1202.62 376.945C1201.79 377.515 1200.9 378.015 1199.96 378.385C1199.47 378.585 1197.84 379.385 1197.39 378.935H1197.38Z" fill="#0F1F2C"/>
<path d="M1172.69 382.935C1172.44 383.315 1171.51 384.675 1171.99 385.155C1172.45 385.605 1174.08 384.795 1174.56 384.605C1175.49 384.225 1176.39 383.725 1177.22 383.165C1178.58 382.245 1179.75 381.075 1180.71 379.755C1180.58 379.475 1180.55 379.415 1180.42 379.135C1178.38 379.055 1176.4 379.655 1174.75 380.845C1173.95 381.415 1173.24 382.125 1172.68 382.935H1172.69Z" fill="#FE7E50"/>
<path d="M1172.82 379.655C1171.15 381.045 1168.79 383.955 1170.15 386.255C1171.62 388.755 1175.61 386.655 1177.39 385.625C1179.79 384.235 1181.8 382.245 1183.25 379.895C1183.57 379.385 1183.34 378.745 1182.87 378.425C1179.1 375.935 1176.75 371.535 1176.84 367.015C1176.88 364.765 1177.56 362.575 1178.67 360.615C1179.21 359.645 1179.84 358.735 1180.58 357.905C1181.32 357.095 1182.15 356.385 1182.82 355.515C1183.12 355.125 1182.62 354.645 1182.23 354.735C1179.88 355.315 1177.88 357.785 1176.73 359.795C1175.45 362.025 1174.73 364.585 1174.7 367.155C1174.66 370.825 1176.01 374.375 1178.32 377.155C1176.31 377.485 1174.42 378.355 1172.84 379.665L1172.82 379.655ZM1172 385.165C1171.51 384.675 1172.44 383.315 1172.7 382.945C1173.26 382.145 1173.97 381.425 1174.77 380.855C1176.43 379.665 1178.4 379.065 1180.44 379.145C1180.57 379.425 1180.6 379.485 1180.73 379.765C1179.77 381.095 1178.6 382.255 1177.24 383.175C1176.41 383.745 1175.52 384.245 1174.58 384.615C1174.09 384.815 1172.46 385.615 1172.01 385.165H1172Z" fill="#0F1F2C"/>
<path d="M1081.76 335.195C1079.86 336.345 1078.25 338.925 1079.59 341.075C1080.68 342.825 1083.03 343.355 1084.96 343.295C1084.93 343.085 1084.9 342.865 1084.87 342.655C1084.86 342.575 1084.87 342.515 1084.88 342.445C1083.63 343.075 1082.06 342.375 1081.44 341.155C1080.79 339.885 1081.27 338.225 1082.43 337.425C1083.16 336.915 1084.09 336.865 1084.95 336.905C1085.99 336.945 1087.02 337.045 1088.04 337.195C1090.24 337.505 1092.4 338.045 1094.5 338.785C1094.74 338.875 1094.84 339.065 1094.86 339.275C1097.37 339.155 1099.84 339.135 1102.34 338.655C1103.61 338.405 1104.86 338.105 1106.09 337.725C1107.37 337.325 1108.59 336.765 1109.87 336.395C1110.16 336.305 1110.33 336.725 1110.07 336.885C1108.92 337.595 1107.57 338.035 1106.28 338.435C1104.96 338.845 1103.61 339.185 1102.25 339.445C1099.92 339.875 1097.41 340.195 1095.02 339.985C1095.15 340.575 1095.16 341.205 1095.15 341.805C1095.15 342.345 1095.06 342.905 1094.85 343.405C1097.13 343.155 1099.44 343.275 1101.73 343.005C1104.24 342.705 1106.72 342.175 1109.12 341.365C1110.79 340.795 1112.98 339.905 1113.64 338.105C1114.45 335.885 1112.22 333.955 1110.42 333.145C1108.47 332.265 1106.26 332.125 1104.15 332.105C1101.58 332.085 1099 332.195 1096.44 332.395C1093.76 332.605 1091.08 332.915 1088.42 333.335C1086.17 333.695 1083.75 333.995 1081.77 335.195H1081.76Z" fill="#FE7E50"/>
<path d="M1078.07 365.805C1077.97 369.375 1078.32 372.965 1079.53 376.345C1080.11 377.935 1080.91 379.485 1082.38 380.415C1083.81 381.325 1085.51 381.775 1087.13 382.165C1093.99 383.865 1101.49 383.415 1108.06 380.725C1110.88 379.575 1113.68 377.835 1115.4 375.255C1117.31 372.385 1117.52 368.875 1117.23 365.535C1116.89 361.525 1116.04 357.505 1115.03 353.605C1114.51 351.595 1113.93 349.595 1113.28 347.625C1112.66 345.775 1111.95 343.945 1111.45 342.065C1109.2 343.225 1106.51 343.785 1104.1 344.205C1101 344.745 1097.33 345.185 1094.28 344.165C1093.71 344.645 1092.8 344.755 1092.16 344.415C1091.58 346.005 1090.64 347.675 1088.84 347.835C1087.69 347.935 1086.65 347.265 1086 346.375C1085.59 345.825 1085.35 345.205 1085.19 344.545C1085.12 344.565 1085.07 344.585 1084.99 344.585C1083.63 344.645 1082.2 344.415 1080.95 343.835C1080.02 351.135 1078.27 358.405 1078.07 365.785V365.805Z" fill="#FE7E50"/>
<path d="M1082.72 338.575C1082.34 338.985 1082.13 339.575 1082.19 340.125C1082.33 341.425 1083.77 341.905 1084.9 341.775C1085.12 341.755 1085.23 341.975 1085.19 342.155C1085.5 342.065 1085.92 342.235 1085.97 342.645C1086.1 343.675 1086.24 344.775 1086.82 345.655C1087.28 346.345 1088.07 346.905 1088.93 346.755C1090.45 346.495 1091.12 344.475 1091.47 343.195C1091.6 342.715 1092.37 342.685 1092.48 343.195C1092.55 343.525 1092.89 343.585 1093.19 343.545C1093.62 343.475 1093.86 343.135 1093.98 342.745C1094.28 341.815 1094.03 340.805 1094.2 339.855C1094.11 339.835 1094.06 339.775 1094.03 339.705C1091.03 338.665 1087.81 337.975 1084.63 337.935C1083.93 337.935 1083.22 338.015 1082.72 338.555V338.575Z" fill="#F6BC64"/>
<path d="M1076.96 357.215C1076.33 361.495 1075.84 365.845 1076.24 370.175C1076.55 373.645 1077.3 377.715 1079.56 380.505C1081.84 383.305 1086.13 384.085 1089.5 384.605C1096.68 385.705 1104.6 384.815 1111.05 381.315C1113.96 379.735 1116.53 377.445 1117.85 374.365C1119.26 371.065 1119.15 367.355 1118.7 363.875C1118.19 359.995 1117.39 356.155 1116.36 352.395C1115.37 348.775 1114.25 344.855 1112.32 341.605C1112.47 341.515 1112.63 341.425 1112.78 341.315C1114.54 340.095 1115.78 338.115 1115.07 335.935C1114.32 333.605 1112.05 332.115 1109.82 331.405C1107.33 330.625 1104.65 330.645 1102.07 330.705C1098.9 330.775 1095.74 330.985 1092.59 331.345C1089.72 331.675 1086.76 331.995 1083.98 332.765C1081.63 333.415 1079.31 334.685 1078.25 336.995C1077.35 338.955 1077.66 341.255 1079.26 342.755C1079.35 342.845 1079.46 342.915 1079.56 342.995C1079.42 343.095 1079.31 343.245 1079.27 343.445C1078.38 348.015 1077.65 352.635 1076.97 357.225L1076.96 357.215ZM1079.54 376.345C1078.32 372.965 1077.97 369.375 1078.08 365.805C1078.28 358.425 1080.03 351.155 1080.96 343.855C1082.21 344.425 1083.64 344.655 1085 344.605C1085.07 344.605 1085.13 344.585 1085.2 344.565C1085.37 345.215 1085.61 345.845 1086.01 346.395C1086.66 347.295 1087.7 347.965 1088.85 347.855C1090.65 347.695 1091.59 346.025 1092.17 344.435C1092.82 344.775 1093.73 344.665 1094.29 344.185C1097.34 345.195 1101.01 344.755 1104.11 344.225C1106.52 343.805 1109.2 343.245 1111.46 342.085C1111.97 343.965 1112.68 345.795 1113.29 347.645C1113.94 349.615 1114.51 351.615 1115.04 353.625C1116.05 357.525 1116.9 361.535 1117.24 365.555C1117.52 368.895 1117.31 372.405 1115.41 375.275C1113.69 377.855 1110.89 379.595 1108.07 380.745C1101.5 383.425 1094 383.885 1087.14 382.185C1085.52 381.785 1083.81 381.335 1082.39 380.435C1080.92 379.505 1080.12 377.955 1079.54 376.365V376.345ZM1079.59 341.075C1078.25 338.925 1079.87 336.345 1081.76 335.195C1083.74 333.995 1086.17 333.685 1088.41 333.335C1091.08 332.915 1093.75 332.605 1096.43 332.395C1099 332.195 1101.57 332.085 1104.14 332.105C1106.25 332.125 1108.46 332.275 1110.41 333.145C1112.21 333.955 1114.44 335.885 1113.63 338.105C1112.97 339.905 1110.79 340.805 1109.11 341.365C1106.71 342.165 1104.23 342.705 1101.72 343.005C1099.44 343.275 1097.12 343.145 1094.84 343.405C1095.06 342.905 1095.14 342.335 1095.14 341.805C1095.15 341.205 1095.14 340.585 1095.01 339.985C1097.4 340.195 1099.91 339.865 1102.24 339.445C1103.6 339.195 1104.95 338.855 1106.27 338.435C1107.56 338.025 1108.91 337.595 1110.06 336.885C1110.31 336.735 1110.15 336.315 1109.86 336.395C1108.58 336.775 1107.35 337.325 1106.08 337.725C1104.85 338.105 1103.59 338.415 1102.33 338.655C1099.83 339.135 1097.37 339.145 1094.85 339.275C1094.84 339.075 1094.73 338.875 1094.49 338.785C1092.4 338.045 1090.24 337.505 1088.03 337.195C1087.01 337.055 1085.98 336.945 1084.94 336.905C1084.08 336.865 1083.15 336.905 1082.42 337.425C1081.26 338.225 1080.77 339.885 1081.43 341.155C1082.05 342.375 1083.63 343.075 1084.87 342.445C1084.85 342.515 1084.84 342.575 1084.86 342.655C1084.89 342.865 1084.92 343.085 1084.95 343.295C1083.02 343.355 1080.67 342.815 1079.58 341.075H1079.59ZM1082.19 340.125C1082.13 339.575 1082.34 338.985 1082.72 338.575C1083.21 338.035 1083.93 337.945 1084.63 337.955C1087.81 337.995 1091.03 338.685 1094.03 339.725C1094.06 339.795 1094.11 339.855 1094.2 339.875C1094.03 340.835 1094.29 341.835 1093.98 342.765C1093.86 343.155 1093.62 343.495 1093.19 343.565C1092.89 343.605 1092.55 343.555 1092.48 343.215C1092.37 342.705 1091.6 342.735 1091.47 343.215C1091.12 344.495 1090.46 346.515 1088.93 346.775C1088.07 346.925 1087.28 346.365 1086.82 345.675C1086.24 344.795 1086.1 343.685 1085.97 342.665C1085.92 342.255 1085.5 342.085 1085.19 342.175C1085.23 341.985 1085.12 341.765 1084.9 341.795C1083.77 341.915 1082.33 341.445 1082.19 340.145V340.125Z" fill="#0F1F2C"/>
<g style="mix-blend-mode:multiply" opacity="0.4">
<path d="M1081.76 335.195C1083.46 334.155 1085.5 333.795 1087.47 333.485C1086.87 334.595 1086.43 335.785 1086.22 337.005C1085.8 336.965 1085.38 336.935 1084.96 336.915C1084.1 336.875 1083.17 336.915 1082.44 337.435C1081.28 338.235 1080.79 339.895 1081.45 341.155C1082.07 342.375 1083.65 343.075 1084.89 342.445C1084.87 342.515 1084.86 342.575 1084.88 342.655C1084.91 342.865 1084.94 343.085 1084.97 343.295C1083.04 343.355 1080.69 342.815 1079.6 341.075C1078.26 338.925 1079.88 336.345 1081.77 335.195H1081.76Z" fill="#FE7E50"/>
</g>
<g style="mix-blend-mode:multiply" opacity="0.4">
<path d="M1078.07 365.805C1078.27 358.425 1080.02 351.155 1080.95 343.855C1082.2 344.425 1083.63 344.655 1084.99 344.605C1085.06 344.605 1085.12 344.585 1085.19 344.565C1085.31 345.025 1085.47 345.475 1085.69 345.895C1079.26 348.125 1079.48 360.185 1080.49 365.725C1082.15 374.825 1089.03 380.325 1098.37 379.205C1104.94 378.425 1111.3 375.485 1116.91 371.705C1116.61 372.955 1116.13 374.165 1115.4 375.275C1113.68 377.855 1110.88 379.595 1108.06 380.745C1101.49 383.425 1093.99 383.885 1087.13 382.175C1085.51 381.775 1083.8 381.325 1082.38 380.425C1080.91 379.495 1080.11 377.945 1079.53 376.355C1078.31 372.975 1077.96 369.385 1078.07 365.815V365.805Z" fill="#FE7E50"/>
</g>
<g style="mix-blend-mode:multiply" opacity="0.4">
<path d="M1086.37 340.855C1086.94 342.885 1088.28 344.345 1089.81 345.685C1089.6 345.665 1089.43 345.645 1089.35 345.635C1088.41 345.485 1087.55 345.485 1086.78 345.605C1086.24 344.735 1086.1 343.665 1085.97 342.655C1085.92 342.245 1085.5 342.075 1085.19 342.165C1085.23 341.975 1085.12 341.755 1084.9 341.785C1083.77 341.905 1082.33 341.435 1082.19 340.135C1082.13 339.585 1082.34 338.995 1082.72 338.585C1083.21 338.045 1083.93 337.955 1084.63 337.965C1085.12 337.965 1085.61 337.995 1086.1 338.035C1086.04 338.975 1086.12 339.915 1086.38 340.865L1086.37 340.855Z" fill="#F6BC64"/>
</g>
<path d="M1080.29 358.615C1080.17 360.585 1080.24 363.025 1081.49 364.675C1082.99 366.665 1085.98 366.875 1088.24 367.145C1091 367.475 1093.79 367.565 1096.57 367.435C1097.85 367.375 1099.11 367.265 1100.38 367.115C1101.8 366.935 1103.37 366.785 1104.68 366.165C1106.52 365.285 1107.33 363.365 1107.64 361.465C1107.97 359.505 1107.98 357.235 1107.42 355.325C1106.66 352.785 1104.4 352.495 1102.07 352.585C1098.84 352.705 1095.63 352.895 1092.4 353.035C1089.19 353.175 1085.86 353.495 1082.66 353.085C1081.61 353.325 1081.04 354.255 1080.73 355.355C1080.41 356.445 1080.34 357.715 1080.29 358.615Z" fill="#FBE4C1"/>
<path d="M1078.98 357.425C1078.73 360.115 1078.47 363.145 1080.13 365.475C1081.75 367.755 1084.58 368.235 1087.17 368.595C1090.46 369.045 1093.78 369.195 1097.09 369.015C1098.73 368.925 1100.35 368.755 1101.97 368.505C1103.37 368.295 1104.82 368.035 1106.04 367.265C1108.07 365.985 1109.01 363.695 1109.34 361.405C1109.67 359.125 1109.76 356.445 1108.9 354.265C1107.86 351.635 1105.45 350.775 1102.78 350.805C1099.44 350.845 1096.09 351.105 1092.76 351.265C1089.72 351.405 1086.56 351.415 1083.54 351.965C1082.29 351.605 1081.05 352.165 1080.24 353.185C1079.28 354.385 1079.09 355.935 1078.96 357.415L1078.98 357.425ZM1081.48 364.675C1080.23 363.025 1080.17 360.585 1080.28 358.615C1080.33 357.705 1080.4 356.445 1080.72 355.355C1081.04 354.255 1081.6 353.325 1082.65 353.085C1085.85 353.495 1089.18 353.175 1092.39 353.035C1095.62 352.895 1098.83 352.705 1102.06 352.585C1104.39 352.495 1106.65 352.785 1107.41 355.325C1107.98 357.235 1107.96 359.505 1107.63 361.465C1107.31 363.375 1106.51 365.295 1104.67 366.165C1103.36 366.785 1101.79 366.935 1100.37 367.115C1099.1 367.265 1097.83 367.375 1096.56 367.435C1093.78 367.565 1090.99 367.475 1088.23 367.145C1085.97 366.875 1082.98 366.655 1081.48 364.675Z" fill="#0F1F2C"/>
<g style="mix-blend-mode:multiply" opacity="0.4">
<path d="M1080.29 358.615C1080.34 357.705 1080.41 356.445 1080.73 355.355C1080.94 354.645 1081.25 354.005 1081.72 353.575C1082.01 356.705 1083.04 359.645 1085.42 361.905C1090.78 366.995 1099.88 365.595 1106.91 363.835C1106.43 364.815 1105.73 365.665 1104.68 366.165C1103.37 366.785 1101.8 366.935 1100.38 367.115C1099.11 367.265 1097.84 367.375 1096.57 367.435C1093.79 367.565 1091 367.475 1088.24 367.145C1085.98 366.875 1082.99 366.655 1081.49 364.675C1080.24 363.025 1080.18 360.585 1080.29 358.615Z" fill="#FBE4C1"/>
</g>
<g style="mix-blend-mode:multiply" opacity="0.4">
<path d="M1207.86 355.555C1209.48 355.135 1211.07 354.635 1212.65 354.045C1212.89 353.955 1213.12 353.855 1213.35 353.765C1209.8 356.225 1205.96 358.295 1201.95 359.955C1202.56 359.535 1203.16 359.115 1203.75 358.695C1205.15 357.695 1206.53 356.655 1207.86 355.555Z" fill="#F6BC64"/>
</g>
<path d="M1203.75 358.695C1203.16 359.115 1202.56 359.535 1201.95 359.955C1210.6 356.375 1218.44 350.905 1224.39 343.675C1226.75 340.805 1233.88 332.805 1236.7 318.485C1238.35 310.125 1238.38 301.365 1235.31 293.355C1235.11 292.835 1234.9 292.325 1234.67 291.815C1234.74 292.325 1234.79 292.845 1234.84 293.355C1235.11 296.475 1235.12 299.625 1234.93 302.755C1234.56 308.945 1233.38 315.085 1231.43 320.965C1227.52 332.755 1220.7 343.595 1211.7 352.165C1209.21 354.525 1206.55 356.705 1203.75 358.695Z" fill="#F6BC64"/>
<path d="M1128.16 344.385C1126.74 344.525 1125.3 344.665 1123.86 344.705C1127.51 347.515 1131.32 350.115 1135.28 352.445C1141.17 355.915 1147.47 358.835 1154.01 360.965C1161.1 359.455 1167.96 357.305 1174.49 354.095C1181.41 350.685 1187.85 346.315 1193.5 341.055C1205.28 330.065 1213.02 315.345 1215.26 299.365C1215.88 294.905 1216.04 290.375 1215.75 285.875C1215.6 283.575 1215.34 281.285 1214.93 279.015C1214.57 277.015 1214.11 275.035 1213.74 273.045C1208.54 270.605 1203.2 268.455 1198.23 265.555C1198.61 269.015 1198.23 272.665 1197.82 276.075C1197.34 280.075 1196.57 284.035 1195.49 287.925C1193.29 295.795 1189.88 303.335 1185.37 310.155C1176.35 323.765 1163.06 334.105 1147.79 339.815C1143.59 341.395 1139.25 342.605 1134.83 343.435C1132.62 343.845 1130.39 344.165 1128.16 344.395V344.385Z" fill="#F6BC64"/>
<path d="M1080.14 242.895C1077.88 251.285 1077.61 260.115 1078.62 268.705C1080.62 285.935 1087.73 302.565 1097.51 316.795C1097.95 317.445 1098.41 318.085 1098.87 318.725C1114.83 319.705 1130.84 315.775 1144.46 307.335C1158.26 298.795 1168.9 285.725 1174.83 270.645C1176.46 266.495 1177.73 262.205 1178.64 257.845C1179.5 253.715 1179.89 249.535 1180.39 245.355C1177.53 239.545 1175.22 233.465 1172.27 227.705C1168.78 220.855 1164.25 214.655 1157.67 210.505C1151.36 206.525 1143.94 204.565 1136.52 204.215C1120.58 203.465 1104.27 209.755 1092.88 220.915C1086.7 226.975 1082.39 234.545 1080.14 242.895Z" fill="#F6BC64"/>
<path d="M1125.69 317.995C1117.57 320.325 1109 321.415 1100.54 320.995C1106.54 329.015 1113.54 336.355 1121.33 342.705C1123.21 342.515 1125.11 342.495 1127 342.335C1128.99 342.165 1130.98 341.905 1132.95 341.575C1136.85 340.915 1140.7 339.955 1144.44 338.705C1151.86 336.245 1158.89 332.635 1165.24 328.075C1178.1 318.805 1187.66 305.395 1192.61 290.355C1194 286.145 1195.03 281.815 1195.69 277.425C1196.02 275.225 1196.25 272.995 1196.37 270.775C1196.49 268.725 1196.48 266.665 1196.67 264.625C1193.83 262.825 1191.17 260.745 1188.88 258.275C1186.29 255.485 1184.14 252.315 1182.29 248.995C1182.15 248.735 1182.01 248.475 1181.88 248.215C1181.81 251.045 1181.43 253.895 1180.95 256.675C1180.25 260.725 1179.19 264.725 1177.83 268.615C1175.11 276.435 1171.18 283.835 1166.17 290.425C1156.05 303.735 1141.74 313.365 1125.69 317.995Z" fill="#0F1F2C"/>
<path d="M1178.32 354.505C1172.07 357.875 1165.27 360.585 1158.3 362.245C1166.84 364.535 1175.71 365.435 1184.56 364.445C1187.65 364.095 1190.73 363.515 1193.76 362.715C1193.83 362.625 1193.9 362.535 1194 362.465C1196.52 360.845 1199.21 359.515 1201.7 357.815C1204.18 356.115 1206.54 354.265 1208.77 352.255C1213.24 348.245 1217.22 343.705 1220.58 338.735C1227.28 328.845 1231.68 317.315 1232.96 305.415C1233.32 302.085 1233.43 298.715 1233.29 295.375C1233.16 292.365 1232.8 289.425 1231.8 286.635C1230.9 285.335 1229.92 284.095 1228.83 282.955C1226.11 280.105 1222.87 277.855 1219.44 275.935C1218.21 275.245 1216.95 274.605 1215.69 273.985C1216.74 277.155 1217.23 280.555 1217.58 283.835C1218.01 287.915 1218.03 292.045 1217.69 296.145C1216.99 304.455 1214.81 312.605 1211.31 320.175C1204.5 334.915 1192.55 346.835 1178.33 354.505H1178.32Z" fill="#0F1F2C"/>
<path d="M1083.27 229.715C1074.24 245.205 1074.46 264.475 1078.83 281.385C1082.36 295.035 1088.56 307.885 1096.69 319.365C1096.55 319.965 1096.89 320.725 1097.68 320.795C1097.69 320.795 1097.7 320.795 1097.71 320.795C1099.57 323.335 1101.51 325.815 1103.54 328.205C1115.13 341.855 1129.67 353.385 1146.24 360.365C1147.97 361.095 1149.73 361.765 1151.51 362.385C1151.53 362.515 1151.58 362.645 1151.65 362.765C1151.94 362.835 1152.24 362.905 1152.52 362.985C1152.76 363.005 1153 363.015 1153.24 363.025C1153.43 363.025 1153.58 363.075 1153.71 363.155C1153.73 363.155 1153.75 363.155 1153.78 363.145C1167.53 367.505 1182.28 368.375 1196.26 364.215C1207.57 360.865 1218.04 354.465 1225.58 345.475C1226.04 345.625 1226.51 345.725 1226.99 345.775L1227.15 344.075C1229.66 340.475 1231.91 336.725 1233.86 332.775C1234.53 331.415 1235.15 330.025 1235.72 328.605C1236.12 328.785 1236.52 328.965 1236.92 329.155L1237.55 327.435C1237.15 327.275 1236.75 327.135 1236.35 326.995C1241.76 312.405 1241.92 294.995 1231.44 282.675C1220.66 269.995 1202 268.945 1190.65 257.025C1185.12 251.215 1181.84 243.705 1178.66 236.455C1175.44 229.125 1172.2 221.645 1166.88 215.565C1156.44 203.625 1139.6 200.345 1124.49 202.765C1108.02 205.405 1091.75 215.125 1083.25 229.715H1083.27ZM1078.62 268.705C1077.61 260.105 1077.88 251.275 1080.14 242.895C1082.39 234.545 1086.7 226.975 1092.88 220.915C1104.27 209.745 1120.59 203.465 1136.52 204.215C1143.93 204.565 1151.36 206.525 1157.67 210.505C1164.26 214.655 1168.78 220.855 1172.27 227.705C1175.22 233.475 1177.53 239.545 1180.39 245.355C1179.89 249.535 1179.49 253.715 1178.64 257.845C1177.73 262.205 1176.46 266.495 1174.83 270.645C1168.89 285.725 1158.26 298.795 1144.46 307.335C1130.84 315.775 1114.83 319.695 1098.87 318.725C1098.41 318.085 1097.95 317.445 1097.51 316.795C1087.73 302.565 1080.62 285.945 1078.62 268.705ZM1100.54 320.995C1109 321.415 1117.56 320.325 1125.69 317.995C1141.74 313.375 1156.06 303.735 1166.17 290.425C1171.19 283.825 1175.11 276.435 1177.83 268.615C1179.19 264.735 1180.24 260.725 1180.95 256.675C1181.44 253.895 1181.81 251.045 1181.88 248.215C1182.02 248.465 1182.15 248.725 1182.29 248.995C1184.14 252.305 1186.28 255.485 1188.88 258.275C1191.17 260.735 1193.83 262.825 1196.67 264.625C1196.47 266.665 1196.49 268.725 1196.37 270.775C1196.25 272.995 1196.02 275.225 1195.69 277.425C1195.03 281.805 1194 286.145 1192.61 290.355C1187.66 305.395 1178.11 318.805 1165.24 328.075C1158.89 332.645 1151.86 336.245 1144.44 338.705C1140.69 339.955 1136.84 340.915 1132.95 341.575C1130.98 341.905 1128.99 342.165 1127 342.335C1125.11 342.495 1123.21 342.515 1121.33 342.705C1113.54 336.365 1106.54 329.015 1100.54 320.995ZM1123.86 344.705C1125.29 344.665 1126.74 344.525 1128.16 344.385C1130.39 344.165 1132.62 343.845 1134.83 343.425C1139.24 342.595 1143.58 341.385 1147.79 339.805C1163.06 334.085 1176.36 323.755 1185.37 310.145C1189.89 303.335 1193.3 295.785 1195.49 287.915C1196.57 284.035 1197.34 280.065 1197.82 276.065C1198.22 272.655 1198.61 269.005 1198.23 265.545C1203.19 268.445 1208.54 270.595 1213.74 273.035C1214.11 275.025 1214.57 277.005 1214.93 279.005C1215.34 281.275 1215.6 283.575 1215.75 285.865C1216.05 290.355 1215.89 294.895 1215.26 299.355C1213.03 315.335 1205.29 330.055 1193.5 341.045C1187.85 346.305 1181.41 350.675 1174.49 354.085C1167.96 357.295 1161.1 359.445 1154.01 360.955C1147.47 358.825 1141.18 355.905 1135.28 352.435C1131.32 350.105 1127.51 347.505 1123.86 344.695V344.705ZM1158.3 362.245C1165.27 360.585 1172.06 357.875 1178.32 354.505C1192.55 346.835 1204.5 334.915 1211.3 320.175C1214.8 312.605 1216.99 304.455 1217.68 296.145C1218.02 292.055 1218.01 287.915 1217.57 283.835C1217.22 280.555 1216.73 277.155 1215.68 273.985C1216.94 274.605 1218.19 275.245 1219.43 275.935C1222.85 277.845 1226.1 280.105 1228.82 282.955C1229.91 284.105 1230.89 285.335 1231.79 286.635C1232.79 289.425 1233.15 292.365 1233.28 295.375C1233.42 298.725 1233.31 302.085 1232.95 305.415C1231.67 317.305 1227.28 328.845 1220.57 338.735C1217.21 343.705 1213.23 348.255 1208.76 352.255C1206.53 354.265 1204.17 356.115 1201.69 357.815C1199.2 359.515 1196.52 360.835 1193.99 362.465C1193.89 362.535 1193.82 362.615 1193.75 362.715C1190.73 363.515 1187.65 364.095 1184.55 364.445C1175.7 365.435 1166.83 364.535 1158.29 362.245H1158.3ZM1201.95 359.955C1202.56 359.535 1203.16 359.115 1203.75 358.695C1206.55 356.705 1209.21 354.525 1211.7 352.165C1220.7 343.595 1227.51 332.755 1231.43 320.965C1233.38 315.085 1234.56 308.945 1234.93 302.755C1235.12 299.625 1235.1 296.475 1234.84 293.355C1234.8 292.845 1234.74 292.335 1234.67 291.815C1234.89 292.325 1235.11 292.825 1235.31 293.355C1238.38 301.365 1238.35 310.115 1236.7 318.485C1233.88 332.805 1226.76 340.805 1224.39 343.675C1218.45 350.905 1210.6 356.375 1201.95 359.955Z" fill="#0F1F2C"/>
<path d="M1227.16 344.095L1227 345.795C1227.74 345.885 1228.49 345.885 1229.22 345.915C1230.55 345.955 1231.89 345.915 1233.22 345.855C1235.81 345.735 1238.4 345.445 1240.97 345.025C1246.18 344.145 1251.3 342.685 1256.18 340.665C1256.85 340.385 1257.36 339.435 1256.66 338.855C1250.94 334.115 1244.53 330.075 1237.56 327.465L1236.93 329.185C1242.9 331.965 1248.6 335.225 1253.77 339.305C1249.54 340.925 1245.19 342.145 1240.72 342.925C1238.13 343.385 1235.51 343.705 1232.88 343.885C1231.66 343.975 1230.44 344.005 1229.21 344.055C1228.52 344.075 1227.83 344.065 1227.15 344.105L1227.16 344.095Z" fill="#0F1F2C"/>
<path d="M1227.16 344.095C1227.84 344.055 1228.53 344.065 1229.22 344.045C1230.44 343.995 1231.66 343.955 1232.89 343.875C1235.52 343.705 1238.14 343.375 1240.73 342.915C1245.19 342.135 1249.55 340.905 1253.78 339.295C1248.61 335.225 1242.91 331.965 1236.94 329.175C1236.54 328.985 1236.14 328.805 1235.74 328.625C1235.17 330.055 1234.54 331.445 1233.88 332.795C1231.93 336.745 1229.68 340.495 1227.17 344.095H1227.16Z" fill="#0F1F2C"/>
<g style="mix-blend-mode:multiply" opacity="0.4">
<path d="M1134.82 343.425C1139.23 342.595 1143.57 341.385 1147.78 339.805C1148.13 339.675 1148.48 339.525 1148.84 339.385C1152.32 342.135 1155.97 344.685 1159.8 346.945C1164.51 349.725 1169.66 352.075 1175.04 353.815C1174.86 353.905 1174.68 354.005 1174.49 354.095C1167.96 357.305 1161.1 359.455 1154.01 360.965C1147.47 358.835 1141.18 355.915 1135.28 352.445C1131.32 350.115 1127.51 347.515 1123.86 344.705C1125.29 344.665 1126.74 344.525 1128.16 344.385C1130.39 344.165 1132.62 343.845 1134.83 343.425H1134.82Z" fill="#F6BC64"/>
</g>
<g style="mix-blend-mode:multiply" opacity="0.4">
<path d="M1080.14 242.895C1082.39 234.545 1086.7 226.975 1092.88 220.915C1095.09 218.745 1097.49 216.765 1100.03 214.985C1096.32 226.925 1094.86 239.485 1096.51 252.305C1099.11 272.615 1108.56 291.125 1120.11 307.775C1121.96 310.435 1123.88 313.065 1125.87 315.655C1117.16 318.235 1108.01 319.295 1098.87 318.735C1098.41 318.095 1097.95 317.455 1097.51 316.805C1087.73 302.575 1080.62 285.955 1078.62 268.715C1077.61 260.115 1077.88 251.285 1080.14 242.905V242.895Z" fill="#F6BC64"/>
</g>
<path d="M1179.09 248.005C1178.58 252.105 1178.42 256.375 1179.75 260.345C1180.84 263.595 1183.33 270.385 1201.74 267.605C1205.55 267.035 1209.31 266.165 1212.99 265.005C1220.36 262.675 1227.42 259.035 1233.25 253.915C1244.17 244.315 1251.22 229.075 1247.88 214.465C1247.02 210.725 1245.47 207.085 1243.02 204.105C1240.93 201.545 1238.3 199.475 1235.39 197.935C1229.59 194.855 1222.63 193.835 1216.18 195.075C1201.28 197.955 1190.48 210.495 1185.04 224.025C1181.97 231.655 1180.1 239.865 1179.09 248.015V248.005Z" fill="#81C7DB"/>
<path d="M1177.53 243.875C1176.82 248.215 1176.21 252.655 1176.8 257.055C1177.32 260.985 1178.87 264.705 1181.82 267.435C1184.51 269.935 1186.65 270.405 1195.97 270.395C1212.2 270.385 1228.66 263.245 1239.5 250.695C1244.56 244.835 1248.34 237.785 1249.97 230.185C1251.66 222.295 1251.09 213.555 1247.16 206.385C1243.71 200.105 1237.57 195.745 1230.77 193.735C1223.78 191.665 1216.28 192.105 1209.52 194.785C1202.43 197.605 1196.29 202.485 1191.55 208.435C1186.26 215.075 1182.73 222.915 1180.38 231.035C1179.16 235.255 1178.26 239.555 1177.55 243.895L1177.53 243.875ZM1179.75 260.355C1178.42 256.385 1178.58 252.115 1179.09 248.015C1180.1 239.865 1181.97 231.655 1185.04 224.025C1190.48 210.495 1201.28 197.955 1216.18 195.075C1222.62 193.835 1229.59 194.855 1235.39 197.935C1238.3 199.475 1240.93 201.555 1243.02 204.105C1245.47 207.095 1247.02 210.725 1247.88 214.465C1251.22 229.085 1244.17 244.315 1233.25 253.915C1227.42 259.035 1220.36 262.665 1212.99 265.005C1209.32 266.165 1205.55 267.035 1201.74 267.605C1183.33 270.385 1180.85 263.595 1179.75 260.345V260.355Z" fill="#0F1F2C"/>
<g style="mix-blend-mode:multiply" opacity="0.4">
<path d="M1179.09 248.005C1180.1 239.855 1181.97 231.645 1185.04 224.015C1190.48 210.485 1201.28 197.945 1216.18 195.065C1220.37 194.255 1224.78 194.415 1228.94 195.465C1224.11 199.755 1219.46 204.245 1215.06 208.995C1204.89 219.985 1196.05 234.065 1191.53 248.365C1189.56 254.595 1188.33 261.955 1191.09 268.135C1182.23 267.345 1180.58 262.825 1179.75 260.345C1178.42 256.375 1178.58 252.105 1179.09 248.005Z" fill="#81C7DB"/>
</g>
<path d="M1128.12 267.485C1125.52 273.565 1116.74 273.825 1113.71 267.995C1114.53 269.205 1115.65 270.205 1116.92 270.865C1120.86 273.025 1125.96 271.375 1128.12 267.475V267.485Z" fill="#0F1F2C"/>
<path d="M1089.68 237.345C1086.72 236.305 1082.79 237.335 1081.33 240.285C1083.53 238.045 1086.62 237.305 1089.68 237.345Z" fill="#0F1F2C"/>
<path d="M1081.53 261.695C1081.81 251.045 1089.37 244.115 1100.02 247.595C1105.38 249.625 1107.89 255.705 1108.09 261.035C1107.37 255.895 1104.88 250.275 1099.73 248.345C1089.34 245.235 1082.75 251.585 1081.53 261.695Z" fill="#0F1F2C"/>
<path d="M1085.51 271.485C1082.06 271.485 1079.25 269.994 1079.25 268.155C1079.25 266.316 1082.06 264.825 1085.51 264.825C1088.97 264.825 1091.77 266.316 1091.77 268.155C1091.77 269.994 1088.97 271.485 1085.51 271.485Z" fill="#FFCBB9"/>
<path d="M1151.27 237.345C1154.23 236.305 1158.16 237.335 1159.62 240.285C1157.42 238.045 1154.33 237.305 1151.27 237.345Z" fill="#0F1F2C"/>
<path d="M1159.44 261.695C1159.16 251.045 1151.6 244.115 1140.95 247.595C1135.59 249.625 1133.08 255.705 1132.88 261.035C1133.6 255.895 1136.09 250.275 1141.24 248.345C1151.63 245.235 1158.22 251.585 1159.44 261.695Z" fill="#0F1F2C"/>
<path d="M1155.45 271.485C1152 271.485 1149.19 269.994 1149.19 268.155C1149.19 266.316 1152 264.825 1155.45 264.825C1158.91 264.825 1161.71 266.316 1161.71 268.155C1161.71 269.994 1158.91 271.485 1155.45 271.485Z" fill="#FFCBB9"/>
<path d="M1123.9 186.545C1123.13 188.665 1124.16 190.585 1125.97 191.585C1127.54 192.455 1129.56 192.575 1131.12 191.725C1131.14 191.685 1131.17 191.645 1131.2 191.605C1131.38 191.425 1131.51 191.285 1131.66 191.075C1131.92 190.685 1132.2 190.235 1132.34 189.875C1132.71 188.865 1132.84 187.995 1132.7 186.905C1132.59 186.105 1132.18 185.025 1131.64 184.395C1131.02 183.675 1130.14 183.125 1129.15 183.055C1126.97 182.885 1124.66 184.445 1123.9 186.525V186.545Z" fill="#FE7E50"/>
<path d="M1121.7 186.935C1121.19 190.005 1123.09 192.635 1125.87 193.765C1127.73 194.525 1129.94 194.555 1131.74 193.685C1132.49 194.685 1133.68 195.425 1134.55 196.305C1135.46 197.225 1136.3 198.215 1137.04 199.265C1138.56 201.415 1139.78 203.785 1140.61 206.285C1142.32 211.415 1142.33 216.755 1141.15 221.995C1140.9 223.065 1142.37 223.425 1142.76 222.445C1143.69 220.045 1144.09 217.505 1144.13 214.935C1144.2 210.495 1143.14 206.065 1141.21 202.075C1140.01 199.605 1138.45 197.335 1136.6 195.305C1136.16 194.815 1135.68 194.365 1135.21 193.915C1134.67 193.405 1134.08 192.825 1133.43 192.435C1133.43 192.425 1133.45 192.415 1133.47 192.395C1133.75 192.095 1133.79 191.745 1133.69 191.445C1133.97 191.035 1134.18 190.585 1134.35 190.145C1134.87 188.745 1134.89 187.135 1134.52 185.695C1133.8 182.865 1131.27 180.735 1128.27 181.025C1125.18 181.315 1122.24 183.805 1121.71 186.905L1121.7 186.935ZM1125.98 191.595C1124.17 190.595 1123.14 188.665 1123.91 186.555C1124.67 184.475 1126.98 182.915 1129.16 183.085C1130.15 183.155 1131.03 183.705 1131.65 184.425C1132.19 185.045 1132.6 186.135 1132.71 186.935C1132.85 188.025 1132.72 188.895 1132.35 189.905C1132.21 190.265 1131.93 190.705 1131.67 191.105C1131.53 191.315 1131.39 191.455 1131.21 191.635C1131.18 191.675 1131.15 191.705 1131.13 191.755C1129.57 192.605 1127.55 192.475 1125.98 191.615V191.595Z" fill="#0F1F2C"/>
<g style="mix-blend-mode:multiply" opacity="0.4">
<path d="M1123.9 186.545C1124.1 185.985 1124.42 185.475 1124.82 185.015C1124.83 185.045 1124.84 185.065 1124.86 185.095C1126.4 188.115 1129.33 189.605 1132.43 189.625C1132.4 189.715 1132.38 189.795 1132.35 189.895C1132.21 190.245 1131.93 190.695 1131.67 191.095C1131.53 191.305 1131.39 191.445 1131.21 191.625C1131.18 191.665 1131.15 191.695 1131.13 191.745C1129.57 192.595 1127.55 192.465 1125.98 191.605C1124.17 190.605 1123.14 188.675 1123.91 186.565L1123.9 186.545Z" fill="#FE7E50"/>
</g>
<path d="M1093 182.995C1092.23 185.115 1093.26 187.035 1095.07 188.035C1096.64 188.905 1098.66 189.025 1100.22 188.175C1100.24 188.135 1100.27 188.095 1100.3 188.055C1100.48 187.875 1100.61 187.735 1100.76 187.525C1101.02 187.135 1101.3 186.685 1101.44 186.325C1101.81 185.315 1101.94 184.445 1101.8 183.355C1101.69 182.555 1101.28 181.475 1100.74 180.845C1100.12 180.125 1099.24 179.575 1098.25 179.505C1096.07 179.335 1093.76 180.895 1093 182.975V182.995Z" fill="#FE7E50"/>
<path d="M1090.79 183.385C1090.28 186.455 1092.18 189.085 1094.96 190.215C1096.82 190.975 1099.03 191.005 1100.83 190.135C1101.58 191.135 1102.77 191.875 1103.64 192.755C1104.55 193.675 1105.39 194.665 1106.13 195.715C1107.65 197.865 1108.87 200.235 1109.7 202.735C1111.41 207.865 1111.42 213.205 1110.24 218.445C1109.99 219.515 1111.46 219.875 1111.85 218.895C1112.78 216.495 1113.18 213.955 1113.22 211.385C1113.29 206.945 1112.23 202.515 1110.3 198.525C1109.1 196.055 1107.54 193.785 1105.69 191.755C1105.25 191.265 1104.77 190.815 1104.3 190.365C1103.76 189.855 1103.17 189.275 1102.52 188.885C1102.52 188.875 1102.54 188.865 1102.56 188.845C1102.84 188.545 1102.88 188.195 1102.78 187.895C1103.06 187.485 1103.27 187.035 1103.44 186.595C1103.96 185.195 1103.98 183.585 1103.61 182.145C1102.89 179.315 1100.36 177.185 1097.36 177.475C1094.27 177.765 1091.33 180.255 1090.8 183.355L1090.79 183.385ZM1095.07 188.045C1093.26 187.045 1092.23 185.115 1093 183.005C1093.76 180.925 1096.07 179.365 1098.25 179.535C1099.24 179.605 1100.12 180.155 1100.74 180.875C1101.28 181.495 1101.69 182.585 1101.8 183.385C1101.94 184.475 1101.81 185.345 1101.44 186.355C1101.3 186.715 1101.02 187.155 1100.76 187.555C1100.62 187.765 1100.48 187.905 1100.3 188.085C1100.27 188.125 1100.24 188.155 1100.22 188.205C1098.66 189.055 1096.64 188.925 1095.07 188.065V188.045Z" fill="#0F1F2C"/>
<g style="mix-blend-mode:multiply" opacity="0.4">
<path d="M1093 182.995C1093.2 182.435 1093.52 181.925 1093.92 181.465C1093.93 181.495 1093.94 181.515 1093.96 181.545C1095.5 184.565 1098.43 186.055 1101.53 186.075C1101.5 186.165 1101.48 186.245 1101.45 186.345C1101.31 186.695 1101.03 187.145 1100.77 187.545C1100.63 187.755 1100.49 187.895 1100.31 188.075C1100.28 188.115 1100.25 188.145 1100.23 188.195C1098.67 189.045 1096.65 188.915 1095.08 188.055C1093.27 187.055 1092.24 185.125 1093.01 183.015L1093 182.995Z" fill="#FE7E50"/>
</g>
<path d="M1105.37 358.985C1104.99 359.155 1104.83 359.675 1104.94 360.055C1105.06 360.475 1105.43 360.715 1105.85 360.745C1107.41 360.875 1108.98 360.715 1110.49 360.315C1110.29 360.675 1110.08 361.025 1109.89 361.385C1109.67 361.795 1109.46 362.185 1109.26 362.605C1109.06 362.995 1108.96 363.405 1108.75 363.805C1108.38 364.525 1109.39 365.105 1109.84 364.435C1109.95 364.265 1110.06 364.105 1110.17 363.935C1110.71 363.435 1111.08 362.745 1111.47 362.135C1111.77 361.675 1112.05 361.195 1112.33 360.725C1119.85 361.445 1127.93 359.805 1134.68 357.215C1136.07 356.675 1137.43 356.045 1138.75 355.355C1141.6 353.865 1144.56 352.185 1146.71 349.765C1147.05 349.385 1146.62 348.855 1146.17 349.065C1143.43 350.375 1140.89 352.075 1138.13 353.395C1135.46 354.675 1132.72 355.755 1129.88 356.595C1127.06 357.435 1124.15 358.035 1121.23 358.375C1118.18 358.715 1115.17 358.675 1112.11 358.575C1112.05 358.575 1112 358.575 1111.94 358.585C1111.87 358.555 1111.81 358.545 1111.74 358.515C1111.68 358.445 1111.62 358.385 1111.54 358.335C1109.96 357.305 1108.41 356.215 1106.79 355.255C1106.39 355.015 1105.78 355.085 1105.49 355.455C1105.1 355.965 1105.29 356.585 1105.76 356.915C1106.43 357.375 1107.11 357.825 1107.8 358.265C1106.97 358.395 1106.15 358.645 1105.39 359.005L1105.37 358.985Z" fill="#0F1F2C"/>
</g>
<rect width="1443" height="124" transform="matrix(-1 0 0 1 1447 781)" fill="#FFDD00"/>
<rect width="1443" height="44" transform="matrix(-1 0 0 1 1447 781)" fill="#FFDD00" style="mix-blend-mode:multiply"/>
<path d="M496.253 749.181C501.411 749.181 506.313 745.19 507.89 739.599C508.146 738.703 508.316 737.785 508.401 736.846C514.433 737.999 520.38 739.578 526.177 741.562C527.285 741.946 528.5 741.349 528.884 740.239C529.267 739.13 528.67 737.913 527.562 737.529C521.275 735.374 514.817 733.688 508.295 732.493C507.954 729.911 507.101 727.201 505.759 724.448C500.43 713.458 490.349 706.011 481.44 699.417C480.481 698.713 479.159 698.926 478.456 699.865C477.753 700.804 477.966 702.148 478.904 702.853C487.408 709.148 497.063 716.275 501.922 726.305C502.668 727.82 503.414 729.719 503.84 731.746C503.18 731.661 502.54 731.554 501.88 731.469C494.846 730.551 490.157 731.981 487.855 735.715C486.427 738.063 486.385 740.986 487.77 743.718C489.305 746.748 492.31 748.882 495.422 749.138C495.699 749.159 495.976 749.181 496.253 749.181ZM504.181 736.121C504.117 736.889 503.99 737.679 503.776 738.447C502.839 741.797 499.535 745.147 495.784 744.891C494.143 744.742 492.459 743.504 491.585 741.797C491.244 741.136 490.583 739.45 491.5 737.956C492.821 735.779 496.146 735.032 501.325 735.715C502.284 735.843 503.222 735.971 504.181 736.121Z" fill="white" fill-opacity="0.2"/>
<path d="M83.864 352.96C84.7805 352.96 85.633 352.362 85.9101 351.424C86.2511 350.293 85.5904 349.098 84.4608 348.777C82.3721 348.159 80.4752 347.582 78.7488 346.878C82.5426 343.805 84.61 339.068 83.928 334.715C83.5017 331.941 81.7753 329.294 79.3456 327.651C77.129 326.158 74.614 325.667 72.2269 326.222C67.6871 327.31 64.4262 332.325 64.959 337.425C65.3 340.668 67.0051 343.827 69.7332 346.345C68.1134 346.665 66.3657 346.814 64.4049 346.793C54.6646 346.665 45.0736 342.162 38.7435 334.757C37.9762 333.861 36.6334 333.754 35.7383 334.523C34.8431 335.291 34.7365 336.635 35.5038 337.532C42.6225 345.854 53.4071 350.911 64.3409 351.061C68.0921 351.103 71.3743 350.57 74.209 349.46C77.2569 351.082 80.5178 352.042 83.2672 352.853C83.4591 352.917 83.6722 352.939 83.864 352.939V352.96ZM74.1451 330.276C75.0829 330.276 76.0633 330.596 76.9585 331.194C78.4078 332.175 79.4735 333.776 79.7079 335.376C80.1981 338.492 78.4291 342.013 75.3173 344.125C75.0403 344.317 74.7419 344.488 74.4435 344.659C71.417 342.61 69.4988 339.815 69.2004 336.977C68.9233 334.331 70.4579 331.044 73.2073 330.383C73.5057 330.319 73.8254 330.276 74.1451 330.276Z" fill="white" fill-opacity="0.2"/>
<path d="M1269.76 721.388C1269.82 722.62 1269.81 723.861 1270.95 724.315C1281.6 728.551 1313.05 742.801 1313.05 742.801C1314.19 743.28 1315.87 742.837 1315.97 741.605C1319.11 703.568 1343.01 670.819 1343.01 670.819C1343.49 669.681 1342.95 668.372 1341.82 667.892L1295.39 648.328C1294.26 647.851 1292.95 648.385 1292.48 649.524C1292.48 649.524 1268.24 689.113 1269.76 721.387L1269.76 721.388Z" fill="#E9EBDE"/>
<path d="M1309.49 682.682L1310.23 680.902L1324.72 687.038C1324.43 687.603 1324.14 688.179 1323.85 688.767L1309.49 682.685L1309.49 682.682Z" fill="#A6A89A"/>
<path d="M1321.68 670.032L1299.33 660.638L1300.07 658.856L1322.72 668.375C1322.39 668.888 1322.04 669.441 1321.68 670.032Z" fill="#A6A89A"/>
<path d="M1292.98 663.895L1293.72 662.112L1324.33 674.804C1324.01 675.346 1323.68 675.906 1323.35 676.488L1292.98 663.895Z" fill="#A6A89A"/>
<path d="M1290.52 668.67L1291.26 666.887L1327.27 682.192C1326.97 682.746 1326.66 683.315 1326.35 683.897L1290.52 668.667L1290.52 668.67Z" fill="#A6A89A"/>
<path d="M1278.1 713.128L1278.84 711.345L1305.44 722.493C1305.3 723.133 1305.17 723.775 1305.05 724.421L1278.1 713.126L1278.1 713.128Z" fill="#A6A89A"/>
<path d="M1287.26 685.076L1288 683.295L1314.58 694.149C1314.33 694.733 1314.08 695.326 1313.83 695.924L1287.26 685.076Z" fill="#A6A89A"/>
<path d="M1287.21 720.585L1310.05 730.115C1309.94 730.767 1309.84 731.422 1309.75 732.08L1286.68 722.463L1287.21 720.587L1287.21 720.585Z" fill="#A6A89A"/>
<path d="M1278.72 700.743L1279.46 698.963L1314 713.369C1313.81 713.985 1313.62 714.605 1313.44 715.228L1278.72 700.743Z" fill="#A6A89A"/>
<path d="M1282.04 689.392L1282.78 687.609L1317.87 702.253C1317.64 702.85 1317.41 703.448 1317.18 704.055L1282.04 689.392Z" fill="#A6A89A"/>
<path d="M1280.32 695.204L1281.06 693.422L1315.74 708.025C1315.53 708.631 1315.32 709.241 1315.12 709.855L1280.32 695.204Z" fill="#A6A89A"/>
<path d="M371.445 842.35C371.445 858.997 317.794 862 251.617 862C185.439 862 131.788 858.997 131.788 842.35C131.788 825.703 182.069 823.961 248.247 823.961C314.425 823.961 371.445 825.703 371.445 842.35Z" fill="#FFBF00"/>
<path d="M295.112 697.712C313.401 697.62 374.741 723.136 345.154 748.305C330.539 743.11 277.264 697.801 295.112 697.712Z" fill="#C4A793"/>
<path d="M230.068 736.327C230.068 736.327 219.511 714.532 210.924 723.777C195.749 701.323 177.268 715.852 185.185 727.078C156.146 727.738 154.165 764.064 173.965 757.461C156.146 779.915 180.567 789.163 191.787 773.312C190.465 791.142 214.886 782.557 214.886 782.557L230.068 736.327Z" fill="#9F7E69"/>
<path d="M304.733 806.591C311.516 810.294 327.169 814.226 337.112 828.113C344.049 837.803 335.952 842.925 332.328 841.149C333.871 845.235 326.01 850.327 317.452 845.467C314.447 852.641 298.786 847.851 286.922 838.754C276.052 830.423 269.192 818.622 271.655 807.513C274.123 796.404 304.73 806.588 304.73 806.588L304.733 806.591Z" fill="#C4A793"/>
<path d="M313.401 810.497C309.929 808.964 306.884 807.767 304.733 806.591C304.733 806.591 274.126 796.407 271.659 807.516C270.716 811.765 271.147 816.112 272.635 820.331C279.09 821.779 282.765 819.819 282.857 816.496C289.886 821.967 311.619 824.58 313.405 810.497H313.401Z" fill="#9F7E69"/>
<path d="M286.278 833.404C298.138 842.498 313.799 847.288 316.808 840.117C325.361 844.977 333.227 839.885 331.684 835.799C333.853 836.86 339.998 836.989 339.255 832.078C342.841 839.874 335.576 845.95 332.332 844.362C333.875 848.448 326.013 853.54 317.456 848.68C314.447 855.854 298.79 851.064 286.926 841.967C277.256 834.557 270.779 822.262 271.195 812.291C273.066 820.077 278.689 827.586 286.278 833.404Z" fill="#FFECDA"/>
<path d="M209.307 810C202.524 813.703 186.871 817.634 176.929 831.521C169.992 841.212 178.089 846.333 181.712 844.557C180.169 848.643 188.031 853.735 196.589 848.876C199.593 856.049 215.254 851.259 227.118 842.162C237.988 833.831 244.849 822.03 242.385 810.921C239.918 799.812 209.311 809.996 209.311 809.996L209.307 810Z" fill="#C4A793"/>
<path d="M209.307 810C207.289 811.101 204.479 812.229 201.276 813.625C202.06 814.329 208.165 833.117 242.451 819.86C243.014 816.886 243.037 813.88 242.381 810.925C239.914 799.816 209.307 810 209.307 810Z" fill="#9F7E69"/>
<path d="M227.763 836.809C215.902 845.902 200.241 850.692 197.233 843.522C188.679 848.382 180.814 843.29 182.357 839.204C180.188 840.265 174.042 840.394 174.786 835.482C171.199 843.279 178.465 849.355 181.709 847.766C180.166 851.853 188.027 856.945 196.585 852.085C199.593 859.259 215.254 854.469 227.115 845.372C236.784 837.962 243.261 825.666 242.845 815.696C240.975 823.482 235.352 830.991 227.763 836.809Z" fill="#FFECDA"/>
<path d="M240.761 688.733C228.293 698.239 215.32 713.261 215.784 744.735C188.031 760.936 185.987 799.237 203.758 810.921C219.945 821.566 238.909 816.938 250.015 812.774C256.952 818.327 276.844 816.938 282.853 811.849C291.179 818.33 310.356 811.053 317.544 801.665C328.182 787.782 327.718 750.288 299.041 741.96C305.054 715.579 296.249 695.446 276.376 685.03C266.662 679.938 250.475 681.327 240.761 688.733Z" fill="#C4A793"/>
<path d="M322.092 769.528C334.354 780.173 334.169 792.129 327.004 785.696C332.063 796.186 327.298 796.197 324.294 793.681C324.905 803.231 318.361 799.793 318.77 794.698C319.311 787.944 322.088 769.532 322.088 769.532L322.092 769.528Z" fill="#C4A793"/>
<path d="M194.74 777.94C182.478 788.585 182.662 800.541 189.828 794.108C184.769 804.598 189.533 804.609 192.538 802.093C191.927 811.643 198.47 808.205 198.062 803.11C197.52 796.356 194.744 777.944 194.744 777.944L194.74 777.94Z" fill="#C4A793"/>
<path d="M287.942 691.511C302.285 698.453 303.975 705.244 300.278 708.022C305.518 711.57 305.054 718.825 301.357 719.595C303.669 727.462 303.669 737.797 301.357 742.425C310.607 758.161 313.843 793.338 282.853 811.853C272.215 819.259 257.873 818.334 250.015 812.778C254.176 803.983 263.426 764.639 252.327 746.592C249.091 741.039 255.104 731.78 255.104 731.78C255.104 731.78 245.39 732.705 251.403 719.746C243.074 722.524 244.002 712.34 251.403 708.637C241.689 706.323 251.403 694.289 251.403 694.289L287.946 691.511H287.942Z" fill="#FFECDA"/>
<path d="M287.942 691.511L251.399 694.289C251.399 694.289 244.263 703.136 248.358 707.115C293.447 714.157 298.588 703.221 298.588 698.508C296.352 696.301 292.906 693.914 287.938 691.511H287.942Z" fill="#F2DAC2"/>
<path d="M242.543 563.974C237.429 552.809 220.494 527.025 186.334 514.446C156.861 503.591 134.789 522.334 121.478 532.242C107.301 542.795 93.3635 548.498 95.7496 555.529C98.1358 562.559 116.289 575.856 149.294 571.884C177.625 568.476 213.814 556.73 224.198 575.271C233.927 572.327 242.54 563.97 242.54 563.97L242.543 563.974Z" fill="#C4A793"/>
<path d="M115.822 555.278C129.498 548.701 136.973 530.245 167.3 531.52C197.623 532.802 217.39 551.295 227.726 560.447C207.293 552.43 193.032 551.605 165.278 558.255C145.092 563.093 130.289 561.7 115.822 555.278Z" fill="#341003"/>
<path d="M155.215 537.975C176.671 535.308 202.362 546.1 197.299 553.823C207.669 553.963 216.823 556.17 227.726 560.448C217.39 551.295 197.623 532.802 167.3 531.52C136.973 530.241 129.498 548.701 115.822 555.278C117.644 556.089 119.478 556.815 121.323 557.467C133.313 550.672 144.068 539.364 155.218 537.979L155.215 537.975Z" fill="#E8784F"/>
<path d="M232.104 517.029C232.104 517.029 237.502 543.896 250.954 555.171C256.444 537.787 259.585 519.394 259.585 519.394L232.104 517.029Z" fill="#341003"/>
<path d="M240.875 517.784L232.101 517.029C232.101 517.029 237.499 543.896 250.95 555.171C253.425 547.33 255.42 539.294 256.871 532.824C250.457 540.481 244.591 528.69 240.875 517.788V517.784Z" fill="#E8784F"/>
<path d="M266.515 529.681L256.249 526.391C256.249 526.391 252.751 544.18 250.795 550.846C246.914 547.268 238.489 538.908 236.773 523.65C242.079 519.634 249.934 510.938 252.055 506.163C245.596 502.795 237.186 501.959 228.886 506.933C210.957 517.677 245.044 561.041 245.044 561.041L259.162 561.159C259.162 561.159 259.327 559.206 259.607 556.162L266.511 529.678L266.515 529.681Z" fill="#9F7E69"/>
<path d="M206.487 576.722C180.376 595.981 174.23 637.367 197.958 670.288C221.691 703.21 286.031 686.113 286.031 686.113C286.031 686.113 337.366 659.146 325.855 614.972C314.304 570.639 275.662 551.299 246.303 558.498C225.712 563.55 218.314 567.997 206.487 576.726V576.722Z" fill="#C4A793"/>
<path d="M214.683 649.327C212.618 631.077 218.848 604.555 237.469 594.408C250.968 587.05 263.021 597.511 271.357 632.776C279.48 628.789 286.793 625.289 286.793 625.289C286.793 625.289 266.265 595.805 270.709 586.343C275.68 575.761 310.846 580.679 321.605 612.813C279.193 649.566 251.326 658.405 251.326 658.405L214.687 649.327H214.683Z" fill="white"/>
<path d="M273.74 558.598C265.307 557.953 260.248 558.9 260.248 558.9C260.248 558.9 271.033 560.407 271.379 575.127C268.746 569.64 253.045 565.823 253.045 565.823C253.045 565.823 254.481 576.888 250.968 586.549C248.177 579.574 239.922 571.066 239.922 571.066C239.922 571.066 237.72 582.489 233.938 588.476C230.628 578.933 228.882 572.315 228.882 572.315C229.781 573.093 220.755 582.26 216.315 583.325C218.277 579.906 220.807 574.187 220.037 570.702C217.099 570.451 208.633 574.92 206.487 576.722C207.772 568.119 222.088 552.216 238.585 558.929C244.197 549.062 267.174 548.646 273.74 558.602V558.598Z" fill="#FFECDA"/>
<path d="M279.62 572.367C277.764 576.59 287.795 572.813 296.758 580.554C294.486 571.715 281.668 567.699 279.62 572.367Z" fill="#252F37"/>
<path d="M308.556 595.875C308.357 595.853 308.176 595.709 308.139 595.514C308.095 595.274 308.22 595.049 308.46 594.998C309.572 594.832 312.186 594.032 314.322 589.854C314.436 589.633 314.705 589.545 314.926 589.659C315.147 589.773 315.235 590.042 315.121 590.267C312.794 594.817 309.841 595.705 308.677 595.875C308.637 595.882 308.592 595.882 308.552 595.875H308.556Z" fill="#252F37"/>
<path d="M311.671 598.708C311.494 598.686 311.358 598.546 311.317 598.347C311.266 598.104 311.465 597.861 311.708 597.809C311.811 597.791 311.899 597.798 312.072 597.827C314.687 598.233 316.774 597.006 318.221 594.187C318.336 593.966 318.608 593.881 318.825 593.992C319.046 594.106 319.135 594.379 319.021 594.6C317.894 596.799 315.747 599.309 311.936 598.719L311.803 598.701C311.755 598.712 311.711 598.712 311.671 598.708Z" fill="#252F37"/>
<path d="M314.882 603.137C314.466 603.089 314.031 603.004 313.567 602.872C313.501 602.853 313.446 602.838 313.409 602.827C313.188 602.835 313.029 602.676 312.985 602.474C312.93 602.231 313.085 601.991 313.328 601.939C313.468 601.91 313.574 601.939 313.81 602.006C314.863 602.308 318.059 603.222 320.177 599.077C320.291 598.855 320.563 598.771 320.781 598.881C321.002 598.995 321.09 599.264 320.976 599.489C319.982 601.435 318.144 603.516 314.874 603.141L314.882 603.137Z" fill="#252F37"/>
<path d="M283.008 613.885C284.967 622.013 293.896 626.858 302.958 624.67C312.024 622.488 317.794 614.11 315.821 605.967C313.865 597.831 304.925 593.004 295.866 595.189C286.808 597.371 281.045 605.735 283.008 613.881V613.885Z" fill="white"/>
<path d="M283.03 610.303C283.284 615.9 288.395 620.219 294.445 619.931C300.488 619.647 305.19 614.88 304.925 609.283C304.667 603.686 299.552 599.382 293.51 599.666C287.46 599.942 282.765 604.703 283.03 610.303Z" fill="#C4A793"/>
<path d="M286.407 611.969C286.591 615.93 290.21 618.977 294.482 618.778C298.757 618.579 302.078 615.208 301.894 611.25C301.71 607.297 298.091 604.242 293.815 604.445C289.537 604.644 286.226 608.019 286.407 611.973V611.969Z" fill="black"/>
<path d="M286.403 609.765C286.473 611.376 287.946 612.614 289.684 612.529C291.426 612.448 292.773 611.085 292.7 609.467C292.622 607.864 291.157 606.619 289.411 606.7C287.681 606.781 286.322 608.148 286.403 609.762V609.765Z" fill="white"/>
<path d="M299.331 613.321C299.376 614.165 300.142 614.806 301.044 614.765C301.95 614.725 302.66 614.006 302.62 613.174C302.583 612.323 301.821 611.681 300.907 611.726C299.998 611.766 299.298 612.474 299.331 613.321Z" fill="white"/>
<path d="M222.854 593.277C226.861 595.716 216.281 598.41 213.306 610.108C210.055 601.398 218.425 590.576 222.854 593.277Z" fill="#252F37"/>
<path d="M227.98 620.101C226.459 620.274 224.044 620.016 220.719 618.093C220.501 617.967 220.428 617.695 220.553 617.477C220.678 617.264 220.954 617.19 221.168 617.311C225.631 619.891 228.205 619.286 229.107 618.907L229.335 619.301L229.493 619.725C229.166 619.861 228.665 620.023 227.984 620.101H227.98Z" fill="#252F37"/>
<path d="M225.329 625.731C223.193 625.974 221.208 625.215 219.706 624.345C219.492 624.22 219.419 623.944 219.544 623.73C219.669 623.513 219.945 623.443 220.159 623.564C222.25 624.78 225.384 625.76 228.415 623.546C228.543 623.45 228.606 623.402 228.691 623.373C228.926 623.288 229.184 623.406 229.269 623.642C229.354 623.874 229.236 624.132 229 624.22L228.945 624.272C227.73 625.16 226.503 625.598 225.329 625.731Z" fill="#252F37"/>
<path d="M224.846 631.578C223.005 631.784 221.3 631.151 219.971 630.381C219.758 630.255 219.684 629.979 219.809 629.765C219.934 629.552 220.21 629.478 220.424 629.599C223.407 631.331 226.109 631.055 228.459 628.774C228.613 628.623 228.683 628.557 228.794 628.513C229.029 628.413 229.287 628.531 229.379 628.759C229.471 628.988 229.365 629.249 229.136 629.345C229.177 629.323 229.14 629.367 229.085 629.423C227.663 630.804 226.216 631.423 224.846 631.578Z" fill="#252F37"/>
<path d="M231.077 633.439C235.153 641.611 245.85 644.563 254.956 640.012C264.066 635.465 268.143 625.134 264.052 616.95C259.975 608.774 249.282 605.83 240.176 610.381C231.066 614.928 226.993 625.248 231.077 633.439Z" fill="white"/>
<path d="M232.31 631.67C235.028 637.12 242.021 639.157 247.905 636.217C253.8 633.266 256.367 626.457 253.649 621.011C250.924 615.543 243.946 613.513 238.044 616.457C232.159 619.404 229.589 626.213 232.314 631.67H232.31Z" fill="#C4A793"/>
<path d="M235.411 631.987C237.337 635.852 242.275 637.285 246.439 635.211C250.608 633.133 252.423 628.314 250.497 624.452C248.571 620.605 243.633 619.161 239.469 621.247C235.308 623.325 233.489 628.137 235.411 631.983V631.987Z" fill="black"/>
<path d="M234.523 628.951C235.3 630.524 237.311 631.11 239.005 630.259C240.699 629.412 241.439 627.455 240.658 625.885C239.87 624.316 237.86 623.734 236.166 624.577C234.476 625.429 233.735 627.378 234.523 628.947V628.951Z" fill="white"/>
<path d="M248.255 631.81C248.66 632.625 249.709 632.923 250.589 632.485C251.477 632.042 251.86 631.022 251.458 630.204C251.046 629.378 249.993 629.08 249.109 629.518C248.229 629.961 247.846 630.981 248.258 631.81H248.255Z" fill="white"/>
<path d="M263.16 634.879C255.166 635.366 229.435 638.619 204.708 651.537C179.356 664.78 180.777 682.455 190.859 678.066C177.264 692.978 195.823 694.54 198.794 689.301C203.994 700.45 250.641 705.933 281.185 696.555C287.29 700.94 298.054 698.435 299.733 690.424C327.67 674.312 336.213 649.102 337.623 641.254C348.512 642.197 345.662 628.314 336.312 625.031C348.983 616.346 320.313 603.443 296.971 622.131C281.263 613.211 263.16 634.876 263.16 634.876V634.879Z" fill="#FFECDA"/>
<path d="M339.236 626.534C338.868 626.28 338.485 626.04 338.087 625.823C338.492 626.044 338.875 626.28 339.236 626.534Z" fill="#E4E5E6"/>
<path d="M336.312 625.034C336.839 625.219 337.329 625.44 337.8 625.675C337.321 625.432 336.828 625.215 336.312 625.034Z" fill="#E4E5E6"/>
<path d="M225.447 652.179C226.294 656.139 232.119 658.232 238.456 656.88C244.801 655.52 249.256 651.213 248.409 647.256C247.562 643.302 241.737 641.202 235.396 642.565C229.055 643.921 224.596 648.229 225.447 652.179Z" fill="#FAB8A8"/>
<path d="M310.986 626.854C311.755 630.557 317.187 632.547 323.112 631.324C329.044 630.09 333.227 626.092 332.457 622.392C331.688 618.697 326.264 616.7 320.331 617.934C314.407 619.168 310.216 623.163 310.986 626.854Z" fill="#FAB8A8"/>
<path d="M255.465 653.686C265.985 657.558 284.786 656.449 285.427 641.283C296.978 653.538 308.869 643.476 311.321 634.518C311.638 643.472 308.051 652.116 307.871 662.831C307.69 673.545 306.939 677.628 296.128 681.732C285.317 685.837 279.911 682.742 274.005 673.339C268.098 663.936 255.468 653.689 255.468 653.689L255.465 653.686Z" fill="#3F000D"/>
<path d="M311.317 634.518C309.288 641.943 300.83 650.126 291.308 645.638C292.618 655.852 295.483 672.687 295.108 676.305C297 677.462 298.731 678.663 300.329 679.853C307.123 676.242 307.712 671.931 307.867 662.831C308.047 652.116 311.634 643.476 311.317 634.518Z" fill="#721011"/>
<path d="M285.423 641.283C285.022 648.892 279.926 652.967 273.64 654.621C275.684 658.818 278.306 663.446 279.639 664.4C281.576 665.789 289.087 662.724 289.71 660.834C292.372 662.831 300.197 660.642 300.731 657.422C300.985 655.87 300.911 650.804 300.668 646.154C296.139 647.687 290.73 646.81 285.427 641.283H285.423Z" fill="white"/>
<path d="M285.309 642.532C286.436 645.893 289.577 655.778 289.29 660.727C289.275 660.981 289.47 661.198 289.724 661.217C289.787 661.217 289.846 661.209 289.901 661.191C290.071 661.132 290.199 660.974 290.21 660.782C290.52 655.443 287.132 645.016 286.083 641.935C285.862 641.722 285.644 641.515 285.423 641.287C285.401 641.714 285.361 642.127 285.309 642.532Z" fill="#B5B5B6"/>
<path d="M275.021 674.901C280.552 683.07 285.939 685.601 296.124 681.732C303.746 678.84 306.361 675.944 307.307 670.738C307.186 665.694 294.379 665.458 292.228 672.838C285.858 665.974 274.668 671.747 275.021 674.898V674.901Z" fill="#F8A587"/>
<path d="M251.366 504.25C256.897 492.887 270.091 490.868 283.586 498.701C297.078 506.531 310.463 531.457 317.875 543.034C325.288 554.611 340.23 563.624 329.43 569.873C318.634 576.125 286.672 567.596 273.033 550.245C259.397 532.898 228.278 507.375 223.712 518.329C223.712 518.329 219.179 495.82 251.366 504.25Z" fill="#C4A793"/>
<path d="M251.366 504.25C268.805 510.363 283.435 527.098 288.093 532.843C283.35 523.9 269.671 506.837 252.872 501.668C252.324 502.467 251.819 503.326 251.366 504.25Z" fill="#9F7E69"/>
<path opacity="0.3" d="M197.549 651.517C181.785 635.743 181.785 610.17 197.549 594.396C213.312 578.623 238.87 578.623 254.634 594.396C270.397 610.17 270.397 635.743 254.634 651.517C238.87 667.29 213.312 667.29 197.549 651.517Z" fill="white"/>
<path opacity="0.3" d="M283.429 619.718C267.665 603.945 267.665 578.371 283.429 562.598C299.192 546.825 324.75 546.825 340.513 562.598C356.277 578.371 356.277 603.945 340.513 619.718C324.75 635.492 299.192 635.492 283.429 619.718Z" fill="white"/>
<path d="M350.114 572.002C339.225 551.048 313.331 542.868 292.39 553.764C282.246 559.04 274.763 567.957 271.32 578.867C269.343 585.13 268.82 591.549 269.763 597.953L262.527 600.484C257.151 591.737 248.807 585.223 238.979 582.116C228.079 578.671 216.488 579.681 206.343 584.957C196.198 590.234 188.716 599.15 185.273 610.06C181.83 620.97 182.839 632.569 188.112 642.717C193.385 652.868 202.296 660.355 213.199 663.8C220.472 666.099 228.227 666.416 235.624 664.721C238.338 664.098 241.008 663.203 243.552 662.061C244.318 661.718 245.088 661.346 245.835 660.955C255.844 655.749 263.278 646.954 266.773 636.191C270.131 625.849 269.476 614.788 264.935 604.979L270.798 602.927C271.604 605.886 272.731 608.774 274.159 611.519C279.432 621.67 288.344 629.157 299.247 632.602C309.266 635.767 320.048 635.152 329.603 630.863C330.369 630.521 331.139 630.148 331.886 629.758C342.031 624.482 349.513 615.565 352.956 604.655C356.399 593.745 355.39 582.146 350.117 571.999L350.114 572.002ZM345.643 574.327C355.25 592.813 348.033 615.675 329.559 625.285C328.907 625.624 328.237 625.948 327.567 626.25C325.303 627.267 322.938 628.059 320.541 628.608C320.541 628.608 320.541 628.608 320.538 628.608C303.798 632.44 286.565 624.456 278.63 609.191C276.991 606.04 275.805 602.695 275.109 599.279C275.098 599.209 275.084 599.143 275.073 599.088C273.846 592.916 274.207 586.449 276.122 580.377C279.16 570.753 285.762 562.887 294.71 558.229C295.366 557.89 296.036 557.562 296.702 557.264C299.004 556.232 301.357 555.448 303.732 554.906C320.158 551.144 337.583 558.823 345.64 574.324L345.643 574.327ZM262.085 634.33C259.044 643.966 252.449 651.832 243.516 656.482C242.849 656.828 242.172 657.156 241.501 657.459C233.076 661.243 223.565 661.784 214.724 658.991C205.106 655.952 197.244 649.345 192.59 640.392C187.943 631.453 187.059 621.221 190.101 611.586C193.142 601.95 199.737 594.084 208.67 589.434C209.333 589.088 210.011 588.76 210.684 588.458C212.949 587.441 215.291 586.66 217.677 586.111C224.173 584.622 230.996 584.88 237.462 586.925C247.08 589.965 254.942 596.571 259.596 605.525C264.243 614.467 265.127 624.695 262.085 634.33Z" fill="#3B3029"/>
<path d="M174.355 670.273C173.91 670.377 173.431 670.343 172.978 670.156C168.99 668.501 164.221 662.248 163.146 654.644C162.163 647.702 164.66 641.453 170.172 637.05C176.634 631.884 184.389 628.675 184.393 628.675L187.236 632.227C187.236 632.227 179.473 635.44 173.011 640.605C167.62 644.913 167.119 650.27 167.65 654.006C168.489 659.938 172.334 664.96 174.72 665.951C175.88 666.434 176.432 667.764 175.95 668.925C175.655 669.632 175.047 670.115 174.355 670.273Z" fill="#3B3029"/>
<path d="M269.218 622.499C273.092 614.15 292.508 610.241 296.132 617.194C299.004 622.702 292.895 632.223 286.488 633.921C277.654 636.265 265.896 629.669 269.214 622.499H269.218Z" fill="#341003"/>
<path d="M227.755 701.648C201.28 706.283 158.135 752.565 199.159 769.094C212.426 761.054 245.335 698.567 227.755 701.648Z" fill="#C4A793"/>
<path d="M300.41 713.221C307.9 709.503 353.719 691.67 359.853 688.085C361.514 690.185 366.724 694.695 367.87 696.279C362.11 700.133 302.546 726.235 302.546 726.235C302.546 726.235 302.148 724.975 300.41 713.221Z" fill="#EFE5CA"/>
<path d="M300.41 713.221C288.664 712.646 239.384 707.237 211.008 705.608C210.95 715.538 211.653 719.499 211.999 723.018C212.087 723.899 303.345 727.458 303.345 727.458C303.345 727.458 301.972 721.529 300.407 713.221H300.41Z" fill="#FFF7DF"/>
<path d="M208.107 714.477C208.398 723.729 208.67 794.613 210.648 794.97C214.602 795.681 265.134 802.911 286.694 803.585C293.451 798.297 305.573 785.556 316.988 775.527C324.198 765.694 342.079 739.021 370.631 695.509L302.833 725.107L208.107 714.474V714.477Z" fill="#FFC700"/>
<path d="M336.695 774.503C341.037 766.021 370.631 695.509 370.631 695.509L302.682 727.764C299.792 743.482 291.694 779.646 286.694 803.585C289.235 801.912 334.144 776.581 336.695 774.503Z" fill="#FF9900"/>
<path d="M208.107 713.851C208.107 713.851 263.893 720.667 301.795 723.35C310.051 720.192 353.638 699.665 367.652 692.978C369.435 692.127 371.519 694.459 370.631 695.513C354.669 704.216 314.477 722.959 302.903 727.709C275.194 725.185 229.718 720.52 208.107 718.154C205.695 717.734 205.765 713.906 208.107 713.851Z" fill="#341003"/>
<path d="M199.159 769.097C203.821 771.651 209.65 774.731 217.651 776.091C220.535 776.581 223.491 775.696 223.757 774.86C224.696 771.912 220.442 770.593 218.053 769.492C224.246 769.801 229.508 767.229 229.269 765.085C228.904 761.787 220.45 761.949 216.455 760.678C226.017 760.361 231.003 755.553 228.51 753.438C226.463 751.699 222.667 752.362 218.182 752.211C216.094 752.141 212.831 751.876 210.556 750.943C211.078 747.215 211.933 738.497 208.379 738.913C204.601 739.352 202.304 744.823 200.628 748.924C200.591 748.913 200.555 748.902 200.518 748.887C195.532 755.925 197.078 767.962 199.155 769.101L199.159 769.097Z" fill="#FFECDA"/>
<path d="M354.164 735.605C349.988 737.123 340.809 735.785 340.282 740.026C339.951 742.697 347.264 744.075 349.911 744.156C349.219 746.091 338.894 745.144 338.522 749.654C338.279 752.572 346.778 753.283 346.778 753.283C346.778 753.283 340.223 754.739 339.87 757.627C339.476 760.862 346.229 759.96 349.889 758.758C360.336 755.339 363.517 748.696 363.723 742.266C363.93 735.837 359.043 727.561 357.018 728.405C354.856 729.308 354.16 735.601 354.16 735.601L354.164 735.605Z" fill="#FFECDA"/>
<g clip-path="url(#clip1_8_3)">
<path d="M498.515 100C498.515 100 498.543 100 498.572 100L567.643 97.4914C568.237 97.4772 568.746 97.0804 568.929 96.5276C569.113 95.9749 568.929 95.3513 568.477 94.9828L513.938 50.2673C513.57 49.9696 513.076 49.8704 512.637 50.0121C512.185 50.1539 511.832 50.494 511.69 50.9476L507.534 64.4969C507.35 65.0496 507.506 65.6874 507.987 66.07C508.594 66.5519 509.485 66.4669 509.966 65.8575C510.079 65.7157 510.178 65.5457 510.22 65.3756L513.768 53.7963L563.798 94.7985L500.466 97.0946L505.47 80.8099C505.696 80.0587 505.286 79.265 504.537 79.0383C503.788 78.8115 502.996 79.2225 502.77 79.9737L497.172 98.1575C497.031 98.5969 497.115 99.0788 497.398 99.4331C497.667 99.7874 498.077 99.9858 498.515 99.9858V100Z" fill="white" fill-opacity="0.5"/>
<path d="M551.57 91.1419C552.149 91.1419 552.686 90.7876 552.898 90.2207C553.139 89.5687 552.884 88.8459 552.276 88.4916L509.584 63.7315C509.047 63.4197 508.354 63.4906 507.902 63.9299L490.768 80.1721C490.33 80.5831 490.203 81.2209 490.443 81.7736C490.683 82.3264 491.249 82.6382 491.828 82.624L504.028 81.8445L551.301 91.1278C551.386 91.1419 551.485 91.1561 551.57 91.1561V91.1419ZM509.075 66.722L543.54 86.7058L504.396 79.0099C504.283 78.9816 504.141 78.9816 504.028 78.9816L495.56 79.5201L509.075 66.7078V66.722Z" fill="white" fill-opacity="0.5"/>
<path d="M502.431 87.3011C502.982 87.3011 503.491 86.9893 503.731 86.4507C504.042 85.7279 503.731 84.8917 502.996 84.5799L492.309 79.9028C491.588 79.591 490.754 79.917 490.443 80.6398C490.132 81.3626 490.443 82.1988 491.178 82.5106L501.865 87.1877C502.049 87.2727 502.247 87.3011 502.431 87.3011Z" fill="white" fill-opacity="0.5"/>
<path d="M482.795 77.6493C483.276 77.6493 483.742 77.4084 484.011 76.969C484.421 76.3029 484.209 75.4242 483.53 75.0273C481.381 73.7234 478.851 72.1644 476.391 70.5345C475.741 70.0952 474.865 70.2794 474.426 70.9314C474.002 71.5833 474.172 72.462 474.822 72.9014C477.31 74.5596 479.869 76.1328 482.046 77.4509C482.272 77.5926 482.527 77.6493 482.781 77.6493H482.795Z" fill="white" fill-opacity="0.5"/>
<path d="M461.915 61.5772C462.241 61.5772 462.566 61.4639 462.834 61.2371C463.428 60.7269 463.499 59.834 462.99 59.2387C460.219 55.9789 458.282 52.6483 457.067 49.0484C456.515 47.4043 456.119 45.6752 455.879 43.8895C455.78 43.1099 455.073 42.5714 454.296 42.6706C453.518 42.7698 452.981 43.4926 453.08 44.2579C453.334 46.2138 453.773 48.1272 454.381 49.9413C455.709 53.8955 457.816 57.5238 460.827 61.067C461.11 61.393 461.505 61.5631 461.901 61.5631L461.915 61.5772ZM490.358 36.7321C490.485 36.7321 490.613 36.718 490.754 36.6754C491.305 36.5195 491.871 36.3211 492.408 36.1085C497.808 33.9259 501.922 28.852 503.166 22.871C503.321 22.1057 502.827 21.3545 502.063 21.1986C501.3 21.0427 500.551 21.5246 500.395 22.3041C499.363 27.293 495.815 31.6866 491.348 33.4865C490.895 33.6708 490.429 33.8267 489.962 33.9684C489.213 34.181 488.775 34.9747 489.001 35.7259C489.185 36.3495 489.75 36.7463 490.358 36.7463V36.7321ZM473.408 33.0897C473.847 33.0897 474.285 32.8913 474.554 32.4944C475.006 31.8567 474.865 30.9779 474.228 30.5102C472.843 29.5181 471.585 28.3701 470.482 27.1229C468.008 24.3167 466.029 20.9152 464.446 16.7483C464.234 16.1814 463.626 15.8129 463.103 15.8271C464.078 14.2256 465.068 12.7799 466.128 11.4618C466.609 10.8524 466.51 9.95951 465.902 9.46346C465.294 8.9674 464.403 9.08079 463.909 9.69022C462.099 11.9579 460.431 14.5657 458.834 17.6554C457.406 20.3908 456.218 23.1687 455.271 25.9182C455.017 26.6552 455.413 27.463 456.148 27.7182C456.897 27.9733 457.689 27.5764 457.943 26.8394C458.834 24.2316 459.979 21.5813 461.336 18.9735C461.505 18.6333 461.689 18.2932 461.873 17.9672C463.555 22.375 465.69 25.9891 468.348 29.0079C469.592 30.411 471.005 31.7008 472.56 32.8204C472.815 33.0047 473.097 33.0897 473.38 33.0897H473.408ZM496.409 7.62097C496.776 7.62097 497.144 7.47925 497.426 7.18162C497.964 6.6147 497.95 5.7218 497.384 5.18323C496.225 4.06357 494.953 3.09982 493.595 2.32031C489.538 -0.0323963 484.492 -0.925289 479.614 -0.159952C478.851 -0.0323963 478.314 0.690422 478.441 1.45576C478.554 2.23527 479.275 2.75967 480.053 2.63211C484.294 1.96598 488.676 2.74549 492.196 4.77222C493.355 5.43835 494.444 6.27455 495.433 7.22413C495.702 7.49342 496.055 7.62097 496.409 7.62097ZM459.102 1.18647C459.102 1.18647 459.244 1.18647 459.314 1.1723C460.092 1.05892 460.615 0.3361 460.502 -0.443411L460.205 -2.48431C459.441 -7.69994 458.664 -13.0998 457.151 -18.2871C456.939 -19.0383 456.162 -19.4776 455.398 -19.2509C454.649 -19.0383 454.211 -18.2446 454.437 -17.4934C455.879 -12.5046 456.657 -7.20389 457.406 -2.0733L457.703 -0.0182247C457.802 0.69042 458.41 1.18647 459.102 1.18647Z" fill="white" fill-opacity="0.5"/>
</g>
<path d="M216.335 209.281C216.935 209.281 218.235 208.801 220.985 203.971C227.375 203.851 227.655 203.181 227.885 202.641C228.105 202.131 228.395 201.451 224.725 197.441C227.925 190.771 226.945 189.981 226.455 189.601C226.115 189.331 225.405 188.771 219.745 190.461C214.345 185.281 213.575 185.841 213.005 186.251C212.615 186.531 211.905 187.041 212.095 193.621C206.115 197.051 206.505 198.161 206.715 198.761C206.875 199.201 207.235 200.211 213.315 201.361C214.315 209.011 215.525 209.181 216.125 209.261C216.185 209.261 216.255 209.281 216.345 209.281H216.335ZM225.625 201.651C224.465 201.821 222.265 201.941 220.385 201.971C220.025 201.971 219.695 202.171 219.525 202.481C218.475 204.371 217.225 206.211 216.515 206.971C216.065 205.781 215.515 202.871 215.205 200.381C215.155 199.941 214.825 199.591 214.385 199.521C212.365 199.161 210.005 198.581 208.955 198.151C209.785 197.391 211.815 196.071 213.595 195.071C213.925 194.891 214.115 194.541 214.105 194.161C214.035 192.061 214.065 189.591 214.215 188.361C215.265 189.081 217.205 190.781 218.785 192.301C219.045 192.551 219.425 192.641 219.775 192.541C221.645 191.961 223.905 191.411 224.955 191.291C224.735 192.441 223.685 195.041 222.635 197.171C222.455 197.541 222.515 197.991 222.805 198.291C223.855 199.421 225.035 200.811 225.625 201.651Z" fill="white" fill-opacity="0.25"/>
<path d="M882.04 65.0682C884.355 64.4373 886.21 62.2071 886.025 59.6261C885.882 57.6237 885.876 48.6967 885.876 48.6967C885.876 48.6967 888.334 57.2755 888.986 59.1756C889.94 62.0014 891.888 63.2197 894.407 63.188C896.402 63.1586 905.292 63.0591 905.292 63.0591C905.291 63.057 896.783 65.6055 894.86 66.1641C891.788 67.0555 890.827 69.2588 890.875 71.6061C890.909 73.6128 891.014 82.5348 891.014 82.5348C891.014 82.5348 888.408 74 887.904 72.056C887.236 69.4465 885.031 67.9404 882.49 68.0381C880.487 68.122 871.597 68.1727 871.597 68.1749C871.597 68.1749 880.102 65.5956 882.038 65.0686L882.04 65.0682Z" fill="#FFCD03"/>
<path opacity="0.6" d="M1191.14 851.786C1139.86 851.786 1098.28 849.819 1098.28 847.393C1098.28 844.967 1139.86 843 1191.14 843C1242.43 843 1284 844.967 1284 847.393C1284 849.819 1242.43 851.786 1191.14 851.786Z" fill="#FFBF00"/>
<path d="M1299.11 787.057C1299.82 780.795 1303.78 772.088 1306.76 772.821C1309.75 773.554 1307.75 777.271 1307.75 777.271C1307.75 777.271 1313.54 768.541 1317.82 770.575C1322.55 772.816 1317.19 778.512 1317.19 778.512C1317.19 778.512 1324.78 771.286 1328.28 776.183C1331.79 781.079 1321.29 785.383 1321.29 785.383C1321.29 785.383 1328.84 783.086 1328.73 786.198C1328.53 791.899 1319.18 790.891 1319.18 790.891C1319.18 790.891 1323.44 792.528 1322.96 794.646C1322.11 798.39 1309.93 797.923 1305.37 796.549C1300.82 795.175 1298.77 790.005 1299.11 787.057Z" fill="#F2B42C"/>
<path d="M1305.45 783.129C1308.82 776.144 1312.14 775.063 1314.24 776.662C1316.33 778.262 1311.47 782.694 1311.47 782.694C1311.47 782.694 1321.54 775.58 1322.67 780.932C1323.54 785.058 1314.19 786.728 1314.19 786.728C1314.19 786.728 1319.61 786.86 1319.36 789.177C1319.11 791.494 1314.32 793.218 1308.38 790.171C1304.52 785.334 1305.45 783.13 1305.45 783.13L1305.45 783.129Z" fill="#FFD400"/>
<path d="M1280.92 783.04C1280.92 783.04 1293.08 776.657 1302.41 777.961C1310.62 779.109 1321.6 795.364 1315.63 807.853C1309.67 820.343 1293.81 824.458 1293.81 824.458L1280.92 783.04Z" fill="#F79663"/>
<path d="M1275.12 783.463C1251.29 793.616 1194.9 797.386 1126.6 769.83C1122.53 790.715 1107.42 835.965 1107.42 835.965C1107.42 835.965 1206.53 871.352 1289.07 826.102C1300.02 812.862 1287.59 782.41 1275.12 783.463Z" fill="#EF4123"/>
<path d="M1283.65 793.359C1259.82 803.511 1196.56 817.309 1128.26 789.753C1126.98 796.314 1124.55 780.377 1126.6 769.83C1194.9 797.386 1251.29 793.616 1275.12 783.463C1280.24 783.031 1285.46 793.207 1283.65 793.359Z" fill="#F26722"/>
<path d="M1276.78 795.986C1251.11 804.852 1199.13 813.602 1141.87 794.734C1216.41 816.606 1279.34 795.102 1276.78 795.986Z" fill="#F79663"/>
<path d="M1289.07 826.102C1206.53 871.352 1107.42 835.965 1107.42 835.965C1107.42 835.965 1109 831.238 1111.27 824.134C1116.51 821.166 1119.92 817.964 1120.58 814.547C1188.88 842.103 1265.69 822.446 1289.53 812.294C1293.24 812.903 1292.04 813.76 1293.24 814.257C1292.98 818.75 1291.7 822.923 1289.07 826.103L1289.07 826.102Z" fill="#D1181F"/>
<path d="M1136.81 820.196C1194.31 837.203 1254.34 824.743 1281.73 815.267C1229.88 829.488 1181.33 830.048 1136.81 820.196Z" fill="#F79663"/>
<path d="M1268.08 785.716C1276.5 784.034 1296.3 813.211 1280.95 830.557C1290.43 832.293 1300.8 824.121 1303.18 821.279C1309.98 806.285 1303.12 785.396 1289.84 778.924C1278.65 777.175 1268.07 785.714 1268.07 785.714L1268.08 785.716Z" fill="#D1DCDB"/>
<path d="M1268.08 785.716C1276.5 784.034 1296.3 813.211 1280.95 830.557C1290.43 832.293 1300.8 824.121 1303.18 821.279C1309.98 806.285 1303.12 785.396 1289.84 778.924C1278.65 777.175 1268.07 785.714 1268.07 785.714L1268.08 785.716Z" fill="#D1DCDB"/>
<path d="M1275.69 777.257C1275.67 777.258 1275.65 777.258 1275.62 777.261C1275.63 777.26 1275.64 777.258 1275.65 777.257H1275.69Z" fill="#D1DCDB"/>
<path d="M1283.69 778.9C1284.15 778.837 1284.62 778.787 1285.09 778.752C1298.42 787.302 1305.13 808.658 1298.91 825.014C1298.26 825.487 1297.55 825.963 1296.8 826.432C1303.92 809.981 1297.29 787.759 1283.69 778.9Z" fill="#979FA0"/>
<path d="M1275.21 781.457C1275.23 781.461 1275.25 781.462 1275.28 781.466C1290.25 788.759 1298.24 811.689 1291.72 829.052C1291.13 829.291 1290.53 829.513 1289.93 829.712C1296.77 812.533 1289.1 789.574 1274.38 781.849C1274.65 781.717 1274.92 781.586 1275.21 781.457H1275.21Z" fill="#979FA0"/>
<path d="M1126.6 769.83C1147.23 787.949 1130.97 838.442 1107.42 835.965C1096.96 829.435 1058.39 788.426 1060.05 778.483C1061.24 776.115 1119.24 772.728 1126.6 769.831V769.83Z" fill="#FFDA94"/>
<path d="M1086.75 774.767C1089.92 783.916 1085.31 800.594 1074.65 803.159C1065.99 792.67 1059.34 782.734 1060.05 778.482C1060.59 777.406 1072.85 776.121 1086.75 774.767Z" fill="#363737"/>
<path d="M1093.92 786.856C1091.16 786.103 1129.27 785.963 1130.54 786.714C1131.39 787.217 1100.02 788.52 1093.92 786.856Z" fill="#FBB25B"/>
<path d="M1084.65 803.757C1083.2 801.297 1110.6 827.736 1110.98 829.161C1111.24 830.112 1087.85 809.195 1084.65 803.757Z" fill="#FBB25B"/>
<path d="M1087.77 794.186C1085.22 795.3 1129.64 806.685 1131.69 805.729C1132.9 805.17 1090.28 793.095 1087.77 794.186Z" fill="#E2843F"/>
<path d="M1092.65 777.602C1091.54 779.026 1115.49 779.425 1117.56 775.69C1118.33 774.304 1095.2 774.332 1092.65 777.602Z" fill="#FFF6E4"/>
<path d="M1066.15 779.46C1064.85 781.621 1082.05 781.102 1082.85 779.07C1083.65 777.038 1066.41 779.039 1066.15 779.46Z" fill="#969495"/>
<path d="M1262.85 780.314C1265.07 784.096 1262.54 791.001 1254.5 791.181C1253.47 795.593 1244.95 801.397 1236.41 797.086C1234.83 800.64 1225.5 805.11 1217.34 799.004C1216.03 803.82 1198.76 804.441 1197.23 797.873C1194.88 801.18 1183.97 802.088 1181.45 793.28C1174.88 795.773 1166.69 790.525 1167.91 783.367C1159.74 776.543 1159.57 771.745 1164.33 766.107C1176.84 751.261 1258.56 773.012 1262.85 780.313V780.314Z" fill="#FFDF4F"/>
<path d="M1254.5 791.181C1254.04 785.048 1248.82 780.904 1248.82 780.904C1248.82 780.904 1251.04 790.493 1254.5 791.181Z" fill="#FAB617"/>
<path d="M1236.41 797.086C1237.56 792.512 1232.77 783.474 1232.77 783.474C1232.77 783.474 1234.15 796.137 1236.41 797.086Z" fill="#FAB617"/>
<path d="M1217.34 799.003C1219.56 793.534 1216.84 783.911 1216.84 783.911C1216.84 783.911 1215.08 798.053 1217.34 799.003Z" fill="#FAB617"/>
<path d="M1197.23 797.873C1199.45 792.404 1200.22 781.375 1200.22 781.375C1200.22 781.375 1194.97 796.925 1197.23 797.873Z" fill="#FAB617"/>
<path d="M1181.45 793.28C1185.65 788.328 1185.5 779.362 1185.5 779.362C1185.5 779.362 1179.19 792.33 1181.45 793.28Z" fill="#FAB617"/>
<path d="M1168.21 782.781C1172.7 778.815 1174.77 772.277 1174.77 772.277C1174.77 772.277 1165.95 781.833 1168.21 782.781Z" fill="#FAB617"/>
<path d="M1164.04 772.339C1164.04 772.339 1153.29 767.926 1163.8 751.466C1179.01 727.663 1164.32 699.171 1124.54 700.019C1075.23 701.069 1077.73 750.804 1101.46 765.778C1122.18 778.854 1133.41 772.058 1139.93 776.595C1162.02 791.974 1181.99 784.057 1181.99 784.057L1164.04 772.339Z" fill="#BFCD31"/>
<path d="M1144.31 757.153C1139.84 757.109 1136.23 755.264 1136.26 753.033C1136.28 750.801 1139.92 749.027 1144.39 749.071C1148.87 749.114 1152.47 750.959 1152.45 753.191C1152.43 755.422 1148.79 757.196 1144.31 757.153Z" fill="#F5812A"/>
<path d="M1097.27 754.516C1092.82 754.07 1089.4 751.908 1089.62 749.687C1089.84 747.466 1093.63 746.028 1098.08 746.474C1102.53 746.921 1105.96 749.083 1105.74 751.304C1105.51 753.524 1101.72 754.963 1097.27 754.516Z" fill="#F5812A"/>
<path d="M1120.07 764.059C1123.04 764.223 1125.38 764.015 1127.12 763.614C1125.79 765.096 1123.42 766.264 1119.96 766.073C1116.47 765.881 1114.49 764.534 1113.15 762.829C1114.82 763.436 1117.01 763.89 1120.07 764.057L1120.07 764.059Z" fill="#8C9A38"/>
<path d="M1120.54 748.548C1126.3 748.865 1131.46 747.833 1134.6 746.77C1134.89 746.672 1135.17 746.952 1135.07 747.241C1132.33 754.997 1127.21 761.679 1119.83 761.273C1112.46 760.868 1108.7 754.13 1106.29 745.696C1106.2 745.393 1106.51 745.127 1106.8 745.26C1109.81 746.657 1114.81 748.232 1120.54 748.548H1120.54Z" fill="#072300"/>
<path d="M1129.3 757.208C1126.73 759.862 1123.57 761.479 1119.84 761.273C1116.02 761.064 1113.17 759.158 1110.98 756.202C1113.88 754.613 1116.97 753.819 1120.24 753.999C1123.6 754.185 1126.6 755.303 1129.3 757.207L1129.3 757.208Z" fill="#F2642C"/>
<path d="M1122.73 740.645C1123.95 740.273 1125.75 744.121 1123.55 744.795C1122.44 745.135 1121.53 741.006 1122.73 740.645Z" fill="#072300"/>
<path d="M1118.73 740.387C1117.55 739.884 1115.34 743.51 1117.46 744.422C1118.52 744.881 1119.88 740.878 1118.73 740.387Z" fill="#072300"/>
<path d="M1135.65 743.347C1134.81 741.738 1139.61 733.73 1145.78 735.043C1152.45 736.466 1153.17 747.348 1151.14 747.626C1149.62 747.836 1148.79 740.523 1144.97 740.095C1140.61 739.604 1137.28 744.668 1135.65 743.347Z" fill="#072300"/>
<path d="M1091.2 740.864C1090.08 739.432 1093.35 730.69 1099.65 730.873C1106.48 731.07 1109.15 741.644 1107.21 742.284C1105.74 742.765 1103.61 735.72 1099.78 735.986C1095.4 736.29 1093.04 741.869 1091.2 740.865V740.864Z" fill="#072300"/>
<path d="M1132.64 703.704C1133.61 706.744 1130.07 708.146 1123.16 707.504C1116.25 706.862 1118.25 703.46 1122.51 702.348C1126.77 701.236 1132.14 702.144 1132.64 703.704Z" fill="#8C9A38"/>
<path d="M1136.22 712.364C1136.45 714.327 1134.64 714.848 1131.38 713.787C1128.12 712.726 1129.35 710.826 1131.47 710.554C1133.6 710.281 1136.1 711.357 1136.22 712.364Z" fill="#8C9A38"/>
<path d="M1120.78 710.464C1121.91 712.821 1119.88 714.243 1115.35 714.312C1110.82 714.38 1111.53 711.482 1114.07 710.23C1116.61 708.978 1120.2 709.254 1120.78 710.464H1120.78Z" fill="#8C9A38"/>
<path d="M1114.63 704.987C1115.78 706.788 1114.21 708.167 1110.42 708.711C1106.62 709.255 1106.97 706.812 1108.99 705.519C1111.01 704.224 1114.04 704.061 1114.63 704.987Z" fill="#8C9A38"/>
<path d="M1148.18 709.148C1148.27 712.159 1145.36 712.692 1140.38 710.616C1135.4 708.539 1137.59 705.833 1140.97 705.721C1144.35 705.61 1148.13 707.6 1148.18 709.148Z" fill="#8C9A38"/>
<path d="M1103.97 708.659C1105.01 709.631 1103.45 711.17 1099.81 712.802C1096.17 714.434 1096.58 712.499 1098.56 710.88C1100.54 709.26 1103.44 708.159 1103.97 708.66V708.659Z" fill="#8C9A38"/>
<path d="M1158.31 718.377C1157.84 719.719 1155.8 718.928 1152.82 716.273C1149.85 713.617 1151.79 713.208 1154.07 714.349C1156.36 715.491 1158.55 717.688 1158.31 718.377Z" fill="#8C9A38"/>
<path d="M1203.94 788.623C1198.97 794.869 1195.57 798.327 1197.81 806.69C1198.73 810.13 1200.81 813.202 1196.53 826.041C1192.49 838.136 1187.77 851.312 1182.18 849.335C1176.58 847.36 1163.56 828.116 1170.19 809.53C1177.35 789.478 1197.59 783.725 1197.59 783.725L1203.94 788.623Z" fill="#BFCD31"/>
<path d="M1186.11 793.06C1188.8 794.258 1187.6 797.547 1182.92 801.902C1178.23 806.259 1177.12 802.796 1178.96 799.188C1180.81 795.579 1184.73 792.445 1186.11 793.06H1186.11Z" fill="#8C9A38"/>
<path d="M1175.76 804.597C1178.53 804.329 1179.08 807.588 1177.26 813.339C1175.45 819.09 1172.92 816.766 1172.75 812.948C1172.58 809.128 1174.34 804.734 1175.76 804.597Z" fill="#8C9A38"/>
<path d="M1185.73 804.939C1188.26 805.651 1187.99 808.125 1185.03 811.586C1182.08 815.048 1180.36 812.586 1181.1 809.843C1181.84 807.097 1184.43 804.574 1185.73 804.939H1185.73Z" fill="#8C9A38"/>
<path d="M1179.99 819.503C1182.23 819.12 1182.94 821.154 1181.92 824.956C1180.9 828.758 1178.64 827.473 1178.19 825.053C1177.75 822.634 1178.83 819.699 1179.99 819.503Z" fill="#8C9A38"/>
<path d="M1172.95 819.973C1174.74 819.44 1175.52 821.084 1175.07 824.38C1174.63 827.676 1172.66 826.807 1172.06 824.814C1171.45 822.819 1172.03 820.249 1172.95 819.975L1172.95 819.973Z" fill="#8C9A38"/>
<path d="M1173.5 829.749C1174.56 829.116 1175.48 830.78 1175.98 834.21C1176.49 837.64 1174.96 836.833 1174.08 834.797C1173.19 832.762 1172.95 830.074 1173.5 829.749Z" fill="#8C9A38"/>
<path d="M1240.44 781.37C1242.59 788.397 1243.45 792.774 1250.98 795.444C1254.08 796.542 1257.5 796.569 1265.03 806.517C1272.13 815.889 1279.69 826.345 1275.26 829.555C1270.84 832.763 1249.4 832.585 1238.72 817.854C1227.21 801.961 1233.39 783.629 1233.39 783.629L1240.44 781.37Z" fill="#BFCD31"/>
<path d="M1234.5 797.194C1236.82 795.779 1238.69 798.408 1239.56 804.23C1240.43 810.053 1237.21 809.092 1235.43 805.809C1233.65 802.527 1233.31 797.919 1234.5 797.192V797.194Z" fill="#8C9A38"/>
<path d="M1237.88 811.058C1239.12 808.82 1241.88 810.107 1245.31 814.483C1248.74 818.859 1245.65 819.565 1242.66 817.698C1239.67 815.831 1237.24 812.206 1237.88 811.058Z" fill="#8C9A38"/>
<path d="M1243.34 803.689C1245.2 802.141 1246.94 803.638 1248.03 807.683C1249.13 811.728 1246.36 811.747 1244.65 809.755C1242.95 807.764 1242.38 804.484 1243.34 803.689Z" fill="#8C9A38"/>
<path d="M1251.42 815.639C1252.3 813.739 1254.22 814.263 1256.58 817.02C1258.94 819.777 1256.78 820.819 1254.71 819.894C1252.64 818.969 1250.97 816.616 1251.42 815.641V815.639Z" fill="#8C9A38"/>
<path d="M1248.11 821.214C1248.64 819.584 1250.29 819.85 1252.57 821.907C1254.84 823.965 1253.16 825.002 1251.32 824.419C1249.49 823.837 1247.84 822.052 1248.11 821.214H1248.11Z" fill="#8C9A38"/>
<path d="M1255.83 825.904C1255.9 824.768 1257.65 824.94 1260.52 826.35C1263.39 827.76 1261.98 828.494 1259.97 828.104C1257.96 827.715 1255.8 826.489 1255.83 825.906V825.904Z" fill="#8C9A38"/>
<path d="M1263.62 777.263C1249.63 770.994 1243 744.633 1218.54 740.958C1193.31 737.168 1175.42 758.716 1157.8 764.315C1190.49 801.998 1263.35 781.261 1263.62 777.263Z" fill="#863D1D"/>
<path d="M1260.42 777.272C1267.46 776.032 1268.51 778.416 1263.53 782.299C1261.71 783.721 1254.52 787.102 1250.56 785.048C1250.25 790.579 1230.07 793.021 1227.28 788.329C1227.57 792.43 1206.71 793.814 1205.46 788.329C1202.57 793.003 1185.54 789.444 1185.48 784.195C1183.35 787.701 1166.74 782.354 1168.42 776.518C1162.65 778.04 1157.8 769.672 1157.8 766.087C1157.8 760.355 1161.72 765.624 1162.42 766.218C1171.51 773.992 1187.51 780.904 1207.44 782.546C1233.9 784.727 1260.42 777.271 1260.42 777.271V777.272Z" fill="#B05A36"/>
<path d="M1249.05 778.815C1251.91 780.455 1250.96 783.835 1250.56 785.048C1247.96 782.781 1249.05 778.815 1249.05 778.815Z" fill="#863D1D"/>
<path d="M1226.51 782.063C1228.93 783.441 1227.68 787.115 1227.28 788.328C1224.63 785.195 1226.51 782.063 1226.51 782.063Z" fill="#863D1D"/>
<path d="M1205.86 781.872C1207.5 783.512 1206.09 787.804 1205.46 788.329C1203.75 784.984 1205.86 781.872 1205.86 781.872Z" fill="#863D1D"/>
<path d="M1187.08 778.553C1187.94 780.916 1186.1 783.67 1185.48 784.195C1183.77 780.85 1187.08 778.553 1187.08 778.553Z" fill="#863D1D"/>
<path d="M1170.59 771.631C1171.11 773.37 1169.04 775.995 1168.42 776.518C1167.4 773.926 1170.59 771.631 1170.59 771.631Z" fill="#863D1D"/>
<path d="M1233.73 745.354C1238.33 749.622 1232.57 752.428 1216.97 752.046C1200.3 751.64 1189.39 746.729 1194.94 743.189C1208.42 734.595 1222.45 734.898 1233.73 745.354Z" fill="#B05A36"/>
<path d="M1237.73 750.869C1224.59 754.347 1235.85 777.492 1238.27 778.094C1244.19 779.569 1261.6 775.68 1259.56 772.456C1258.12 770.178 1242.88 749.504 1237.73 750.869Z" fill="#B05A36"/>
<path d="M1231.33 778.16C1233.71 776.595 1229.75 755.211 1216.17 753.909C1197.08 752.08 1192.77 776.595 1196.59 777.7C1202.61 779.446 1226.37 781.411 1231.33 778.16Z" fill="#B05A36"/>
<path d="M1185.63 747.766C1189.93 746.5 1197.77 748.833 1196.59 758.018C1195.66 765.175 1191.21 774.451 1187.88 775.326C1184.09 776.321 1163.69 766.374 1162.15 762.635C1161.17 760.247 1174.72 750.98 1185.63 747.766Z" fill="#B05A36"/>
<path d="M1138.83 604.426C1138.15 603.952 1137.22 604.12 1136.75 604.802L1131.83 611.933C1131.36 612.615 1131.53 613.556 1132.2 614.03C1132.88 614.506 1133.81 614.337 1134.28 613.656L1139.2 606.522C1139.67 605.84 1139.51 604.899 1138.83 604.423L1138.83 604.426Z" fill="#FFCD05"/>
<path d="M1109.62 605.765C1110.02 605.756 1110.4 605.905 1110.69 606.183L1116.9 612.211C1117.19 612.489 1117.35 612.863 1117.36 613.267C1117.37 613.671 1117.22 614.053 1116.94 614.343C1116.67 614.632 1116.29 614.795 1115.9 614.803C1115.5 614.812 1115.12 614.662 1114.83 614.384L1108.62 608.356C1108.03 607.78 1108.01 606.826 1108.58 606.224C1108.85 605.934 1109.23 605.772 1109.62 605.765L1109.62 605.765Z" fill="#FFCD05"/>
<path d="M1125.67 601.445C1125.94 601.74 1126.08 602.122 1126.07 602.525L1125.73 611.212C1125.71 611.616 1125.55 611.988 1125.25 612.26C1124.96 612.535 1124.58 612.677 1124.18 612.659C1123.78 612.643 1123.41 612.469 1123.14 612.175C1122.87 611.88 1122.73 611.496 1122.74 611.093L1123.08 602.405C1123.12 601.579 1123.81 600.93 1124.64 600.961C1125.03 600.977 1125.4 601.151 1125.67 601.446L1125.67 601.445Z" fill="#FFCD05"/>
<path d="M1147.85 646.513C1151.88 634.28 1145.32 621.064 1133.19 616.993C1121.07 612.922 1107.98 619.538 1103.95 631.771C1099.97 643.884 1110.66 653.554 1108.82 659.149L1108.41 660.377C1106.68 665.644 1109.51 671.338 1114.73 673.09C1119.95 674.844 1125.59 671.994 1127.32 666.728L1127.73 665.5C1129.34 660.608 1144.04 658.1 1147.85 646.516L1147.85 646.513Z" fill="#FFCD03"/>
<path d="M1120.39 667.926L1122.07 662.824C1122.59 661.233 1121.52 659.433 1119.67 658.812L1119.18 658.649C1117.33 658.029 1115.41 658.819 1114.88 660.411L1113.2 665.513C1112.68 667.105 1113.76 668.905 1115.6 669.525L1116.09 669.689C1117.94 670.309 1119.86 669.518 1120.39 667.926ZM1119.35 659.783C1120.57 660.195 1121.29 661.388 1120.94 662.446L1119.26 667.548C1118.91 668.604 1117.63 669.129 1116.41 668.716L1115.92 668.552C1114.7 668.141 1113.98 666.948 1114.33 665.89L1116.01 660.788C1116.35 659.732 1117.63 659.207 1118.86 659.618L1119.35 659.782L1119.35 659.783Z" fill="#EF4123"/>
<path d="M1116.06 659.342C1115.91 659.293 1115.8 659.161 1115.79 659.017L1115.59 647.246C1115.59 647.071 1115.75 646.938 1115.95 646.953C1116.15 646.965 1116.31 647.121 1116.31 647.298L1116.51 659.07C1116.52 659.247 1116.36 659.378 1116.16 659.366C1116.12 659.362 1116.09 659.357 1116.05 659.344L1116.06 659.342Z" fill="#EF4123"/>
<path d="M1118.3 658.941C1118.13 658.882 1118.01 658.718 1118.04 658.559L1119.99 648.664C1120.02 648.494 1120.21 648.392 1120.41 648.438C1120.6 648.484 1120.73 648.661 1120.7 648.831L1118.75 658.725C1118.72 658.895 1118.53 658.996 1118.34 658.95C1118.32 658.948 1118.31 658.943 1118.3 658.938L1118.3 658.941Z" fill="#EF4123"/>
<path d="M1121.76 661.26C1121.73 661.248 1121.7 661.233 1121.67 661.213C1121.5 661.103 1121.45 660.903 1121.56 660.764L1128.69 651.457C1128.8 651.317 1129.03 651.292 1129.19 651.4C1129.36 651.509 1129.41 651.71 1129.3 651.85L1122.17 661.157C1122.08 661.272 1121.91 661.307 1121.77 661.26L1121.76 661.26Z" fill="#EF4123"/>
<path d="M1120.2 659.58C1120.19 659.576 1120.18 659.571 1120.17 659.567C1119.98 659.485 1119.89 659.293 1119.97 659.134L1124.27 650.03C1124.34 649.873 1124.55 649.81 1124.74 649.894C1124.92 649.975 1125.01 650.168 1124.94 650.326L1120.64 659.43C1120.57 659.577 1120.38 659.641 1120.2 659.583L1120.2 659.58Z" fill="#EF4123"/>
<path d="M1122.94 656.175C1122.78 656.671 1122.18 656.915 1121.6 656.723L1118.87 655.805C1118.3 655.613 1117.96 655.053 1118.13 654.559C1118.29 654.065 1118.89 653.819 1119.46 654.011L1122.19 654.929C1122.77 655.121 1123.1 655.679 1122.94 656.175Z" fill="#EF4123"/>
<path d="M1117.67 648.762C1117.61 648.744 1117.56 648.724 1117.5 648.704C1116.52 648.336 1115.74 647.674 1115.36 646.893C1115.22 646.62 1115.36 646.323 1115.65 646.231C1115.95 646.138 1116.29 646.284 1116.43 646.559C1116.67 647.062 1117.2 647.498 1117.87 647.748C1118.63 648.036 1119.48 648.043 1120.13 647.773C1120.39 647.664 1120.72 647.754 1120.89 647.977C1121.84 649.181 1123.25 649.648 1124.85 649.292C1125.15 649.227 1125.47 649.386 1125.59 649.652C1125.73 649.984 1126.18 650.351 1126.71 650.584C1127.15 650.768 1128.01 651.031 1128.96 650.71C1129.25 650.612 1129.6 650.753 1129.74 651.022C1129.88 651.293 1129.76 651.592 1129.46 651.69C1128.48 652.024 1127.32 651.957 1126.29 651.515C1125.64 651.236 1125.11 650.836 1124.77 650.393C1123.03 650.637 1121.4 650.087 1120.26 648.88C1119.46 649.098 1118.54 649.059 1117.66 648.765L1117.67 648.762Z" fill="#EF4123"/>
<path d="M1122.48 678.417C1121.39 681.739 1116.67 683.144 1111.94 681.556C1107.22 679.969 1104.27 675.99 1105.37 672.667C1106.46 669.345 1111.18 667.94 1115.9 669.528C1120.63 671.115 1123.57 675.095 1122.48 678.417Z" fill="#454C54"/>
<path d="M1108.53 660.024L1105.66 668.761C1105.26 669.956 1105.1 671.174 1105.16 672.363C1108.63 673.532 1118.07 677.069 1122.59 678.586C1123.45 677.603 1124.13 676.433 1124.57 675.114L1127.44 666.374L1108.53 660.024L1108.53 660.024Z" fill="#B4B4B5"/>
<path d="M1128.52 667.326C1128.23 668.201 1127.3 668.671 1126.43 668.381L1108.15 662.241C1107.28 661.949 1106.81 661.006 1107.1 660.131C1107.39 659.259 1108.32 658.787 1109.19 659.076L1127.47 665.217C1128.34 665.506 1128.81 666.452 1128.52 667.324L1128.52 667.326Z" fill="#E8E8E8"/>
<path d="M1126.61 673.125C1126.33 673.997 1125.39 674.469 1124.52 674.18L1106.24 668.039C1105.37 667.75 1104.9 666.804 1105.19 665.932C1105.48 665.057 1106.41 664.585 1107.28 664.877L1125.56 671.018C1126.43 671.309 1126.9 672.253 1126.61 673.127L1126.61 673.125Z" fill="#E8E8E8"/>
<path d="M1124.7 678.923C1124.42 679.797 1123.48 680.269 1122.62 679.977L1104.33 673.837C1103.46 673.545 1102.99 672.604 1103.28 671.729C1103.57 670.857 1104.51 670.383 1105.37 670.675L1123.66 676.815C1124.52 677.105 1124.99 678.048 1124.7 678.923Z" fill="#E8E8E8"/>
<path d="M1185.88 663.964C1187.61 663.473 1188.98 661.79 1188.83 659.854C1188.71 658.354 1188.64 651.663 1188.64 651.663C1188.64 651.663 1190.54 658.076 1191.05 659.495C1191.78 661.606 1193.25 662.504 1195.14 662.463C1196.64 662.425 1203.3 662.286 1203.3 662.286C1203.3 662.286 1196.94 664.257 1195.5 664.69C1193.2 665.381 1192.5 667.039 1192.55 668.798C1192.59 670.303 1192.74 676.988 1192.74 676.988C1192.74 676.988 1190.72 670.613 1190.33 669.158C1189.81 667.208 1188.15 666.095 1186.24 666.188C1184.74 666.266 1178.08 666.37 1178.08 666.372C1178.08 666.372 1184.43 664.377 1185.88 663.967L1185.88 663.964Z" fill="#BFCD31"/>
<path d="M1283.3 591.393C1285.03 590.902 1286.4 589.219 1286.25 587.283C1286.13 585.783 1286.06 579.092 1286.06 579.092C1286.06 579.092 1287.96 585.505 1288.47 586.924C1289.2 589.035 1290.67 589.933 1292.56 589.892C1294.05 589.854 1300.72 589.715 1300.72 589.715C1300.72 589.715 1294.36 591.686 1292.92 592.119C1290.62 592.81 1289.92 594.468 1289.97 596.227C1290.01 597.732 1290.16 604.417 1290.16 604.417C1290.16 604.417 1288.14 598.042 1287.75 596.587C1287.23 594.637 1285.57 593.524 1283.66 593.617C1282.16 593.695 1275.5 593.799 1275.5 593.801C1275.5 593.801 1281.85 591.806 1283.3 591.396L1283.3 591.393Z" fill="#BFCD31"/>
<path d="M1030.34 661.078C1032.66 660.447 1034.51 658.216 1034.33 655.635C1034.19 653.633 1034.18 644.706 1034.18 644.706C1034.18 644.706 1036.64 653.285 1037.29 655.185C1038.24 658.011 1040.19 659.229 1042.71 659.197C1044.71 659.168 1053.59 659.068 1053.59 659.068C1053.59 659.066 1045.09 661.615 1043.16 662.173C1040.09 663.065 1039.13 665.268 1039.18 667.615C1039.21 669.622 1039.32 678.544 1039.32 678.544C1039.32 678.544 1036.71 670.009 1036.21 668.065C1035.54 665.456 1033.33 663.95 1030.79 664.047C1028.79 664.131 1019.9 664.182 1019.9 664.184C1019.9 664.184 1028.41 661.605 1030.34 661.078L1030.34 661.078Z" fill="#FFCD03"/>
<path d="M1207.63 620.406C1198.35 611.127 1198.35 596.082 1207.63 586.802C1216.9 577.523 1231.93 577.523 1241.21 586.802C1250.48 596.082 1250.48 611.127 1241.21 620.406C1231.93 629.686 1216.9 629.686 1207.63 620.406Z" fill="#9DD5FA"/>
<path d="M1227.91 587.85V588.11C1227.91 588.5 1227.8 589.258 1227.58 590.385C1227.41 591.512 1227.19 592.725 1226.93 594.025C1226.71 595.282 1226.5 596.452 1226.28 597.535C1226.11 598.575 1226.02 599.225 1226.02 599.485C1226.02 599.745 1226.02 599.983 1226.02 600.2C1226.06 600.373 1226.11 600.547 1226.15 600.72C1225.98 601.023 1225.89 601.803 1225.89 603.06C1225.89 603.667 1225.89 604.317 1225.89 605.01C1225.93 605.66 1225.96 606.223 1225.96 606.7C1225.96 607.177 1225.93 607.567 1225.89 607.87C1225.89 608.173 1225.87 608.433 1225.83 608.65C1226.04 610.037 1226.22 611.272 1226.35 612.355C1226.48 613.395 1226.54 614.283 1226.54 615.02C1226.54 615.887 1226.32 616.667 1225.89 617.36C1225.46 618.01 1224.59 618.335 1223.29 618.335C1222.38 618.335 1221.8 618.01 1221.54 617.36L1221.15 613.005C1221.23 612.745 1221.28 612.377 1221.28 611.9C1221.28 611.727 1221.25 611.358 1221.21 610.795C1221.21 610.188 1221.19 609.56 1221.15 608.91C1221.1 608.217 1221.06 607.567 1221.02 606.96C1221.02 606.31 1221.02 605.855 1221.02 605.595C1221.02 604.078 1221.15 603.082 1221.41 602.605C1221.23 602.085 1221.15 601.435 1221.15 600.655C1221.15 600.395 1221.19 599.962 1221.28 599.355C1221.36 598.748 1221.45 598.12 1221.54 597.47C1221.62 596.82 1221.71 596.213 1221.8 595.65C1221.88 595.087 1221.93 594.697 1221.93 594.48V594.22C1222.01 593.613 1222.12 592.79 1222.25 591.75C1222.42 590.71 1222.66 589.497 1222.97 588.11C1223.36 586.81 1224.22 586.16 1225.57 586.16C1227.04 586.16 1227.82 586.723 1227.91 587.85Z" fill="white"/>
<path d="M1014.97 753.77C1016.05 752.69 1017.37 752.15 1018.93 752.15C1020.49 752.15 1021.81 752.69 1022.89 753.77C1024 754.88 1024.56 756.215 1024.56 757.775C1024.56 759.335 1024 760.655 1022.89 761.735C1021.81 762.815 1020.49 763.355 1018.93 763.355C1017.37 763.355 1016.05 762.815 1014.97 761.735C1013.86 760.655 1013.31 759.335 1013.31 757.775C1013.31 756.215 1013.86 754.88 1014.97 753.77ZM1028.74 715.34H1039.95V729.38C1039.95 742.46 1034.35 749 1023.16 749H1012.32C999.24 749 992.7 743.39 992.7 732.17C992.7 720.95 999.24 715.34 1012.32 715.34H1014.16V726.59H1012.32C1006.71 726.59 1003.9 728.45 1003.9 732.17C1003.9 735.92 1006.71 737.795 1012.32 737.795H1023.16C1026.88 737.795 1028.74 734.99 1028.74 729.38V715.34Z" fill="#C3D831"/>
</g>
<defs>
<filter id="filter0_d_8_3" x="1075.9" y="166" width="201.098" height="225.433" filterUnits="userSpaceOnUse" color-interpolation-filters="sRGB">
<feFlood flood-opacity="0" result="BackgroundImageFix"/>
<feColorMatrix in="SourceAlpha" type="matrix" values="0 0 0 0 0 0 0 0 0 0 0 0 0 0 0 0 0 0 127 0" result="hardAlpha"/>
<feOffset dx="20" dy="4"/>
<feComposite in2="hardAlpha" operator="out"/>
<feColorMatrix type="matrix" values="0 0 0 0 1 0 0 0 0 0.931111 0 0 0 0 0.483333 0 0 0 1 0"/>
<feBlend mode="normal" in2="BackgroundImageFix" result="effect1_dropShadow_8_3"/>
<feBlend mode="normal" in="SourceGraphic" in2="effect1_dropShadow_8_3" result="shape"/>
</filter>
<clipPath id="clip0_8_3">
<rect width="1440" height="905" fill="white" transform="matrix(-1 0 0 1 1440 -2)"/>
</clipPath>
<clipPath id="clip1_8_3">
<rect width="130" height="140" fill="white" transform="matrix(-1 0 0 1 569 -40)"/>
</clipPath>
</defs>
</svg>
