<svg width="1440" height="898" viewBox="0 0 1440 898" fill="none" xmlns="http://www.w3.org/2000/svg">
<path opacity="0.78" d="M1441.74 -2H1.73987V898H1441.74V-2Z" fill="#BAEDF3"/>
<path d="M736.89 685.78C855.018 685.78 950.78 590.018 950.78 471.89C950.78 353.762 855.018 258 736.89 258C618.762 258 523 353.762 523 471.89C523 590.018 618.762 685.78 736.89 685.78Z" fill="#FFEEA4"/>
<path d="M736.89 698.78C862.198 698.78 963.78 597.198 963.78 471.89C963.78 346.582 862.198 245 736.89 245C611.582 245 510 346.582 510 471.89C510 597.198 611.582 698.78 736.89 698.78Z" stroke="#FFED92" stroke-width="6" stroke-miterlimit="10"/>
<path d="M736.89 712.78C869.93 712.78 977.78 604.93 977.78 471.89C977.78 338.85 869.93 231 736.89 231C603.85 231 496 338.85 496 471.89C496 604.93 603.85 712.78 736.89 712.78Z" stroke="#FFED92" stroke-width="4" stroke-miterlimit="10"/>
<path d="M736.89 724.78C876.557 724.78 989.78 611.557 989.78 471.89C989.78 332.223 876.557 219 736.89 219C597.223 219 484 332.223 484 471.89C484 611.557 597.223 724.78 736.89 724.78Z" stroke="#FFED92" stroke-width="2" stroke-miterlimit="10"/>
<rect x="-0.00012207" y="598" width="1446" height="212.75" fill="#ABDE4A"/>
<path d="M1441 768.845H0.999878V898H1441V768.845Z" fill="#FFDFBA"/>
<g style="mix-blend-mode:overlay">
<path d="M312.453 224.929C312.453 212.144 322.82 201.769 335.625 201.769C337.172 201.769 338.666 201.926 340.121 202.214C342.506 195.782 348.693 191.197 355.954 191.197C363.215 191.197 369.073 195.546 371.59 201.716C372.953 201.061 374.473 200.708 376.072 200.708C381.826 200.708 386.479 205.371 386.479 211.109C386.479 211.358 386.479 211.62 386.452 211.869C394.133 212.524 400.162 218.956 400.162 226.803H312.532C312.479 226.187 312.453 225.558 312.453 224.929Z" fill="white"/>
</g>
<g style="mix-blend-mode:overlay">
<path d="M277 446.187C277 433.401 287.367 423.026 300.172 423.026C301.719 423.026 303.213 423.183 304.668 423.471C307.053 417.039 313.239 412.454 320.5 412.454C327.761 412.454 333.62 416.804 336.137 422.974C337.5 422.319 339.02 421.965 340.619 421.965C346.373 421.965 351.025 426.629 351.025 432.366C351.025 432.615 351.025 432.877 350.999 433.126C358.68 433.781 364.709 440.213 364.709 448.06H277.079C277.026 447.444 277 446.816 277 446.187Z" fill="white"/>
</g>
<g style="mix-blend-mode:overlay">
<path d="M1032.24 154.792C1032.24 142.007 1042.6 131.632 1055.41 131.632C1056.95 131.632 1058.45 131.789 1059.9 132.077C1062.29 125.645 1068.48 121.06 1075.74 121.06C1083 121.06 1088.86 125.409 1091.37 131.579C1092.74 130.924 1094.26 130.571 1095.85 130.571C1101.61 130.571 1106.26 135.234 1106.26 140.972C1106.26 141.221 1106.26 141.483 1106.23 141.732C1113.92 142.387 1119.94 148.819 1119.94 156.666H1032.31C1032.26 156.05 1032.24 155.421 1032.24 154.792Z" fill="white"/>
</g>
<g style="mix-blend-mode:overlay">
<path d="M1105.29 343.732C1105.29 330.947 1115.66 320.572 1128.46 320.572C1130.01 320.572 1131.5 320.729 1132.96 321.017C1135.34 314.585 1141.53 310 1148.79 310C1156.05 310 1161.91 314.349 1164.43 320.519C1165.79 319.864 1167.31 319.511 1168.91 319.511C1174.66 319.511 1179.32 324.174 1179.32 329.912C1179.32 330.161 1179.32 330.423 1179.29 330.672C1186.97 331.327 1193 337.759 1193 345.606H1105.37C1105.32 344.99 1105.29 344.361 1105.29 343.732Z" fill="white"/>
</g>
<g style="mix-blend-mode:soft-light">
<path d="M798.036 172.595C798.036 159.81 808.403 149.434 821.208 149.434C822.755 149.434 824.249 149.592 825.704 149.88C828.089 143.448 834.275 138.863 841.536 138.863C848.797 138.863 854.656 143.212 857.172 149.382C858.535 148.727 860.056 148.373 861.655 148.373C867.408 148.373 872.061 153.037 872.061 158.775C872.061 159.024 872.061 159.286 872.035 159.534C879.715 160.189 885.744 166.622 885.744 174.468H798.114C798.062 173.853 798.036 173.224 798.036 172.595Z" fill="white"/>
</g>
<path d="M1441.99 591H2.01188C2.01188 591 1.99988 591.004 1.99988 591.01V598.99C1.99988 598.996 2.01188 599 2.01188 599H1441.99C1441.99 599 1442 598.996 1442 598.99V591.01C1442 591.004 1441.99 591 1441.99 591Z" fill="#5C2B15"/>
<path d="M71.568 698.667C71.568 698.667 102.163 670.894 124.494 701.016C137.428 675.093 168.003 699.572 156.857 714.209C186.914 690.982 192.064 716.79 192.064 728.828C214.395 709.895 237.572 731.408 234.132 747.76C250.448 728.828 282.215 737.437 295.956 755.502C300.241 761.531 301.106 770.987 301.106 770.987H81.2922L71.568 698.647V698.667Z" fill="#209B54"/>
<path d="M120.516 748.627C122.226 731.409 105.065 710.762 81.0231 727.98C91.3239 705.601 73.9125 684.53 51.8312 691.83C51.8312 665.155 20.9096 648.804 0.999878 659.127V770.987H168.599C173.749 746.894 141.117 727.961 120.516 748.608V748.627Z" fill="#B9E85F"/>
<path d="M1403.16 765.999C1401.07 762.496 1399.77 758.451 1399.77 754.073C1399.77 741.105 1410.31 730.597 1423.31 730.597C1436.32 730.597 1446.85 741.105 1446.85 754.073C1446.85 758.451 1445.56 762.496 1443.47 765.999H1403.16Z" fill="#27AE60"/>
<path d="M1314.18 765.999C1311.59 761.662 1310 756.658 1310 751.237C1310 735.183 1323.05 722.215 1339.1 722.215C1355.16 722.215 1368.2 735.225 1368.2 751.237C1368.2 756.658 1366.61 761.662 1364.02 765.999H1314.14H1314.18Z" fill="#27AE60"/>
<path d="M1349.09 765.998C1345.96 760.745 1344.04 754.698 1344.04 748.152C1344.04 728.762 1359.8 713 1379.28 713C1398.77 713 1414.53 728.72 1414.53 748.152C1414.53 754.698 1412.61 760.745 1409.47 765.998H1349.09Z" fill="#27AE60"/>
<path d="M1445.99 752H0.0119279C0.0052729 752 -0.00012207 752.005 -0.00012207 752.011V784.97C-0.00012207 784.976 0.0052729 784.98 0.0119279 784.98H1445.99C1445.99 784.98 1446 784.976 1446 784.97V752.011C1446 752.005 1445.99 752 1445.99 752Z" fill="#C9A68B"/>
<path d="M1445.99 784.023H0.0119279C0.0052729 784.023 -0.00012207 784.028 -0.00012207 784.034V792.426C-0.00012207 792.432 0.0052729 792.437 0.0119279 792.437H1445.99C1445.99 792.437 1446 792.432 1446 792.426V784.034C1446 784.028 1445.99 784.023 1445.99 784.023Z" fill="#A6836A"/>
<path opacity="0.3" d="M111.378 770.499C111.378 771.666 107.45 772.623 102.593 772.623C97.7373 772.623 93.809 771.677 93.809 770.499C93.809 769.321 97.7373 768.375 102.593 768.375C107.45 768.375 111.378 769.321 111.378 770.499Z" fill="white"/>
<path opacity="0.3" d="M120.162 766.45C125.014 766.45 128.947 765.499 128.947 764.326C128.947 763.152 125.014 762.201 120.162 762.201C115.311 762.201 111.378 763.152 111.378 764.326C111.378 765.499 115.311 766.45 120.162 766.45Z" fill="white"/>
<path opacity="0.3" d="M93.8091 766.45C98.6606 766.45 102.594 765.499 102.594 764.326C102.594 763.152 98.6606 762.201 93.8091 762.201C88.9576 762.201 85.0247 763.152 85.0247 764.326C85.0247 765.499 88.9576 766.45 93.8091 766.45Z" fill="white"/>
<path opacity="0.3" d="M135.128 770.499C135.128 771.666 131.2 772.623 126.344 772.623C121.488 772.623 117.56 771.677 117.56 770.499C117.56 769.321 121.488 768.375 126.344 768.375C131.2 768.375 135.128 769.321 135.128 770.499Z" fill="white"/>
<path opacity="0.3" d="M111.378 778.512C116.229 778.512 120.162 777.561 120.162 776.388C120.162 775.215 116.229 774.264 111.378 774.264C106.526 774.264 102.593 775.215 102.593 776.388C102.593 777.561 106.526 778.512 111.378 778.512Z" fill="white"/>
<path opacity="0.3" d="M139.515 778.512C144.366 778.512 148.299 777.561 148.299 776.388C148.299 775.215 144.366 774.264 139.515 774.264C134.663 774.264 130.73 775.215 130.73 776.388C130.73 777.561 134.663 778.512 139.515 778.512Z" fill="white"/>
<path opacity="0.3" d="M91.1098 778.512C95.9613 778.512 99.8942 777.561 99.8942 776.388C99.8942 775.215 95.9613 774.264 91.1098 774.264C86.2583 774.264 82.3253 775.215 82.3253 776.388C82.3253 777.561 86.2583 778.512 91.1098 778.512Z" fill="white"/>
<path opacity="0.3" d="M143.913 766.45C148.765 766.45 152.697 765.499 152.697 764.326C152.697 763.152 148.765 762.201 143.913 762.201C139.061 762.201 135.129 763.152 135.129 764.326C135.129 765.499 139.061 766.45 143.913 766.45Z" fill="white"/>
<path opacity="0.3" d="M157.083 770.499C157.083 771.666 153.155 772.623 148.299 772.623C143.443 772.623 139.515 771.677 139.515 770.499C139.515 769.321 143.443 768.375 148.299 768.375C153.155 768.375 157.083 769.321 157.083 770.499Z" fill="white"/>
<path opacity="0.3" d="M30.5465 772.76C35.3981 772.76 39.331 771.809 39.331 770.636C39.331 769.462 35.3981 768.511 30.5465 768.511C25.695 768.511 21.7621 769.462 21.7621 770.636C21.7621 771.809 25.695 772.76 30.5465 772.76Z" fill="white"/>
<path opacity="0.3" d="M48.1032 766.587C52.9548 766.587 56.8877 765.636 56.8877 764.462C56.8877 763.289 52.9548 762.338 48.1032 762.338C43.2517 762.338 39.3188 763.289 39.3188 764.462C39.3188 765.636 43.2517 766.587 48.1032 766.587Z" fill="white"/>
<path opacity="0.3" d="M21.7622 766.587C26.6138 766.587 30.5467 765.636 30.5467 764.462C30.5467 763.289 26.6138 762.338 21.7622 762.338C16.9107 762.338 12.9778 763.289 12.9778 764.462C12.9778 765.636 16.9107 766.587 21.7622 766.587Z" fill="white"/>
<path opacity="0.3" d="M54.2851 772.76C59.1366 772.76 63.0696 771.809 63.0696 770.636C63.0696 769.462 59.1366 768.511 54.2851 768.511C49.4336 768.511 45.5007 769.462 45.5007 770.636C45.5007 771.809 49.4336 772.76 54.2851 772.76Z" fill="white"/>
<path opacity="0.3" d="M48.1153 776.535C48.1153 777.703 44.187 778.66 39.3309 778.66C34.4747 778.66 30.5464 777.713 30.5464 776.535C30.5464 775.357 34.4747 774.411 39.3309 774.411C44.187 774.411 48.1153 775.357 48.1153 776.535Z" fill="white"/>
<path opacity="0.3" d="M76.2522 776.535C76.2522 777.703 72.3239 778.66 67.4678 778.66C62.6117 778.66 58.6833 777.713 58.6833 776.535C58.6833 775.357 62.6117 774.411 67.4678 774.411C72.3239 774.411 76.2522 775.357 76.2522 776.535Z" fill="white"/>
<path opacity="0.3" d="M27.8353 776.535C27.8353 777.703 23.907 778.66 19.0509 778.66C14.1947 778.66 10.2664 777.713 10.2664 776.535C10.2664 775.357 14.1947 774.411 19.0509 774.411C23.907 774.411 27.8353 775.357 27.8353 776.535Z" fill="white"/>
<path opacity="0.3" d="M71.8538 766.587C76.7054 766.587 80.6383 765.636 80.6383 764.462C80.6383 763.289 76.7054 762.338 71.8538 762.338C67.0023 762.338 63.0694 763.289 63.0694 764.462C63.0694 765.636 67.0023 766.587 71.8538 766.587Z" fill="white"/>
<path opacity="0.3" d="M76.2522 772.76C81.1037 772.76 85.0366 771.809 85.0366 770.636C85.0366 769.462 81.1037 768.511 76.2522 768.511C71.4006 768.511 67.4677 769.462 67.4677 770.636C67.4677 771.809 71.4006 772.76 76.2522 772.76Z" fill="white"/>
<path opacity="0.3" d="M253.797 770.499C253.797 771.666 249.868 772.623 245.012 772.623C240.156 772.623 236.228 771.677 236.228 770.499C236.228 769.321 240.156 768.375 245.012 768.375C249.868 768.375 253.797 769.321 253.797 770.499Z" fill="white"/>
<path opacity="0.3" d="M262.581 766.45C267.433 766.45 271.366 765.499 271.366 764.326C271.366 763.152 267.433 762.201 262.581 762.201C257.73 762.201 253.797 763.152 253.797 764.326C253.797 765.499 257.73 766.45 262.581 766.45Z" fill="white"/>
<path opacity="0.3" d="M236.228 766.45C241.079 766.45 245.012 765.499 245.012 764.326C245.012 763.152 241.079 762.201 236.228 762.201C231.376 762.201 227.443 763.152 227.443 764.326C227.443 765.499 231.376 766.45 236.228 766.45Z" fill="white"/>
<path opacity="0.3" d="M277.547 770.499C277.547 771.666 273.619 772.623 268.763 772.623C263.907 772.623 259.978 771.677 259.978 770.499C259.978 769.321 263.907 768.375 268.763 768.375C273.619 768.375 277.547 769.321 277.547 770.499Z" fill="white"/>
<path opacity="0.3" d="M253.797 778.512C258.648 778.512 262.581 777.561 262.581 776.388C262.581 775.215 258.648 774.264 253.797 774.264C248.945 774.264 245.012 775.215 245.012 776.388C245.012 777.561 248.945 778.512 253.797 778.512Z" fill="white"/>
<path opacity="0.3" d="M281.934 778.512C286.785 778.512 290.718 777.561 290.718 776.388C290.718 775.215 286.785 774.264 281.934 774.264C277.082 774.264 273.149 775.215 273.149 776.388C273.149 777.561 277.082 778.512 281.934 778.512Z" fill="white"/>
<path opacity="0.3" d="M233.528 778.512C238.38 778.512 242.313 777.561 242.313 776.388C242.313 775.215 238.38 774.264 233.528 774.264C228.677 774.264 224.744 775.215 224.744 776.388C224.744 777.561 228.677 778.512 233.528 778.512Z" fill="white"/>
<path opacity="0.3" d="M286.332 766.45C291.183 766.45 295.116 765.499 295.116 764.326C295.116 763.152 291.183 762.201 286.332 762.201C281.48 762.201 277.547 763.152 277.547 764.326C277.547 765.499 281.48 766.45 286.332 766.45Z" fill="white"/>
<path opacity="0.3" d="M299.502 770.499C299.502 771.666 295.574 772.623 290.718 772.623C285.862 772.623 281.933 771.677 281.933 770.499C281.933 769.321 285.862 768.375 290.718 768.375C295.574 768.375 299.502 769.321 299.502 770.499Z" fill="white"/>
<path opacity="0.3" d="M172.965 772.76C177.817 772.76 181.75 771.809 181.75 770.636C181.75 769.462 177.817 768.511 172.965 768.511C168.114 768.511 164.181 769.462 164.181 770.636C164.181 771.809 168.114 772.76 172.965 772.76Z" fill="white"/>
<path opacity="0.3" d="M190.522 766.587C195.374 766.587 199.307 765.636 199.307 764.462C199.307 763.289 195.374 762.338 190.522 762.338C185.671 762.338 181.738 763.289 181.738 764.462C181.738 765.636 185.671 766.587 190.522 766.587Z" fill="white"/>
<path opacity="0.3" d="M164.181 766.587C169.033 766.587 172.965 765.636 172.965 764.462C172.965 763.289 169.033 762.338 164.181 762.338C159.329 762.338 155.397 763.289 155.397 764.462C155.397 765.636 159.329 766.587 164.181 766.587Z" fill="white"/>
<path opacity="0.3" d="M196.704 772.76C201.555 772.76 205.488 771.809 205.488 770.636C205.488 769.462 201.555 768.511 196.704 768.511C191.852 768.511 187.919 769.462 187.919 770.636C187.919 771.809 191.852 772.76 196.704 772.76Z" fill="white"/>
<path opacity="0.3" d="M190.522 776.535C190.522 777.703 186.594 778.66 181.738 778.66C176.881 778.66 172.953 777.713 172.953 776.535C172.953 775.357 176.881 774.411 181.738 774.411C186.594 774.411 190.522 775.357 190.522 776.535Z" fill="white"/>
<path opacity="0.3" d="M218.671 776.535C218.671 777.703 214.743 778.66 209.887 778.66C205.03 778.66 201.102 777.713 201.102 776.535C201.102 775.357 205.03 774.411 209.887 774.411C214.743 774.411 218.671 775.357 218.671 776.535Z" fill="white"/>
<path opacity="0.3" d="M170.254 776.535C170.254 777.703 166.326 778.66 161.47 778.66C156.614 778.66 152.685 777.713 152.685 776.535C152.685 775.357 156.614 774.411 161.47 774.411C166.326 774.411 170.254 775.357 170.254 776.535Z" fill="white"/>
<path opacity="0.3" d="M214.273 766.587C219.124 766.587 223.057 765.636 223.057 764.462C223.057 763.289 219.124 762.338 214.273 762.338C209.421 762.338 205.488 763.289 205.488 764.462C205.488 765.636 209.421 766.587 214.273 766.587Z" fill="white"/>
<path opacity="0.3" d="M218.671 772.76C223.522 772.76 227.455 771.809 227.455 770.636C227.455 769.462 223.522 768.511 218.671 768.511C213.819 768.511 209.886 769.462 209.886 770.636C209.886 771.809 213.819 772.76 218.671 772.76Z" fill="white"/>
<path opacity="0.3" d="M396.216 770.499C396.216 771.666 392.287 772.623 387.431 772.623C382.575 772.623 378.647 771.677 378.647 770.499C378.647 769.321 382.575 768.375 387.431 768.375C392.287 768.375 396.216 769.321 396.216 770.499Z" fill="white"/>
<path opacity="0.3" d="M405 766.45C409.852 766.45 413.785 765.499 413.785 764.326C413.785 763.152 409.852 762.201 405 762.201C400.149 762.201 396.216 763.152 396.216 764.326C396.216 765.499 400.149 766.45 405 766.45Z" fill="white"/>
<path opacity="0.3" d="M378.647 766.45C383.498 766.45 387.431 765.499 387.431 764.326C387.431 763.152 383.498 762.201 378.647 762.201C373.795 762.201 369.862 763.152 369.862 764.326C369.862 765.499 373.795 766.45 378.647 766.45Z" fill="white"/>
<path opacity="0.3" d="M419.966 770.499C419.966 771.666 416.038 772.623 411.182 772.623C406.326 772.623 402.397 771.677 402.397 770.499C402.397 769.321 406.326 768.375 411.182 768.375C416.038 768.375 419.966 769.321 419.966 770.499Z" fill="white"/>
<path opacity="0.3" d="M396.216 778.512C401.067 778.512 405 777.561 405 776.388C405 775.215 401.067 774.264 396.216 774.264C391.364 774.264 387.431 775.215 387.431 776.388C387.431 777.561 391.364 778.512 396.216 778.512Z" fill="white"/>
<path opacity="0.3" d="M424.353 778.512C429.204 778.512 433.137 777.561 433.137 776.388C433.137 775.215 429.204 774.264 424.353 774.264C419.501 774.264 415.568 775.215 415.568 776.388C415.568 777.561 419.501 778.512 424.353 778.512Z" fill="white"/>
<path opacity="0.3" d="M375.948 778.512C380.799 778.512 384.732 777.561 384.732 776.388C384.732 775.215 380.799 774.264 375.948 774.264C371.096 774.264 367.163 775.215 367.163 776.388C367.163 777.561 371.096 778.512 375.948 778.512Z" fill="white"/>
<path opacity="0.3" d="M428.751 766.45C433.602 766.45 437.535 765.499 437.535 764.326C437.535 763.152 433.602 762.201 428.751 762.201C423.899 762.201 419.966 763.152 419.966 764.326C419.966 765.499 423.899 766.45 428.751 766.45Z" fill="white"/>
<path opacity="0.3" d="M441.921 770.499C441.921 771.666 437.993 772.623 433.137 772.623C428.281 772.623 424.352 771.677 424.352 770.499C424.352 769.321 428.281 768.375 433.137 768.375C437.993 768.375 441.921 769.321 441.921 770.499Z" fill="white"/>
<path opacity="0.3" d="M315.384 772.76C320.236 772.76 324.169 771.809 324.169 770.636C324.169 769.462 320.236 768.511 315.384 768.511C310.533 768.511 306.6 769.462 306.6 770.636C306.6 771.809 310.533 772.76 315.384 772.76Z" fill="white"/>
<path opacity="0.3" d="M332.941 766.587C337.793 766.587 341.726 765.636 341.726 764.462C341.726 763.289 337.793 762.338 332.941 762.338C328.09 762.338 324.157 763.289 324.157 764.462C324.157 765.636 328.09 766.587 332.941 766.587Z" fill="white"/>
<path opacity="0.3" d="M306.6 766.587C311.452 766.587 315.385 765.636 315.385 764.462C315.385 763.289 311.452 762.338 306.6 762.338C301.749 762.338 297.816 763.289 297.816 764.462C297.816 765.636 301.749 766.587 306.6 766.587Z" fill="white"/>
<path opacity="0.3" d="M339.123 772.76C343.974 772.76 347.907 771.809 347.907 770.636C347.907 769.462 343.974 768.511 339.123 768.511C334.271 768.511 330.339 769.462 330.339 770.636C330.339 771.809 334.271 772.76 339.123 772.76Z" fill="white"/>
<path opacity="0.3" d="M332.941 776.535C332.941 777.703 329.013 778.66 324.157 778.66C319.301 778.66 315.372 777.713 315.372 776.535C315.372 775.357 319.301 774.411 324.157 774.411C329.013 774.411 332.941 775.357 332.941 776.535Z" fill="white"/>
<path opacity="0.3" d="M361.078 776.535C361.078 777.703 357.15 778.66 352.294 778.66C347.437 778.66 343.509 777.713 343.509 776.535C343.509 775.357 347.437 774.411 352.294 774.411C357.15 774.411 361.078 775.357 361.078 776.535Z" fill="white"/>
<path opacity="0.3" d="M312.673 776.535C312.673 777.703 308.745 778.66 303.889 778.66C299.032 778.66 295.104 777.713 295.104 776.535C295.104 775.357 299.032 774.411 303.889 774.411C308.745 774.411 312.673 775.357 312.673 776.535Z" fill="white"/>
<path opacity="0.3" d="M356.692 766.587C361.543 766.587 365.476 765.636 365.476 764.462C365.476 763.289 361.543 762.338 356.692 762.338C351.84 762.338 347.907 763.289 347.907 764.462C347.907 765.636 351.84 766.587 356.692 766.587Z" fill="white"/>
<path opacity="0.3" d="M361.078 772.76C365.929 772.76 369.862 771.809 369.862 770.636C369.862 769.462 365.929 768.511 361.078 768.511C356.226 768.511 352.294 769.462 352.294 770.636C352.294 771.809 356.226 772.76 361.078 772.76Z" fill="white"/>
<path opacity="0.3" d="M538.635 770.499C538.635 771.666 534.707 772.623 529.85 772.623C524.994 772.623 521.066 771.677 521.066 770.499C521.066 769.321 524.994 768.375 529.85 768.375C534.707 768.375 538.635 769.321 538.635 770.499Z" fill="white"/>
<path opacity="0.3" d="M547.419 766.45C552.271 766.45 556.204 765.499 556.204 764.326C556.204 763.152 552.271 762.201 547.419 762.201C542.568 762.201 538.635 763.152 538.635 764.326C538.635 765.499 542.568 766.45 547.419 766.45Z" fill="white"/>
<path opacity="0.3" d="M521.066 766.45C525.918 766.45 529.851 765.499 529.851 764.326C529.851 763.152 525.918 762.201 521.066 762.201C516.215 762.201 512.282 763.152 512.282 764.326C512.282 765.499 516.215 766.45 521.066 766.45Z" fill="white"/>
<path opacity="0.3" d="M562.385 770.499C562.385 771.666 558.457 772.623 553.601 772.623C548.745 772.623 544.817 771.677 544.817 770.499C544.817 769.321 548.745 768.375 553.601 768.375C558.457 768.375 562.385 769.321 562.385 770.499Z" fill="white"/>
<path opacity="0.3" d="M538.635 778.512C543.486 778.512 547.419 777.561 547.419 776.388C547.419 775.215 543.486 774.264 538.635 774.264C533.783 774.264 529.85 775.215 529.85 776.388C529.85 777.561 533.783 778.512 538.635 778.512Z" fill="white"/>
<path opacity="0.3" d="M566.772 778.512C571.623 778.512 575.556 777.561 575.556 776.388C575.556 775.215 571.623 774.264 566.772 774.264C561.92 774.264 557.987 775.215 557.987 776.388C557.987 777.561 561.92 778.512 566.772 778.512Z" fill="white"/>
<path opacity="0.3" d="M518.367 778.512C523.218 778.512 527.151 777.561 527.151 776.388C527.151 775.215 523.218 774.264 518.367 774.264C513.515 774.264 509.582 775.215 509.582 776.388C509.582 777.561 513.515 778.512 518.367 778.512Z" fill="white"/>
<path opacity="0.3" d="M571.158 766.45C576.009 766.45 579.942 765.499 579.942 764.326C579.942 763.152 576.009 762.201 571.158 762.201C566.306 762.201 562.374 763.152 562.374 764.326C562.374 765.499 566.306 766.45 571.158 766.45Z" fill="white"/>
<path opacity="0.3" d="M584.34 770.499C584.34 771.666 580.412 772.623 575.556 772.623C570.7 772.623 566.772 771.677 566.772 770.499C566.772 769.321 570.7 768.375 575.556 768.375C580.412 768.375 584.34 769.321 584.34 770.499Z" fill="white"/>
<path opacity="0.3" d="M457.804 772.76C462.655 772.76 466.588 771.809 466.588 770.636C466.588 769.462 462.655 768.511 457.804 768.511C452.952 768.511 449.019 769.462 449.019 770.636C449.019 771.809 452.952 772.76 457.804 772.76Z" fill="white"/>
<path opacity="0.3" d="M475.36 766.587C480.212 766.587 484.145 765.636 484.145 764.462C484.145 763.289 480.212 762.338 475.36 762.338C470.509 762.338 466.576 763.289 466.576 764.462C466.576 765.636 470.509 766.587 475.36 766.587Z" fill="white"/>
<path opacity="0.3" d="M449.019 766.587C453.871 766.587 457.804 765.636 457.804 764.462C457.804 763.289 453.871 762.338 449.019 762.338C444.168 762.338 440.235 763.289 440.235 764.462C440.235 765.636 444.168 766.587 449.019 766.587Z" fill="white"/>
<path opacity="0.3" d="M481.542 772.76C486.394 772.76 490.327 771.809 490.327 770.636C490.327 769.462 486.394 768.511 481.542 768.511C476.691 768.511 472.758 769.462 472.758 770.636C472.758 771.809 476.691 772.76 481.542 772.76Z" fill="white"/>
<path opacity="0.3" d="M475.36 776.535C475.36 777.703 471.432 778.66 466.576 778.66C461.72 778.66 457.791 777.713 457.791 776.535C457.791 775.357 461.72 774.411 466.576 774.411C471.432 774.411 475.36 775.357 475.36 776.535Z" fill="white"/>
<path opacity="0.3" d="M503.497 776.535C503.497 777.703 499.569 778.66 494.713 778.66C489.857 778.66 485.928 777.713 485.928 776.535C485.928 775.357 489.857 774.411 494.713 774.411C499.569 774.411 503.497 775.357 503.497 776.535Z" fill="white"/>
<path opacity="0.3" d="M455.092 776.535C455.092 777.703 451.164 778.66 446.308 778.66C441.452 778.66 437.523 777.713 437.523 776.535C437.523 775.357 441.452 774.411 446.308 774.411C451.164 774.411 455.092 775.357 455.092 776.535Z" fill="white"/>
<path opacity="0.3" d="M499.111 766.587C503.962 766.587 507.895 765.636 507.895 764.462C507.895 763.289 503.962 762.338 499.111 762.338C494.259 762.338 490.326 763.289 490.326 764.462C490.326 765.636 494.259 766.587 499.111 766.587Z" fill="white"/>
<path opacity="0.3" d="M503.497 772.76C508.349 772.76 512.282 771.809 512.282 770.636C512.282 769.462 508.349 768.511 503.497 768.511C498.646 768.511 494.713 769.462 494.713 770.636C494.713 771.809 498.646 772.76 503.497 772.76Z" fill="white"/>
<path opacity="0.3" d="M681.054 770.499C681.054 771.666 677.125 772.623 672.269 772.623C667.413 772.623 663.485 771.677 663.485 770.499C663.485 769.321 667.413 768.375 672.269 768.375C677.125 768.375 681.054 769.321 681.054 770.499Z" fill="white"/>
<path opacity="0.3" d="M689.838 766.45C694.69 766.45 698.623 765.499 698.623 764.326C698.623 763.152 694.69 762.201 689.838 762.201C684.987 762.201 681.054 763.152 681.054 764.326C681.054 765.499 684.987 766.45 689.838 766.45Z" fill="white"/>
<path opacity="0.3" d="M663.485 766.45C668.336 766.45 672.269 765.499 672.269 764.326C672.269 763.152 668.336 762.201 663.485 762.201C658.633 762.201 654.7 763.152 654.7 764.326C654.7 765.499 658.633 766.45 663.485 766.45Z" fill="white"/>
<path opacity="0.3" d="M704.804 770.499C704.804 771.666 700.876 772.623 696.02 772.623C691.164 772.623 687.235 771.677 687.235 770.499C687.235 769.321 691.164 768.375 696.02 768.375C700.876 768.375 704.804 769.321 704.804 770.499Z" fill="white"/>
<path opacity="0.3" d="M681.054 778.512C685.905 778.512 689.838 777.561 689.838 776.388C689.838 775.215 685.905 774.264 681.054 774.264C676.202 774.264 672.269 775.215 672.269 776.388C672.269 777.561 676.202 778.512 681.054 778.512Z" fill="white"/>
<path opacity="0.3" d="M709.19 778.512C714.042 778.512 717.975 777.561 717.975 776.388C717.975 775.215 714.042 774.264 709.19 774.264C704.339 774.264 700.406 775.215 700.406 776.388C700.406 777.561 704.339 778.512 709.19 778.512Z" fill="white"/>
<path opacity="0.3" d="M660.786 778.512C665.637 778.512 669.57 777.561 669.57 776.388C669.57 775.215 665.637 774.264 660.786 774.264C655.934 774.264 652.001 775.215 652.001 776.388C652.001 777.561 655.934 778.512 660.786 778.512Z" fill="white"/>
<path opacity="0.3" d="M713.577 766.45C718.428 766.45 722.361 765.499 722.361 764.326C722.361 763.152 718.428 762.201 713.577 762.201C708.725 762.201 704.792 763.152 704.792 764.326C704.792 765.499 708.725 766.45 713.577 766.45Z" fill="white"/>
<path opacity="0.3" d="M726.759 770.499C726.759 771.666 722.831 772.623 717.975 772.623C713.119 772.623 709.19 771.677 709.19 770.499C709.19 769.321 713.119 768.375 717.975 768.375C722.831 768.375 726.759 769.321 726.759 770.499Z" fill="white"/>
<path opacity="0.3" d="M600.21 772.76C605.062 772.76 608.995 771.809 608.995 770.636C608.995 769.462 605.062 768.511 600.21 768.511C595.359 768.511 591.426 769.462 591.426 770.636C591.426 771.809 595.359 772.76 600.21 772.76Z" fill="white"/>
<path opacity="0.3" d="M617.779 766.587C622.631 766.587 626.564 765.636 626.564 764.462C626.564 763.289 622.631 762.338 617.779 762.338C612.928 762.338 608.995 763.289 608.995 764.462C608.995 765.636 612.928 766.587 617.779 766.587Z" fill="white"/>
<path opacity="0.3" d="M591.438 766.587C596.29 766.587 600.222 765.636 600.222 764.462C600.222 763.289 596.29 762.338 591.438 762.338C586.587 762.338 582.654 763.289 582.654 764.462C582.654 765.636 586.587 766.587 591.438 766.587Z" fill="white"/>
<path opacity="0.3" d="M623.961 772.76C628.812 772.76 632.745 771.809 632.745 770.636C632.745 769.462 628.812 768.511 623.961 768.511C619.109 768.511 615.176 769.462 615.176 770.636C615.176 771.809 619.109 772.76 623.961 772.76Z" fill="white"/>
<path opacity="0.3" d="M617.779 776.535C617.779 777.703 613.851 778.66 608.995 778.66C604.139 778.66 600.21 777.713 600.21 776.535C600.21 775.357 604.139 774.411 608.995 774.411C613.851 774.411 617.779 775.357 617.779 776.535Z" fill="white"/>
<path opacity="0.3" d="M645.916 776.535C645.916 777.703 641.988 778.66 637.132 778.66C632.275 778.66 628.347 777.713 628.347 776.535C628.347 775.357 632.275 774.411 637.132 774.411C641.988 774.411 645.916 775.357 645.916 776.535Z" fill="white"/>
<path opacity="0.3" d="M597.511 776.535C597.511 777.703 593.583 778.66 588.727 778.66C583.871 778.66 579.942 777.713 579.942 776.535C579.942 775.357 583.871 774.411 588.727 774.411C593.583 774.411 597.511 775.357 597.511 776.535Z" fill="white"/>
<path opacity="0.3" d="M641.53 766.587C646.381 766.587 650.314 765.636 650.314 764.462C650.314 763.289 646.381 762.338 641.53 762.338C636.678 762.338 632.745 763.289 632.745 764.462C632.745 765.636 636.678 766.587 641.53 766.587Z" fill="white"/>
<path opacity="0.3" d="M645.916 772.76C650.768 772.76 654.7 771.809 654.7 770.636C654.7 769.462 650.768 768.511 645.916 768.511C641.064 768.511 637.132 769.462 637.132 770.636C637.132 771.809 641.064 772.76 645.916 772.76Z" fill="white"/>
<path opacity="0.3" d="M824.099 770.499C824.099 771.666 820.171 772.623 815.315 772.623C810.459 772.623 806.53 771.677 806.53 770.499C806.53 769.321 810.459 768.375 815.315 768.375C820.171 768.375 824.099 769.321 824.099 770.499Z" fill="white"/>
<path opacity="0.3" d="M832.884 766.45C837.735 766.45 841.668 765.499 841.668 764.326C841.668 763.152 837.735 762.201 832.884 762.201C828.032 762.201 824.099 763.152 824.099 764.326C824.099 765.499 828.032 766.45 832.884 766.45Z" fill="white"/>
<path opacity="0.3" d="M806.543 766.45C811.394 766.45 815.327 765.499 815.327 764.326C815.327 763.152 811.394 762.201 806.543 762.201C801.691 762.201 797.758 763.152 797.758 764.326C797.758 765.499 801.691 766.45 806.543 766.45Z" fill="white"/>
<path opacity="0.3" d="M847.85 770.499C847.85 771.666 843.922 772.623 839.065 772.623C834.209 772.623 830.281 771.677 830.281 770.499C830.281 769.321 834.209 768.375 839.065 768.375C843.922 768.375 847.85 769.321 847.85 770.499Z" fill="white"/>
<path opacity="0.3" d="M824.099 778.512C828.951 778.512 832.884 777.561 832.884 776.388C832.884 775.215 828.951 774.264 824.099 774.264C819.248 774.264 815.315 775.215 815.315 776.388C815.315 777.561 819.248 778.512 824.099 778.512Z" fill="white"/>
<path opacity="0.3" d="M852.248 778.512C857.1 778.512 861.033 777.561 861.033 776.388C861.033 775.215 857.1 774.264 852.248 774.264C847.397 774.264 843.464 775.215 843.464 776.388C843.464 777.561 847.397 778.512 852.248 778.512Z" fill="white"/>
<path opacity="0.3" d="M803.831 778.512C808.683 778.512 812.616 777.561 812.616 776.388C812.616 775.215 808.683 774.264 803.831 774.264C798.98 774.264 795.047 775.215 795.047 776.388C795.047 777.561 798.98 778.512 803.831 778.512Z" fill="white"/>
<path opacity="0.3" d="M856.634 766.45C861.486 766.45 865.419 765.499 865.419 764.326C865.419 763.152 861.486 762.201 856.634 762.201C851.783 762.201 847.85 763.152 847.85 764.326C847.85 765.499 851.783 766.45 856.634 766.45Z" fill="white"/>
<path opacity="0.3" d="M869.805 770.499C869.805 771.666 865.877 772.623 861.02 772.623C856.164 772.623 852.236 771.677 852.236 770.499C852.236 769.321 856.164 768.375 861.02 768.375C865.877 768.375 869.805 769.321 869.805 770.499Z" fill="white"/>
<path opacity="0.3" d="M743.268 772.76C748.119 772.76 752.052 771.809 752.052 770.636C752.052 769.462 748.119 768.511 743.268 768.511C738.416 768.511 734.484 769.462 734.484 770.636C734.484 771.809 738.416 772.76 743.268 772.76Z" fill="white"/>
<path opacity="0.3" d="M760.837 766.587C765.688 766.587 769.621 765.636 769.621 764.462C769.621 763.289 765.688 762.338 760.837 762.338C755.985 762.338 752.052 763.289 752.052 764.462C752.052 765.636 755.985 766.587 760.837 766.587Z" fill="white"/>
<path opacity="0.3" d="M734.483 766.587C739.335 766.587 743.268 765.636 743.268 764.462C743.268 763.289 739.335 762.338 734.483 762.338C729.632 762.338 725.699 763.289 725.699 764.462C725.699 765.636 729.632 766.587 734.483 766.587Z" fill="white"/>
<path opacity="0.3" d="M767.019 772.76C771.87 772.76 775.803 771.809 775.803 770.636C775.803 769.462 771.87 768.511 767.019 768.511C762.167 768.511 758.234 769.462 758.234 770.636C758.234 771.809 762.167 772.76 767.019 772.76Z" fill="white"/>
<path opacity="0.3" d="M760.837 776.535C760.837 777.703 756.908 778.66 752.052 778.66C747.196 778.66 743.268 777.713 743.268 776.535C743.268 775.357 747.196 774.411 752.052 774.411C756.908 774.411 760.837 775.357 760.837 776.535Z" fill="white"/>
<path opacity="0.3" d="M788.974 776.535C788.974 777.703 785.045 778.66 780.189 778.66C775.333 778.66 771.405 777.713 771.405 776.535C771.405 775.357 775.333 774.411 780.189 774.411C785.045 774.411 788.974 775.357 788.974 776.535Z" fill="white"/>
<path opacity="0.3" d="M740.569 776.535C740.569 777.703 736.64 778.66 731.784 778.66C726.928 778.66 723 777.713 723 776.535C723 775.357 726.928 774.411 731.784 774.411C736.64 774.411 740.569 775.357 740.569 776.535Z" fill="white"/>
<path opacity="0.3" d="M784.587 766.587C789.439 766.587 793.372 765.636 793.372 764.462C793.372 763.289 789.439 762.338 784.587 762.338C779.736 762.338 775.803 763.289 775.803 764.462C775.803 765.636 779.736 766.587 784.587 766.587Z" fill="white"/>
<path opacity="0.3" d="M788.974 772.76C793.825 772.76 797.758 771.809 797.758 770.636C797.758 769.462 793.825 768.511 788.974 768.511C784.122 768.511 780.189 769.462 780.189 770.636C780.189 771.809 784.122 772.76 788.974 772.76Z" fill="white"/>
<path opacity="0.3" d="M966.518 770.499C966.518 771.666 962.59 772.623 957.734 772.623C952.878 772.623 948.949 771.677 948.949 770.499C948.949 769.321 952.878 768.375 957.734 768.375C962.59 768.375 966.518 769.321 966.518 770.499Z" fill="white"/>
<path opacity="0.3" d="M975.303 766.45C980.154 766.45 984.087 765.499 984.087 764.326C984.087 763.152 980.154 762.201 975.303 762.201C970.451 762.201 966.518 763.152 966.518 764.326C966.518 765.499 970.451 766.45 975.303 766.45Z" fill="white"/>
<path opacity="0.3" d="M948.961 766.45C953.813 766.45 957.746 765.499 957.746 764.326C957.746 763.152 953.813 762.201 948.961 762.201C944.11 762.201 940.177 763.152 940.177 764.326C940.177 765.499 944.11 766.45 948.961 766.45Z" fill="white"/>
<path opacity="0.3" d="M990.269 770.499C990.269 771.666 986.34 772.623 981.484 772.623C976.628 772.623 972.7 771.677 972.7 770.499C972.7 769.321 976.628 768.375 981.484 768.375C986.34 768.375 990.269 769.321 990.269 770.499Z" fill="white"/>
<path opacity="0.3" d="M966.518 778.512C971.37 778.512 975.303 777.561 975.303 776.388C975.303 775.215 971.37 774.264 966.518 774.264C961.667 774.264 957.734 775.215 957.734 776.388C957.734 777.561 961.667 778.512 966.518 778.512Z" fill="white"/>
<path opacity="0.3" d="M994.667 778.512C999.519 778.512 1003.45 777.561 1003.45 776.388C1003.45 775.215 999.519 774.264 994.667 774.264C989.815 774.264 985.883 775.215 985.883 776.388C985.883 777.561 989.815 778.512 994.667 778.512Z" fill="white"/>
<path opacity="0.3" d="M946.25 778.512C951.102 778.512 955.034 777.561 955.034 776.388C955.034 775.215 951.102 774.264 946.25 774.264C941.399 774.264 937.466 775.215 937.466 776.388C937.466 777.561 941.399 778.512 946.25 778.512Z" fill="white"/>
<path opacity="0.3" d="M1007.84 764.326C1007.84 765.493 1003.91 766.45 999.053 766.45C994.197 766.45 990.269 765.503 990.269 764.326C990.269 763.148 994.197 762.201 999.053 762.201C1003.91 762.201 1007.84 763.148 1007.84 764.326Z" fill="white"/>
<path opacity="0.3" d="M1012.22 770.499C1012.22 771.666 1008.3 772.623 1003.44 772.623C998.583 772.623 994.655 771.677 994.655 770.499C994.655 769.321 998.583 768.375 1003.44 768.375C1008.3 768.375 1012.22 769.321 1012.22 770.499Z" fill="white"/>
<path opacity="0.3" d="M885.687 772.76C890.538 772.76 894.471 771.809 894.471 770.636C894.471 769.462 890.538 768.511 885.687 768.511C880.835 768.511 876.902 769.462 876.902 770.636C876.902 771.809 880.835 772.76 885.687 772.76Z" fill="white"/>
<path opacity="0.3" d="M903.256 766.587C908.107 766.587 912.04 765.636 912.04 764.462C912.04 763.289 908.107 762.338 903.256 762.338C898.404 762.338 894.471 763.289 894.471 764.462C894.471 765.636 898.404 766.587 903.256 766.587Z" fill="white"/>
<path opacity="0.3" d="M876.902 766.587C881.754 766.587 885.687 765.636 885.687 764.462C885.687 763.289 881.754 762.338 876.902 762.338C872.051 762.338 868.118 763.289 868.118 764.462C868.118 765.636 872.051 766.587 876.902 766.587Z" fill="white"/>
<path opacity="0.3" d="M909.437 772.76C914.289 772.76 918.222 771.809 918.222 770.636C918.222 769.462 914.289 768.511 909.437 768.511C904.586 768.511 900.653 769.462 900.653 770.636C900.653 771.809 904.586 772.76 909.437 772.76Z" fill="white"/>
<path opacity="0.3" d="M903.256 776.535C903.256 777.703 899.327 778.66 894.471 778.66C889.615 778.66 885.687 777.713 885.687 776.535C885.687 775.357 889.615 774.411 894.471 774.411C899.327 774.411 903.256 775.357 903.256 776.535Z" fill="white"/>
<path opacity="0.3" d="M931.393 776.535C931.393 777.703 927.464 778.66 922.608 778.66C917.752 778.66 913.824 777.713 913.824 776.535C913.824 775.357 917.752 774.411 922.608 774.411C927.464 774.411 931.393 775.357 931.393 776.535Z" fill="white"/>
<path opacity="0.3" d="M882.988 776.535C882.988 777.703 879.059 778.66 874.203 778.66C869.347 778.66 865.419 777.713 865.419 776.535C865.419 775.357 869.347 774.411 874.203 774.411C879.059 774.411 882.988 775.357 882.988 776.535Z" fill="white"/>
<path opacity="0.3" d="M926.994 766.587C931.846 766.587 935.779 765.636 935.779 764.462C935.779 763.289 931.846 762.338 926.994 762.338C922.143 762.338 918.21 763.289 918.21 764.462C918.21 765.636 922.143 766.587 926.994 766.587Z" fill="white"/>
<path opacity="0.3" d="M931.392 772.76C936.244 772.76 940.177 771.809 940.177 770.636C940.177 769.462 936.244 768.511 931.392 768.511C926.541 768.511 922.608 769.462 922.608 770.636C922.608 771.809 926.541 772.76 931.392 772.76Z" fill="white"/>
<path opacity="0.3" d="M1108.94 770.499C1108.94 771.666 1105.01 772.623 1100.15 772.623C1095.3 772.623 1091.37 771.677 1091.37 770.499C1091.37 769.321 1095.3 768.375 1100.15 768.375C1105.01 768.375 1108.94 769.321 1108.94 770.499Z" fill="white"/>
<path opacity="0.3" d="M1117.72 766.45C1122.57 766.45 1126.51 765.499 1126.51 764.326C1126.51 763.152 1122.57 762.201 1117.72 762.201C1112.87 762.201 1108.94 763.152 1108.94 764.326C1108.94 765.499 1112.87 766.45 1117.72 766.45Z" fill="white"/>
<path opacity="0.3" d="M1091.38 766.45C1096.23 766.45 1100.16 765.499 1100.16 764.326C1100.16 763.152 1096.23 762.201 1091.38 762.201C1086.53 762.201 1082.6 763.152 1082.6 764.326C1082.6 765.499 1086.53 766.45 1091.38 766.45Z" fill="white"/>
<path opacity="0.3" d="M1132.69 770.499C1132.69 771.666 1128.76 772.623 1123.9 772.623C1119.05 772.623 1115.12 771.677 1115.12 770.499C1115.12 769.321 1119.05 768.375 1123.9 768.375C1128.76 768.375 1132.69 769.321 1132.69 770.499Z" fill="white"/>
<path opacity="0.3" d="M1108.94 778.512C1113.79 778.512 1117.72 777.561 1117.72 776.388C1117.72 775.215 1113.79 774.264 1108.94 774.264C1104.09 774.264 1100.15 775.215 1100.15 776.388C1100.15 777.561 1104.09 778.512 1108.94 778.512Z" fill="white"/>
<path opacity="0.3" d="M1137.07 778.512C1141.93 778.512 1145.86 777.561 1145.86 776.388C1145.86 775.215 1141.93 774.264 1137.07 774.264C1132.22 774.264 1128.29 775.215 1128.29 776.388C1128.29 777.561 1132.22 778.512 1137.07 778.512Z" fill="white"/>
<path opacity="0.3" d="M1088.67 778.512C1093.52 778.512 1097.45 777.561 1097.45 776.388C1097.45 775.215 1093.52 774.264 1088.67 774.264C1083.82 774.264 1079.88 775.215 1079.88 776.388C1079.88 777.561 1083.82 778.512 1088.67 778.512Z" fill="white"/>
<path opacity="0.3" d="M1141.47 766.45C1146.32 766.45 1150.26 765.499 1150.26 764.326C1150.26 763.152 1146.32 762.201 1141.47 762.201C1136.62 762.201 1132.69 763.152 1132.69 764.326C1132.69 765.499 1136.62 766.45 1141.47 766.45Z" fill="white"/>
<path opacity="0.3" d="M1154.64 770.499C1154.64 771.666 1150.71 772.623 1145.86 772.623C1141 772.623 1137.07 771.677 1137.07 770.499C1137.07 769.321 1141 768.375 1145.86 768.375C1150.71 768.375 1154.64 769.321 1154.64 770.499Z" fill="white"/>
<path opacity="0.3" d="M1028.11 772.76C1032.96 772.76 1036.89 771.809 1036.89 770.636C1036.89 769.462 1032.96 768.511 1028.11 768.511C1023.25 768.511 1019.32 769.462 1019.32 770.636C1019.32 771.809 1023.25 772.76 1028.11 772.76Z" fill="white"/>
<path opacity="0.3" d="M1045.67 766.587C1050.53 766.587 1054.46 765.636 1054.46 764.462C1054.46 763.289 1050.53 762.338 1045.67 762.338C1040.82 762.338 1036.89 763.289 1036.89 764.462C1036.89 765.636 1040.82 766.587 1045.67 766.587Z" fill="white"/>
<path opacity="0.3" d="M1019.32 766.587C1024.17 766.587 1028.11 765.636 1028.11 764.462C1028.11 763.289 1024.17 762.338 1019.32 762.338C1014.47 762.338 1010.54 763.289 1010.54 764.462C1010.54 765.636 1014.47 766.587 1019.32 766.587Z" fill="white"/>
<path opacity="0.3" d="M1051.86 772.76C1056.71 772.76 1060.64 771.809 1060.64 770.636C1060.64 769.462 1056.71 768.511 1051.86 768.511C1047 768.511 1043.07 769.462 1043.07 770.636C1043.07 771.809 1047 772.76 1051.86 772.76Z" fill="white"/>
<path opacity="0.3" d="M1045.67 776.535C1045.67 777.703 1041.75 778.66 1036.89 778.66C1032.03 778.66 1028.11 777.713 1028.11 776.535C1028.11 775.357 1032.03 774.411 1036.89 774.411C1041.75 774.411 1045.67 775.357 1045.67 776.535Z" fill="white"/>
<path opacity="0.3" d="M1073.81 776.535C1073.81 777.703 1069.88 778.66 1065.03 778.66C1060.17 778.66 1056.24 777.713 1056.24 776.535C1056.24 775.357 1060.17 774.411 1065.03 774.411C1069.88 774.411 1073.81 775.357 1073.81 776.535Z" fill="white"/>
<path opacity="0.3" d="M1025.41 776.535C1025.41 777.703 1021.48 778.66 1016.62 778.66C1011.77 778.66 1007.84 777.713 1007.84 776.535C1007.84 775.357 1011.77 774.411 1016.62 774.411C1021.48 774.411 1025.41 775.357 1025.41 776.535Z" fill="white"/>
<path opacity="0.3" d="M1069.41 766.587C1074.26 766.587 1078.2 765.636 1078.2 764.462C1078.2 763.289 1074.26 762.338 1069.41 762.338C1064.56 762.338 1060.63 763.289 1060.63 764.462C1060.63 765.636 1064.56 766.587 1069.41 766.587Z" fill="white"/>
<path opacity="0.3" d="M1073.81 772.76C1078.66 772.76 1082.6 771.809 1082.6 770.636C1082.6 769.462 1078.66 768.511 1073.81 768.511C1068.96 768.511 1065.03 769.462 1065.03 770.636C1065.03 771.809 1068.96 772.76 1073.81 772.76Z" fill="white"/>
<path opacity="0.3" d="M1251.36 770.499C1251.36 771.666 1247.43 772.623 1242.57 772.623C1237.72 772.623 1233.79 771.677 1233.79 770.499C1233.79 769.321 1237.72 768.375 1242.57 768.375C1247.43 768.375 1251.36 769.321 1251.36 770.499Z" fill="white"/>
<path opacity="0.3" d="M1260.14 766.45C1264.99 766.45 1268.93 765.499 1268.93 764.326C1268.93 763.152 1264.99 762.201 1260.14 762.201C1255.29 762.201 1251.36 763.152 1251.36 764.326C1251.36 765.499 1255.29 766.45 1260.14 766.45Z" fill="white"/>
<path opacity="0.3" d="M1233.8 766.45C1238.65 766.45 1242.58 765.499 1242.58 764.326C1242.58 763.152 1238.65 762.201 1233.8 762.201C1228.95 762.201 1225.02 763.152 1225.02 764.326C1225.02 765.499 1228.95 766.45 1233.8 766.45Z" fill="white"/>
<path opacity="0.3" d="M1275.11 770.499C1275.11 771.666 1271.18 772.623 1266.32 772.623C1261.47 772.623 1257.54 771.677 1257.54 770.499C1257.54 769.321 1261.47 768.375 1266.32 768.375C1271.18 768.375 1275.11 769.321 1275.11 770.499Z" fill="white"/>
<path opacity="0.3" d="M1251.36 778.512C1256.21 778.512 1260.14 777.561 1260.14 776.388C1260.14 775.215 1256.21 774.264 1251.36 774.264C1246.5 774.264 1242.57 775.215 1242.57 776.388C1242.57 777.561 1246.5 778.512 1251.36 778.512Z" fill="white"/>
<path opacity="0.3" d="M1279.49 778.512C1284.34 778.512 1288.28 777.561 1288.28 776.388C1288.28 775.215 1284.34 774.264 1279.49 774.264C1274.64 774.264 1270.71 775.215 1270.71 776.388C1270.71 777.561 1274.64 778.512 1279.49 778.512Z" fill="white"/>
<path opacity="0.3" d="M1231.09 778.512C1235.94 778.512 1239.87 777.561 1239.87 776.388C1239.87 775.215 1235.94 774.264 1231.09 774.264C1226.24 774.264 1222.3 775.215 1222.3 776.388C1222.3 777.561 1226.24 778.512 1231.09 778.512Z" fill="white"/>
<path opacity="0.3" d="M1283.89 766.45C1288.74 766.45 1292.68 765.499 1292.68 764.326C1292.68 763.152 1288.74 762.201 1283.89 762.201C1279.04 762.201 1275.11 763.152 1275.11 764.326C1275.11 765.499 1279.04 766.45 1283.89 766.45Z" fill="white"/>
<path opacity="0.3" d="M1297.06 770.499C1297.06 771.666 1293.13 772.623 1288.28 772.623C1283.42 772.623 1279.49 771.677 1279.49 770.499C1279.49 769.321 1283.42 768.375 1288.28 768.375C1293.13 768.375 1297.06 769.321 1297.06 770.499Z" fill="white"/>
<path opacity="0.3" d="M1170.53 772.76C1175.38 772.76 1179.31 771.809 1179.31 770.636C1179.31 769.462 1175.38 768.511 1170.53 768.511C1165.67 768.511 1161.74 769.462 1161.74 770.636C1161.74 771.809 1165.67 772.76 1170.53 772.76Z" fill="white"/>
<path opacity="0.3" d="M1188.09 766.587C1192.95 766.587 1196.88 765.636 1196.88 764.462C1196.88 763.289 1192.95 762.338 1188.09 762.338C1183.24 762.338 1179.31 763.289 1179.31 764.462C1179.31 765.636 1183.24 766.587 1188.09 766.587Z" fill="white"/>
<path opacity="0.3" d="M1161.74 766.587C1166.59 766.587 1170.52 765.636 1170.52 764.462C1170.52 763.289 1166.59 762.338 1161.74 762.338C1156.89 762.338 1152.96 763.289 1152.96 764.462C1152.96 765.636 1156.89 766.587 1161.74 766.587Z" fill="white"/>
<path opacity="0.3" d="M1194.28 772.76C1199.13 772.76 1203.06 771.809 1203.06 770.636C1203.06 769.462 1199.13 768.511 1194.28 768.511C1189.42 768.511 1185.49 769.462 1185.49 770.636C1185.49 771.809 1189.42 772.76 1194.28 772.76Z" fill="white"/>
<path opacity="0.3" d="M1188.09 776.535C1188.09 777.703 1184.17 778.66 1179.31 778.66C1174.45 778.66 1170.52 777.713 1170.52 776.535C1170.52 775.357 1174.45 774.411 1179.31 774.411C1184.17 774.411 1188.09 775.357 1188.09 776.535Z" fill="white"/>
<path opacity="0.3" d="M1216.23 776.535C1216.23 777.703 1212.3 778.66 1207.45 778.66C1202.59 778.66 1198.66 777.713 1198.66 776.535C1198.66 775.357 1202.59 774.411 1207.45 774.411C1212.3 774.411 1216.23 775.357 1216.23 776.535Z" fill="white"/>
<path opacity="0.3" d="M1167.83 776.535C1167.83 777.703 1163.9 778.66 1159.04 778.66C1154.19 778.66 1150.26 777.713 1150.26 776.535C1150.26 775.357 1154.19 774.411 1159.04 774.411C1163.9 774.411 1167.83 775.357 1167.83 776.535Z" fill="white"/>
<path opacity="0.3" d="M1211.83 766.587C1216.68 766.587 1220.62 765.636 1220.62 764.462C1220.62 763.289 1216.68 762.338 1211.83 762.338C1206.98 762.338 1203.05 763.289 1203.05 764.462C1203.05 765.636 1206.98 766.587 1211.83 766.587Z" fill="white"/>
<path opacity="0.3" d="M1216.23 772.76C1221.08 772.76 1225.02 771.809 1225.02 770.636C1225.02 769.462 1221.08 768.511 1216.23 768.511C1211.38 768.511 1207.45 769.462 1207.45 770.636C1207.45 771.809 1211.38 772.76 1216.23 772.76Z" fill="white"/>
<path opacity="0.3" d="M1393.78 770.499C1393.78 771.666 1389.85 772.623 1384.99 772.623C1380.13 772.623 1376.21 771.677 1376.21 770.499C1376.21 769.321 1380.13 768.375 1384.99 768.375C1389.85 768.375 1393.78 769.321 1393.78 770.499Z" fill="white"/>
<path opacity="0.3" d="M1402.56 766.45C1407.41 766.45 1411.34 765.499 1411.34 764.326C1411.34 763.152 1407.41 762.201 1402.56 762.201C1397.71 762.201 1393.78 763.152 1393.78 764.326C1393.78 765.499 1397.71 766.45 1402.56 766.45Z" fill="white"/>
<path opacity="0.3" d="M1376.21 766.45C1381.06 766.45 1384.99 765.499 1384.99 764.326C1384.99 763.152 1381.06 762.201 1376.21 762.201C1371.35 762.201 1367.42 763.152 1367.42 764.326C1367.42 765.499 1371.35 766.45 1376.21 766.45Z" fill="white"/>
<path opacity="0.3" d="M1417.53 770.499C1417.53 771.666 1413.6 772.623 1408.74 772.623C1403.89 772.623 1399.96 771.677 1399.96 770.499C1399.96 769.321 1403.89 768.375 1408.74 768.375C1413.6 768.375 1417.53 769.321 1417.53 770.499Z" fill="white"/>
<path opacity="0.3" d="M1393.78 778.512C1398.63 778.512 1402.56 777.561 1402.56 776.388C1402.56 775.215 1398.63 774.264 1393.78 774.264C1388.92 774.264 1384.99 775.215 1384.99 776.388C1384.99 777.561 1388.92 778.512 1393.78 778.512Z" fill="white"/>
<path opacity="0.3" d="M1421.91 778.512C1426.76 778.512 1430.7 777.561 1430.7 776.388C1430.7 775.215 1426.76 774.264 1421.91 774.264C1417.06 774.264 1413.13 775.215 1413.13 776.388C1413.13 777.561 1417.06 778.512 1421.91 778.512Z" fill="white"/>
<path opacity="0.3" d="M1373.51 778.512C1378.36 778.512 1382.29 777.561 1382.29 776.388C1382.29 775.215 1378.36 774.264 1373.51 774.264C1368.66 774.264 1364.72 775.215 1364.72 776.388C1364.72 777.561 1368.66 778.512 1373.51 778.512Z" fill="white"/>
<path opacity="0.3" d="M1426.31 766.45C1431.16 766.45 1435.09 765.499 1435.09 764.326C1435.09 763.152 1431.16 762.201 1426.31 762.201C1421.46 762.201 1417.53 763.152 1417.53 764.326C1417.53 765.499 1421.46 766.45 1426.31 766.45Z" fill="white"/>
<path opacity="0.3" d="M1439.48 770.499C1439.48 771.666 1435.55 772.623 1430.7 772.623C1425.84 772.623 1421.91 771.677 1421.91 770.499C1421.91 769.321 1425.84 768.375 1430.7 768.375C1435.55 768.375 1439.48 769.321 1439.48 770.499Z" fill="white"/>
<path opacity="0.3" d="M1312.94 772.76C1317.8 772.76 1321.73 771.809 1321.73 770.636C1321.73 769.462 1317.8 768.511 1312.94 768.511C1308.09 768.511 1304.16 769.462 1304.16 770.636C1304.16 771.809 1308.09 772.76 1312.94 772.76Z" fill="white"/>
<path opacity="0.3" d="M1330.51 766.587C1335.36 766.587 1339.3 765.636 1339.3 764.462C1339.3 763.289 1335.36 762.338 1330.51 762.338C1325.66 762.338 1321.73 763.289 1321.73 764.462C1321.73 765.636 1325.66 766.587 1330.51 766.587Z" fill="white"/>
<path opacity="0.3" d="M1304.16 766.587C1309.01 766.587 1312.94 765.636 1312.94 764.462C1312.94 763.289 1309.01 762.338 1304.16 762.338C1299.31 762.338 1295.38 763.289 1295.38 764.462C1295.38 765.636 1299.31 766.587 1304.16 766.587Z" fill="white"/>
<path opacity="0.3" d="M1336.68 772.76C1341.53 772.76 1345.47 771.809 1345.47 770.636C1345.47 769.462 1341.53 768.511 1336.68 768.511C1331.83 768.511 1327.9 769.462 1327.9 770.636C1327.9 771.809 1331.83 772.76 1336.68 772.76Z" fill="white"/>
<path opacity="0.3" d="M1330.51 776.535C1330.51 777.703 1326.58 778.66 1321.73 778.66C1316.87 778.66 1312.94 777.713 1312.94 776.535C1312.94 775.357 1316.87 774.411 1321.73 774.411C1326.58 774.411 1330.51 775.357 1330.51 776.535Z" fill="white"/>
<path opacity="0.3" d="M1358.65 776.535C1358.65 777.703 1354.72 778.66 1349.86 778.66C1345.01 778.66 1341.08 777.713 1341.08 776.535C1341.08 775.357 1345.01 774.411 1349.86 774.411C1354.72 774.411 1358.65 775.357 1358.65 776.535Z" fill="white"/>
<path opacity="0.3" d="M1310.23 776.535C1310.23 777.703 1306.3 778.66 1301.45 778.66C1296.59 778.66 1292.66 777.713 1292.66 776.535C1292.66 775.357 1296.59 774.411 1301.45 774.411C1306.3 774.411 1310.23 775.357 1310.23 776.535Z" fill="white"/>
<path opacity="0.3" d="M1354.25 766.587C1359.1 766.587 1363.04 765.636 1363.04 764.462C1363.04 763.289 1359.1 762.338 1354.25 762.338C1349.4 762.338 1345.47 763.289 1345.47 764.462C1345.47 765.636 1349.4 766.587 1354.25 766.587Z" fill="white"/>
<path opacity="0.3" d="M1358.65 772.76C1363.5 772.76 1367.43 771.809 1367.43 770.636C1367.43 769.462 1363.5 768.511 1358.65 768.511C1353.8 768.511 1349.86 769.462 1349.86 770.636C1349.86 771.809 1353.8 772.76 1358.65 772.76Z" fill="white"/>
<path d="M1411.83 689.793H1400.15V753.021H1411.83V689.793Z" fill="#8D6E63"/>
<g style="mix-blend-mode:overlay" opacity="0.39">
<path d="M1406 689.793H1400.15V753.021H1406V689.793Z" fill="white"/>
</g>
<path d="M1432.92 639.782C1435.02 635.671 1436.2 631.046 1436.2 626.134C1436.2 609.505 1422.68 596 1405.98 596C1389.28 596 1375.78 609.484 1375.78 626.134C1375.78 631.046 1376.98 635.692 1379.06 639.782C1365.78 648.518 1357 663.544 1357 680.605C1357 707.594 1378.93 729.464 1406 729.464C1433.07 729.464 1455 707.594 1455 680.605C1455 663.544 1446.22 648.518 1432.92 639.782Z" fill="#209B54"/>
</svg>
