<svg width="1440" height="900" viewBox="0 0 1440 900" fill="none" xmlns="http://www.w3.org/2000/svg">
<g clip-path="url(#clip0_6_3233)">
<path opacity="0.78" d="M1438.74 2.94H-1.26001V902.94H1438.74V2.94Z" fill="#FFE297"/>
<g opacity="0.5">
<g opacity="0.5">
<path d="M427.49 -0.140027C427.49 -0.140027 427.47 -0.140027 427.46 -0.140027C427.46 -1.91003 427.46 -3.68003 427.46 -5.43003C427.48 -8.80003 -7 3.78997 -7 3.78997C-7 3.78997 -5.49 245.07 10.24 246.61C22.14 247.77 34.14 247.11 46.06 247.69C60.76 248.4 75.43 249.97 90.12 250.96C114.75 252.61 143.22 254.6 165.93 243.03C185.29 233.16 191.19 210.32 196.54 191.15C199.83 179.37 203.65 167.76 211.59 158.23C221.62 146.19 238.23 142.39 252.94 139.87C286.33 134.15 319.74 139.79 352.42 128.54C379.61 119.17 403.97 99.63 416.26 73.44C426.12 52.43 427.27 28.23 427.43 5.10997C427.45 5.10997 427.47 5.10997 427.48 5.10997C430.78 4.70997 430.82 -0.520027 427.48 -0.120027L427.49 -0.140027Z" fill="#FF891A"/>
</g>
<path opacity="0.5" d="M1435.74 110.07C1380.94 120.94 1315.63 108.43 1265.24 104.83C1200.98 100.24 1089.19 110.46 1098.53 202.58C1103.09 247.54 1152.64 275.77 1172.27 313.41C1185.51 338.79 1184.3 369.94 1189.24 397.52C1194.45 426.62 1210.26 444.7 1229.07 466.09C1258.16 499.18 1305.67 524.16 1345.88 540.18C1376.43 552.35 1408.4 557.28 1435.75 540.95V110.07H1435.74Z" fill="#FF891A"/>
<path d="M1424.77 540.95C1397.42 557.28 1365.45 552.35 1334.9 540.18C1294.69 524.16 1247.18 499.18 1218.09 466.09C1199.28 444.7 1183.47 426.62 1178.26 397.52C1173.32 369.94 1174.53 338.79 1161.29 313.41C1141.66 275.77 1092.11 247.54 1087.55 202.58C1078.21 110.46 1190 100.24 1254.26 104.83C1304.65 108.43 1369.96 120.94 1424.76 110.07H1424.77" stroke="white" stroke-width="2" stroke-dasharray="12 12"/>
<path opacity="0.5" d="M394.11 321.89C321.36 299.74 226.4 332.04 186.49 397.6C169.84 424.96 159.17 457.65 129.68 474.37C104.37 488.72 4.29998 470.69 4.29998 470.69C4.29998 470.69 -26.69 901.59 13.95 883.41C61.03 862.35 76.28 792.75 118.83 761.84C163.39 729.47 215.91 713.35 265.23 690.09C285.53 680.51 304.79 668.93 321.12 653.45C338.8 636.7 348.74 612.58 358.16 590.66C368.69 566.14 378.83 541.64 396.28 521.07C409.89 505.02 428.68 493.13 444.99 480.07C471 459.25 495.61 432.49 483.61 397.14C470.97 359.92 429.86 332.77 394.11 321.89Z" fill="#FF891A"/>
<path d="M-5.70007 461.748C-5.70007 461.748 94.3699 479.778 119.68 465.428C149.17 448.708 159.84 416.018 176.49 388.658C216.4 323.098 311.36 290.798 384.11 312.948C419.86 323.828 460.97 350.978 473.61 388.198C485.61 423.548 461 450.308 434.99 471.128C418.68 484.188 399.89 496.078 386.28 512.128C368.83 532.698 358.69 557.198 348.16 581.718C338.74 603.638 328.8 627.758 311.12 644.508C294.79 659.988 275.53 671.568 255.23 681.148C205.91 704.408 153.39 720.528 108.83 752.898" stroke="white" stroke-width="2" stroke-dasharray="12 12"/>
<path d="M437.345 -6C437.345 -4.11862 437.345 -2.21574 437.345 -0.312866C437.355 -0.312866 437.376 -0.312866 437.376 -0.312866L437.366 -0.291364C440.899 -0.721393 440.857 4.90123 437.366 5.33126C437.355 5.33126 437.334 5.33126 437.313 5.33126C437.144 30.1869 435.927 56.2037 425.497 78.791C412.496 106.947 386.728 127.954 357.966 138.027C323.396 150.122 288.054 144.059 252.733 150.208C237.173 152.917 219.602 157.002 208.992 169.946C200.593 180.192 196.552 192.673 193.072 205.338C187.413 225.947 181.172 250.502 160.692 261.113C136.669 273.551 106.553 271.412 80.4988 269.638C64.9594 268.574 49.4411 266.886 33.8911 266.122C21.2818 265.499 8.58797 266.208 -4.00012 264.961" stroke="white" stroke-width="2" stroke-dasharray="12 12"/>
</g>
<rect x="-7" y="531" width="1443" height="374" fill="#93CBFF"/>
<rect x="-4" y="515" width="1443" height="18" fill="#F7B042"/>
<rect x="-7" y="598" width="437" height="44" fill="#76B5F8" fill-opacity="0.2" style="mix-blend-mode:multiply"/>
<rect x="618" y="599" width="437" height="44" fill="#76B5F8" fill-opacity="0.2" style="mix-blend-mode:multiply"/>
<rect x="1204" y="599" width="243" height="44" fill="#76B5F8" fill-opacity="0.2" style="mix-blend-mode:multiply"/>
<rect x="-7" y="816" width="218" height="44" fill="#76B5F8" fill-opacity="0.2" style="mix-blend-mode:multiply"/>
<rect x="149" y="773" width="1052" height="44" fill="#76B5F8" fill-opacity="0.2" style="mix-blend-mode:multiply"/>
<rect x="806" y="642" width="437" height="44" fill="#76B5F8" fill-opacity="0.2" style="mix-blend-mode:multiply"/>
<rect x="181" y="641" width="437" height="44" fill="#76B5F8" fill-opacity="0.2" style="mix-blend-mode:multiply"/>
<rect x="947" y="729" width="492" height="44" fill="#76B5F8" fill-opacity="0.2" style="mix-blend-mode:multiply"/>
<path d="M943.747 749.181C938.589 749.181 933.687 745.19 932.11 739.599C931.854 738.703 931.684 737.785 931.599 736.846C925.567 737.999 919.62 739.578 913.823 741.562C912.715 741.946 911.5 741.349 911.116 740.239C910.733 739.13 911.33 737.913 912.438 737.529C918.725 735.374 925.183 733.688 931.705 732.493C932.046 729.911 932.899 727.201 934.241 724.448C939.57 713.458 949.651 706.011 958.56 699.417C959.519 698.713 960.841 698.926 961.544 699.865C962.247 700.804 962.034 702.148 961.096 702.853C952.592 709.148 942.937 716.275 938.078 726.305C937.332 727.82 936.586 729.719 936.16 731.746C936.82 731.661 937.46 731.554 938.12 731.469C945.154 730.551 949.843 731.981 952.145 735.715C953.573 738.063 953.615 740.986 952.23 743.718C950.695 746.748 947.69 748.882 944.578 749.138C944.301 749.159 944.024 749.181 943.747 749.181ZM935.819 736.121C935.883 736.889 936.01 737.679 936.224 738.447C937.161 741.797 940.465 745.147 944.216 744.891C945.857 744.742 947.541 743.504 948.415 741.797C948.756 741.136 949.417 739.45 948.5 737.956C947.179 735.779 943.854 735.032 938.675 735.715C937.716 735.843 936.778 735.971 935.819 736.121Z" fill="white" fill-opacity="0.2"/>
<path d="M1356.14 352.96C1355.22 352.96 1354.37 352.362 1354.09 351.424C1353.75 350.293 1354.41 349.098 1355.54 348.777C1357.63 348.159 1359.52 347.582 1361.25 346.878C1357.46 343.805 1355.39 339.068 1356.07 334.715C1356.5 331.941 1358.22 329.295 1360.65 327.651C1362.87 326.158 1365.39 325.667 1367.77 326.222C1372.31 327.31 1375.57 332.325 1375.04 337.425C1374.7 340.668 1372.99 343.827 1370.27 346.345C1371.89 346.665 1373.63 346.814 1375.6 346.793C1385.34 346.665 1394.93 342.162 1401.26 334.757C1402.02 333.861 1403.37 333.754 1404.26 334.523C1405.16 335.291 1405.26 336.635 1404.5 337.532C1397.38 345.854 1386.59 350.911 1375.66 351.061C1371.91 351.103 1368.63 350.57 1365.79 349.46C1362.74 351.082 1359.48 352.042 1356.73 352.853C1356.54 352.917 1356.33 352.939 1356.14 352.939V352.96ZM1365.85 330.276C1364.92 330.276 1363.94 330.596 1363.04 331.194C1361.59 332.175 1360.53 333.776 1360.29 335.376C1359.8 338.492 1361.57 342.013 1364.68 344.125C1364.96 344.318 1365.26 344.488 1365.56 344.659C1368.58 342.61 1370.5 339.815 1370.8 336.977C1371.08 334.331 1369.54 331.044 1366.79 330.383C1366.49 330.319 1366.17 330.276 1365.85 330.276Z" fill="white" fill-opacity="0.2"/>
<path d="M97.9414 723.577C97.253 723.577 96.6115 723.123 96.4394 722.419C93.9985 713.258 89.3984 705.1 83.1084 698.82C76.5055 692.228 68.0564 687.843 59.3255 686.481C55.7737 685.917 52.8791 686.027 50.4695 686.794C49.9062 686.966 49.3586 687.185 48.8423 687.452C49.1865 687.624 49.5151 687.796 49.8593 687.984C53.2703 689.926 56.337 693.856 55.054 697.928C54.4751 699.728 53.0356 701.185 51.0797 701.905C48.9361 702.704 46.5735 702.5 44.7585 701.373C41.4883 699.337 40.1114 694.858 41.5509 690.944C41.8326 690.161 42.2237 689.409 42.7088 688.72C38.6719 687.937 34.3535 688.172 30.6452 688.36C29.7847 688.407 29.0493 687.734 29.0023 686.872C28.9554 686.011 29.6282 685.275 30.4888 685.228C34.9637 684.993 40.2679 684.711 45.2122 686.074C46.464 685.103 47.9348 684.32 49.562 683.803C52.441 682.895 55.805 682.754 59.8419 683.396C69.2142 684.852 78.2736 689.55 85.3459 696.612C92.0114 703.267 96.9087 711.927 99.4904 721.62C99.7095 722.45 99.2245 723.311 98.3795 723.53C98.2387 723.562 98.1136 723.577 97.9727 723.577H97.9414ZM45.9476 689.597C45.2905 690.317 44.7898 691.132 44.4768 692.008C43.5693 694.467 44.4456 697.474 46.4014 698.695C47.3871 699.306 48.7484 699.4 49.9845 698.946C51.0328 698.554 51.7838 697.834 52.0655 696.957C52.8009 694.655 50.7355 692.055 48.3103 690.677C47.5592 690.255 46.7613 689.894 45.9476 689.581V689.597Z" fill="white" fill-opacity="0.2"/>
<path d="M59.8857 630.26C59.5728 630.26 59.2598 630.166 58.9939 629.978C52.2189 625.217 46.9929 619.142 43.8948 612.392C41.6417 607.491 40.5465 602.151 40.656 597.015C38.0743 594.901 35.7742 592.176 33.881 588.951C30.2353 582.703 28.6081 575.703 27.0434 568.923C26.84 568.077 27.372 567.231 28.2169 567.043C29.0618 566.84 29.9067 567.372 30.0945 568.218C31.6122 574.763 33.1925 581.544 36.6035 587.385C37.8552 589.546 39.3573 591.456 41.0002 593.085C41.188 591.785 41.4696 590.501 41.8295 589.264C42.5649 586.711 44.8806 580.651 50.4821 579.477C55.1917 578.475 59.6667 581.732 61.998 585.396C63.9069 588.403 65.2369 592.959 63.2184 596.796C60.9184 601.149 55.4577 602.449 51.0766 601.807C48.5575 601.447 46.1166 600.554 43.8166 599.239C44.0043 603.247 44.9901 607.319 46.7425 611.124C49.6059 617.372 54.472 623.009 60.7932 627.457C61.4973 627.958 61.6694 628.929 61.1687 629.633C60.8714 630.072 60.3864 630.307 59.8857 630.307V630.26ZM43.8635 595.48C46.2731 597.187 48.8861 598.283 51.5147 598.675C54.7066 599.145 58.853 598.283 60.4333 595.308C61.8259 592.678 60.7932 589.326 59.3381 587.072C57.5856 584.331 54.3624 581.873 51.0923 582.546C47.0398 583.392 45.2561 588.559 44.8023 590.125C44.3016 591.848 43.9887 593.648 43.8479 595.496L43.8635 595.48Z" fill="white" fill-opacity="0.2"/>
<path d="M1073.51 333.349C1071.03 329.78 1069.27 325.959 1067.59 321.974C1065.79 317.722 1063.71 313.609 1061.7 309.452C1059.53 304.941 1057.69 300.243 1055.31 295.834C1054.16 293.694 1052.9 291.63 1051.6 289.581C1050.8 288.317 1049.92 286.699 1048.41 286.165C1046.76 285.588 1044.96 286.662 1043.49 287.25C1041.35 288.101 1039.25 289.066 1037.25 290.194C1036.82 290.432 1036.4 290.662 1035.96 290.888C1034.42 291.487 1032.88 292.116 1031.35 292.788C1027.35 294.552 1023.49 296.609 1019.58 298.563C1015.61 300.55 1011.63 302.585 1007.7 304.667C1006.27 305.427 1004.88 306.336 1003.66 307.414C1002.22 308.678 1002.07 309.215 1002.12 311.118C1002.17 312.9 1001.68 314.679 1002.4 316.352C1003.18 318.164 1004.27 319.863 1005.08 321.663C1006.96 325.776 1008.98 329.795 1011.13 333.772C1015.15 341.21 1018.32 349.041 1022.2 356.548C1023.15 358.382 1024.1 360.215 1025.11 362.02C1025.68 363.057 1026.31 364.935 1027.66 365.154C1029.08 365.388 1031.3 364.062 1032.56 363.532C1034.71 362.63 1036.76 361.516 1038.84 360.478C1046.8 356.508 1054.66 352.358 1062.62 348.406C1064.69 347.376 1066.79 346.4 1068.81 345.286C1070.16 344.545 1072.05 343.997 1072.87 342.62C1073.69 341.243 1074.16 339.57 1074.69 338.068C1075.44 335.942 1074.76 335.142 1073.51 333.341V333.349ZM1071.48 332.611C1072.03 333.422 1072.7 334.229 1073.14 335.109C1073.23 335.292 1073.29 335.467 1073.34 335.646C1073.32 335.657 1073.31 335.668 1073.3 335.683C1073.46 335.482 1072.14 335.957 1072.06 335.993C1071.18 336.377 1070.33 336.786 1069.47 337.199C1067.96 337.922 1066.41 338.543 1064.89 339.226C1064.34 338.13 1064.78 336.64 1065.73 335.953C1066.51 335.391 1067.82 334.905 1068.27 333.995C1068.63 333.272 1068.43 332.629 1068.11 331.917C1067.27 330.069 1068.21 329.795 1069.41 329.166C1070.05 330.346 1070.73 331.497 1071.48 332.615V332.611ZM1045.57 288.09C1047.83 287.444 1048.73 288.452 1049.89 290.278C1050.41 291.111 1050.94 291.94 1051.46 292.777C1050.21 293.128 1049.29 294.037 1047.87 292.474C1047.33 291.864 1047.14 291.02 1046.33 290.68C1045.54 290.348 1045.23 290.68 1044.52 291.031C1043.02 291.761 1042 292.189 1041.21 290.114C1041.16 289.986 1041.13 289.869 1041.09 289.752C1042.54 289.12 1044.02 288.536 1045.57 288.09ZM1019.02 300.338C1022.27 298.603 1025.53 296.868 1028.83 295.191C1031.14 294.128 1033.48 293.131 1035.82 292.134C1037.47 291.425 1039.07 290.651 1040.69 289.931C1040.78 290.874 1040.7 291.703 1041.81 292.328C1043.07 293.04 1043.9 292.265 1045.11 292.043C1045.73 291.929 1045.78 291.765 1046.33 292.371C1046.61 292.675 1046.79 293.098 1047.05 293.434C1047.42 293.928 1047.73 294.304 1048.32 294.559C1049.73 295.173 1050.95 294.559 1052.21 294.026C1052.52 294.534 1052.81 295.045 1053.1 295.56C1054.98 298.921 1056.49 302.439 1058.16 305.898C1059.97 309.66 1061.89 313.371 1063.77 317.101C1065.52 320.568 1066.94 324.177 1068.64 327.665C1068.76 327.913 1068.89 328.154 1069.01 328.396C1068.23 328.348 1067.38 328.644 1066.87 329.206C1065.48 330.737 1067.47 332.081 1066.66 333.601C1066.24 334.401 1064.95 334.832 1064.28 335.471C1063.8 335.928 1063.34 336.508 1063.23 337.181C1063.12 337.783 1063.23 339.058 1063.64 339.803C1063.57 339.84 1063.49 339.876 1063.41 339.913C1059.47 341.853 1055.64 343.993 1051.67 345.874C1047.83 347.693 1043.93 349.385 1040.1 351.222C1038.11 352.175 1036.23 353.348 1034.24 354.294C1034.24 354.016 1034.06 353.735 1033.77 353.684C1031.19 350.119 1029.17 346.039 1027.11 342.163C1024.86 337.933 1022.57 333.626 1020.07 329.546C1017.42 325.225 1015.54 320.626 1013.8 315.87C1013.1 313.982 1012.48 312.064 1011.76 310.183C1011.45 309.39 1011.09 308.616 1010.73 307.848C1010.36 307.07 1009.83 306.343 1009.43 305.569C1012.54 303.699 1015.85 302.037 1019.03 300.335L1019.02 300.338ZM1018.35 335.8C1016.07 332.07 1013.73 328.436 1011.64 324.633C1012.13 324.155 1012.74 324.14 1013.52 323.815C1014.33 323.479 1015.03 322.967 1015.89 322.781C1016.83 325.02 1017.86 327.216 1019.12 329.316C1021.59 333.418 1023.82 337.772 1025.99 342.039C1026.18 342.404 1026.36 342.777 1026.55 343.146C1025.79 343.325 1025.05 343.639 1024.36 343.964C1024.01 344.125 1023.55 344.3 1023.12 344.508C1021.6 341.564 1020.07 338.62 1018.35 335.803V335.8ZM1011.29 323.976C1010.64 322.781 1010.02 321.568 1009.45 320.326C1009.4 320.231 1009.36 320.137 1009.32 320.042C1009.38 319.976 1009.45 319.91 1009.52 319.855C1010.17 319.355 1011.11 319.172 1011.85 318.862C1012.58 318.551 1013.27 318.263 1014.04 318.054C1014.56 319.439 1015.08 320.816 1015.64 322.175C1014.67 322.31 1013.8 322.938 1012.88 323.285C1012.34 323.493 1011.75 323.632 1011.29 323.976ZM1024.24 344.724C1025.08 344.311 1025.95 343.993 1026.82 343.694C1027.51 345.074 1028.2 346.473 1028.92 347.861C1028.09 348.219 1027.26 348.566 1026.44 348.972C1026.18 349.096 1025.92 349.224 1025.66 349.344C1024.91 347.953 1024.18 346.55 1023.46 345.144C1023.68 345.009 1023.94 344.877 1024.25 344.724H1024.24ZM1028.27 348.935C1028.58 348.804 1028.96 348.723 1029.3 348.581C1030.41 350.685 1031.6 352.742 1032.97 354.623C1033.02 354.689 1033.08 354.743 1033.14 354.791C1031.94 355.331 1030.72 355.865 1029.66 356.646C1029.32 356 1028.78 355.379 1028.49 354.784C1027.88 353.549 1027.3 352.314 1026.63 351.116C1026.4 350.711 1026.18 350.302 1025.95 349.892C1026.68 349.509 1027.62 349.206 1028.27 348.935ZM1007.71 306.632C1008.13 306.358 1008.56 306.088 1009 305.825C1009.6 307.275 1010.57 308.681 1011.14 310.095C1011.97 312.148 1012.61 314.274 1013.39 316.345C1013.53 316.71 1013.67 317.072 1013.8 317.437C1013.16 317.393 1012.57 317.722 1011.96 317.992C1011.01 318.416 1009.87 318.741 1009.03 319.395C1008.09 317.254 1007.27 315.041 1006.21 312.962C1005.66 311.877 1005.08 310.646 1004.43 309.624C1004.32 309.448 1004.2 309.291 1004.09 309.149C1004.99 308.155 1006.85 307.187 1007.71 306.636L1007.71 306.632ZM1003.79 316.904C1003.56 316.352 1003.14 315.589 1003.11 314.99C1003.07 314.263 1003.44 313.35 1003.53 312.612C1003.64 311.775 1003.38 310.698 1003.61 309.912C1003.63 309.85 1003.65 309.792 1003.68 309.73C1004.19 310.46 1004.53 311.589 1004.87 312.181C1005.55 313.401 1006.1 314.632 1006.6 315.939C1007.14 317.357 1007.75 318.763 1008.39 320.147C1008.18 320.582 1008.09 321.097 1008 321.557C1007.82 322.507 1007.5 323.563 1007.42 324.564C1006.13 322.062 1004.9 319.523 1003.79 316.904ZM1007.87 325.433C1007.9 325.4 1007.93 325.364 1007.95 325.309C1008.26 324.151 1008.24 322.259 1008.76 320.944C1008.99 321.426 1009.23 321.904 1009.47 322.379C1009.86 323.146 1010.26 323.91 1010.66 324.666C1009.95 325.674 1009.58 326.982 1009.37 328.242C1008.87 327.311 1008.36 326.376 1007.87 325.437L1007.87 325.433ZM1009.75 328.947C1010.31 327.829 1010.6 326.66 1011.11 325.481C1013.23 329.345 1015.54 333.097 1017.67 336.972C1019.19 339.738 1020.61 342.565 1022.04 345.385C1021.66 346.042 1021.51 347.105 1021.28 347.734C1021.03 348.435 1020.85 349.122 1020.7 349.819C1018.69 345.714 1016.72 341.586 1014.53 337.582C1012.94 334.686 1011.33 331.829 1009.76 328.951L1009.75 328.947ZM1021.02 350.491C1021.58 349.253 1022.02 347.986 1022.39 346.667C1022.42 346.535 1022.46 346.419 1022.5 346.309C1023.13 347.547 1023.76 348.782 1024.41 350.013C1023.94 350.594 1023.88 351.799 1023.68 352.446C1023.43 353.275 1023.37 354.115 1023.25 354.944C1022.49 353.472 1021.75 351.985 1021.02 350.499V350.491ZM1028.16 361.22C1028.04 361.837 1027.93 362.443 1027.85 363.057C1027.61 362.882 1027.46 362.557 1027.17 362.075C1026.26 360.522 1025.38 358.948 1024.53 357.362C1024.21 356.771 1023.9 356.175 1023.59 355.58C1023.87 355.036 1024.03 354.374 1024.2 353.826C1024.46 353.056 1024.52 351.759 1024.89 350.915C1024.95 351.021 1025 351.131 1025.06 351.237C1025.68 352.391 1026.26 353.545 1026.82 354.725C1027.29 355.689 1028.14 356.559 1028.54 357.512C1028.95 358.462 1028.33 360.27 1028.15 361.22H1028.16ZM1072.73 338.806C1072.38 339.639 1072.08 340.53 1071.61 341.308C1071.12 342.13 1070.41 342.47 1069.6 342.923C1067.87 343.887 1066.18 344.892 1064.43 345.816C1057.37 349.553 1050.36 353.363 1043.19 356.884C1039.44 358.725 1035.63 360.679 1031.72 362.162C1030.88 362.484 1029.92 362.937 1029.02 363.127C1029.17 362.162 1029.37 361.202 1029.53 360.237C1029.66 359.448 1030.06 358.217 1029.93 357.414C1029.92 357.366 1029.9 357.315 1029.89 357.267C1033.81 356.183 1037.39 353.929 1041.06 352.23C1045.2 350.312 1049.33 348.38 1053.43 346.378C1057.68 344.304 1061.74 341.896 1066.17 340.209C1068.16 339.453 1070.1 338.649 1072.01 337.718C1072.32 337.568 1072.88 337.349 1073.35 337.049C1073.22 337.634 1072.97 338.214 1072.73 338.806Z" fill="white"/>
<path d="M1054.88 348.329C1047.3 350.641 1040.56 355.134 1033.38 358.338C1033.25 358.393 1033.34 358.604 1033.47 358.557C1040.85 355.766 1047.78 351.806 1055.02 348.676C1055.22 348.592 1055.08 348.267 1054.87 348.329H1054.88Z" fill="white"/>
<path d="M1070.06 339.562C1067.63 340.074 1065.43 341.736 1063.24 342.831C1060.62 344.136 1057.96 345.352 1055.35 346.671C1055.31 346.689 1055.34 346.736 1055.37 346.722C1058.06 345.516 1060.79 344.431 1063.5 343.27C1064.75 342.733 1065.97 342.167 1067.18 341.535C1068.16 341.02 1069.41 340.611 1070.25 339.895C1070.42 339.756 1070.24 339.522 1070.06 339.562H1070.06Z" fill="white"/>
<path d="M1068.35 342.678C1064.89 343.767 1061.57 345.896 1058.3 347.463C1058.18 347.518 1058.28 347.69 1058.4 347.635C1061.74 346.112 1065.34 344.899 1068.49 343.007C1068.66 342.905 1068.55 342.616 1068.35 342.678Z" fill="white"/>
<path d="M1040.08 356.793C1038.36 357.552 1036.66 358.352 1034.88 358.999C1034.64 359.087 1034.75 359.474 1034.99 359.382C1036.78 358.732 1038.61 358.038 1040.27 357.103C1040.47 356.986 1040.29 356.701 1040.08 356.793Z" fill="white"/>
<path d="M1042.7 301.522C1038.28 302.296 1033.9 304.999 1029.97 307.059C1028 308.097 1025.98 309.094 1023.98 310.088C1021.94 311.099 1020.13 312.469 1018.12 313.536C1018.05 313.572 1018.1 313.693 1018.17 313.664C1022.25 311.983 1026.35 310.201 1030.35 308.338C1032.57 307.304 1034.79 306.263 1037.03 305.259C1038.89 304.426 1041.75 303.903 1043.24 302.46C1043.67 302.044 1043.22 301.434 1042.7 301.525L1042.7 301.522Z" fill="white"/>
<path d="M1044.99 304.481C1043.46 304.407 1042 305.54 1040.7 306.227C1038.73 307.271 1036.69 308.247 1034.64 309.149C1030.43 311.012 1026.68 313.788 1022.5 315.651C1022.39 315.698 1022.48 315.852 1022.59 315.804C1026.88 313.974 1031.17 312.038 1035.51 310.34C1037.24 309.664 1038.91 308.827 1040.58 308.009C1041.47 307.571 1042.33 307.059 1043.23 306.621C1044.02 306.234 1044.77 306.069 1045.39 305.449C1045.76 305.091 1045.47 304.499 1044.99 304.477L1044.99 304.481Z" fill="white"/>
<path d="M1059.14 326.595C1057.53 326.262 1055.6 327.296 1054.13 327.899C1052.06 328.746 1050.01 329.605 1047.95 330.474C1045.94 331.325 1044 332.311 1042.03 333.268C1041 333.773 1039.96 334.262 1038.97 334.825C1038.27 335.219 1036.95 336.362 1036.11 336.278C1036.06 336.275 1036.03 336.348 1036.07 336.381C1036.88 337.016 1038.58 335.939 1039.36 335.614C1041.65 334.66 1043.97 333.783 1046.24 332.786C1050.51 330.909 1055.05 329.597 1059.28 327.654C1059.73 327.449 1059.61 326.693 1059.14 326.595H1059.14Z" fill="white"/>
<path d="M1058.5 330.81C1056.6 331.201 1054.75 332.187 1052.96 332.943C1050.93 333.802 1048.88 334.624 1046.85 335.478C1042.8 337.181 1039.06 339.61 1034.98 341.243C1034.72 341.348 1034.82 341.783 1035.1 341.685C1039.24 340.271 1043.25 338.441 1047.34 336.892C1049.33 336.136 1051.32 335.398 1053.29 334.594C1055.22 333.805 1057.28 333.203 1058.99 331.979C1059.58 331.559 1059.23 330.66 1058.5 330.81H1058.5Z" fill="white"/>
<path d="M1391.47 79.6442C1392.64 78.0155 1393.56 76.3093 1394.42 74.4977C1396.33 70.4939 1398.18 66.5594 1399.8 62.423C1401.41 58.333 1403.2 54.3225 1404.59 50.1494C1406.06 45.7624 1407.25 41.288 1408.69 36.8942C1411.9 27.1312 1414.74 17.2531 1417.58 7.37466C1419.05 2.23604 1420.44 -2.84328 1421.55 -8.07383C1421.99 -10.1841 1422.54 -12.302 1422.75 -14.4506C1422.88 -15.8146 1423.3 -17.2235 1422.34 -18.325C1422.08 -18.6383 1421.58 -18.6671 1421.21 -18.5734C1419.36 -18.1073 1417.69 -15.8054 1416.23 -14.6762C1414.58 -13.408 1413 -12.0406 1411.4 -10.6937C1408.74 -8.90932 1406.23 -6.8214 1403.78 -4.76213C1401.07 -2.7494 1398.37 -0.705225 1395.91 1.57998C1394.88 2.38449 1393.86 3.18751 1392.84 3.99524C1389.43 6.69798 1385.75 9.0515 1382.42 11.8617C1375.34 17.8584 1368.75 24.3765 1361.49 30.177C1359.3 31.9272 1356.16 33.4431 1355.99 36.595C1355.92 37.8944 1356.4 38.9022 1357.17 39.8946C1358.6 41.7308 1360.02 43.5561 1361.41 45.426C1366.55 52.3434 1370.81 59.9698 1376.34 66.6053C1378.94 69.7308 1381.47 72.9362 1383.95 76.1549C1384.99 77.4933 1386.15 78.7153 1387.19 80.0351C1387.68 80.6563 1388.17 81.5066 1389.04 81.5931C1390.23 81.7161 1390.88 80.4608 1391.47 79.641L1391.47 79.6442ZM1358.95 35.7031C1359.24 35.1684 1359.73 34.6791 1360.28 34.2191C1360.49 34.4549 1360.68 34.6922 1360.87 34.9433C1361.11 35.2608 1361.39 35.5556 1361.81 35.6157C1362.09 35.6548 1362.33 35.3687 1362.16 35.1055C1361.93 34.7335 1361.64 34.4805 1361.29 34.2236C1361.11 34.0974 1360.94 33.9651 1360.78 33.8313C1361.5 33.2868 1362.28 32.7823 1362.87 32.3025C1363.37 31.8976 1363.85 31.4769 1364.34 31.0641C1364.65 31.6089 1364.89 32.1729 1365.52 32.4705C1365.9 32.65 1366.26 32.3816 1366.29 31.9859C1366.32 31.422 1365.91 31.1219 1365.5 30.8341C1365.34 30.7239 1365.19 30.5997 1365.05 30.4694C1366.13 29.5318 1367.22 28.5863 1368.28 27.6249C1368.28 27.6296 1368.29 27.639 1368.29 27.6437C1368.36 27.793 1368.41 27.9577 1368.49 28.1025C1368.56 28.2395 1368.67 28.324 1368.75 28.4547C1368.92 28.7462 1369.33 28.5659 1369.35 28.2667C1369.36 27.8943 1369.2 27.7169 1368.96 27.4618C1368.89 27.3825 1368.82 27.2909 1368.75 27.2039C1369.94 26.1185 1371.14 25.0236 1372.33 23.9255C1372.36 24.029 1372.4 24.1295 1372.43 24.2345C1372.58 24.7313 1372.7 25.1514 1373.23 25.3427C1373.45 25.4229 1373.67 25.2565 1373.78 25.0854C1374.19 24.4701 1373.63 23.8135 1373.05 23.2578C1373.82 22.5441 1374.6 21.8304 1375.37 21.1199C1375.39 21.1811 1375.41 21.2469 1375.43 21.3096C1375.53 21.67 1375.73 21.8699 1375.98 22.1377C1376.17 22.3359 1376.47 22.1817 1376.54 21.963C1376.65 21.6342 1376.52 21.2359 1376.27 21.004C1376.13 20.8802 1376.01 20.7704 1375.88 20.6545C1377.06 19.5749 1378.25 18.5018 1379.46 17.4446C1379.56 17.6241 1379.65 17.8066 1379.73 18.0167C1379.82 18.2928 1379.92 18.6376 1380.11 18.8623C1380.22 19.0029 1380.36 19.0615 1380.54 19.0161C1380.56 19.0117 1380.57 19.0073 1380.59 19.0013C1380.73 18.9678 1380.87 18.819 1380.89 18.6742C1380.95 18.2167 1380.77 17.9423 1380.46 17.6238C1380.28 17.4288 1380.1 17.2386 1379.9 17.0513C1380.03 16.9381 1380.16 16.8187 1380.29 16.7054C1381.31 15.8274 1382.33 14.9588 1383.34 14.087C1383.6 14.8713 1383.98 15.6465 1384.66 16.0805C1384.87 16.2166 1385.19 16.0974 1385.29 15.8807C1385.55 15.3174 1385.26 14.7682 1384.89 14.3254C1384.7 14.1007 1384.49 13.9147 1384.27 13.7221C1384.17 13.6379 1384.1 13.5633 1384.04 13.4843C1384.82 12.8083 1385.61 12.126 1386.4 11.4532C1386.57 11.807 1386.75 12.1593 1386.96 12.4857C1387.18 12.8341 1387.45 13.2504 1387.89 13.3202C1388.3 13.3832 1388.49 12.9451 1388.24 12.6523C1388.01 12.3833 1388.01 11.97 1387.74 11.6958C1387.5 11.4422 1387.26 11.187 1387.02 10.9257C1388.22 9.90581 1389.43 8.88915 1390.66 7.88216C1390.89 8.54415 1391.13 9.20787 1391.64 9.6922C1392.02 10.0494 1392.66 9.73431 1392.64 9.22721C1392.63 8.72012 1392.35 8.40975 1391.99 8.08247C1391.74 7.85206 1391.53 7.59126 1391.34 7.32131C1392.46 6.40925 1393.58 5.49249 1394.71 4.56954C1394.84 4.89931 1394.92 5.24214 1395.04 5.63402C1395.19 6.12467 1395.44 6.73248 1395.87 7.03755C1396.14 7.23086 1396.47 7.14607 1396.58 6.81405C1396.92 5.71411 1395.96 4.89796 1395.15 4.20272C1396.11 3.40953 1397.07 2.61634 1398.02 1.81523C1398.3 2.06645 1398.53 2.35104 1398.74 2.69449C1398.99 3.1214 1399.16 3.52817 1399.53 3.8713C1399.81 4.12871 1400.33 3.99238 1400.4 3.59896C1400.61 2.42662 1399.47 1.8741 1398.52 1.38858C1399.17 0.83514 1399.83 0.278472 1400.47 -0.281416C1400.94 -0.694474 1401.42 -1.10753 1401.89 -1.52059C1401.95 -1.38244 1402.01 -1.24107 1402.07 -1.10589C1402.28 -0.656251 1402.69 -0.0490343 1403.09 0.241665C1403.48 0.517991 1404.08 0.333237 1404.06 -0.208264C1404.04 -0.796538 1403.61 -1.15779 1403.18 -1.50049C1402.92 -1.69501 1402.68 -1.84573 1402.46 -2.02091C1402.48 -2.03005 1402.49 -2.04538 1402.5 -2.05452C1403.5 -2.70364 1404.49 -3.35599 1405.46 -4.02097C1405.53 -3.88726 1405.6 -3.75356 1405.67 -3.62133C1405.84 -3.30192 1406.08 -3.07796 1406.34 -2.83962C1406.47 -2.72046 1406.74 -2.74098 1406.8 -2.92232C1406.97 -3.33593 1406.82 -3.66126 1406.51 -3.97364C1406.35 -4.1354 1406.17 -4.26328 1405.98 -4.38647C1407.02 -5.10509 1408.04 -5.84105 1409.02 -6.62605C1409.14 -6.47126 1409.28 -6.33947 1409.42 -6.17797C1409.82 -5.72988 1410 -5.00954 1410.62 -4.8384C1410.78 -4.79196 1411.01 -4.85682 1411.11 -4.99382C1411.55 -5.56183 1411.24 -6.35631 1410.71 -6.77062C1410.47 -6.96192 1410.18 -7.0946 1409.9 -7.2164C1409.87 -7.22929 1409.84 -7.23923 1409.81 -7.24594C1410.53 -7.82332 1411.25 -8.40219 1411.97 -8.97487C1412.02 -8.87261 1412.07 -8.76416 1412.13 -8.67427C1412.34 -8.3417 1412.5 -7.97874 1412.72 -7.6615C1413.13 -7.08842 1414.18 -7.31083 1414.11 -8.09962C1414.05 -8.77282 1413.7 -9.16864 1413.21 -9.59949C1413.13 -9.66787 1413.06 -9.73451 1412.99 -9.80438C1413.81 -10.4673 1414.63 -11.1381 1415.43 -11.8248C1416.55 -12.7822 1417.78 -13.5303 1418.92 -14.445C1419.46 -14.8726 1420.05 -15.5863 1420.72 -15.9929C1420.68 -14.9145 1420.19 -13.2883 1420.08 -12.7365C1419.72 -10.9273 1419.33 -9.1219 1418.93 -7.31794C1417.74 -6.76256 1416.45 -6.35874 1415.28 -5.73428C1413.81 -4.94359 1412.34 -4.0888 1410.98 -3.12154C1408.62 -1.44602 1406.41 0.438032 1404.07 2.15615C1398.52 6.25423 1393.26 10.7785 1387.74 14.913C1382.9 18.5305 1378.63 22.5381 1374.3 26.7378C1372.07 28.899 1369.69 30.8879 1367.37 32.9572C1366.22 33.9872 1365.23 35.1588 1364.16 36.2652C1362.95 37.5313 1361.56 38.5121 1360.15 39.5207C1359.14 38.3934 1358.16 37.1837 1358.95 35.6999L1358.95 35.7031ZM1387.25 77.2679C1384.82 74.4447 1382.57 71.4311 1380.28 68.4871C1378.01 65.5715 1375.68 62.7905 1373.72 59.6493C1371.72 56.4466 1369.4 53.4256 1367.55 50.1444C1365.66 46.7845 1363.41 43.5853 1361.02 40.5523C1363.35 38.8277 1365.18 36.9218 1367.23 34.8262C1369.25 32.769 1371.48 30.9384 1373.56 28.9399C1378.35 24.3344 1382.96 19.7573 1388.27 15.7485C1393.66 11.6773 1398.79 7.26 1404.19 3.20135C1406.63 1.36654 1408.98 -0.599283 1411.45 -2.39473C1412.8 -3.37932 1414.27 -4.245 1415.73 -5.04685C1416.69 -5.57177 1417.77 -5.95279 1418.75 -6.45393C1417.87 -2.42193 1416.86 1.53002 1415.71 5.49196C1413.48 13.1412 1411.35 20.8106 1409.25 28.4964C1408.16 32.5218 1406.78 36.458 1405.69 40.4833C1404.64 44.3348 1403.62 48.2023 1402.31 51.9713C1399.6 59.7371 1396.24 67.1769 1392.57 74.5257C1392.17 75.3175 1391.78 76.1046 1391.31 76.8577C1390.96 77.4055 1390.13 79.1771 1389.49 79.4314C1388.83 79.6915 1387.84 77.95 1387.25 77.2617L1387.25 77.2679Z" fill="white"/>
<path d="M1390.9 54.5872C1391.74 52.9748 1392.66 51.4027 1393.35 49.7194C1394.8 46.2457 1395.93 42.4286 1396.89 38.7923C1398.06 34.3285 1398.99 29.8264 1400.34 25.4093C1401.53 21.5243 1403.54 17.0015 1403.42 12.8744C1403.4 12.3517 1402.89 12.028 1402.41 12.1587C1400.55 12.6716 1398.86 14.5752 1397.32 16.1805C1395.66 17.2222 1394 18.2765 1392.39 19.4205C1389.21 21.6718 1386.63 24.5476 1383.66 27.0315C1382.34 28.1275 1381.13 29.3266 1379.83 30.4337C1378.69 31.4141 1377.46 32.2652 1376.6 33.5153C1374.53 36.5042 1375.8 37.9589 1377.58 40.7664C1379.72 44.1664 1382.16 47.3828 1384.48 50.6627C1385.57 52.2017 1386.65 53.7903 1387.82 55.2697C1388.23 55.796 1388.56 56.4613 1389.32 56.3742C1390.2 56.2768 1390.56 55.2474 1390.91 54.5858L1390.9 54.5872ZM1385.42 49.5292C1383.15 46.0724 1380.83 42.6319 1378.73 39.0703C1378.03 37.8842 1377.17 37.0587 1377.63 35.5679C1377.93 34.6045 1378.8 33.7583 1379.52 33.0921C1380.75 31.948 1382 30.8274 1383.22 29.6707C1385.87 27.178 1388.45 24.4769 1391.23 22.1114C1392.69 21.1083 1394.16 20.1038 1395.61 19.0929C1396.55 18.4412 1397.38 17.6444 1398.25 16.9026C1398.69 16.5202 1399.3 15.8989 1399.97 15.3051C1400.24 15.0852 1400.51 14.8543 1400.78 14.6296C1401.08 14.4007 1401.39 14.1954 1401.69 14.0336C1401.02 17.8913 1399.32 21.6508 1398.2 25.3668C1396.94 29.5001 1396.04 33.7048 1395.04 37.908C1394.04 42.094 1392.81 46.4991 1391.09 50.4375C1390.64 51.4685 1390.14 52.48 1389.68 53.5125C1389.57 53.7648 1389.23 54.8397 1389.12 54.8738C1388.69 55.0085 1385.76 50.0386 1385.43 49.5372L1385.42 49.5292Z" fill="white"/>
<path d="M1388.61 75.4584C1384.78 70.2427 1381.49 64.6103 1377.7 59.3624C1373.55 53.6361 1369.71 47.7339 1365.52 42.0364C1365.38 41.8564 1365.11 42.0296 1365.22 42.2279C1368.77 48.4573 1372.78 54.5213 1376.91 60.3753C1380.55 65.5302 1383.88 71.174 1388.3 75.7167C1388.46 75.8785 1388.74 75.6447 1388.6 75.4552L1388.61 75.4584Z" fill="white"/>
<path d="M730.645 351.174C730.706 350.037 730.484 348.88 730.386 347.745C731.269 347.187 731.887 346.285 731.986 345.091C732.226 342.195 731.768 339.366 731.233 336.544C730.656 333.516 730.232 330.419 729.795 327.361C729.562 325.743 729.321 324.113 729.02 322.494C729.072 322.486 729.12 322.464 729.165 322.441C729.781 322.399 730.477 322.513 731.074 322.546C731.444 322.565 731.908 322.695 732.251 322.494C732.732 322.211 733.025 321.078 733.017 320.55C733.003 319.464 731.592 319.631 730.825 319.526C730.034 319.418 729.143 319.198 728.325 319.311C728.191 318.784 728.052 318.262 727.897 317.742C727.076 315.003 726.148 312.299 725.323 309.566C726.928 309.1 727.031 307.267 727.168 305.779C727.405 303.186 727.397 300.486 727.022 297.904C726.847 296.702 726.402 295.626 726.055 294.479C725.743 293.441 725.486 292.378 724.645 291.617C724.269 291.275 723.856 291.023 723.415 290.851C724.247 288.432 724.452 285.928 724.853 283.405C725.226 281.05 724.053 279.406 721.629 279.144C720.764 279.052 719.826 279.041 719.513 280.027C719.355 280.525 719.469 281.155 719.46 281.674C719.441 282.632 719.312 283.578 719.219 284.53C719.097 285.802 719.123 287.07 719.074 288.342C719.046 289.1 718.764 290.038 718.802 290.876C717.827 291.3 717.655 292.113 717.157 293.011C716.753 293.739 716.458 294.471 716.204 295.225C715.717 296.422 715.303 297.658 714.858 298.87C714.308 300.371 713.891 301.906 713.444 303.44C713.111 304.588 712.524 305.933 712.718 307.156C712.879 308.167 713.642 308.747 714.566 309.102C713.301 311.409 712.886 314.188 712.171 316.688C712.044 317.126 711.915 317.563 711.784 318.002C711.343 317.863 710.708 317.847 710.55 317.842C709.697 317.822 708.866 317.767 708.015 317.697C707.549 317.659 706.895 317.57 706.527 317.932C705.838 318.613 706.212 320.003 707.056 320.345C707.663 320.591 708.466 320.621 709.114 320.633C709.727 320.644 710.349 320.726 710.962 320.742C710.518 322.244 710.091 323.756 709.742 325.265C708.403 331.074 707.175 336.962 706.228 342.846C706.096 343.667 705.687 344.751 705.984 345.579C706.277 346.393 707.225 346.765 707.958 347.054C708.109 347.113 708.27 347.175 708.433 347.233C708.1 348.007 707.991 348.894 707.762 349.713C707.576 350.376 707.526 351.548 708.368 351.811C709.184 352.064 709.741 351.099 710.043 350.503C710.262 350.078 710.383 349.63 710.528 349.177C710.669 348.739 710.745 348.245 710.863 347.788C711.838 347.84 712.776 347.62 713.483 346.846C714.159 346.107 714.26 344.889 714.464 343.946C714.765 342.546 714.84 341.131 714.867 339.704C714.925 336.42 715.28 333.202 715.85 329.967C716.362 327.063 717.117 324.218 717.705 321.334C718.255 321.421 718.812 321.446 719.365 321.554C719.961 321.67 721.272 322.123 721.864 321.709C722.113 323.292 722.358 324.873 722.463 326.477C722.85 332.274 723.93 338.049 724.73 343.794C725.016 345.855 725.181 348.265 727.831 348.385C727.91 348.387 727.988 348.385 728.068 348.387C727.977 348.848 727.727 349.392 727.684 349.757C727.621 350.303 727.631 350.921 727.802 351.445C728.006 352.065 728.59 353.051 729.366 352.923C730.125 352.797 730.604 351.867 730.642 351.18L730.645 351.174ZM729.589 320.168C730.016 320.259 731.982 320.454 732.067 320.771C732.097 320.886 731.854 321.437 731.758 321.507C731.607 321.612 731.414 321.548 731.186 321.524C730.449 321.457 729.573 321.44 728.844 321.611C728.729 321.032 728.601 320.453 728.464 319.881C728.829 319.99 729.193 320.083 729.589 320.168ZM720.415 287.708C720.483 285.681 720.748 283.656 720.781 281.627C720.79 281.093 720.577 280.681 721.199 280.43C721.916 280.138 723.295 281.021 723.579 281.453C724.257 282.482 723.625 283.986 723.493 285.107C723.276 286.97 722.909 288.858 722.167 290.593C722.1 290.589 722.034 290.583 721.964 290.582C721.365 290.575 720.683 290.537 720.029 290.595C720.092 290.329 720.136 290.092 720.151 290.016C720.301 289.249 720.387 288.493 720.413 287.711L720.415 287.708ZM714.202 306.636C714.112 305.575 714.715 304.225 714.973 303.19C715.576 300.761 716.264 298.386 717.078 296.015C717.468 294.876 717.852 293.473 718.736 292.626C719.223 292.159 719.757 291.915 720.323 291.795C721.091 291.842 722.11 291.886 722.752 292.203C723.943 292.79 724.186 294.05 724.636 295.184C725.07 296.279 725.553 297.277 725.706 298.459C725.857 299.638 725.854 300.857 725.944 302.042C726.044 303.376 726.419 307.88 724.747 308.232C723.674 308.457 722.405 308.279 721.315 308.3C720.002 308.325 718.715 308.365 717.412 308.176C716.434 308.034 714.319 307.92 714.209 306.636L714.202 306.636ZM720.672 309.831C720.659 310.942 720.545 312.036 720.659 313.161C720.818 314.739 721.154 316.288 721.325 317.865C721.365 318.239 721.412 318.613 721.461 318.984C720.942 318.873 720.374 318.882 719.874 318.88C719.44 318.877 719.011 318.858 718.578 318.826C718.497 318.82 718.346 318.83 718.178 318.835C718.692 315.804 719.437 312.835 720.106 309.837C720.297 309.834 720.486 309.83 720.675 309.825L720.672 309.831ZM709.659 319.636C709.167 319.605 708.699 319.558 708.211 319.493C708.03 319.469 707.786 319.506 707.623 319.436C707.239 319.273 706.978 318.821 707.393 318.634C707.716 318.489 708.364 318.714 708.707 318.748C709.12 318.791 709.534 318.817 709.952 318.815C710.088 318.814 711.049 318.673 711.606 318.591C711.48 319.008 711.357 319.426 711.23 319.845C710.742 319.677 710.153 319.664 709.661 319.633L709.659 319.636ZM709.237 350.215C709.173 350.32 709.02 350.637 708.889 350.662C708.705 350.698 708.755 350.402 708.782 350.168C708.854 349.587 709.377 348.387 709.342 347.521C709.562 347.581 709.785 347.636 710.012 347.677C709.922 348.157 709.869 348.649 709.71 349.12C709.582 349.499 709.443 349.872 709.234 350.213L709.237 350.215ZM713.608 339.473C713.581 341.681 713.75 346.953 710.456 346.479C709.112 346.286 707.315 345.776 707.301 344.181C707.293 343.069 707.674 341.84 707.863 340.743C708.742 335.643 709.687 330.553 710.731 325.487C711.312 322.687 712.189 319.918 712.881 317.141C713.539 314.489 714.151 311.827 714.808 309.185C715.669 309.473 716.631 309.596 717.355 309.7C717.9 309.781 718.445 309.815 718.99 309.83C718.206 311.548 717.841 313.684 717.528 315.473C717.049 318.2 716.58 320.951 715.934 323.642C714.686 328.855 713.672 334.095 713.604 339.467L713.608 339.473ZM720.754 320.762C720.185 320.672 719.614 320.624 719.047 320.528C718.626 320.455 718.278 320.509 717.868 320.53C717.933 320.199 717.996 319.866 718.054 319.534C718.278 319.567 718.496 319.582 718.648 319.598C719.627 319.711 720.606 319.762 721.585 319.872C721.637 320.23 721.691 320.586 721.747 320.942C721.446 320.816 721.074 320.814 720.757 320.764L720.754 320.762ZM726.199 344.3C726.01 343.035 725.819 341.773 725.699 340.502C725.46 337.953 724.794 335.442 724.448 332.894C724.124 330.515 723.656 328.125 723.487 325.731C723.284 322.809 722.531 319.883 722.101 316.989C721.895 315.606 721.552 314.247 721.388 312.854C721.272 311.874 721.356 310.808 721.173 309.826C722.106 309.812 723.095 309.85 724.052 309.772C725.367 314.107 726.893 318.363 727.849 322.813C728.968 328.033 729.459 333.406 730.455 338.651C730.874 340.854 731.849 346.484 728.786 346.905C726.735 347.188 726.447 345.977 726.197 344.302L726.199 344.3ZM728.756 351.38C728.527 350.916 728.45 350.346 728.468 349.824C728.482 349.363 728.637 348.837 728.625 348.351C728.899 348.318 729.167 348.262 729.422 348.183C729.453 348.404 729.503 348.63 729.522 348.845C729.589 349.618 729.97 350.77 729.662 351.498C729.423 352.07 728.974 351.817 728.756 351.38Z" fill="white"/>
<g clip-path="url(#clip1_6_3233)">
<path d="M177.752 350.426C175.926 343.689 174.525 336.796 173.331 329.924C172.115 322.931 170.37 316.172 168.323 309.384C167.33 306.093 166.505 302.746 165.614 299.426C165.267 298.138 164.858 296.902 164.325 295.684C163.957 294.839 163.679 293.479 162.697 293.131C161.712 292.784 160.204 293.201 159.208 293.322C157.627 293.515 156.054 293.735 154.477 293.965C150.914 294.485 147.311 294.887 143.774 295.545C136.418 296.92 129.067 297.747 121.923 300.135C119.167 301.057 115.768 301.375 113.939 303.844C112.972 305.149 111.91 306.711 111.271 308.21C110.793 309.333 110.87 310.405 110.921 311.586C110.921 311.652 110.943 311.703 110.968 311.751C110.556 312.051 110.158 312.354 109.789 312.669C107.19 314.885 103.985 321.014 107.657 323.714C109.092 324.767 110.961 324.441 111.859 322.894C111.87 322.876 111.877 322.858 111.888 322.839C111.895 322.883 111.906 322.927 111.91 322.967C112.027 323.732 112.191 324.551 112.446 325.275C112.479 325.37 112.538 325.443 112.607 325.506C112.432 325.645 112.257 325.784 112.089 325.926C109.49 328.142 106.285 334.272 109.957 336.971C111.392 338.024 113.261 337.699 114.159 336.152C114.454 335.64 114.67 335.113 114.889 334.587C115.002 335.183 115.166 335.772 115.283 336.368C115.473 337.322 115.323 338.354 115.666 339.272C115.725 339.432 115.841 339.542 115.969 339.612C115.838 339.718 115.706 339.82 115.582 339.926C112.983 342.142 109.778 348.272 113.45 350.971C114.885 352.024 116.754 351.699 117.652 350.152C117.831 349.841 117.98 349.523 118.119 349.205C118.159 349.442 118.207 349.687 118.251 349.94C118.345 350.503 118.393 351.077 118.484 351.64C118.564 352.138 118.773 352.657 118.769 353.162C118.769 353.385 118.849 353.546 118.973 353.656C118.824 353.776 118.67 353.897 118.528 354.018C115.929 356.234 112.724 362.363 116.396 365.063C117.831 366.116 119.7 365.79 120.598 364.243C120.89 363.742 121.101 363.227 121.313 362.711C121.474 363.691 121.642 364.66 121.926 365.629C122.244 366.716 122.569 368.325 123.226 369.268C123.781 370.066 124.547 370.047 125.409 369.908C127.11 369.63 128.84 369.572 130.545 369.287C137.291 368.153 144.004 366.621 150.772 365.648C157.587 364.664 164.377 363.713 171.159 362.506C172.356 362.294 173.572 362.104 174.459 361.211C175.51 360.151 176.24 358.746 177.091 357.532C177.759 356.581 178.741 355.477 178.971 354.296C179.23 352.953 178.095 351.64 177.759 350.408L177.752 350.426ZM112.56 307.984C112.771 307.684 112.976 307.373 113.177 307.066C113.271 307.395 113.352 307.724 113.396 308.06C113.45 308.466 113.443 308.872 113.753 309.183C113.918 309.348 114.224 309.183 114.155 308.949C114.02 308.507 114.002 308.057 113.841 307.614C113.72 307.285 113.589 306.96 113.45 306.638C113.954 305.848 114.458 305.058 115.038 304.326C115.038 304.326 115.038 304.326 115.042 304.323C115.349 305.888 115.411 307.545 116.02 309.03C116.02 309.037 116.027 309.041 116.031 309.048C114.458 309.637 112.95 310.423 111.611 311.315C111.673 310.108 111.826 309.026 112.556 307.991L112.56 307.984ZM111.063 320.488C110.559 321.622 110.172 323.688 108.391 322.631C106.84 321.713 107.157 319.014 107.504 317.584C107.865 316.103 108.592 314.83 109.643 313.729C111.57 311.71 114.184 310.408 116.787 309.531C118.82 308.843 123.77 307.34 124.748 310.357C125.635 313.082 123.033 314.797 120.674 315.254C120.138 315.357 119.594 315.452 119.05 315.547C116.801 315.945 114.553 316.417 112.848 318.037C112.129 318.721 111.461 319.577 111.056 320.488H111.063ZM118.491 319.252C118.656 320.129 119.01 320.971 119.258 321.823C119.273 321.878 119.298 321.921 119.327 321.958C117.28 322.605 115.297 323.604 113.615 324.77C113.604 324.182 113.366 323.611 113.195 323.041C113.005 322.423 112.822 321.797 112.655 321.172C112.819 320.777 112.99 320.382 113.202 320.005C114.461 318.798 115.954 317.818 117.539 317.324C117.754 317.258 117.966 317.204 118.181 317.156C118.148 317.829 118.378 318.637 118.491 319.248V319.252ZM115.151 331.299C114.432 331.983 113.764 332.838 113.359 333.749C112.855 334.883 112.468 336.949 110.687 335.892C109.136 334.974 109.453 332.275 109.8 330.845C110.161 329.364 110.888 328.091 111.939 326.99C113.866 324.972 116.48 323.67 119.083 322.792C121.116 322.104 126.066 320.601 127.044 323.618C127.931 326.343 125.329 328.058 122.97 328.516C122.434 328.618 121.89 328.713 121.346 328.808C119.097 329.207 116.849 329.679 115.144 331.299H115.151ZM115.476 333.416C115.476 333.416 115.458 333.387 115.447 333.369C115.465 333.336 115.48 333.303 115.498 333.274C115.776 333.007 116.068 332.754 116.367 332.513C116.582 333.328 116.783 334.148 116.951 334.978C117.108 335.753 117.097 336.766 117.579 337.414C117.703 337.582 118.05 337.556 118.024 337.293C117.86 335.563 117.287 333.892 116.703 332.253C117.67 331.525 118.729 330.94 119.835 330.596C120.193 330.487 120.55 330.406 120.908 330.344C120.923 331.032 121.185 331.862 121.291 332.389C121.532 333.625 121.773 334.982 122.215 336.17C120.284 336.85 118.433 337.827 116.86 338.95C117.002 338.141 116.816 337.253 116.549 336.499C116.188 335.475 115.849 334.437 115.473 333.424L115.476 333.416ZM118.645 345.299C117.926 345.983 117.258 346.838 116.852 347.749C116.349 348.883 115.962 350.949 114.18 349.892C112.629 348.974 112.947 346.275 113.293 344.845C113.655 343.364 114.381 342.091 115.432 340.99C117.36 338.972 119.974 337.67 122.576 336.792C124.609 336.104 129.559 334.601 130.538 337.618C131.425 340.343 128.822 342.058 126.464 342.515C125.927 342.618 125.383 342.713 124.839 342.808C122.591 343.207 120.342 343.679 118.637 345.299H118.645ZM118.951 347.789C118.922 347.72 118.867 347.672 118.805 347.632C118.864 347.511 118.926 347.394 118.992 347.274C119.262 347.014 119.546 346.765 119.838 346.528C119.824 346.56 119.817 346.593 119.828 346.637C119.984 347.303 120.204 347.947 120.306 348.627C120.412 349.318 120.7 349.965 120.788 350.646C120.802 350.766 120.999 350.825 121.021 350.679C121.116 350.082 120.868 349.519 120.762 348.938C120.612 348.118 120.364 347.35 120.149 346.546C120.12 346.44 120.028 346.41 119.948 346.432C120.977 345.617 122.124 344.966 123.321 344.593C123.507 344.534 123.693 344.487 123.879 344.443C123.879 345.138 124.146 345.913 124.266 346.542C124.496 347.731 124.704 349.062 125.153 350.185C125.161 350.207 125.175 350.221 125.186 350.24C123.368 350.876 121.616 351.779 120.105 352.818C120.072 351.915 119.751 350.949 119.539 350.101C119.353 349.347 119.254 348.488 118.944 347.782L118.951 347.789ZM121.587 359.394C120.868 360.078 120.2 360.933 119.795 361.844C119.291 362.978 118.904 365.044 117.123 363.987C115.571 363.069 115.889 360.37 116.239 358.94C116.601 357.459 117.327 356.186 118.378 355.086C120.306 353.067 122.919 351.765 125.522 350.887C127.555 350.199 132.505 348.696 133.484 351.714C134.371 354.438 131.768 356.153 129.41 356.611C128.873 356.713 128.329 356.808 127.785 356.903C125.537 357.302 123.288 357.774 121.583 359.394H121.587ZM124.617 367.604C124.599 367.557 124.58 367.509 124.558 367.458C124.358 366.913 124.106 366.397 123.868 365.871C123.211 364.397 122.799 362.886 122.346 361.35C122.317 361.252 122.273 361.171 122.222 361.105C123.419 360.019 124.803 359.145 126.274 358.688C126.453 358.633 126.635 358.586 126.814 358.545C126.847 359.917 126.749 361.61 127.479 362.711C127.541 362.802 127.606 362.879 127.676 362.945C127.187 363.519 126.756 364.141 126.351 364.799C125.807 365.684 125.278 366.738 124.62 367.608L124.617 367.604ZM176.065 355.711C175.295 356.954 174.572 358.256 173.743 359.46C172.148 361.771 167.647 361.892 165.07 362.334C161.869 362.883 158.667 363.329 155.437 363.647C149.027 364.273 142.781 365.721 136.429 366.738C132.983 367.29 129.578 367.959 126.088 368.072C125.577 368.091 125.285 368.193 125.069 368.149C125.741 367.634 126.245 366.902 126.712 366.174C127.15 365.498 127.559 364.807 128.004 364.134C128.198 363.841 128.453 363.563 128.687 363.278C129.26 363.234 129.895 362.956 130.457 362.817C135.44 361.584 140.47 360.626 145.519 359.723C150.998 358.743 156.371 357.598 161.909 356.94C164.417 356.64 166.932 356.57 169.432 356.175C171.794 355.799 174.192 355.096 176.576 354.848C176.415 355.162 176.226 355.459 176.065 355.718V355.711ZM171.104 354.559C168.677 355.181 166.278 355.528 163.803 355.872C158.956 356.545 154.112 357.313 149.282 358.103C144.431 358.896 139.602 359.752 134.765 360.63C133.757 360.813 132.764 361.018 131.768 361.252C131.231 361.376 129.709 361.983 128.972 361.965C128.902 361.932 128.826 361.921 128.749 361.936C127.807 361.621 127.796 359.631 127.435 358.417C128.964 358.165 130.498 358.22 131.939 357.624C131.976 357.613 132.009 357.602 132.045 357.583C133.272 356.987 134.538 356.761 135.458 355.66C136.258 354.705 136.783 353.396 136.586 352.138C136.203 349.698 133.823 348.144 131.615 349.27C131.585 349.285 131.574 349.314 131.571 349.344C129.742 349.146 127.774 349.428 125.862 350.024C125.818 348.916 125.431 347.808 125.175 346.732C124.985 345.935 124.85 345.079 124.518 344.322C126.037 344.073 127.566 344.128 128.997 343.532C129.034 343.521 129.067 343.51 129.103 343.492C130.33 342.896 131.596 342.669 132.516 341.568C133.316 340.614 133.841 339.304 133.644 338.046C133.261 335.607 130.881 334.053 128.672 335.179C128.643 335.194 128.632 335.223 128.629 335.252C126.844 335.062 124.923 335.325 123.047 335.892C122.97 334.707 122.478 333.497 122.219 332.352C122.08 331.738 122.051 330.882 121.78 330.216C123.047 330.07 124.307 330.026 125.5 329.532C125.537 329.521 125.57 329.51 125.606 329.492C126.833 328.896 128.099 328.669 129.019 327.568C129.819 326.614 130.344 325.304 130.147 324.046C129.764 321.607 127.384 320.053 125.175 321.179C125.146 321.194 125.135 321.223 125.131 321.252C123.482 321.077 121.718 321.285 119.984 321.764C119.992 321.72 119.995 321.673 119.984 321.622C119.802 320.641 119.594 319.654 119.397 318.674C119.287 318.125 119.218 317.482 118.886 317.032C120.353 316.812 121.821 316.842 123.204 316.267C123.241 316.256 123.273 316.245 123.31 316.227C124.536 315.631 125.803 315.404 126.723 314.303C127.522 313.349 128.048 312.04 127.851 310.781C127.468 308.342 125.088 306.788 122.879 307.914C122.85 307.929 122.839 307.958 122.835 307.987C120.897 307.779 118.802 308.108 116.779 308.777C116.546 307.848 116.414 306.886 116.188 305.954C116.006 305.204 115.944 304.414 115.673 303.694C117.583 302.143 121.05 301.726 123.241 301.115C128.818 299.557 134.553 298.519 140.284 297.74C146.369 296.909 152.422 295.801 158.503 294.931C159.102 294.847 159.704 294.774 160.303 294.682C160.752 294.613 161.785 294.24 162.19 294.382C163.34 294.788 164.026 297.827 164.329 298.884C165.169 301.821 165.826 304.805 166.611 307.757C168.162 313.587 169.83 319.285 170.911 325.231C172.017 331.313 172.897 337.373 174.258 343.408C174.904 346.264 175.24 349.409 176.24 352.156C176.394 352.58 176.806 353.063 176.879 353.491C174.966 353.308 172.929 354.098 171.097 354.566L171.104 354.559Z" fill="white"/>
<path d="M155.849 362.349C146.895 363.143 137.959 364.203 129.063 365.626C128.921 365.648 128.953 365.9 129.096 365.882C133.805 365.249 138.525 364.756 143.248 364.24C145.439 364.002 147.621 363.71 149.812 363.494C151.808 363.296 153.98 363.41 155.919 362.879C156.203 362.803 156.156 362.32 155.846 362.349H155.849Z" fill="white"/>
<path d="M164.03 359.014C160.003 359.42 155.966 359.913 151.962 360.498C147.41 361.164 142.982 362.342 138.379 362.7C138.368 362.7 138.364 362.722 138.379 362.718C142.872 362.473 147.264 361.83 151.721 361.277C155.846 360.765 160.08 360.692 164.106 359.581C164.409 359.496 164.362 358.977 164.03 359.01V359.014Z" fill="white"/>
<path d="M174.313 355.974C172.09 355.561 169.283 356.402 167.06 356.655C164.205 356.977 161.409 357.518 158.58 358.012C158.452 358.034 158.507 358.224 158.635 358.205C161.657 357.767 164.658 357.675 167.691 357.386C169.874 357.178 172.196 357.141 174.317 356.556C174.587 356.483 174.616 356.033 174.317 355.978L174.313 355.974Z" fill="white"/>
<path d="M167.983 359.986C166.979 359.895 165.829 360.374 164.88 360.663C163.464 361.095 162.037 361.369 160.584 361.64C160.38 361.676 160.471 361.98 160.668 361.947C163.15 361.57 165.797 361.537 168.1 360.433C168.334 360.319 168.191 360.005 167.98 359.986H167.983Z" fill="white"/>
<path d="M122.288 346.217C122.178 345.741 121.448 345.943 121.558 346.418C121.806 347.523 122.153 348.601 122.361 349.717C122.427 350.072 122.96 349.973 122.971 349.633C123.007 348.455 122.547 347.351 122.292 346.217H122.288Z" fill="white"/>
<path d="M118.473 331.91C118.429 331.734 118.163 331.807 118.203 331.983C118.528 333.435 118.886 334.887 119.247 336.328C119.302 336.54 119.663 336.503 119.638 336.273C119.492 334.817 118.827 333.329 118.47 331.906L118.473 331.91Z" fill="white"/>
<path d="M115.031 319.252C114.918 318.897 114.389 319.04 114.472 319.405C114.582 319.881 114.644 320.364 114.75 320.839C114.845 321.26 115.002 321.662 115.097 322.083C115.173 322.423 115.717 322.35 115.706 321.998C115.673 321.091 115.305 320.111 115.031 319.252Z" fill="white"/>
<path d="M112.644 308.829C112.611 308.558 112.228 308.606 112.271 308.88C112.304 309.096 112.341 309.308 112.374 309.524C112.406 309.721 112.753 309.677 112.728 309.476L112.647 308.832L112.644 308.829Z" fill="white"/>
<path d="M125.088 364.953C124.774 363.852 124.475 362.766 124.193 361.654C124.142 361.449 123.854 361.541 123.887 361.738C124.069 362.909 124.12 364.057 124.672 365.129C124.792 365.363 125.161 365.198 125.091 364.953H125.088Z" fill="white"/>
<path d="M125.281 359.701C125.197 359.398 124.774 359.529 124.818 359.829C124.967 360.773 125.073 361.716 125.197 362.664C125.259 363.157 125.263 363.783 125.657 364.13C125.832 364.284 126.223 364.203 126.187 363.911C125.997 362.492 125.661 361.098 125.281 359.701Z" fill="white"/>
</g>
<path d="M929.979 449.942C932.116 447.819 932.486 444.024 931.159 441.285C930.095 439.093 926.941 437.362 924.561 437.284C921.871 437.194 919.799 438.303 917.717 439.551C917.55 439.509 917.373 439.489 917.18 439.519C916.445 439.619 915.584 440.259 914.928 440.574C913.802 441.119 912.68 441.671 911.556 442.219C907.071 444.401 902.469 446.333 898.002 448.542C897.518 448.781 897.036 449.03 896.555 449.282C890.729 452.028 885.019 454.999 879.151 457.654C873.6 460.167 867.802 461.873 863.603 466.549C862.407 467.879 861.378 469.176 860.002 470.364C859.038 471.196 858.091 471.994 857.214 472.927C856.198 474.007 855.051 475.012 854.069 476.12C853.548 476.711 853.247 477.061 853.463 477.873C853.53 478.13 853.78 478.325 854.033 478.378C855.698 478.727 857.671 478.195 859.369 478.165C861.693 478.122 864.017 478.213 866.34 478.25C868.217 478.278 870.132 478.35 872.006 478.212C872.094 478.217 872.178 478.211 872.265 478.192C874.542 477.983 876.276 476.843 878.327 475.888C886.962 471.853 895.624 468.008 904.055 463.55C908.354 461.275 912.693 459.172 917.096 457.119C918.561 456.437 921.069 455.558 922.684 454.195C925.422 453.4 927.956 451.953 929.971 449.952L929.979 449.942ZM868.871 464.553C871.583 462.853 874.554 461.674 877.458 460.337C882.322 458.1 887.115 455.623 891.827 453.048C894.972 451.544 898.097 449.98 901.288 448.589C904.321 447.265 907.341 445.879 910.348 444.494C910.632 444.363 910.91 444.231 911.192 444.097C912.039 445.979 913.298 447.669 914.231 449.517C912.977 450.137 911.468 450.636 910.158 451.195C908.205 452.03 906.327 452.984 904.393 453.856C900.496 455.619 896.598 457.339 892.749 459.204C888.66 461.185 884.791 463.614 880.562 465.312C878.695 466.06 876.831 466.82 875.012 467.685C873.75 468.286 872.065 468.759 870.827 469.552C870.285 468.586 869.528 467.78 868.855 466.892C868.451 466.354 868.03 465.754 867.507 465.306C867.97 465.066 868.429 464.818 868.869 464.544L868.871 464.553ZM858.179 476.622C857.485 476.659 856.8 476.716 856.111 476.796C856.028 476.806 855.611 476.892 855.347 476.92C855.375 476.881 855.412 476.832 855.464 476.762C856.344 475.574 857.339 474.463 858.369 473.388C858.385 473.442 858.4 473.501 858.423 473.55C858.651 474.062 859.018 474.425 859.181 474.98C859.32 475.462 859.375 476.129 859.679 476.57C859.181 476.581 858.683 476.592 858.182 476.62L858.179 476.622ZM862.577 476.54C862.07 476.537 861.564 476.543 861.058 476.55C861.097 476.454 861.125 476.346 861.117 476.223C861.062 475.556 860.723 474.767 860.454 474.159C860.152 473.469 859.648 473.048 859.065 472.68C859.851 471.886 860.653 471.108 861.438 470.325C862.569 469.202 863.613 467.89 864.863 466.9C865.42 466.459 866.041 466.098 866.675 465.758C867.351 466.51 867.841 467.575 868.4 468.375C869.201 469.514 869.698 470.45 870.177 471.78C870.607 472.979 871.131 474.14 871.312 475.426C871.359 475.785 871.346 476.136 871.327 476.486C868.437 476.734 865.474 476.555 862.575 476.546L862.577 476.54ZM916.43 455.464C910.695 458.258 905.153 461.34 899.511 464.309C893.394 467.532 887.141 470.395 880.729 472.984C878.232 473.989 875.586 475.58 872.89 476.223C872.885 475.637 872.872 475.056 872.718 474.455C872.341 473.009 871.745 471.614 871.165 470.243C874.523 469.429 877.72 467.668 880.912 466.361C885.239 464.587 889.249 462.134 893.508 460.213C897.276 458.515 901.095 456.968 904.883 455.322C906.933 454.432 908.946 453.487 911.005 452.625C912.278 452.091 913.656 451.626 914.859 450.975C915.385 452.471 915.729 454.149 916.535 455.413C916.502 455.431 916.469 455.448 916.433 455.462L916.43 455.464ZM917.727 454.819C916.989 453.752 916.903 452.209 916.466 451.03C916.204 450.319 915.667 449.493 915.337 448.822C914.44 447.014 913.351 445.23 911.962 443.746C912.7 443.396 913.438 443.041 914.175 442.692C915.248 444.378 916.535 445.925 917.497 447.675C918.11 448.791 918.514 450.018 919.092 451.157C919.512 451.991 919.897 452.679 920.023 453.586C919.278 454.02 918.508 454.431 917.735 454.824L917.727 454.819ZM919.033 447.927C918.053 445.862 916.552 443.927 914.865 442.36C915.343 442.135 915.821 441.909 916.299 441.683C916.492 441.594 916.882 441.318 917.091 441.312C917.674 441.294 917.13 441.237 917.609 441.62C918.583 442.396 919.296 443.906 919.921 444.959C920.738 446.336 921.527 447.805 921.937 449.359C922.364 450.991 922.357 451.951 921.112 452.888C920.762 451.165 919.775 449.481 919.03 447.923L919.033 447.927ZM924.19 451.826C924.216 451.664 924.229 451.498 924.227 451.325C924.16 447.847 921.601 443.975 919.527 441.348C919.262 441.01 918.997 440.593 918.691 440.238C919.721 439.816 920.768 439.448 921.891 439.312C924.503 438.997 927.016 439.244 929.014 441.218C930.149 442.337 930.326 443.853 930.273 445.36C930.204 447.597 929.019 448.944 927.224 450.214C926.291 450.871 925.254 451.372 924.193 451.829L924.19 451.826Z" fill="white"/>
<path d="M901.395 88.1895C901.368 88.2117 901.341 88.225 901.315 88.2427C901.293 88.2649 901.301 88.2605 901.395 88.1895Z" fill="white"/>
<path d="M933.287 143.578C932.378 140.049 930.061 136.884 928.494 133.634C926.71 129.924 925.126 126.138 923.062 122.564C918.659 114.944 914.106 107.407 909.765 99.7513C904.901 91.1686 900.698 82.1249 895.341 73.826C894.174 72.0172 892.922 70.2838 891.595 68.5948C890.574 67.2959 889.682 65.4162 888.253 64.4763C886.114 63.0666 882.936 65.0926 880.606 66.5821C879.079 67.2914 877.61 68.1116 876.266 69.1046C874.171 70.6473 870.909 72.5181 871.002 75.5017C871.122 79.2832 873.492 83.0027 875.205 86.23C877.171 89.9317 878.915 93.7532 880.895 97.4372C884.827 104.77 888.551 112.213 892.514 119.537C896.615 127.113 901.204 134.41 905.429 141.915C908.558 147.475 912.308 156.439 920.137 154.803C923.213 154.16 926.701 152.688 929.209 150.791C931.61 148.973 934.122 146.827 933.287 143.582V143.578ZM923.466 151.278C919.622 152.706 916.458 153.779 913.24 150.387C910.888 147.909 909.153 144.624 907.413 141.703C899.895 129.072 892.789 116.314 885.985 103.285C882.342 96.3111 878.933 89.2047 875.378 82.1781C874.464 80.3738 873.549 78.3921 873.274 76.3662C872.915 73.7151 874.961 72.5359 876.82 71.1128C878.316 69.9691 879.905 68.9494 881.538 68.014C884.494 75.1116 889.154 81.5042 892.287 88.5309C895.567 95.8811 898.967 103.107 903.179 109.988C905.535 113.84 907.888 117.692 910.307 121.505C912.45 124.887 914.984 127.964 917.199 131.289C919.338 134.499 921.726 137.549 923.79 140.803C924.842 142.456 925.987 144.061 926.941 145.777C927.433 146.663 927.7 147.807 928.277 148.658C926.821 149.838 925.219 150.622 923.466 151.274V151.278ZM931.299 144.899C931.179 145.901 930.376 146.818 929.524 147.599C928.898 146.708 928.539 145.245 928.002 144.34C926.99 142.638 925.88 140.993 924.81 139.326C922.871 136.294 920.608 133.466 918.615 130.469C916.249 126.918 913.542 123.633 911.243 120.02C908.962 116.442 906.734 112.834 904.506 109.221C900.29 102.385 896.286 95.4599 892.984 88.1319C892.128 86.23 884.019 70.3725 882.177 67.6505C882.808 67.3047 883.442 66.9678 884.086 66.6442C884.241 66.5821 884.392 66.5156 884.547 66.458C885.351 66.1565 885.954 65.8905 886.793 66.1211C887.907 66.4225 888.209 67.3136 888.852 68.218C888.897 68.2845 888.946 68.3465 888.994 68.413C888.804 68.546 888.622 68.6923 888.457 68.8431C888.235 69.047 887.996 69.2598 887.8 69.4903C887.561 69.774 887.432 70.1287 887.09 70.306C886.753 70.4789 886.917 71.0109 887.281 71.0065C887.903 70.9976 888.417 70.6341 888.914 70.3016C889.238 70.0843 889.598 69.907 889.94 69.7119C890.423 70.3681 890.907 71.0197 891.387 71.6758C891.311 71.6581 891.231 71.6537 891.151 71.6758C890.312 71.8842 889.869 72.7753 889.185 73.2496C888.843 73.489 889.167 74.0565 889.518 73.8126C889.904 73.5422 890.339 73.4048 890.77 73.223C891.262 73.0147 891.568 72.793 891.764 72.2832C891.773 72.261 891.773 72.2389 891.777 72.2167C892.43 73.1078 893.064 74.0077 893.681 74.9298C892.638 75.5505 891.977 76.5169 891.036 77.2838C890.685 77.572 891.187 78.0641 891.533 77.7804C892.061 77.3503 892.722 77.0533 893.291 76.6676C893.668 76.4105 893.978 76.1401 894.267 75.8209C894.507 76.1933 894.737 76.5701 894.968 76.9514C895.27 77.4567 895.558 77.9621 895.86 78.4675C895.248 78.503 894.933 78.8887 894.538 79.332C894.072 79.8507 893.539 80.3117 893.069 80.826C892.767 81.154 893.171 81.7614 893.57 81.4732C894.054 81.123 894.551 80.8526 895.092 80.6043C895.301 80.5068 895.501 80.4137 895.687 80.2807C895.834 80.1743 896.024 79.9482 896.18 79.8906C896.335 79.8329 896.455 79.7354 896.539 79.6201C897.24 80.8171 897.933 82.0141 898.625 83.211C898.421 82.7899 897.826 82.5017 897.387 82.9317C896.761 83.5435 896.202 84.2174 895.456 84.6873C895.004 84.971 895.292 85.8177 895.838 85.5961C896.806 85.206 897.64 84.6474 898.448 83.9913C898.727 83.7652 898.745 83.4637 898.621 83.211C899.318 84.4169 900.001 85.6271 900.689 86.8374C899.437 87.3073 898.599 88.5264 897.689 89.4441C897.4 89.7367 897.826 90.149 898.137 89.8918C898.86 89.2845 899.566 88.89 900.476 88.6284C900.782 88.5397 901.057 88.4289 901.31 88.2471C901.332 88.225 901.381 88.1806 901.435 88.1363C902.047 89.2136 902.651 90.2908 903.263 91.3681C902.77 91.5765 902.375 91.838 902.003 92.2459C901.652 92.6271 901.328 93.035 900.862 93.2744C900.405 93.5093 900.724 94.3073 901.217 94.1167C902.171 93.7487 903.334 93.5093 904.004 92.6759C904.537 93.6157 905.065 94.5556 905.598 95.4954C905.225 95.6905 904.874 95.952 904.621 96.1338C903.836 96.7012 903.201 97.4416 902.398 97.9824C901.936 98.2928 902.358 99.0375 902.837 98.7361C903.605 98.2529 904.35 97.7209 905.167 97.3307C905.571 97.1401 905.979 97.016 906.352 96.8254C907.053 98.0667 907.772 99.2946 908.496 100.518C908.363 100.474 908.221 100.465 908.074 100.518C907 100.913 906.112 101.635 905.109 102.172C904.577 102.456 904.941 103.316 905.522 103.147C906.685 102.806 907.852 102.557 908.82 101.795C908.944 101.697 909.015 101.569 909.042 101.436C909.765 102.651 910.497 103.865 911.23 105.076C910.728 104.832 910.209 105.115 909.832 105.479C909.41 105.887 908.988 106.259 908.513 106.609C908.145 106.88 908.451 107.394 908.869 107.217C909.335 107.022 909.809 106.844 910.258 106.614C910.626 106.428 911.132 106.21 911.389 105.882C911.465 105.785 911.509 105.674 911.523 105.563C913.502 108.83 915.495 112.089 917.39 115.405C918.424 117.214 919.431 119.027 920.421 120.849C920.39 120.818 920.35 120.787 920.306 120.756C919.738 120.379 919.13 120.654 918.717 121.119C918.486 121.385 918.189 121.948 917.803 121.979C917.132 122.028 917.132 122.972 917.803 123.021C918.322 123.061 918.81 122.817 919.236 122.551C919.44 122.423 919.649 122.307 919.853 122.183C920.079 122.046 920.319 121.806 920.426 121.673C920.559 121.505 920.608 121.31 920.572 121.128C921.06 122.033 921.54 122.941 922.019 123.85C920.985 124.076 919.875 125.366 919.267 125.894C918.801 126.297 919.471 126.936 919.937 126.563C920.448 126.155 921.029 125.969 921.619 125.703C921.957 125.552 922.418 125.473 922.769 125.282C923.186 126.089 923.594 126.909 924.003 127.72C923.901 127.698 923.79 127.689 923.679 127.707C922.52 127.884 921.886 129.05 921.034 129.729C920.576 130.088 921.167 130.828 921.651 130.526C922.538 129.977 923.67 129.715 924.411 128.962C924.469 128.904 924.509 128.846 924.544 128.784C924.859 129.418 925.17 130.052 925.485 130.686C925.405 130.686 925.316 130.704 925.228 130.735C924.469 131.023 923.821 131.799 923.31 132.411C922.898 132.907 923.421 133.754 924.047 133.364C924.722 132.943 925.698 132.721 926.138 132.012C926.572 132.907 927.007 133.807 927.429 134.716C927.433 134.725 927.438 134.738 927.442 134.747C926.373 134.49 925.441 135.78 924.677 136.321C924.052 136.764 924.602 137.766 925.29 137.367C925.774 137.083 926.253 136.791 926.737 136.511C927.03 136.343 927.305 135.966 927.611 135.851C927.726 135.811 927.811 135.744 927.873 135.665C928.419 136.808 928.96 137.957 929.479 139.114C929.386 139.118 929.293 139.14 929.218 139.193C929.009 139.353 928.787 139.49 928.605 139.677C928.45 139.841 928.303 140.014 928.144 140.173C927.851 140.457 927.496 140.616 927.269 140.98C926.936 141.521 927.682 142.057 928.126 141.641C928.232 141.539 928.383 141.512 928.521 141.463C928.734 141.383 928.942 141.286 929.138 141.162C929.524 140.913 929.781 140.616 929.99 140.235C930.656 141.689 931.486 143.312 931.299 144.899Z" fill="white"/>
<path d="M913.679 109.225C913.444 108.928 913.076 108.875 912.739 109.039C912.006 109.398 911.527 110.129 910.759 110.404C910.133 110.626 910.386 111.606 911.039 111.411C911.971 111.127 912.858 110.794 913.626 110.183C913.906 109.961 913.888 109.482 913.684 109.229L913.679 109.225Z" fill="white"/>
<path d="M916.107 113.428C915.619 112.745 914.864 112.878 914.296 113.379C913.906 113.725 913.533 114.314 912.969 114.301C912.344 114.283 912.384 115.174 912.969 115.245C913.511 115.312 914.039 115.157 914.545 114.979C914.998 114.82 915.659 114.704 915.987 114.337C916.191 114.106 916.302 113.703 916.107 113.428Z" fill="white"/>
<path d="M917.194 116.69C916.467 117.058 915.876 117.777 915.353 118.397C914.989 118.827 915.468 119.608 916.001 119.235C916.351 118.987 916.724 118.774 917.088 118.544C917.252 118.442 917.412 118.331 917.567 118.22C917.811 118.043 917.944 117.848 918.091 117.586C918.424 116.996 917.771 116.398 917.194 116.69Z" fill="white"/>
<path d="M920.364 145.914C920.239 144.788 919.751 143.223 918.846 142.47C918.082 141.831 916.693 141.45 915.81 142.022C914.678 142.749 914.226 144.327 913.959 145.555C913.711 146.712 914.567 148.534 915.442 149.275C915.606 149.416 915.81 149.403 915.956 149.31C918.229 150.276 920.639 148.375 920.364 145.919V145.914ZM916.24 148.255C916.01 148.197 915.819 148.095 915.646 147.967C915.499 147.692 915.362 147.417 915.237 147.138C914.794 146.114 914.931 145.218 915.286 144.212C915.681 143.086 916.946 142.337 918.056 143.055C918.761 143.511 919.041 144.571 919.223 145.351C919.631 147.093 917.94 148.672 916.236 148.259L916.24 148.255Z" fill="white"/>
<path d="M885.746 99.6626C885.12 98.0666 883.819 96.8076 883.012 95.3003C881.964 93.3453 880.966 91.3503 880.074 89.3155C878.041 84.6828 875.6 80.3383 874.326 75.4086C874.273 75.1958 873.949 75.2844 873.998 75.4972C875.143 80.5555 877.615 84.7493 879.696 89.4485C880.504 91.275 881.299 93.1059 882.168 94.9013C883.043 96.7056 884.21 98.1774 885.253 99.8621C885.404 100.106 885.857 99.9507 885.741 99.6581L885.746 99.6626Z" fill="white"/>
<path d="M908.656 139.185C906.179 133.541 902.296 128.288 899.011 123.088C897.334 120.432 895.585 117.825 894.196 115.006C892.975 112.528 891.702 110.054 890.259 107.696C890.202 107.602 890.064 107.682 890.113 107.78C891.382 110.24 892.523 112.789 893.694 115.298C895.035 118.171 896.766 120.742 898.488 123.393C901.909 128.647 904.808 134.197 908.172 139.468C908.371 139.779 908.793 139.508 908.656 139.189V139.185Z" fill="white"/>
<path d="M484.276 191.797C479.91 185.419 472.39 179.615 464.676 178.422C460.279 177.744 455.949 177.78 451.71 179.3C450.073 179.888 448.569 180.712 447.162 181.675C443.778 183.383 440.351 185.643 437.84 188.339C432.734 193.827 430.442 202.968 431.115 210.316C431.782 217.603 434.735 225.987 441.358 229.931C444.299 231.681 447.707 231.905 450.867 233.002C455.264 234.528 454.766 240.453 455.767 244.269C456.313 246.353 457.332 248.382 459.242 249.382C458.793 250.375 458.472 251.345 458.848 252.477C459.06 253.101 459.491 253.447 459.77 254.01C460.413 255.3 460.097 256.185 460.073 257.463C460.024 259.941 461.741 260.692 463.772 260.722C466.586 262.667 469.825 263.884 473.281 263.006C477.727 261.885 479.504 257.445 481.632 253.883C481.845 253.525 481.802 253.156 481.626 252.871C481.838 251.26 481.165 249.188 480.905 247.759C480.486 245.451 479.71 244.094 478.442 242.379C479.71 239.538 477.017 235.007 476.726 232.19C476.459 229.622 477.096 229.113 479.182 227.762C480.486 226.914 481.59 226.199 482.518 224.915C484.677 221.928 485.993 218.124 486.884 214.587C488.788 207.014 488.867 198.503 484.276 191.797ZM472.669 260.77C470.716 261.358 468.915 260.886 467.114 260.31C467.975 260.116 468.745 259.886 469.297 259.71C471.844 258.905 474.355 258.063 476.781 256.936C476.817 256.918 476.859 256.9 476.896 256.881C475.944 258.717 474.84 260.116 472.669 260.77ZM478.527 250.363C478.527 250.442 478.539 250.521 478.539 250.6C478.588 252.459 478.06 253.404 476.405 254.313C474.543 255.337 472.657 256.094 470.637 256.748C469.054 257.263 467.472 257.911 465.858 258.323C464.627 258.638 462.99 258.275 462.462 256.839C462.638 257.324 462.723 254.846 462.747 255.034C462.741 254.967 462.723 254.919 462.711 254.858C465.61 254.313 468.551 253.653 471.371 252.859C473.251 252.332 476.562 251.744 478.527 250.351V250.363ZM476.829 244.245C476.944 244.451 477.035 244.615 477.06 244.657C477.678 245.693 478.06 246.892 478.285 248.116C475.404 249.352 472.62 250.842 469.6 251.751C467.156 252.49 464.827 253.277 462.462 254.18C462.244 253.81 461.947 253.556 461.674 253.089C460.916 251.805 460.613 251.018 460.831 249.915C464.197 250.545 467.817 248.479 470.759 247.189C472.505 246.426 475.064 245.566 476.823 244.239L476.829 244.245ZM467.696 233.365C468.739 236.964 469.849 240.574 470.783 244.203C469.37 244.857 467.908 245.505 466.447 246.056C466.344 245.499 466.374 244.784 466.234 244.294C465.834 242.846 465.276 241.471 464.912 240.011C464.142 236.873 463.736 233.644 462.832 230.536C462.044 227.829 460.843 225.2 459.703 222.625C459.018 221.086 458.399 219.499 457.696 217.961C460.261 217.506 462.766 216.513 464.821 215.15C464.937 217.737 465.082 220.287 465.573 222.855C466.241 226.369 466.695 229.931 467.69 233.371L467.696 233.365ZM466.465 204.985C466.574 204.579 466.811 203.331 467.144 203.125C468.903 203.265 469.74 204.216 469.643 205.972C469.661 207.251 469.309 208.377 468.588 209.353C467.945 210.516 467.114 211.558 466.15 212.466C466.059 209.971 465.822 207.444 466.471 204.985H466.465ZM485.544 210.982C484.846 214.193 483.858 217.385 482.348 220.317C481.408 222.14 480.413 223.873 478.606 224.963C477.436 225.672 476.12 226.193 475.058 227.078C473.288 228.55 473.451 230.476 473.682 232.614C473.955 235.116 476.647 240.029 474.895 242.058C474.325 242.718 473.197 243.179 472.214 243.579C472.129 243.488 472.014 243.421 471.856 243.385C471.99 243.415 470.989 239.999 470.904 239.714C470.577 238.599 470.298 237.466 469.976 236.352C469.261 233.88 468.412 231.469 467.945 228.931C467.035 223.946 466.422 219.13 466.204 214.108C466.883 213.532 467.49 212.921 467.993 212.26C470.164 209.431 472.56 204.858 469.176 201.871C466.823 199.794 465.307 202.332 464.84 204.531C464.209 207.481 464.609 210.437 464.743 213.405C464.743 213.472 464.743 213.539 464.749 213.611C462.493 215.253 459.758 216.271 457.01 216.567C456.774 216.107 456.525 215.647 456.258 215.204C454.184 211.764 451.492 206.663 446.919 206.3C443.135 206.003 443.765 210.267 444.839 212.636C446.834 217.028 451.346 218.542 455.979 218.167C456.634 219.578 457.241 221.002 457.865 222.389C460.164 227.514 461.328 232.433 462.311 237.921C462.741 240.326 463.499 242.513 464.282 244.814C464.542 245.578 464.7 246.099 465.137 246.511C463.475 247.056 461.559 247.486 460.152 246.262C458.951 245.214 458.684 243.458 458.405 241.961C457.508 237.103 456.798 232.063 451.583 230.343C448.641 229.367 445.445 229.173 442.722 227.55C439.447 225.599 437.016 221.977 435.687 218.47C432.601 210.322 433.286 200.454 437.719 192.948C440.048 189.005 443.402 186.436 447.162 183.904C448.186 183.214 449.187 182.511 450.254 181.917C450.285 181.905 450.309 181.887 450.339 181.875C452.11 181.087 454.008 180.567 455.943 180.294C457.253 180.197 458.581 180.203 459.879 180.197C459.982 180.197 460.049 180.149 460.091 180.082C460.661 180.1 461.231 180.13 461.789 180.185C465.501 180.554 468.964 181.251 472.147 183.268C475.107 185.146 477.884 187.442 480.371 189.907C486.175 195.662 487.212 203.24 485.526 210.964L485.544 210.982ZM455.264 216.664C452.692 216.64 449.424 215.962 447.635 214.041C446.652 212.981 443.929 208.402 447.762 208.075C448.744 207.99 450.449 209.759 451.188 210.54C452.886 212.327 454.16 214.447 455.264 216.664Z" fill="white"/>
<path d="M738.879 6.5734C737.524 5.49694 734.71 5.19842 733.107 5.705C731.408 6.24323 730.771 7.13877 729.99 8.32831C729.042 9.35049 728.811 10.6531 729.014 12.2C729.611 16.7455 732.84 19.5678 737.194 17.1707C740.171 15.5334 741.833 8.91629 738.884 6.5734H738.879ZM734.895 16.4606C732.813 16.9083 731.413 15.66 730.875 13.7287C730.392 11.9919 730.013 10.0425 731.49 8.67657C732.434 7.80364 734.218 6.78598 735.487 6.90358C735.591 6.91262 735.654 6.82216 735.654 6.73171C737.122 6.92619 738.405 7.6182 739.01 9.12435C739.579 10.5446 739.204 13.195 738.364 14.466C737.669 15.5153 736.092 16.2073 734.9 16.4651L734.895 16.4606Z" fill="white"/>
<path d="M746.305 25.3075C744.95 24.2311 742.136 23.9326 740.532 24.4391C738.834 24.9774 738.197 25.8729 737.416 27.0624C736.467 28.0846 736.237 29.3872 736.44 30.9341C737.036 35.4797 740.266 38.302 744.62 35.9048C747.597 34.2675 749.259 27.6504 746.309 25.3075H746.305ZM742.321 35.1947C740.239 35.6425 738.838 34.3941 738.301 32.4628C737.818 30.726 737.438 28.7766 738.915 27.4107C739.859 26.5378 741.643 25.5201 742.913 25.6377C743.016 25.6468 743.08 25.5563 743.08 25.4658C744.548 25.6603 745.83 26.3523 746.436 27.8585C747.005 29.2787 746.63 31.9291 745.79 33.2001C745.094 34.2494 743.518 34.9414 742.325 35.1992L742.321 35.1947Z" fill="white"/>
<path d="M735.496 23.6113C734.141 22.5348 731.327 22.2363 729.724 22.7429C728.025 23.2811 727.389 24.1766 726.607 25.3662C726.558 25.4205 726.517 25.4747 726.472 25.529C724.078 24.4571 721.092 24.2807 718.558 23.7515C716.431 23.3082 713.658 22.4263 711.48 22.7157C711.494 22.6072 711.512 22.5031 711.526 22.3946C711.675 21.187 711.833 19.9839 711.986 18.7762C712.492 16.4921 712.908 14.1854 713.147 11.8245C713.179 11.5079 713.215 11.1912 713.251 10.8746C713.834 11.1641 714.678 11.2048 715.243 11.2229C715.893 11.241 716.535 11.2998 717.181 11.3315C717.61 11.3541 717.98 11.544 718.4 11.5486C719.326 15.4564 722.375 17.6726 726.386 15.4654C729.362 13.8281 731.025 7.21105 728.075 4.86817C726.72 3.7917 723.906 3.49319 722.303 3.99976C720.726 4.50181 720.062 5.31141 719.349 6.37883C718.662 5.9989 717.7 6.04866 716.991 5.90392C715.907 5.6823 714.922 5.70943 713.847 5.83155C714.055 4.25304 714.276 2.67453 714.529 1.0915C714.809 -0.658881 716.282 -3.76163 714.85 -5.28586C713.355 -6.85985 709.945 -7.11313 707.908 -6.96387C706.142 -6.83271 704.077 -5.87837 703.328 -4.16417C702.777 -2.89774 702.727 -1.29662 702.433 0.0512223C702.063 1.75185 701.805 3.47962 701.53 5.19382C700.979 8.59508 700.36 12.0009 700.062 15.4338C699.466 22.3177 698.228 29.1745 697.311 36.0223C696.837 39.5547 696.661 43.1097 696.119 46.6376C695.879 48.189 695.477 49.7042 695.116 51.2284C694.804 52.5491 694.059 53.9467 694.005 55.3081C693.933 57.0947 695.22 58.0309 696.751 58.5827C698.549 59.2295 701.232 60.9075 703.179 60.2291C705.148 59.5416 705.672 56.9997 706.128 55.2041C706.76 52.721 707.194 50.1746 707.605 47.6327C707.731 47.7457 707.862 47.8543 708.043 47.9493C708.572 48.2206 709.1 48.3382 709.66 48.5146C710.464 48.7634 711.34 49.2474 712.131 49.0574C713.26 52.4677 716.164 54.2407 719.895 52.1918C722.872 50.5545 724.534 43.9374 721.585 41.5945C720.229 40.5181 717.415 40.2195 715.812 40.7261C714.245 41.2236 713.581 42.0287 712.872 43.0826C712.239 42.879 711.498 42.7841 710.952 42.6936C710.175 42.5579 709.217 42.4041 708.409 42.5896C708.852 39.4778 709.15 36.3479 709.52 33.2271C709.773 31.0651 710.274 28.9438 710.731 26.8135C713.093 27.5055 715.491 27.8538 717.926 28.2699C720.288 28.6725 722.569 29.3057 724.927 29.7037C725.284 29.7625 725.546 29.5318 725.636 29.2604C726.241 33.7924 729.462 36.6012 733.812 34.2131C736.788 32.5758 738.45 25.9587 735.501 23.6158L735.496 23.6113ZM720.672 6.98491C721.616 6.11198 723.4 5.09431 724.669 5.21191C724.773 5.22095 724.837 5.1305 724.837 5.04004C726.305 5.23452 727.587 5.92654 728.193 7.43268C728.762 8.85288 728.387 11.5033 727.547 12.7743C726.851 13.8236 725.275 14.5156 724.082 14.7734C722 15.2212 720.6 13.9729 720.062 12.0416C719.579 10.3048 719.2 8.35536 720.677 6.98943L720.672 6.98491ZM714.069 6.72258C714.723 6.89445 715.473 6.80851 716.142 6.91706C716.95 7.05275 717.79 7.31508 718.621 7.41006C718.17 8.24229 718.061 9.21472 718.179 10.3138C717.75 10.1826 717.298 10.2007 716.779 10.1736C716.196 10.1465 715.631 10.1238 715.049 10.1645C714.57 10.1962 713.816 10.3409 713.319 10.1917C713.45 9.00214 713.581 7.81713 713.73 6.63212C713.834 6.66378 713.965 6.69544 714.064 6.72258H714.069ZM714.186 43.7022C715.13 42.8293 716.914 41.8116 718.183 41.9292C718.287 41.9383 718.35 41.8478 718.35 41.7574C719.818 41.9518 721.101 42.6438 721.706 44.15C722.276 45.5702 721.901 48.2206 721.061 49.4916C720.365 50.5409 718.789 51.2329 717.596 51.4907C715.514 51.9385 714.114 50.6902 713.576 48.7589C713.093 47.0221 712.713 45.0727 714.19 43.7067L714.186 43.7022ZM711.119 44.0143C711.431 44.0912 711.751 44.1817 712.077 44.245C711.652 45.0998 711.566 46.0949 711.715 47.2166C711.729 47.3251 711.747 47.4291 711.765 47.5332C711.688 47.5241 711.602 47.5105 711.512 47.4925C710.902 47.3884 710.315 47.1623 709.701 47.0582C709.1 46.9587 708.382 46.814 707.736 46.8457C707.849 46.1356 707.966 45.4255 708.084 44.7199C708.161 44.2676 708.228 43.8198 708.301 43.3675C709.177 43.7384 710.216 43.7882 711.124 44.0098L711.119 44.0143ZM710.338 20.6578C710.049 22.3946 709.732 24.1314 709.394 25.8592C708.888 27.9669 708.269 30.0474 707.926 32.1823C706.991 38.0123 706.453 43.9238 705.202 49.6951C704.701 52.0064 704.475 54.9237 703.346 57.0223C702.478 58.6325 701.394 57.9993 699.953 57.4022C699.041 57.0223 697.934 56.9409 697.072 56.4841C695.238 55.5162 697.009 50.7897 697.329 49.0076C697.785 46.4884 698.093 43.9103 698.332 41.3593C698.851 35.7916 699.863 30.3143 700.514 24.7601C701.205 18.826 702.198 12.8421 703.237 6.95325C703.698 4.34803 704.244 1.75637 704.719 -0.844322C704.994 -2.34142 704.913 -3.59428 706.431 -4.49434C707.804 -5.313 710.053 -5.05519 711.512 -4.63455C711.602 -4.60742 712.528 -4.35413 712.754 -4.20487C713.816 -3.49929 713.323 -2.7123 713.115 -1.69916C712.835 -0.342274 712.641 1.01913 712.402 2.38507C711.887 5.35664 711.742 8.38702 711.508 11.3903C711.395 12.8286 711.241 14.2669 711.06 15.7006C710.794 17.347 710.573 19.0024 710.338 20.6533V20.6578ZM725.582 28.7629C725.514 28.6634 725.401 28.5865 725.239 28.5594C720.401 27.7362 715.74 26.7457 710.821 26.3838C711.002 25.538 711.173 24.6877 711.318 23.8284C711.345 23.8374 711.363 23.851 711.39 23.8555C713.947 24.2083 716.485 24.5701 719.023 25.045C721.124 25.434 723.762 26.3115 726.016 26.212C725.632 26.9583 725.51 27.8131 725.582 28.7674V28.7629ZM731.508 33.503C729.426 33.9507 728.025 32.7024 727.488 30.7711C727.005 29.0343 726.625 27.0849 728.102 25.719C729.046 24.846 730.83 23.8284 732.1 23.946C732.204 23.955 732.267 23.8646 732.267 23.7741C733.735 23.9686 735.018 24.6606 735.623 26.1667C736.192 27.5869 735.817 30.2374 734.977 31.5083C734.281 32.5577 732.705 33.2497 731.512 33.5075L731.508 33.503Z" fill="white"/>
<path d="M732.393 43.2908C731.038 42.2143 728.224 41.9158 726.62 42.4223C724.922 42.9606 724.285 43.8561 723.504 45.0457C722.555 46.0678 722.325 47.3704 722.528 48.9173C723.124 53.4629 726.354 56.2852 730.708 53.888C733.685 52.2507 735.347 45.6336 732.397 43.2908H732.393ZM728.404 53.1779C726.322 53.6257 724.922 52.3774 724.385 50.4461C723.901 48.7092 723.522 46.7599 724.999 45.3939C725.943 44.521 727.727 43.5033 728.996 43.6209C729.1 43.63 729.163 43.5395 729.163 43.4445C730.631 43.639 731.914 44.331 732.519 45.8372C733.088 47.2574 732.714 49.9078 731.873 51.1788C731.178 52.2281 729.601 52.9201 728.409 53.1779H728.404Z" fill="white"/>
<path d="M774.435 1.10969C773.595 -0.780905 771.545 -1.4096 769.765 -0.391932C767.76 0.756898 766.626 3.00028 765.971 5.10345C765.104 7.89411 764.498 10.8386 764.169 13.7559C761.87 13.091 759.48 13.0548 757.15 12.5392C755.325 12.1321 752.841 11.0873 750.907 11.5939C750.767 10.3591 750.298 9.25552 749.408 8.54542C748.053 7.46896 745.239 7.17044 743.635 7.67701C741.937 8.21524 741.3 9.11079 740.519 10.3003C739.57 11.3225 739.34 12.6251 739.543 14.172C740.139 18.7175 743.369 21.5399 747.723 19.1427C748.753 18.5773 749.625 17.4104 750.203 16.0354C752.308 17.0079 754.842 17.225 757.086 17.7813C758.478 18.125 759.873 18.3195 761.278 18.5909C762.064 18.7402 762.85 19.0161 763.645 19.1563C763.455 21.0514 763.247 22.942 762.999 24.828C762.728 26.8996 762.344 28.9801 762.01 31.0607C761.59 30.9024 761.097 30.8436 760.713 30.8345C759.941 30.821 759.16 30.8978 758.383 30.9069C758.338 29.4369 757.872 28.0981 756.842 27.2795C755.487 26.203 752.673 25.9045 751.07 26.4111C749.372 26.9493 748.735 27.8448 747.953 29.0344C747.005 30.0566 746.774 31.3592 746.978 32.906C747.574 37.4516 750.803 40.2739 755.158 37.8768C756.165 37.3204 757.019 36.1942 757.597 34.8599C758.202 35.1585 758.889 35.3484 759.525 35.457C760.063 35.5474 760.65 35.7193 761.228 35.8098C760.731 38.4602 760.23 41.1152 759.702 43.7611C759.273 45.9186 758.821 48.076 758.446 50.2425C757.005 49.3198 754.164 49.46 752.845 49.2339C751.233 48.958 749.62 48.6459 748.017 48.3157C746.793 48.067 745.618 48.1529 744.403 48.0715C744.232 46.9317 743.766 45.9231 742.931 45.2582C741.576 44.1817 738.762 43.8832 737.158 44.3898C735.46 44.928 734.823 45.8236 734.042 47.0131C733.093 48.0353 732.863 49.3379 733.066 50.8848C733.662 55.4303 736.892 58.2526 741.246 55.8555C742.267 55.2946 743.129 54.1458 743.708 52.7889C744.43 52.893 745.307 53.1462 746.011 53.3091C747.773 53.7161 749.548 54.1006 751.314 54.5076C753.387 54.9826 755.551 55.0911 757.637 55.471C757.244 57.8637 756.815 60.2608 756.54 62.649C756.332 64.4355 756.892 65.7472 758.672 66.4301C760.415 67.095 763.844 67.3754 765.375 66.0909C766.951 64.7702 767.163 61.672 767.588 59.8176C768.419 56.1857 768.785 52.4723 769.584 48.8268C770.257 45.7603 770.759 42.7299 771.052 39.6045C771.396 35.9409 772.182 32.3588 772.502 28.6861C772.791 25.3798 772.918 21.9198 773.541 18.6678C774.173 15.3751 774.571 12.0326 774.752 8.67658C774.874 6.41963 775.402 3.26261 774.44 1.10064L774.435 1.10969ZM748.888 16.438C748.193 17.4873 746.616 18.1793 745.424 18.4371C743.342 18.8849 741.942 17.6365 741.404 15.7052C740.921 13.9684 740.541 12.019 742.018 10.6531C742.962 9.78018 744.746 8.76252 746.016 8.88012C746.12 8.88916 746.183 8.7987 746.183 8.70825C747.651 8.90273 748.934 9.59474 749.539 11.1009C750.108 12.5211 749.733 15.1715 748.893 16.4425L748.888 16.438ZM756.314 35.172C755.618 36.2214 754.042 36.9134 752.85 37.1712C750.767 37.6189 749.367 36.3706 748.83 34.4393C748.346 32.7025 747.967 30.7531 749.444 29.3872C750.388 28.5142 752.172 27.4966 753.441 27.6142C753.545 27.6232 753.608 27.5328 753.608 27.4423C755.076 27.6368 756.359 28.3288 756.964 29.8349C757.534 31.2552 757.159 33.9056 756.319 35.1766L756.314 35.172ZM757.443 16.4787C755.049 16.0264 752.746 15.651 750.316 15.7595C750.731 14.6785 750.966 13.4845 750.957 12.3537C752.917 13.3669 755.786 13.7423 757.845 14.1267C759.855 14.5067 761.974 15.072 764.006 15.1489C764.015 15.1489 764.024 15.1489 764.033 15.1489C763.956 15.9495 763.884 16.75 763.803 17.5506C761.811 16.8857 759.431 16.8541 757.443 16.4787ZM760.045 34.2991C759.616 34.2674 759.187 34.2313 758.758 34.2086C758.536 34.1951 758.166 34.2448 757.827 34.2674C758.166 33.3176 758.365 32.2954 758.383 31.3139C759.015 31.5989 759.593 31.9426 760.316 32.0874C760.795 32.1869 761.301 32.3904 761.802 32.4447C761.743 32.8427 761.68 33.2407 761.63 33.6387C761.581 33.8966 761.535 34.1544 761.486 34.4122C761.007 34.3353 760.506 34.3262 760.049 34.2946L760.045 34.2991ZM738.938 55.1544C736.856 55.6022 735.455 54.3539 734.918 52.4226C734.435 50.6858 734.055 48.7364 735.532 47.3704C736.476 46.4975 738.26 45.4798 739.53 45.5974C739.633 45.6065 739.697 45.516 739.697 45.4256C741.165 45.62 742.447 46.3121 743.053 47.8182C743.622 49.2384 743.247 51.8889 742.407 53.1598C741.711 54.2091 740.135 54.9011 738.942 55.1589L738.938 55.1544ZM750.88 53.0558C748.803 52.7708 746.205 51.8662 744.006 51.9612C744.349 50.8938 744.516 49.7495 744.453 48.6821C745.347 49.1434 746.156 49.157 747.276 49.3967C748.983 49.7631 750.677 50.2063 752.366 50.636C753.55 50.939 754.769 50.9888 755.962 51.2104C756.707 51.3506 757.461 51.7532 758.211 51.6808C758.161 52.0065 758.103 52.3366 758.057 52.6623C758.003 53.0603 757.945 53.4583 757.881 53.8563C755.587 53.4674 753.157 53.3724 750.88 53.0558ZM772.516 11.3451C772.087 16.8586 771.31 22.3042 770.953 27.8313C770.754 30.9295 770.28 33.9327 769.878 37.0038C769.521 39.7131 769.404 42.4404 768.866 45.127C768.338 47.7684 767.502 50.333 766.996 52.9789C766.441 55.8826 765.921 58.7366 765.081 61.577C764.58 63.2822 764.282 64.4717 762.136 64.6752C761.102 64.7702 759.11 64.6888 758.767 63.6259C758.523 62.8661 758.988 61.6584 759.087 60.8262C759.273 59.3065 759.611 57.8184 759.769 56.2942C760.352 50.6948 761.314 45.1858 762.199 39.6271C763.18 33.4669 764.598 27.3428 765.461 21.1735C766.256 15.4881 767.854 9.83898 768.473 4.14006C769.742 2.09569 772.087 -0.29695 772.642 3.22191C773.049 5.79999 772.715 8.76252 772.516 11.3496V11.3451Z" fill="white"/>
<path d="M711.494 64.3961C712.465 64.1004 713.464 63.8859 714.392 63.759L714.805 66.994C714.034 67.1033 713.215 67.2837 712.406 67.5238L711.472 64.4126L711.494 64.3961Z" fill="white"/>
<path d="M464.922 208.411C466.138 209.874 467.278 211.191 468.411 212.409L465.996 214.624C464.813 213.34 463.658 212.002 462.408 210.496L464.922 208.411ZM472.1 216.221C473.402 217.482 474.736 218.651 476.026 219.716L473.955 222.248C472.594 221.135 471.211 219.901 469.822 218.57L472.1 216.221ZM480.237 222.823C481.733 223.8 483.222 224.679 484.733 225.406L483.29 228.314C481.654 227.512 480.017 226.574 478.434 225.527L480.221 222.802L480.237 222.823ZM489.491 227.346C491.125 227.876 492.813 228.297 494.478 228.599L493.923 231.82C492.084 231.514 490.228 231.051 488.446 230.462L489.469 227.362L489.491 227.346ZM701.551 69.7837C703.152 68.5647 704.726 67.5361 706.237 66.6928L707.827 69.5434C706.441 70.326 704.991 71.2939 703.503 72.3924L701.529 69.8001L701.551 69.7837ZM697.286 73.3385L699.477 75.766C698.239 76.8788 696.965 78.1224 695.697 79.4636L693.35 77.1895C694.683 75.7988 696.022 74.5058 697.286 73.3385ZM689.642 81.2071L692.103 83.3608C690.981 84.6249 689.821 86.0196 688.657 87.4524L686.126 85.3862C687.334 83.9205 688.515 82.5092 689.642 81.2071ZM499.607 229.096L500.167 229.114C501.673 229.161 503.243 229.16 504.884 229.071L505.004 232.324C503.287 232.403 501.64 232.394 500.074 232.358L499.493 232.357L499.569 229.091L499.607 229.096ZM682.736 89.6404L685.315 91.6356C684.135 93.1826 683.047 94.6257 682.055 95.9267L679.45 93.9861C680.441 92.685 681.534 91.2039 682.714 89.6568L682.736 89.6404ZM676.251 98.4017L678.926 100.255C677.936 101.692 676.918 103.183 675.939 104.68L673.193 102.914C674.199 101.363 675.222 99.8334 676.234 98.3801L676.251 98.4017ZM510.192 228.68C511.843 228.515 513.559 228.3 515.481 227.997L515.954 231.221C513.994 231.519 512.218 231.745 510.529 231.905L510.192 228.68ZM670.295 107.545L673.089 109.239C672.164 110.762 671.256 112.307 670.386 113.857L667.56 112.255C668.451 110.689 669.387 109.089 670.333 107.55L670.295 107.545ZM664.912 117.036L667.787 118.567C666.949 120.16 666.129 121.775 665.373 123.34L662.444 121.919C663.227 120.299 664.07 118.667 664.928 117.058L664.912 117.036ZM520.775 227.14C522.523 226.833 524.293 226.509 526.063 226.185L526.655 229.386C524.864 229.726 523.094 230.05 521.329 230.336L520.797 227.123L520.775 227.14ZM604.921 168.044L606.938 170.604C605.462 171.762 604.084 172.914 602.852 173.989L600.683 171.545C601.964 170.399 603.38 169.252 604.905 168.023L604.921 168.044ZM609.285 164.755C610.724 163.727 612.206 162.667 613.765 161.617L615.587 164.324C614.072 165.342 612.612 166.386 611.194 167.397L609.285 164.755ZM618.321 158.625C619.848 157.667 621.396 156.693 622.977 155.762L624.631 158.564C623.094 159.461 621.567 160.419 620.063 161.36L618.305 158.603L618.321 158.625ZM660.146 126.843L663.106 128.172C662.378 129.819 661.649 131.466 661.003 133.085L657.989 131.864C658.657 130.229 659.374 128.523 660.146 126.843ZM596.687 175.407L599.061 177.627C598.764 177.955 598.472 178.245 598.219 178.541C597.35 179.509 596.471 180.554 595.549 181.632L593.062 179.533C593.984 178.455 594.901 177.415 595.775 176.409C596.072 176.08 596.368 175.752 596.687 175.407ZM531.372 225.214C533.142 224.89 534.928 224.587 536.714 224.285L537.247 227.498C535.482 227.783 533.712 228.107 531.942 228.431L531.372 225.214ZM627.687 153.062C629.263 152.17 630.893 151.304 632.48 150.471L633.989 153.349C632.423 154.166 630.831 155.037 629.277 155.913L627.687 153.062ZM589.589 183.679L592.12 185.745C591.025 187.09 589.904 188.49 588.794 189.95L586.215 187.955C587.347 186.478 588.49 185.062 589.589 183.679ZM637.334 148.003C638.975 147.197 640.633 146.412 642.264 145.682L643.605 148.654C642.012 149.389 640.376 150.158 638.756 150.948L637.312 148.02L637.334 148.003ZM582.945 192.322L585.594 194.23C584.522 195.694 583.505 197.186 582.536 198.606L579.817 196.786C580.813 195.311 581.852 193.803 582.945 192.322ZM542.1 223.46C544.017 223.195 545.81 222.99 547.521 222.814L547.836 226.055C546.146 226.215 544.43 226.43 542.535 226.678L542.1 223.46ZM647.294 143.49C649.001 142.77 650.72 142.11 652.357 141.477L653.491 144.538C651.876 145.154 650.195 145.82 648.531 146.507L647.294 143.49ZM656.017 136.949L659.085 138.061C658.951 138.469 658.78 138.873 658.647 139.281C660.046 138.83 661.402 138.412 662.753 138.031L663.644 141.176C661.989 141.651 660.27 142.175 658.545 142.738L658.007 141.134C657.783 141.782 657.576 142.452 657.373 143.084L654.247 142.12C654.768 140.426 655.355 138.683 656.001 136.928L656.017 136.949ZM576.864 201.39L579.637 203.101C578.69 204.64 577.782 206.185 576.939 207.681L574.091 206.095C574.961 204.545 575.874 202.962 576.864 201.39ZM553.019 222.449C554.948 222.379 556.79 222.376 558.546 222.438L558.416 225.677C556.758 225.609 554.975 225.601 553.16 225.686L553.04 222.433L553.019 222.449ZM652.75 147.424L655.897 148.235C655.446 149.978 655.056 151.709 654.73 153.39L651.519 152.764C651.855 151.006 652.273 149.221 652.733 147.402L652.75 147.424ZM668.055 136.69C669.894 136.279 671.707 135.922 673.456 135.615L673.988 138.827C672.3 139.123 670.568 139.452 668.788 139.852L668.076 136.674L668.055 136.69ZM571.563 210.989L574.492 212.411C573.687 214.047 572.964 215.656 572.323 217.237L569.309 216.017C569.977 214.381 570.732 212.68 571.563 210.989ZM678.941 134.919C680.864 134.752 682.716 134.672 684.478 134.696L684.461 137.951C682.776 137.937 681.021 138.011 679.234 138.177L678.957 134.941L678.941 134.919ZM564.066 222.91C564.98 223.033 565.873 223.173 566.76 223.35C566.956 222.621 567.169 221.913 567.403 221.188L570.508 222.168C569.965 223.879 569.498 225.599 569.161 227.221L568.709 227.122C568.709 227.122 568.372 227.037 568.203 226.995L566.015 226.545C565.242 226.383 564.442 226.275 563.626 226.146L564.066 222.91ZM650.697 158.236L653.939 158.634C653.734 160.429 653.571 162.19 653.517 163.87L650.255 163.76C650.325 161.966 650.459 160.123 650.697 158.236ZM690.073 135.042C691.999 135.282 693.865 135.67 695.603 136.156L694.71 139.292C693.142 138.848 691.444 138.503 689.671 138.284L690.073 135.042ZM565.177 232.132L568.44 232.378C568.354 233.433 568.329 234.476 568.368 235.47C568.389 236.171 568.41 236.871 568.458 237.518L565.209 237.739C565.15 237.033 565.118 236.273 565.124 235.518C565.1 234.409 565.119 233.268 565.22 232.099L565.177 232.132ZM574.859 225.818C575.556 226.105 576.249 226.431 576.941 226.757C577.939 227.26 578.937 227.763 579.854 228.293L578.248 231.121C577.385 230.617 576.442 230.141 575.498 229.665C574.861 229.365 574.223 229.066 573.601 228.789L574.864 225.779L574.859 225.818ZM650.314 169.312L653.563 169.091C653.689 170.872 653.902 172.587 654.201 174.236L650.998 174.833C650.676 173.064 650.425 171.208 650.298 169.291L650.314 169.312ZM700.867 138.222C702.59 139.094 704.212 140.146 705.66 141.329L703.573 143.84C702.3 142.796 700.891 141.889 699.37 141.102L700.85 138.2L700.867 138.222ZM566.073 243.361L569.225 242.564C569.666 244.31 570.274 245.827 571.023 247.168L568.185 248.783C567.294 247.209 566.554 245.384 566.051 243.378L566.073 243.361ZM584.533 231.386C586.166 232.633 587.577 233.948 588.711 235.302L586.214 237.409C585.228 236.248 583.992 235.074 582.533 233.966L584.516 231.364L584.533 231.386ZM652.448 180.281L655.522 179.203C656.093 180.85 656.772 182.415 657.581 183.881L654.711 185.452C653.825 183.84 653.074 182.091 652.448 180.281ZM709.655 145.454L709.77 145.605C710.856 147.031 711.823 148.615 712.661 150.298L709.73 151.745C708.986 150.23 708.129 148.835 707.175 147.582L707.076 147.452L709.655 145.454ZM574.09 250.703C575.341 251.627 576.753 252.225 578.271 252.468L577.776 255.677C575.725 255.362 573.817 254.563 572.129 253.288L574.112 250.686L574.09 250.703ZM588.682 241.502L591.757 240.423C592.499 242.52 592.622 244.611 592.152 246.641L588.973 245.922C589.3 244.512 589.192 243.025 588.66 241.518L588.682 241.502ZM660.398 188.118C661.477 189.446 662.675 190.616 663.954 191.621L661.971 194.223C660.496 193.094 659.112 191.725 657.868 190.181L660.414 188.14L660.398 188.118ZM582.839 252.095C584.342 251.599 585.711 250.795 586.769 249.716L589.073 252.023C587.659 253.442 585.823 254.532 583.855 255.178L582.861 252.078L582.839 252.095ZM711.495 156.442L714.664 155.667C715.111 157.511 715.314 159.438 715.279 161.41L712.012 161.339C712.049 159.638 711.886 157.987 711.5 156.404L711.495 156.442ZM668.22 194.038C669.73 194.629 671.342 195.04 673.017 195.265L672.615 198.507C670.651 198.262 668.778 197.777 667.012 197.074L668.237 194.059L668.22 194.038ZM711.344 166.386L714.518 167.143C714.101 168.929 713.488 170.726 712.701 172.52L709.719 171.207C710.442 169.599 710.974 167.965 711.366 166.37L711.344 166.386ZM678.051 195.323C679.68 195.174 681.374 194.84 683.067 194.37L683.957 197.515C682.064 198.035 680.191 198.403 678.382 198.586L678.067 195.345L678.051 195.323ZM707.276 175.764L710.027 177.491C709.059 179.048 707.96 180.567 706.753 182.033L704.222 179.966C705.338 178.605 706.345 177.189 707.26 175.742L707.276 175.764ZM687.903 192.599C689.453 191.896 690.997 191.096 692.496 190.193L694.172 192.978C692.565 193.963 690.875 194.841 689.222 195.587L687.881 192.615L687.903 192.599ZM700.715 183.798L702.975 186.138C701.636 187.431 700.226 188.675 698.755 189.795L696.781 187.203C698.144 186.165 699.446 185.003 700.677 183.792L700.715 183.798Z" fill="white"/>
<path d="M457.261 204.006L459.857 202.029C460.4 202.742 460.943 203.455 461.485 204.168L458.89 206.145C458.363 205.453 457.804 204.719 457.261 204.006Z" fill="white"/>
</g>
<defs>
<clipPath id="clip0_6_3233">
<rect width="1440" height="905" fill="white" transform="translate(0 -2)"/>
</clipPath>
<clipPath id="clip1_6_3233">
<rect width="73" height="77" fill="white" transform="translate(106 293)"/>
</clipPath>
</defs>
</svg>
