<svg width="1440" height="900" viewBox="0 0 1440 900" fill="none" xmlns="http://www.w3.org/2000/svg">
<g clip-path="url(#clip0_116_14047)">
<path opacity="0.78" d="M1438.74 -3.06006H-1.26001V896.94H1438.74V-3.06006Z" fill="#FF88C8"/>
<g clip-path="url(#clip1_116_14047)">
<path d="M931.001 275.002V69.002L655.001 69.002V275.002L931.001 275.002Z" fill="#FAFAFA"/>
<path d="M922.723 77.256H663.283V266.75H922.723V77.256Z" fill="#BAEDF3"/>
<path d="M747.759 126.38H748.335C749.185 126.38 749.87 125.697 749.87 124.85V124.3C749.87 124.058 750.052 123.846 750.289 123.834C750.544 123.822 750.756 124.022 750.756 124.276V124.85C750.756 125.697 751.442 126.38 752.291 126.38H752.868C753.117 126.38 753.311 126.58 753.311 126.822C753.311 127.07 753.111 127.264 752.868 127.264H752.291C751.442 127.264 750.756 127.947 750.756 128.794V129.344C750.756 129.586 750.574 129.798 750.338 129.81C750.083 129.822 749.87 129.622 749.87 129.368V128.794C749.87 127.947 749.185 127.264 748.335 127.264H747.759C747.51 127.264 747.316 127.064 747.316 126.822C747.309 126.58 747.51 126.38 747.759 126.38Z" fill="#E0F7FA"/>
<path d="M885.61 170.394H886.186C887.036 170.394 887.722 169.711 887.722 168.864V168.314C887.722 168.072 887.904 167.86 888.14 167.848C888.395 167.836 888.608 168.035 888.608 168.289V168.864C888.608 169.711 889.293 170.394 890.143 170.394H890.719C890.968 170.394 891.162 170.594 891.162 170.836C891.162 171.084 890.962 171.277 890.719 171.277H890.143C889.293 171.277 888.608 171.961 888.608 172.807V173.358C888.608 173.6 888.426 173.811 888.189 173.824C887.934 173.836 887.722 173.636 887.722 173.382V172.807C887.722 171.961 887.036 171.277 886.186 171.277H885.61C885.361 171.277 885.167 171.078 885.167 170.836C885.167 170.594 885.367 170.394 885.61 170.394Z" fill="#E0F7FA"/>
<path d="M677.725 132.368H678.302C679.151 132.368 679.837 131.685 679.837 130.838V130.288C679.837 130.046 680.019 129.834 680.256 129.822C680.511 129.81 680.723 130.009 680.723 130.264V130.838C680.723 131.685 681.409 132.368 682.258 132.368H682.835C683.084 132.368 683.278 132.568 683.278 132.81C683.278 133.058 683.078 133.251 682.835 133.251H682.258C681.409 133.251 680.723 133.935 680.723 134.782V135.332C680.723 135.574 680.541 135.786 680.304 135.798C680.05 135.81 679.837 135.61 679.837 135.356V134.782C679.837 133.935 679.151 133.251 678.302 133.251H677.725C677.477 133.251 677.282 133.052 677.282 132.81C677.282 132.568 677.483 132.368 677.725 132.368Z" fill="#E0F7FA"/>
<path d="M833.435 115.929H833.721C834.139 115.929 834.473 115.59 834.473 115.179V114.907C834.473 114.792 834.564 114.683 834.679 114.677C834.807 114.671 834.91 114.768 834.91 114.895V115.179C834.91 115.596 835.25 115.929 835.663 115.929H835.948C836.069 115.929 836.166 116.026 836.166 116.147C836.166 116.268 836.069 116.364 835.948 116.364H835.663C835.244 116.364 834.91 116.703 834.91 117.114V117.387C834.91 117.502 834.819 117.61 834.704 117.616C834.576 117.623 834.473 117.526 834.473 117.399V117.114C834.473 116.697 834.133 116.364 833.721 116.364H833.435C833.314 116.364 833.217 116.268 833.217 116.147C833.217 116.026 833.314 115.929 833.435 115.929Z" fill="#E0F7FA"/>
<path d="M779.829 122.177H780.114C780.533 122.177 780.867 121.838 780.867 121.427V121.155C780.867 121.034 780.958 120.931 781.073 120.925C781.2 120.919 781.303 121.016 781.303 121.143V121.427C781.303 121.844 781.643 122.177 782.056 122.177H782.341C782.463 122.177 782.56 122.274 782.56 122.395C782.56 122.516 782.463 122.612 782.341 122.612H782.056C781.637 122.612 781.303 122.951 781.303 123.362V123.635C781.303 123.749 781.212 123.858 781.097 123.864C780.97 123.87 780.867 123.774 780.867 123.647V123.362C780.867 122.945 780.527 122.612 780.114 122.612H779.829C779.708 122.612 779.61 122.516 779.61 122.395C779.61 122.274 779.708 122.177 779.829 122.177Z" fill="#E0F7FA"/>
<path d="M912.735 119.564H913.02C913.439 119.564 913.772 119.225 913.772 118.814V118.542C913.772 118.427 913.863 118.318 913.979 118.312C914.106 118.306 914.209 118.403 914.209 118.53V118.814C914.209 119.231 914.549 119.564 914.962 119.564H915.247C915.368 119.564 915.465 119.661 915.465 119.782C915.465 119.903 915.368 120 915.247 120H914.962C914.543 120 914.209 120.338 914.209 120.75V121.016C914.209 121.131 914.118 121.239 914.003 121.245C913.876 121.252 913.772 121.155 913.772 121.028V120.743C913.772 120.326 913.433 119.993 913.02 119.993H912.735C912.613 119.993 912.516 119.897 912.516 119.776C912.516 119.661 912.613 119.564 912.735 119.564Z" fill="#E0F7FA"/>
<path d="M699.189 102.774C707.253 102.774 713.795 109.288 713.795 117.332H684.583C684.583 109.288 691.124 102.774 699.189 102.774Z" fill="#E0F7FA"/>
<path d="M677.282 110.05C681.318 110.05 684.582 113.31 684.582 117.326H669.976C669.976 113.31 673.247 110.05 677.282 110.05Z" fill="#E0F7FA"/>
<path d="M881.18 97.7537C891.799 97.7537 900.404 106.33 900.404 116.915H861.956C861.956 106.33 870.561 97.7537 881.18 97.7537Z" fill="#E0F7FA"/>
<path d="M852.344 107.334C857.654 107.334 861.956 111.623 861.956 116.915H842.732C842.732 111.623 847.034 107.334 852.344 107.334Z" fill="#E0F7FA"/>
<path d="M750.313 88.7659C754.682 88.7659 758.22 92.2982 758.22 96.6469H742.4C742.406 92.2982 745.95 88.7659 750.313 88.7659Z" fill="#E0F7FA"/>
<path d="M738.456 92.7094C740.641 92.7094 742.412 94.4755 742.412 96.6529H734.506C734.5 94.4755 736.271 92.7094 738.456 92.7094Z" fill="#E0F7FA"/>
<path d="M807.694 104.492C810.844 104.492 813.398 107.038 813.398 110.177H801.99C801.99 107.038 804.545 104.492 807.694 104.492Z" fill="#E0F7FA"/>
<path d="M799.138 107.334C800.716 107.334 801.99 108.604 801.99 110.177H796.286C796.286 108.604 797.566 107.334 799.138 107.334Z" fill="#E0F7FA"/>
<path d="M927.135 167.878H797.142V69H788.858V167.878H658.865V176.128H788.858V275H797.142V176.128H927.135V167.878Z" fill="#FAFAFA"/>
<g opacity="0.2">
<path d="M922.717 121.191V137.425L862.35 77.256H878.631L922.717 121.191Z" fill="#FAFAFA"/>
<path d="M922.717 100.996V109.106L890.756 77.256H898.899L922.717 100.996Z" fill="#FAFAFA"/>
<path d="M922.717 162.58V167.872H921.649L830.729 77.256H837.101L922.717 162.58Z" fill="#FAFAFA"/>
</g>
<g opacity="0.2">
<path d="M788.865 121.167V137.395L728.522 77.256H744.803L788.865 121.167Z" fill="#FAFAFA"/>
<path d="M788.865 100.965V109.088L756.922 77.256H765.071L788.865 100.965Z" fill="#FAFAFA"/>
<path d="M788.865 162.562V167.872H787.815L696.901 77.256H703.273L788.865 162.562Z" fill="#FAFAFA"/>
</g>
<g opacity="0.2">
<path d="M922.717 220.861V237.095L861.549 176.128H877.83L922.717 220.861Z" fill="#FAFAFA"/>
<path d="M922.717 200.666V208.783L889.955 176.128H898.098L922.717 200.666Z" fill="#FAFAFA"/>
<path d="M922.717 262.256V266.75H920.848L829.922 176.128H836.3L922.717 262.256Z" fill="#FAFAFA"/>
</g>
<g opacity="0.2">
<path d="M788.865 220.843V237.071L727.715 176.128H744.002L788.865 220.843Z" fill="#FAFAFA"/>
<path d="M788.865 200.642V208.759L756.12 176.128H764.27L788.865 200.642Z" fill="#FAFAFA"/>
<path d="M788.865 262.232V266.75H787.014L696.094 176.128H702.472L788.865 262.232Z" fill="#FAFAFA"/>
</g>
</g>
<g opacity="0.5">
<g opacity="0.5">
<path d="M394.11 321.89C321.36 299.74 226.4 332.04 186.49 397.6C169.84 424.96 159.17 457.65 129.68 474.37C104.37 488.72 4.29998 470.69 4.29998 470.69C4.29998 470.69 -26.69 901.59 13.95 883.41C61.03 862.35 76.28 792.75 118.83 761.84C163.39 729.47 215.91 713.35 265.23 690.09C285.53 680.51 304.79 668.93 321.12 653.45C338.8 636.7 348.74 612.58 358.16 590.66C368.69 566.14 378.83 541.64 396.28 521.07C409.89 505.02 428.68 493.13 444.99 480.07C471 459.25 495.61 432.49 483.61 397.14C470.97 359.92 429.86 332.77 394.11 321.89Z" fill="#F4A9FB" style="mix-blend-mode:multiply"/>
</g>
<path d="M-5.70007 461.748C-5.70007 461.748 94.3699 479.778 119.68 465.428C149.17 448.708 159.84 416.018 176.49 388.658C216.4 323.098 311.36 290.798 384.11 312.948C419.86 323.828 460.97 350.978 473.61 388.198C485.61 423.548 461 450.308 434.99 471.128C418.68 484.188 399.89 496.078 386.28 512.128C368.83 532.698 358.69 557.198 348.16 581.718C338.74 603.638 328.8 627.758 311.12 644.508C294.79 659.988 275.53 671.568 255.23 681.148C205.91 704.408 153.39 720.528 108.83 752.898" stroke="white" stroke-width="2" stroke-dasharray="12 12"/>
</g>
<rect x="-7" y="562.646" width="1443" height="342.354" fill="#C3A5F4"/>
<g opacity="0.2">
<g style="mix-blend-mode:multiply">
<path d="M233.516 803.312C236.842 821.851 272.102 817.294 283.248 806.248C308.94 780.789 230.788 788.081 233.516 803.312Z" fill="#C5ADF0"/>
<path d="M281.343 781.919C282.546 785.79 289.953 784.094 292.029 781.512C296.828 775.569 280.349 778.735 281.343 781.919Z" fill="#C5ADF0"/>
<path d="M294.88 785.5C296.083 789.37 303.49 787.674 305.565 785.092C310.364 779.149 293.885 782.315 294.88 785.5Z" fill="#C5ADF0"/>
<path d="M301.791 795.127C302.994 798.997 310.401 797.302 312.477 794.72C317.276 788.776 300.797 791.942 301.791 795.127Z" fill="#C5ADF0"/>
<path d="M297.606 805.762C298.808 809.632 306.215 807.937 308.291 805.355C313.09 799.411 296.611 802.577 297.606 805.762Z" fill="#C5ADF0"/>
<path d="M283.572 815.175C284.775 819.045 292.182 817.35 294.258 814.768C299.056 808.824 282.578 811.99 283.572 815.175Z" fill="#C5ADF0"/>
</g>
<g style="mix-blend-mode:multiply">
<path d="M274.618 747.354C268.463 729.561 301.459 716.3 316.568 720.484C351.43 730.14 279.678 761.967 274.618 747.354Z" fill="#C5ADF0"/>
<path d="M326.797 742.639C325.953 738.672 333.241 736.539 336.318 737.768C343.413 740.616 327.489 745.901 326.797 742.639Z" fill="#C5ADF0"/>
<path d="M336.853 732.907C336.009 728.94 343.297 726.807 346.374 728.036C353.47 730.884 337.545 736.169 336.853 732.907Z" fill="#C5ADF0"/>
<path d="M338.178 721.131C337.334 717.163 344.622 715.031 347.699 716.26C354.795 719.107 338.87 724.393 338.178 721.131Z" fill="#C5ADF0"/>
<path d="M329.332 713.891C328.488 709.924 335.776 707.792 338.853 709.021C345.949 711.868 330.025 717.154 329.332 713.891Z" fill="#C5ADF0"/>
<path d="M312.49 712.539C311.647 708.572 318.935 706.439 322.012 707.668C329.107 710.516 313.183 715.801 312.49 712.539Z" fill="#C5ADF0"/>
</g>
<g style="mix-blend-mode:multiply">
<path d="M143.881 802.167C137.726 784.375 170.712 771.115 185.831 775.298C220.693 784.954 148.941 816.781 143.881 802.167Z" fill="#C5ADF0"/>
<path d="M196.06 797.453C195.216 793.486 202.504 791.353 205.581 792.582C212.677 795.429 196.752 800.715 196.06 797.453Z" fill="#C5ADF0"/>
<path d="M206.116 787.721C205.272 783.754 212.56 781.621 215.637 782.85C222.733 785.697 206.809 790.983 206.116 787.721Z" fill="#C5ADF0"/>
<path d="M207.441 775.944C206.597 771.977 213.885 769.845 216.962 771.074C224.058 773.921 208.134 779.206 207.441 775.944Z" fill="#C5ADF0"/>
<path d="M198.595 768.705C197.752 764.738 205.039 762.605 208.116 763.834C215.212 766.681 199.288 771.967 198.595 768.705Z" fill="#C5ADF0"/>
<path d="M181.753 767.353C180.91 763.386 188.198 761.253 191.275 762.482C198.37 765.329 182.446 770.615 181.753 767.353Z" fill="#C5ADF0"/>
</g>
<g style="mix-blend-mode:multiply">
<path d="M9.32563 829.025C4.12393 810.922 37.7848 799.449 52.6553 804.44C86.9468 815.946 13.596 843.894 9.32563 829.025Z" fill="#C5ADF0"/>
<path d="M61.6787 827.107C61.0509 823.096 68.4402 821.353 71.4432 822.755C78.374 825.972 62.1936 830.397 61.6787 827.107Z" fill="#C5ADF0"/>
<path d="M72.2457 817.923C71.618 813.912 79.0072 812.168 82.0102 813.571C88.941 816.788 72.7606 821.213 72.2457 817.923Z" fill="#C5ADF0"/>
<path d="M74.2012 806.23C73.5735 802.219 80.9628 800.475 83.9657 801.878C90.8965 805.095 74.7161 809.52 74.2012 806.23Z" fill="#C5ADF0"/>
<path d="M65.7497 798.534C65.1219 794.523 72.5112 792.78 75.5142 794.182C82.4449 797.399 66.2646 801.824 65.7497 798.534Z" fill="#C5ADF0"/>
<path d="M49.0107 796.286C48.3829 792.274 55.7722 790.531 58.7752 791.933C65.7059 795.15 49.5256 799.576 49.0107 796.286Z" fill="#C5ADF0"/>
</g>
<g style="mix-blend-mode:multiply">
<path d="M70.904 861.09C73.2311 879.775 108.695 877.109 120.404 866.683C147.419 842.627 68.9878 845.742 70.904 861.09Z" fill="#C5ADF0"/>
<path d="M119.796 842.294C120.796 846.227 128.275 844.925 130.49 842.462C135.604 836.784 118.976 839.062 119.796 842.294Z" fill="#C5ADF0"/>
<path d="M133.12 846.586C134.12 850.518 141.598 849.216 143.814 846.754C148.928 841.075 132.3 843.353 133.12 846.586Z" fill="#C5ADF0"/>
<path d="M139.51 856.567C140.51 860.5 147.989 859.198 150.205 856.736C155.318 851.057 138.69 853.335 139.51 856.567Z" fill="#C5ADF0"/>
<path d="M134.771 866.965C135.771 870.898 143.249 869.596 145.465 867.134C150.579 861.455 133.951 863.733 134.771 866.965Z" fill="#C5ADF0"/>
<path d="M120.253 875.614C121.253 879.547 128.732 878.245 130.948 875.782C136.061 870.103 119.434 872.382 120.253 875.614Z" fill="#C5ADF0"/>
</g>
<g style="mix-blend-mode:multiply">
<path d="M-70.61 869.613C-68.2829 888.298 -32.8186 885.632 -21.1098 875.207C5.91537 851.149 -72.5147 854.273 -70.61 869.613Z" fill="#C5ADF0"/>
<path d="M-8.38455 855.107C-7.38445 859.04 0.0941712 857.738 2.31011 855.276C7.42353 849.597 -9.20416 851.875 -8.38455 855.107Z" fill="#C5ADF0"/>
<path d="M-1.99429 865.089C-0.994194 869.022 6.48443 867.72 8.70037 865.258C13.8138 859.579 -2.8139 861.857 -1.99429 865.089Z" fill="#C5ADF0"/>
<path d="M-6.73202 875.497C-5.73193 879.43 1.74669 878.128 3.96263 875.666C9.07605 869.987 -7.55163 872.265 -6.73202 875.497Z" fill="#C5ADF0"/>
</g>
</g>
<rect x="-4" y="548" width="1443" height="16.4769" fill="white"/>
<mask id="mask0_116_14047" style="mask-type:luminance" maskUnits="userSpaceOnUse" x="139" y="673" width="1138" height="195">
<path d="M1277 673H139V868H1277V673Z" fill="white"/>
</mask>
<g mask="url(#mask0_116_14047)">
<path opacity="0.4" d="M705.815 852.93C1012.23 852.93 1260.63 821.293 1260.63 782.268C1260.63 743.242 1012.23 711.605 705.815 711.605C399.399 711.605 151 743.242 151 782.268C151 821.293 399.399 852.93 705.815 852.93Z" fill="#E6E7E8"/>
<path d="M705.815 845.53C1012.23 845.53 1260.63 813.893 1260.63 774.868C1260.63 735.842 1012.23 704.205 705.815 704.205C399.399 704.205 151 735.842 151 774.868C151 813.893 399.399 845.53 705.815 845.53Z" fill="#FFEB99"/>
<path d="M1036.68 769.428C1036.68 794.88 894.02 815.504 718.018 815.504C542.016 815.504 399.365 794.88 399.365 769.428C399.365 743.975 542.03 723.351 718.032 723.351C894.034 723.351 1036.68 743.989 1036.68 769.428Z" fill="white"/>
</g>
<path opacity="0.4" d="M1219.22 240.658C1199.38 230.075 1185.89 208.51 1185.04 186.053C1184.19 163.597 1196.02 141.081 1215 129.029C1237.68 114.627 1268.55 114.686 1287.89 96.0401C1312.91 71.9286 1306.82 28.4073 1328.85 1.53746C1345.78 -19.1029 1378.75 -24.2545 1401.18 -9.75024C1418.34 1.35075 1428.13 25.6745 1417.56 43.1661C1406.46 61.5744 1377.56 67.4729 1373.82 88.6394C1370.95 104.85 1385.68 118.938 1400.68 125.762C1415.67 132.585 1432.82 136.005 1444.77 147.335C1455.93 157.919 1460.64 174.842 1456.54 189.669C1452.44 204.495 1439.71 216.598 1424.69 219.95C1397.74 225.967 1363.65 207.262 1344.92 227.538C1331.72 241.821 1337.86 264.278 1338.83 283.696C1339.88 304.964 1332.43 327.769 1315.1 340.16C1297.78 352.551 1270.03 350.429 1258.45 332.547C1249.42 318.594 1252.02 300.441 1249.12 284.078C1246.06 266.739 1236.65 249.96 1219.22 240.658Z" fill="#EBA9DA"/>
<path opacity="0.4" d="M1292.28 99.2361C1295.02 95.8395 1297.31 92.1599 1299.27 88.2739L1300.61 88.9498C1302.59 85.0406 1304.23 80.9404 1305.66 76.7322L1304.25 76.2475C1305.63 72.1852 1306.83 68.0015 1307.96 63.7649L1309.41 64.1497C1310.18 61.2475 1310.91 58.3145 1311.65 55.3899C1311.97 54.0945 1312.3 52.8008 1312.63 51.5122L1311.17 51.1429C1312.25 46.919 1313.35 42.7093 1314.6 38.5797L1316.04 39.0146C1317.3 34.8555 1318.7 30.7975 1320.35 26.9011L1318.97 26.3154C1320.68 22.2948 1322.65 18.4307 1325.01 14.7954L1326.27 15.6128C1327.42 13.8438 1328.66 12.1331 1330.01 10.4886C1331.38 8.82422 1332.85 7.26277 1334.42 5.80674L1333.4 4.70764C1336.64 1.69324 1340.28 -0.878672 1344.17 -2.98863L1344.88 -1.66978C1348.66 -3.71567 1352.69 -5.31724 1356.86 -6.45376L1356.47 -7.90099C1360.74 -9.06369 1365.14 -9.75098 1369.56 -9.94377L1369.62 -8.4452C1373.94 -8.63363 1378.27 -8.33724 1382.49 -7.53916L1382.77 -9.01303C1387.12 -8.19005 1391.36 -6.84721 1395.37 -4.96505L1394.74 -3.60717C1396.67 -2.69811 1398.55 -1.65999 1400.36 -0.490739C1401.72 0.390546 1403.04 1.35952 1404.3 2.40567L1405.26 1.25078C1407.85 3.39687 1410.21 5.85146 1412.3 8.52725L1411.11 9.44861C1413.13 12.0398 1414.87 14.8446 1416.29 17.7768L1417.64 17.1245C1419.13 20.1999 1420.26 23.4132 1420.99 26.6733L1419.53 27.0011C1420.25 30.2203 1420.56 33.4735 1420.39 36.667L1421.89 36.7434C1421.72 40.1201 1421.05 43.4467 1419.8 46.6217L1418.41 46.0755C1417.83 47.5523 1417.12 48.9943 1416.28 50.3908L1416.28 50.3913C1415.4 51.8542 1414.39 53.2406 1413.29 54.5659L1414.44 55.5266C1412.18 58.2354 1409.54 60.67 1406.7 62.9529L1405.76 61.7847C1403.05 63.9723 1400.14 66.026 1397.19 68.074L1398.05 69.3062C1397.59 69.6205 1397.14 69.9341 1396.69 70.2474C1394.17 71.9908 1391.67 73.7246 1389.29 75.5192L1388.38 74.3213C1385.4 76.5682 1382.57 78.9406 1380.12 81.5693L1381.22 82.5913C1378.74 85.2569 1376.69 88.1721 1375.32 91.491L1373.93 90.9172C1373.22 92.6301 1372.68 94.4449 1372.34 96.3779C1371.95 98.5896 1371.87 100.766 1372.05 102.894L1373.55 102.764C1373.9 106.833 1375.31 110.712 1377.45 114.31L1376.16 115.078C1378.29 118.643 1381.09 121.917 1384.28 124.828L1385.3 123.719C1388.3 126.462 1391.69 128.893 1395.22 130.941L1394.46 132.238C1396.3 133.306 1398.17 134.272 1400.05 135.127C1401.95 135.988 1403.87 136.794 1405.8 137.566L1406.36 136.173C1409.06 137.248 1411.79 138.263 1414.52 139.277C1415.65 139.697 1416.78 140.117 1417.91 140.541L1417.38 141.945C1421.26 143.4 1425.05 144.891 1428.69 146.598L1429.33 145.24C1433.09 147.001 1436.69 148.994 1440.01 151.402L1439.13 152.617C1440.74 153.782 1442.28 155.044 1443.74 156.424L1443.74 156.424C1445.08 157.697 1446.33 159.065 1447.47 160.515L1448.65 159.585C1451.03 162.596 1452.98 165.937 1454.48 169.476L1453.1 170.061C1454.55 173.477 1455.55 177.084 1456.07 180.755L1457.56 180.543C1458.1 184.348 1458.15 188.22 1457.67 192.026L1456.18 191.837C1455.94 193.67 1455.58 195.486 1455.09 197.269C1454.6 199.052 1453.97 200.795 1453.23 202.488L1454.61 203.09C1453.07 206.605 1451.03 209.902 1448.61 212.888L1447.45 211.943C1445.11 214.823 1442.4 217.403 1439.4 219.592L1440.29 220.803C1437.18 223.071 1433.79 224.933 1430.2 226.295L1429.67 224.893C1427.94 225.548 1426.17 226.083 1424.36 226.486C1422.21 226.966 1420.01 227.285 1417.76 227.476L1417.88 228.97C1413.4 229.35 1408.78 229.231 1404.12 228.873L1404.24 227.378C1399.95 227.049 1395.62 226.517 1391.29 225.984L1390.61 225.901L1390.43 227.389C1385.78 226.819 1381.19 226.267 1376.73 225.993L1376.82 224.495C1371.98 224.198 1367.25 224.219 1362.76 224.906L1362.98 226.389C1358.35 227.098 1354.03 228.532 1350.15 231.08L1349.33 229.827C1347.37 231.112 1345.53 232.663 1343.81 234.52C1342.02 236.464 1340.56 238.553 1339.39 240.758L1340.72 241.461C1338.46 245.711 1337.31 250.424 1336.84 255.397L1335.35 255.254C1334.89 260.05 1335.04 265.05 1335.41 270.052L1336.91 269.941C1337.14 273.044 1337.46 276.17 1337.77 279.28C1337.95 281.007 1338.12 282.728 1338.28 284.437L1336.79 284.577C1337.02 287.017 1337.21 289.42 1337.33 291.77C1337.33 291.77 1337.33 291.77 1337.33 291.771L1338.83 291.696C1338.92 293.459 1338.94 295.233 1338.91 297.011L1292.28 99.2361ZM1292.28 99.2361L1293.45 100.178C1292.06 101.898 1290.56 103.548 1288.93 105.12C1287.25 106.739 1285.49 108.219 1283.66 109.58L1282.77 108.377C1279.17 111.053 1275.29 113.268 1271.21 115.186L1271.85 116.543C1267.78 118.463 1263.53 120.083 1259.22 121.561L1258.74 120.142C1255.02 121.416 1251.24 122.59 1247.45 123.766C1246.95 123.923 1246.44 124.079 1245.94 124.236L1246.39 125.668C1242.1 127 1237.85 128.344 1233.69 129.85L1233.18 128.44C1228.95 129.975 1224.8 131.68 1220.83 133.707L1221.52 135.043C1219.56 136.044 1217.65 137.121 1215.8 138.295C1214.26 139.274 1212.77 140.324 1211.33 141.439L1210.41 140.252C1207.45 142.54 1204.7 145.096 1202.19 147.868L1203.3 148.875C1200.85 151.582 1198.63 154.503 1196.67 157.589L1195.4 156.784C1193.39 159.939 1191.65 163.262 1190.19 166.705L1191.57 167.29C1190.14 170.66 1189 174.146 1188.16 177.7L1186.7 177.355C1185.84 180.997 1185.3 184.71 1185.09 188.445L1186.59 188.527C1186.49 190.347 1186.47 192.172 1186.54 193.996C1186.61 195.821 1186.77 197.639 1187 199.447L1185.51 199.642C1186 203.352 1186.82 207.013 1187.95 210.579L1189.38 210.126C1190.49 213.607 1191.89 216.997 1193.57 220.249L1192.24 220.937C1193.95 224.261 1195.94 227.443 1198.18 230.438L1199.38 229.539C1201.58 232.469 1204.01 235.214 1206.66 237.728L1205.63 238.816C1208.34 241.392 1211.27 243.733 1214.4 245.791L1215.22 244.539C1216.75 245.542 1218.31 246.476 1219.92 247.335L1219.22 248.658L1219.92 247.335C1222.03 248.457 1224.02 249.684 1225.89 251.007L1225.03 252.234L1292.28 99.2361Z" stroke="white" stroke-width="3" stroke-dasharray="12 12"/>
<g clip-path="url(#clip2_116_14047)">
<path d="M370.53 274.12C368.99 267.48 363.13 259.74 359.21 266.61C356.64 272.41 372.57 292.19 372.57 292.19C372.57 292.19 372.48 282.53 370.53 274.12Z" stroke="#4A2E7F" stroke-width="1.86" stroke-linecap="round" stroke-linejoin="round"/>
<path d="M387.54 284.29C388.08 278.87 390.59 269.1 397.63 270.85C406.12 276 389.41 299.75 389.41 299.75C389.41 299.75 386.31 296.44 387.54 284.28V284.29Z" stroke="#4A2E7F" stroke-width="1.86" stroke-linecap="round" stroke-linejoin="round"/>
<path d="M419.39 292.37C426.55 286.46 433.6 287 429.13 294.96C424.87 302.54 416.09 307.05 407.76 308.8C409.34 305.2 415.52 295.57 419.39 292.37Z" stroke="#4A2E7F" stroke-width="1.86" stroke-linecap="round" stroke-linejoin="round"/>
</g>
<g clip-path="url(#clip3_116_14047)">
<path d="M1138.88 211.231C1132.51 213.646 1125.62 220.49 1132.95 223.455C1139.04 225.225 1156.51 206.789 1156.51 206.789C1156.51 206.789 1146.95 208.172 1138.88 211.231Z" stroke="#4A2E7F" stroke-width="1.86" stroke-linecap="round" stroke-linejoin="round"/>
<path d="M1146.68 193.012C1141.24 193.203 1131.22 192.024 1132.01 184.813C1135.97 175.71 1161.75 189.088 1161.75 189.088C1161.75 189.088 1158.88 192.603 1146.67 193.013L1146.68 193.012Z" stroke="#4A2E7F" stroke-width="1.86" stroke-linecap="round" stroke-linejoin="round"/>
<path d="M1150.42 160.367C1143.6 154.063 1143.19 147.004 1151.68 150.367C1159.76 153.574 1165.41 161.67 1168.26 169.691C1164.48 168.607 1154.11 163.773 1150.42 160.367Z" stroke="#4A2E7F" stroke-width="1.86" stroke-linecap="round" stroke-linejoin="round"/>
</g>
<g opacity="0.9">
<path d="M1250.63 383.332C1255.48 384.96 1260.66 385.618 1265.77 385.253C1265.15 380.707 1263.78 376.263 1262.15 372.482C1277.51 364.195 1286.41 346.975 1288.92 329.704C1290.47 319.033 1289.61 307.228 1282.73 298.931C1280.29 295.987 1277.21 293.635 1274.06 291.472C1269.71 288.487 1265.05 285.759 1259.89 284.675C1252.65 283.155 1244.92 285.081 1238.78 289.201C1232.65 293.316 1228.05 299.491 1225.12 306.272C1219.63 318.941 1219.9 333.983 1225.86 346.441C1231.81 358.899 1243.33 368.562 1256.77 372.667C1254.79 375.734 1252.9 378.857 1251.08 382.032" fill="#EBA9DA"/>
<mask id="mask1_116_14047" style="mask-type:luminance" maskUnits="userSpaceOnUse" x="1221" y="284" width="69" height="102">
<path d="M1250.63 383.332C1255.48 384.96 1260.66 385.618 1265.77 385.253C1265.15 380.707 1263.78 376.263 1262.15 372.482C1277.51 364.195 1286.41 346.975 1288.92 329.704C1290.47 319.033 1289.61 307.228 1282.73 298.931C1280.29 295.987 1277.21 293.635 1274.06 291.472C1269.71 288.487 1265.05 285.759 1259.89 284.675C1252.65 283.155 1244.92 285.081 1238.78 289.201C1232.65 293.316 1228.05 299.491 1225.12 306.272C1219.63 318.941 1219.9 333.983 1225.86 346.441C1231.81 358.899 1243.33 368.562 1256.77 372.667C1254.79 375.734 1252.9 378.857 1251.08 382.032" fill="white"/>
</mask>
<g mask="url(#mask1_116_14047)">
<path d="M1272.85 311.917C1275.9 311.414 1277.96 308.537 1277.46 305.492C1276.95 302.446 1274.08 300.385 1271.03 300.888C1267.99 301.391 1265.93 304.268 1266.43 307.314C1266.93 310.359 1269.81 312.42 1272.85 311.917Z" fill="#6C7AEE"/>
<path d="M1247.17 335.226C1251.12 335.226 1254.32 332.022 1254.32 328.07C1254.32 324.118 1251.12 320.914 1247.17 320.914C1243.22 320.914 1240.02 324.118 1240.02 328.07C1240.02 332.022 1243.22 335.226 1247.17 335.226Z" fill="#6C7AEE"/>
<path d="M1283.87 334.14C1285.01 331.404 1283.72 328.26 1280.98 327.119C1278.24 325.977 1275.1 327.269 1273.96 330.006C1272.82 332.742 1274.11 335.886 1276.85 337.027C1279.58 338.169 1282.72 336.877 1283.87 334.14Z" fill="#6C7AEE"/>
<path d="M1269.87 361.293C1271.31 358.016 1269.82 354.19 1266.55 352.748C1263.27 351.306 1259.45 352.794 1258 356.071C1256.56 359.349 1258.05 363.174 1261.33 364.616C1264.6 366.059 1268.43 364.571 1269.87 361.293Z" fill="#6C7AEE"/>
<path d="M1246.73 356.241C1247.96 353.273 1246.55 349.872 1243.58 348.642C1240.62 347.413 1237.22 348.822 1235.99 351.79C1234.76 354.757 1236.17 358.159 1239.13 359.388C1242.1 360.617 1245.5 359.208 1246.73 356.241Z" fill="#6C7AEE"/>
<path d="M1255.74 303.991C1257.1 300.723 1255.54 296.975 1252.28 295.621C1249.01 294.267 1245.26 295.82 1243.91 299.088C1242.55 302.357 1244.11 306.104 1247.37 307.458C1250.64 308.812 1254.39 307.26 1255.74 303.991Z" fill="#6C7AEE"/>
<path d="M1253.88 287.367C1253.88 290.085 1256.08 292.289 1258.8 292.289C1261.51 292.289 1263.72 290.085 1263.72 287.367C1263.72 284.649 1261.51 282.446 1258.8 282.446C1256.08 282.446 1253.88 284.649 1253.88 287.367Z" fill="#6C7AEE"/>
<path d="M1224.81 311.297C1224.81 314.877 1227.72 317.78 1231.29 317.78C1234.87 317.78 1237.78 314.877 1237.78 311.297C1237.78 307.716 1234.87 304.813 1231.29 304.813C1227.72 304.813 1224.81 307.716 1224.81 311.297Z" fill="#6C7AEE"/>
<path d="M1262.37 324.489C1262.37 326.96 1264.37 328.964 1266.84 328.964C1269.31 328.964 1271.32 326.96 1271.32 324.489C1271.32 322.018 1269.31 320.015 1266.84 320.015C1264.37 320.015 1262.37 322.018 1262.37 324.489Z" fill="#6C7AEE"/>
<path d="M1224.14 347.299C1227.47 347.299 1230.17 344.596 1230.17 341.262C1230.17 337.929 1227.47 335.226 1224.14 335.226C1220.81 335.226 1218.11 337.929 1218.11 341.262C1218.11 344.596 1220.81 347.299 1224.14 347.299Z" fill="#6C7AEE"/>
<path d="M1256.11 341.935C1256.11 344.16 1257.91 345.963 1260.14 345.963C1262.36 345.963 1264.16 344.16 1264.16 341.935C1264.16 339.711 1262.36 337.908 1260.14 337.908C1257.91 337.908 1256.11 339.711 1256.11 341.935Z" fill="#6C7AEE"/>
<path d="M1277.58 352.893C1277.58 356.474 1280.48 359.377 1284.06 359.377C1287.64 359.377 1290.54 356.474 1290.54 352.893C1290.54 349.313 1287.64 346.41 1284.06 346.41C1280.48 346.41 1277.58 349.313 1277.58 352.893Z" fill="#6C7AEE"/>
<path d="M1290.1 324.042C1294.05 324.042 1297.25 320.838 1297.25 316.886C1297.25 312.934 1294.05 309.73 1290.1 309.73C1286.15 309.73 1282.94 312.934 1282.94 316.886C1282.94 320.838 1286.15 324.042 1290.1 324.042Z" fill="#6C7AEE"/>
<path d="M1255.01 387.473C1258.08 386.205 1259.53 382.695 1258.26 379.634C1256.99 376.572 1253.48 375.118 1250.42 376.386C1247.36 377.654 1245.91 381.164 1247.18 384.226C1248.44 387.288 1251.95 388.742 1255.01 387.473Z" fill="#6C7AEE"/>
</g>
<g style="mix-blend-mode:multiply" opacity="0.5">
<path d="M1284.31 301.053C1284.58 304.973 1284.52 308.975 1284.14 312.853C1283.38 320.713 1280.73 328.656 1275.82 334.918C1273.53 337.836 1270.66 340.05 1267.81 342.377C1264.86 344.787 1262.21 347.561 1260.81 351.172C1260.1 353.017 1259.72 355.015 1259.84 356.998C1259.97 359.027 1260.47 361.031 1260.85 363.024C1261.19 364.827 1261.29 366.672 1260.57 368.403C1260.23 369.22 1259.71 369.98 1259.11 370.622C1258.58 371.187 1258.03 371.583 1257.86 372.369C1257.56 373.812 1259.06 375.086 1259.59 376.33C1260.23 377.845 1259.73 379.484 1258.72 380.717C1257.59 382.109 1256.03 382.977 1254.33 383.476C1253.73 383.65 1253.13 383.784 1252.52 383.912C1256.81 385.114 1261.32 385.572 1265.77 385.253C1265.16 380.707 1263.79 376.263 1262.15 372.482C1277.51 364.195 1286.42 346.975 1288.93 329.703C1290.35 319.912 1289.74 309.17 1284.31 301.048L1284.31 301.053Z" fill="#EBA9DA"/>
</g>
<path d="M1264.9 384.4C1264.25 383.923 1263.57 383.465 1262.86 383.065C1261.35 382.217 1259.71 381.739 1257.97 381.862C1256.28 381.981 1254.61 382.417 1252.98 382.854C1252.33 383.029 1251.68 383.229 1251.05 383.465C1255.78 384.996 1260.81 385.613 1265.77 385.253C1265.76 385.191 1265.75 385.135 1265.74 385.073C1265.46 384.842 1265.19 384.606 1264.91 384.4H1264.9Z" fill="#6C7AEC"/>
<path d="M1249.13 290.922C1241.39 292.104 1231.83 298.423 1231.93 306.432C1232.01 313.501 1239.77 302.055 1242.44 300.179C1248.17 296.162 1252.3 296.27 1256.23 295.124C1262.92 293.172 1256.35 289.818 1249.13 290.917V290.922Z" fill="#FCF3D4"/>
<path d="M1256.31 375.785C1258.73 370.699 1256.05 381.112 1254.87 380.054C1254.26 379.505 1255.64 377.177 1256.31 375.785Z" fill="#FCF3D4"/>
<path d="M1227.49 320.236C1227.87 318.011 1228.54 313.49 1231.63 314.081C1234.73 319.681 1226.45 337.815 1227.49 320.236Z" fill="#FCF3D4"/>
<path d="M1258.19 382.946C1262.67 403.891 1247.04 424.533 1239.6 442.775C1225.73 476.825 1266.82 475.479 1255.58 503.056" stroke="#4A2E7F" stroke-width="1.86" stroke-linecap="round" stroke-linejoin="round"/>
<path d="M1253.84 371.788C1248.42 353.998 1267.59 347.222 1260.12 369.43C1259.4 371.28 1256.95 372.384 1256.27 370.083C1255.9 361.206 1267.76 368.218 1258.99 373.427C1256.26 370.016 1265.16 365.644 1267.76 364.483C1284.17 359.582 1276.5 383.594 1253.84 371.788Z" stroke="#4A2E7F" stroke-width="1.86" stroke-linecap="round" stroke-linejoin="round"/>
<path d="M1259.6 373.309C1245.32 370.304 1232.62 360.517 1226.08 347.463C1219.54 334.414 1219.3 318.376 1225.44 305.132C1228.8 297.883 1234.11 291.379 1241.11 287.537" stroke="#4A2E7F" stroke-width="1.86" stroke-linecap="round" stroke-linejoin="round"/>
<path d="M1248.58 284.783C1264.53 280.827 1279.71 292.664 1284.78 302.265" stroke="#4A2E7F" stroke-width="1.86" stroke-linecap="round" stroke-linejoin="round"/>
<path d="M1262.46 372.091C1269.93 367.869 1275.99 361.205 1279.49 353.376" stroke="#4A2E7F" stroke-width="1.86" stroke-linecap="round" stroke-linejoin="round"/>
<path d="M1255.71 374.167C1253.56 376.956 1251.64 379.931 1249.97 383.044" stroke="#4A2E7F" stroke-width="1.86" stroke-linecap="round" stroke-linejoin="round"/>
<path d="M1263.23 374.953C1264.33 378.215 1265.1 381.585 1265.55 385.001" stroke="#4A2E7F" stroke-width="1.86" stroke-linecap="round" stroke-linejoin="round"/>
<path d="M1263.03 385.253C1259.67 385.7 1256.2 385.325 1253.01 384.169" stroke="#4A2E7F" stroke-width="1.86" stroke-linecap="round" stroke-linejoin="round"/>
<path d="M1252.21 382.376C1253.92 381.986 1255.63 381.59 1257.38 381.498C1259.14 381.405 1260.93 381.626 1262.5 382.402" stroke="#4A2E7F" stroke-width="1.86" stroke-linecap="round" stroke-linejoin="round"/>
<path d="M1288.28 310.12C1289.9 313.675 1291.98 332.046 1284.87 344.55" stroke="#4A2E7F" stroke-width="1.86" stroke-linecap="round" stroke-linejoin="round"/>
</g>
<path d="M-0.0586848 96.562C-15.3314 77.0029 -14.1503 49.1931 2.93158 26.1331C20.0135 3.07308 52.3562 -14.3772 84.846 -18.0652C123.676 -22.4683 160.673 -8.5992 198.917 -18.779C248.376 -31.9461 276.147 -78.6201 324.24 -95.9014C361.197 -109.175 404.915 -99.625 420.132 -74.9553C431.782 -56.0691 423.921 -27.1301 397.151 -14.179C368.982 -0.555023 329.561 -7.52351 308.001 12.1832C291.491 27.2723 297.817 48.0867 310.311 61.6801C322.805 75.2735 340.634 86.4044 345.843 103.187C350.713 118.874 342.722 138.059 325.851 151.201C308.98 164.343 283.952 170.871 263.224 167.544C226.037 161.568 200.198 127.433 161.376 139.531C134.025 148.057 123.297 173.485 108.8 193.526C92.9209 215.473 65.5924 235.17 34.8178 239.94C4.03831 244.709 -27.5416 230.154 -27.0291 206.923C-26.6283 188.794 -8.87857 171.618 0.838213 153.794C11.1247 134.916 13.3632 113.759 -0.0550488 96.5683L-0.0586848 96.562Z" fill="#F7A5D6"/>
<path opacity="0.4" d="M20.3704 95.3489L21.6588 94.5807C22.6958 96.3198 23.8506 98.0085 25.1236 99.6388L25.188 99.7213L25.1921 99.7285C26.2633 101.107 27.2384 102.511 28.1205 103.939L26.8443 104.728C28.6774 107.695 30.0913 110.759 31.1212 113.89L32.5461 113.422C33.6507 116.781 34.3279 120.211 34.6198 123.678L33.125 123.804C33.4065 127.147 33.3183 130.53 32.8994 133.921L34.3881 134.105C33.9689 137.499 33.2284 140.893 32.2065 144.256L30.7713 143.82C29.8052 146.999 28.5794 150.158 27.1264 153.27L28.4855 153.905C27.7622 155.454 26.9842 156.991 26.1554 158.512L26.1552 158.512C25.3442 159.999 24.4803 161.479 23.5785 162.951L22.2995 162.167C20.5654 164.997 18.6795 167.814 16.7453 170.624L17.9809 171.474C17.0264 172.861 16.0605 174.246 15.0983 175.625L15.0878 175.64C14.1213 177.026 13.1585 178.406 12.2093 179.785L10.9736 178.935C9.03469 181.752 7.1499 184.57 5.42399 187.393L6.70385 188.176C4.91606 191.101 3.31455 194.01 2.00869 196.918L0.640376 196.303C-0.787344 199.482 -1.87938 202.677 -2.48945 205.899L-1.01565 206.178C-1.31738 207.771 -1.49426 209.363 -1.52949 210.956C-1.57622 213.075 -1.33913 215.112 -0.847888 217.062L-2.30243 217.429C-1.24494 221.626 0.919353 225.451 3.94394 228.824L5.0608 227.823C7.70474 230.772 11.0607 233.385 14.9649 235.589L14.2276 236.895C17.8684 238.95 21.945 240.645 26.3171 241.934L26.7413 240.495C30.7206 241.668 34.9571 242.499 39.3394 242.95L39.1859 244.442C43.4579 244.882 47.8606 244.967 52.2949 244.665L52.193 243.169C54.3215 243.024 56.457 242.788 58.5881 242.458L20.3704 95.3489ZM20.3704 95.3489C18.1895 91.6916 16.512 87.8153 15.3349 83.7901L16.7746 83.369C15.633 79.4654 14.9753 75.4133 14.8005 71.2795L13.3018 71.3429C13.1268 67.2018 13.4232 62.9856 14.1884 58.7588L15.6644 59.0261C16.3798 55.0747 17.5163 51.1083 19.0737 47.1828L17.6795 46.6296C19.1928 42.8153 21.0928 39.0435 23.3774 35.3629L24.6518 36.154C25.7262 34.4232 26.8879 32.7121 28.1369 31.026C29.2859 29.4749 30.5063 27.9483 31.7935 26.4488L30.6554 25.4718C33.1957 22.5128 35.9875 19.6628 38.9953 16.9411L40.0017 18.0533C42.862 15.4651 45.9232 12.9922 49.1541 10.6522L48.2743 9.4373C51.4576 7.13176 54.801 4.95551 58.2751 2.92438L59.0322 4.21931C62.3991 2.25084 65.8912 0.419758 69.4811 -1.25893L68.8457 -2.61769C72.4345 -4.29593 76.1191 -5.82321 79.8727 -7.18503L80.3843 -5.77496C84.08 -7.11578 87.8427 -8.29422 91.6462 -9.29622L91.264 -10.7467C95.1209 -11.7628 99.0198 -12.5997 102.934 -13.2432L103.178 -11.7631C105.121 -12.0826 107.068 -12.3537 109.015 -12.5747C110.899 -12.7884 112.78 -12.9586 114.657 -13.0903L114.553 -14.5866C118.384 -14.8553 122.199 -14.9649 126 -14.9566L125.997 -13.4566C129.795 -13.4483 133.584 -13.3214 137.369 -13.117L137.45 -14.6148C141.269 -14.4086 145.077 -14.1243 148.878 -13.8046L148.752 -12.3099C151.954 -12.0406 155.149 -11.746 158.348 -11.4512C158.949 -11.3958 159.55 -11.3403 160.152 -11.2851L160.289 -12.7788C164.097 -12.4288 167.901 -12.0862 171.704 -11.7941L171.589 -10.2985C175.414 -10.0047 179.244 -9.7613 183.081 -9.61273L183.139 -11.1116C186.955 -10.9639 190.772 -10.9107 194.594 -10.9958L194.627 -9.4962C198.467 -9.58168 202.318 -9.80558 206.182 -10.2122L206.025 -11.7039C209.787 -12.0999 213.558 -12.6709 217.34 -13.4582L217.645 -11.9897C219.528 -12.3816 221.414 -12.8266 223.303 -13.3294L222.917 -14.779L223.303 -13.3295C225.341 -13.8719 227.342 -14.4703 229.309 -15.1203L228.838 -16.5445C232.793 -17.8514 236.611 -19.3705 240.316 -21.0661L240.94 -19.7021C244.749 -21.4454 248.436 -23.3712 252.026 -25.4403L251.277 -26.7399C254.844 -28.7961 258.319 -30.998 261.727 -33.3079L262.568 -32.0662C265.994 -34.3887 269.35 -36.8167 272.657 -39.3111L271.754 -40.5087C275.033 -42.9813 278.271 -45.5232 281.492 -48.0973L282.428 -46.9255C285.003 -48.983 287.568 -51.0616 290.13 -53.138C290.767 -53.6548 291.405 -54.1715 292.042 -54.6877L291.098 -55.8534C294.295 -58.4421 297.5 -61.026 300.737 -63.5686L301.664 -62.3889C304.891 -64.9234 308.145 -67.4127 311.453 -69.822L310.57 -71.0344C313.895 -73.4565 317.277 -75.8007 320.74 -78.0304L321.552 -76.7692C324.975 -78.9731 328.474 -81.0613 332.072 -82.9993L331.361 -84.3199C334.959 -86.2575 338.659 -88.0483 342.485 -89.6576L343.067 -88.2749C344.93 -89.0584 346.823 -89.7981 348.747 -90.4897C350.779 -91.2195 352.832 -91.8793 354.9 -92.4705L354.488 -93.9128C358.718 -95.1218 363.008 -96.0475 367.308 -96.7009L367.534 -95.2179C371.834 -95.8712 376.145 -96.2483 380.414 -96.3604L380.375 -97.8598C384.808 -97.9762 389.198 -97.811 393.488 -97.3766L393.336 -95.8842C397.709 -95.4413 401.973 -94.7147 406.067 -93.719L406.421 -95.1765C410.786 -94.1148 414.965 -92.751 418.886 -91.101L418.305 -89.7184C422.387 -88.0007 426.172 -85.9714 429.581 -83.6528L430.424 -84.893C434.165 -82.348 437.476 -79.4551 440.251 -76.2372L439.115 -75.2576C440.509 -73.6411 441.76 -71.9434 442.855 -70.1679C443.878 -68.5088 444.745 -66.7675 445.455 -64.9627L446.851 -65.5117C448.327 -61.7574 449.152 -57.7465 449.329 -53.6388L447.83 -53.5743C447.995 -49.747 447.575 -45.8243 446.57 -41.9466L448.022 -41.5701C447.027 -37.7352 445.481 -33.9498 443.387 -30.3402L442.089 -31.093C440.176 -27.796 437.788 -24.6466 434.925 -21.7489L435.992 -20.6947C433.245 -17.9138 430.076 -15.3605 426.488 -13.1207L425.693 -14.3931C424.053 -13.3691 422.321 -12.4115 420.498 -11.5293C418.782 -10.6996 417.021 -9.94661 415.219 -9.25939L415.754 -7.85789C412.134 -6.47708 408.372 -5.36262 404.522 -4.42683L404.167 -5.88438C400.441 -4.9788 396.622 -4.24033 392.753 -3.58789L393.003 -2.10879C389.146 -1.45844 385.257 -0.89552 381.383 -0.339864L381.17 -1.82466L380.504 -1.72921C376.823 -1.20136 373.14 -0.673382 369.516 -0.0781167L369.759 1.40206C365.826 2.04799 361.964 2.7732 358.228 3.66726L357.879 2.20844C353.93 3.15342 350.098 4.28981 346.454 5.72446L347.004 7.12016C343.298 8.57935 339.809 10.3477 336.606 12.5398L335.759 11.302C334.093 12.442 332.5 13.6949 330.989 15.0759C329.099 16.803 327.489 18.6102 326.139 20.4812L327.355 21.3588C324.425 25.4206 322.816 29.753 322.265 34.1515L320.776 33.9651C320.171 38.798 320.782 43.6738 322.263 48.3424L323.693 47.8887C325.072 52.2328 327.245 56.4281 329.945 60.2661L328.718 61.1291C330.094 63.0845 331.601 64.9483 333.207 66.6952C334.771 68.3977 336.414 70.0571 338.097 71.6872L339.141 70.6097C341.523 72.9166 344.001 75.1782 346.479 77.4388C347.41 78.2888 348.342 79.1386 349.268 79.9907L348.252 81.0945C351.681 84.2499 355.002 87.4036 357.976 90.6926L359.089 89.6864C362.258 93.1909 365.054 96.8607 367.171 100.834L365.847 101.539C366.889 103.497 367.755 105.521 368.411 107.632C369.058 109.718 369.468 111.872 369.648 114.072L371.143 113.95C371.507 118.401 370.974 123.01 369.622 127.588L368.183 127.163C366.976 131.251 365.087 135.33 362.568 139.254L363.83 140.065C361.438 143.792 358.499 147.37 355.065 150.682L354.024 149.603C352.434 151.136 350.734 152.612 348.929 154.018C347.52 155.116 346.051 156.168 344.529 157.171L345.355 158.423C342.319 160.426 339.085 162.236 335.711 163.839L335.068 162.484C331.818 164.028 328.434 165.377 324.97 166.517L325.439 167.941C321.934 169.094 318.349 170.036 314.74 170.752M20.3704 95.3489L314.74 170.752M64.3196 242.923C67.9776 242.137 71.5786 241.145 75.1084 239.97L74.6344 238.546C78.1325 237.381 81.5614 236.032 84.9068 234.522L85.524 235.889C88.9361 234.349 92.2609 232.643 95.4838 230.795L94.7377 229.493C97.951 227.651 101.063 225.665 104.057 223.558L104.92 224.785C107.998 222.621 110.953 220.331 113.771 217.941L112.8 216.797C115.646 214.383 118.349 211.866 120.892 209.272L121.963 210.322C124.621 207.612 127.107 204.818 129.403 201.969L128.236 201.028C129.403 199.58 130.52 198.118 131.585 196.647C132.819 194.942 134.027 193.194 135.223 191.416L136.468 192.253C138.182 189.706 139.866 187.107 141.557 184.497C142.203 183.499 142.851 182.499 143.502 181.501L142.245 180.682C144.584 177.091 146.976 173.489 149.512 169.996L150.726 170.877C153.249 167.4 155.911 164.039 158.809 160.899L157.707 159.882C160.653 156.691 163.851 153.712 167.4 151.063L168.297 152.265C171.644 149.766 175.301 147.575 179.357 145.785L178.752 144.413C180.718 143.546 182.774 142.771 184.929 142.099L184.929 142.099C186.747 141.533 188.539 141.064 190.307 140.688L190.619 142.155C194.3 141.371 197.867 140.995 201.344 140.959L201.328 139.459C205.108 139.42 208.779 139.771 212.365 140.425L212.096 141.9C215.644 142.547 219.115 143.5 222.538 144.672L223.024 143.253C226.462 144.431 229.842 145.824 233.186 147.344L232.565 148.71C235.817 150.188 239.049 151.793 242.287 153.449L242.97 152.114C244.633 152.964 246.331 153.846 248.03 154.727C249.555 155.518 251.08 156.31 252.581 157.079L251.896 158.414C255.093 160.054 258.32 161.669 261.6 163.186L262.23 161.824C265.468 163.322 268.746 164.718 272.092 165.946L271.576 167.354C274.941 168.588 278.38 169.657 281.917 170.491L282.261 169.031C283.972 169.434 285.705 169.781 287.462 170.063M64.3196 242.923L292.717 172.19L292.832 170.695C291.013 170.555 289.22 170.345 287.462 170.063M64.3196 242.923L64.0046 241.456C62.212 241.841 60.406 242.176 58.5882 242.458L64.3196 242.923ZM287.462 170.063L287.224 171.544L287.461 170.063C287.461 170.063 287.461 170.063 287.462 170.063ZM314.74 170.752L314.448 169.28C310.861 169.992 307.251 170.476 303.674 170.72L303.776 172.216L314.74 170.752ZM23.9422 100.564L23.9759 100.544L23.9553 100.56L23.944 100.567L23.9422 100.564Z" stroke="white" stroke-width="3" stroke-dasharray="12 12"/>
<g opacity="0.5">
<path d="M741.26 428.53L744.54 411.42L754.89 424.01L769.54 416.02L760.78 435.53L772.25 453.72L751.29 447.3L738.97 460.99L740.84 442.72L728.31 437.52L741.26 428.53Z" fill="#F6DE8B"/>
<g style="mix-blend-mode:multiply" opacity="0.5">
<path d="M760.78 435.53L769.54 416.02L767.91 416.91C768 417.25 767.97 417.63 767.69 417.96C764.94 421.15 762.18 424.35 759.44 427.55C758.09 429.13 756.72 430.7 755.39 432.3C754.61 433.24 755.09 433.86 755.51 434.9C755.88 435.8 756.28 436.68 756.65 437.58C756.9 438.17 756.72 439.06 755.95 439.17C754.46 439.39 752.64 439.46 751.22 439.99C749.83 440.5 749.02 442.44 748.32 443.65C746.67 446.49 745.11 449.39 743.6 452.3C742.22 454.95 740.89 457.63 739.58 460.32L751.29 447.3L772.24 453.72L760.78 435.53Z" fill="#F6DE8B"/>
</g>
<path d="M741.67 428.66C742.48 423.1 743.47 417.57 744.62 412.07C745.49 412.07 746.2 412.75 746.79 413.39C749.41 416.26 751.77 419.38 753.82 422.68" stroke="#4A2E7F" stroke-width="1.86" stroke-linecap="round" stroke-linejoin="round"/>
<path d="M757.98 421.89C761.52 419.5 765.32 417.48 769.29 415.89C769.16 419.16 767.73 422.23 766.32 425.19C764.97 428.04 763.62 430.89 762.27 433.74C762.02 434.26 761.77 434.83 761.84 435.4C761.89 435.78 762.08 436.13 762.27 436.47C765.43 442.15 768.6 447.83 771.76 453.51C770.8 453.85 769.75 453.45 768.82 453.06C763.22 450.7 757.62 448.33 752.02 445.97C747.83 451.33 743.63 456.68 739.44 462.04C738.5 460.88 738.56 459.22 738.68 457.73C739.06 452.74 739.44 447.76 739.82 442.77" stroke="#4A2E7F" stroke-width="1.86" stroke-linecap="round" stroke-linejoin="round"/>
<path d="M739.52 430.16C736.06 432.24 732.64 434.41 729.27 436.65C729.15 436.73 729.03 436.82 728.97 436.95C728.86 437.22 729.08 437.5 729.29 437.69C730.67 438.92 732.49 439.53 734.25 440.1C735.29 440.44 736.33 440.78 737.38 441.12" stroke="#4A2E7F" stroke-width="1.86" stroke-linecap="round" stroke-linejoin="round"/>
<path d="M722.87 293.77L724.26 285L728.31 291.81L736.76 288.12L731.79 297.39L736.25 308.32L726.59 302.73L720.68 310.1L721.91 301.66L715.03 296.64L722.87 293.77Z" fill="#F6DE8B"/>
<g style="mix-blend-mode:multiply" opacity="0.5">
<path d="M731.79 297.39L736.64 288.35C731.31 293.73 726.24 299.36 721.4 305.18L720.68 310.09L726.6 302.72L736.25 308.31L731.79 297.38V297.39Z" fill="#F6DE8B"/>
</g>
<path d="M728.05 292.08C730.68 290.46 733.58 289.27 736.59 288.56C736.36 289.95 735.55 291.16 734.75 292.33L731.48 297.11" stroke="#4A2E7F" stroke-width="1.86" stroke-linecap="round" stroke-linejoin="round"/>
<path d="M726.82 289.05C726.3 288.08 725.77 287.11 725.25 286.15C725.17 285.99 725.07 285.83 724.91 285.75C724.44 285.53 724.07 286.21 723.99 286.73C723.62 289.16 723.24 291.59 722.87 294.02C723.02 293.93 723.17 293.84 723.31 293.74" stroke="#4A2E7F" stroke-width="1.86" stroke-linecap="round" stroke-linejoin="round"/>
<path d="M719.55 295.27C718 295.64 716.48 296.13 715 296.71" stroke="#4A2E7F" stroke-width="1.86" stroke-linecap="round" stroke-linejoin="round"/>
<path d="M717.57 299.02C718.93 299.97 720.38 300.79 721.89 301.45L720.36 309.12C721.31 308.74 722.06 307.99 722.77 307.27C724.02 306.01 725.26 304.74 726.51 303.48C729.47 304.91 732.31 306.58 734.99 308.49" stroke="#4A2E7F" stroke-width="1.86" stroke-linecap="round" stroke-linejoin="round"/>
<path d="M732.99 300.77C733.72 302.21 734.45 303.66 735.19 305.1" stroke="#4A2E7F" stroke-width="1.86" stroke-linecap="round" stroke-linejoin="round"/>
<path d="M918.52 316.31L924.62 302.7L928.43 314.56L942.36 311.08L932.78 322.95L937.14 333.94L925.71 329.48L913.52 341.23L916.78 326.32L905.24 319.79L918.52 316.31Z" fill="#F6DE8B"/>
<g style="mix-blend-mode:multiply" opacity="0.5">
<path d="M942.36 311.08L928.43 314.56L924.62 302.7L924.16 303.72C924.27 303.87 924.35 304.04 924.38 304.26C924.65 306.62 924.93 308.99 925.2 311.35C925.33 312.49 925.46 313.63 925.59 314.76C925.69 315.61 925.71 316.58 925.91 317.45C926.8 317.63 927.89 317.59 928.73 317.73C929.28 317.82 929.69 318.57 929.5 319.08C929.21 319.87 928.9 320.64 928.6 321.43C928.21 322.46 928.18 323 929.04 323.79C929.55 324.25 929.43 325.2 928.82 325.52C922.7 328.7 918.52 334.33 913.94 339.3L913.51 341.25L925.7 329.49L937.13 333.95L932.78 322.96L942.36 311.1V311.08Z" fill="#F6DE8B"/>
</g>
<path d="M918.82 316.08C920.55 311.76 922.48 307.52 924.61 303.39C925.94 306.81 927.08 310.31 928.02 313.86C928.06 314.03 928.12 314.21 928.28 314.29C928.4 314.35 928.54 314.32 928.67 314.29C933.32 313.29 937.97 312.29 942.62 311.28" stroke="#4A2E7F" stroke-width="1.86" stroke-linecap="round" stroke-linejoin="round"/>
<path d="M933.46 322.08C934.98 319.8 936.79 317.7 938.82 315.86" stroke="#4A2E7F" stroke-width="1.86" stroke-linecap="round" stroke-linejoin="round"/>
<path d="M933.72 327.3C934.74 329.9 935.77 332.49 936.79 335.09L926.33 330.14C926.18 330.07 926.01 329.99 925.84 330.01C925.66 330.03 925.51 330.15 925.37 330.27C921.39 333.6 917.41 336.93 913.42 340.26C914.42 335.71 915.42 331.16 916.42 326.61" stroke="#4A2E7F" stroke-width="1.86" stroke-linecap="round" stroke-linejoin="round"/>
<path d="M913.97 324.73C913.97 324.73 906.94 320.59 905.41 319.83C906.04 319.83 912.41 317.97 915.23 317.18" stroke="#4A2E7F" stroke-width="1.86" stroke-linecap="round" stroke-linejoin="round"/>
</g>
</g>
<defs>
<clipPath id="clip0_116_14047">
<rect width="1440" height="905" fill="white" transform="translate(0 -2)"/>
</clipPath>
<clipPath id="clip1_116_14047">
<rect width="276" height="206" fill="white" transform="translate(655 69)"/>
</clipPath>
<clipPath id="clip2_116_14047">
<rect width="73.46" height="46.73" fill="white" transform="translate(358 263)"/>
</clipPath>
<clipPath id="clip3_116_14047">
<rect width="73.46" height="46.73" fill="white" transform="translate(1129.54 225.137) rotate(-97.6979)"/>
</clipPath>
</defs>
</svg>
