<svg width="112" height="239" viewBox="0 0 112 239" fill="none" xmlns="http://www.w3.org/2000/svg">
<path d="M17.9909 212.476C17.9909 212.476 16.0235 218.944 11.664 221.965C7.32685 224.986 1.51416 226.843 1.1341 230.402C0.731687 233.96 4.28637 234.363 10.7474 233.691C17.2084 233.042 22.8646 233.289 23.6471 232.237C24.4296 231.185 25.1003 228.41 26.5534 224.203C28.0066 219.973 30.6447 216.034 30.6447 216.034C30.6447 216.034 19.4441 209.835 18.0133 212.476H17.9909Z" fill="#423227"/>
<path d="M60.267 218.675C60.267 218.675 55.5274 226.194 55.3933 230.267C55.2592 234.34 54.8567 234.743 60.5353 236.198C66.1915 237.653 72.2277 238.839 76.4308 238.167C80.6338 237.518 81.0362 235.392 79.0688 233.826C77.1015 232.237 72.2501 230.536 70.9311 229.081C69.612 227.627 72.6525 222.748 73.0326 221.83C73.435 220.913 64.7383 215.9 60.267 218.675Z" fill="#423227"/>
<path d="M42.896 157.647C42.896 157.647 39.5426 170.895 31.2483 186.113C22.954 201.331 12.3571 216.952 12.3571 216.952C12.3571 216.952 13.0725 218.474 19.6006 221.428C26.1287 224.404 28.5655 224.203 28.5655 224.203C28.5655 224.203 43.522 212.409 55.5722 189.47C63.4417 174.521 62.9498 174.968 64.783 173.133C66.3033 171.611 68.4048 172.484 68.606 175.035C68.8072 177.609 64.4477 196.385 60.3117 207.866C56.1534 219.324 53.6048 225.075 53.6048 225.075C53.6048 225.075 57.5619 227.045 63.8664 228.432C70.1933 229.82 72.3619 228.835 72.3619 228.835C72.3619 228.835 83.6296 208.873 89.3528 188.306C95.0761 167.74 95.0761 155.274 94.2936 151.336C93.5111 147.375 52.8 140.862 42.9407 157.669L42.896 157.647Z" fill="#445F8E"/>
<path d="M58.0091 88.7408C53.9625 89.2107 46.8532 91.1801 41.3088 95.0294C37.7094 97.5358 44.6622 114.746 44.461 126.405C44.2598 138.065 41.4876 155.073 41.6888 158.251C41.89 161.406 60.4459 164.181 75.2683 162.413C90.0906 160.623 94.629 156.08 95.8139 153.708C96.9988 151.336 99.1674 134.529 93.4441 117.118C87.7208 99.7066 82.1764 89.6359 79.8067 88.8303C77.4369 88.047 69.165 87.4428 57.9867 88.7408H58.0091Z" fill="#F6DEBE"/>
<path d="M39.5873 138.669C39.5873 138.669 45.1094 138.4 48.0157 143.011C50.9221 147.621 49.3347 151.985 46.2943 154.357C43.2761 156.729 37.4634 156.08 36.9492 154.223C36.4127 152.388 37.4858 151.067 36.8151 149.344C36.1668 147.621 33.6628 145.92 33.6628 145.92C33.6628 145.92 34.9819 137.751 39.5873 138.669Z" fill="#E9A17A"/>
<path d="M45.154 113.85C45.154 113.85 32.0755 121.795 30.8235 128.576C30.3988 130.926 33.0145 134.305 35.5631 135.894C37.9329 137.371 39.9003 138.266 39.9003 138.266C39.9003 138.266 40.7945 141.422 38.7154 145.674C36.6362 149.926 35.5631 150.821 35.5631 150.821C35.5631 150.821 21.2326 147.464 15.9118 137.975C10.5685 128.486 13.1395 115.529 21.5456 107.316C29.9516 99.1024 40.3698 92.7914 51.1679 90.0164C54.5885 89.1436 50.8773 96.7302 50.3855 102.28C49.8936 107.808 45.154 113.85 45.154 113.85Z" fill="#F6DEBE"/>
<path d="M76.5426 88.2485C76.5426 88.2485 88.5928 88.987 95.1432 95.2756C101.56 101.43 108.669 111.501 111.039 123.362C113.408 135.223 110.949 138.401 108.87 140.459C106.791 142.518 93.7571 134.037 91.3873 127.211C89.0175 120.385 80.5221 94.9847 78.9347 92.702C77.3474 90.4193 76.5426 88.2485 76.5426 88.2485Z" fill="#F6DEBE"/>
<path d="M50.3855 85.9433L53.2918 100.177C53.2918 100.177 58.568 105.704 64.8725 103.332C71.1994 100.96 71.1994 97.2673 71.1994 97.2673L66.7281 80.1247C66.7281 80.1247 59.887 86.9728 50.4079 85.921L50.3855 85.9433Z" fill="#E9A17A"/>
<g style="mix-blend-mode:multiply">
<path d="M53.4483 93.3733C57.3831 93.8656 61.519 94.2461 65.409 93.1942C66.9293 92.7914 68.3601 92.0977 69.6121 91.1353L66.7281 80.1247C66.7281 80.1247 59.887 86.9728 50.4078 85.921L51.8834 93.1495C52.4199 93.2166 52.9341 93.3061 53.4707 93.3733H53.4483Z" fill="#D1B6A7"/>
</g>
<path d="M84.7698 119.154C84.7698 119.154 83.7861 118.617 83.1825 116.715C82.5789 114.813 81.8858 112.44 79.7843 111.926C77.6828 111.411 76.878 112.709 76.878 112.709C76.878 112.709 69.6345 105.324 68.1142 106.644C66.594 107.965 74.0163 114.79 74.0163 114.79C74.0163 114.79 71.2665 113.269 70.6181 114.343C69.8804 115.574 71.6018 117.207 71.6018 117.207C71.6018 117.207 69.8357 116.044 69.1203 117.364C68.4048 118.684 70.5064 120.206 70.5064 120.206C70.5064 120.206 68.9861 119.221 68.6731 121.057C68.3378 122.892 71.8254 125.152 74.4635 126.338C77.1015 127.524 80.7233 128.576 80.7233 128.576C80.7233 128.576 83.2943 119.02 84.8145 119.154H84.7698Z" fill="#E9A17A"/>
<path d="M86.29 47.0706C86.29 47.0706 91.7673 41.7667 94.2489 44.4074C96.7304 47.0706 96.9093 50.7855 93.0193 54.1424C89.1292 57.4993 85.7758 57.1636 85.7758 57.1636L86.3123 47.0706H86.29Z" fill="#E9A17A"/>
<path d="M16.5824 44.0494C15.554 55.9775 17.6331 82.3179 43.4773 89.3898C69.299 96.484 83.6966 76.5217 87.7208 57.6336C91.9461 37.716 80.522 13.4121 75.3353 12.5169C48.4404 7.90679 18.7063 19.6112 16.5824 44.0494Z" fill="#E9A17A"/>
<path d="M55.1473 53.6725C55.1473 53.6725 55.2144 53.5829 55.1473 53.5829C55.0803 53.5829 55.0803 53.6725 55.1473 53.6725Z" fill="#423227"/>
<g style="mix-blend-mode:multiply">
<path d="M53.6495 50.696C54.3202 51.7031 54.3649 53.0906 54.5885 54.2319C54.812 55.4852 55.0132 56.8727 55.6839 57.9693C56.3323 58.9987 57.4501 59.2897 58.6126 58.9764C59.7975 58.6407 61.7649 57.2979 61.8767 59.4463C61.9438 60.6324 61.5413 61.729 60.6247 62.5123C60.1776 62.9151 59.6187 63.206 59.0374 63.3627C58.5232 63.497 57.8972 63.4746 57.4501 63.7655C57.2713 63.8774 57.2042 64.1683 57.383 64.325C58.1655 65.0188 59.4845 64.5488 60.2894 64.146C61.2507 63.676 62.0779 62.8703 62.525 61.908C63.1287 60.6772 63.4864 57.6336 61.5861 57.2308C60.8036 57.0517 59.954 57.3427 59.261 57.656C58.7021 57.9021 57.9419 58.3497 57.3383 57.9693C56.3323 57.3427 56.1534 55.6418 55.9746 54.59C55.6839 53.0458 55.4827 51.3226 54.4767 50.0694C54.0966 49.5994 53.3365 50.2037 53.6495 50.696Z" fill="#D1B6A7"/>
</g>
<path d="M49.0888 69.9198C49.0888 69.9198 53.2024 71.1059 60.58 69.8079C66.5939 68.756 69.2543 66.2048 69.2543 66.2048C69.2543 66.2048 72.2724 75.9398 62.3462 78.961C52.4422 81.9822 49.0664 69.9198 49.0664 69.9198H49.0888Z" fill="#423227"/>
<path d="M56.2652 71.822C58.9257 72.7396 62.1674 72.3367 64.6713 71.173C65.8562 70.6359 66.9964 69.8526 67.6671 68.7113C67.98 68.1966 68.1589 67.6147 68.1813 67.0105C66.9069 67.8385 64.4254 69.1365 60.5577 69.8303C58.009 70.2778 55.8405 70.4345 54.119 70.4345C54.6556 71.1059 55.438 71.5759 56.2652 71.8444V71.822Z" fill="white"/>
<path d="M59.9093 78.6253C59.4175 77.5511 58.6126 76.6111 57.6066 75.9621C56.6452 75.3355 55.5051 74.9998 54.3425 75.067C53.5601 75.1117 52.8223 75.3803 52.174 75.8055C53.9401 77.9315 56.5335 79.7442 60.1776 79.3862C60.1105 79.1176 60.0211 78.8714 59.9093 78.6253Z" fill="#CE5456"/>
<path d="M40.4816 49.9127C39.632 49.7337 38.7601 49.6218 37.9106 49.8008C37.061 49.9799 36.2786 50.4051 35.5632 50.9198C33.1487 52.6654 31.4719 55.3957 31.0471 58.3497C30.913 59.2225 30.8906 60.1401 31.0919 60.9905C31.3154 61.9975 31.8296 62.9151 32.4556 63.6984C34.8477 66.6972 39.2967 67.9504 42.8514 66.4734C46.2048 65.0859 48.7088 60.8786 48.2616 57.2308C47.8369 53.6724 43.7456 50.6512 40.5039 49.9351L40.4816 49.9127Z" fill="white"/>
<path d="M41.823 66.8091C46.3613 64.1684 46.4731 57.1413 42.3595 53.8739C39.4085 51.5241 35.6079 52.0164 32.7015 53.9634C31.852 55.2838 31.2707 56.7832 31.0471 58.3497C30.913 59.2225 30.8906 60.1401 31.0919 60.9905C31.3154 61.9976 31.8296 62.9151 32.4556 63.6984C34.6242 66.4287 38.4919 67.6819 41.823 66.8091Z" fill="#423227"/>
<path d="M72.7643 42.3485C71.9147 42.1695 71.0429 42.0576 70.1933 42.2366C69.3438 42.4157 68.5613 42.8409 67.8459 43.3556C65.4314 45.1012 63.7546 47.8315 63.3299 50.7855C63.1957 51.6583 63.1734 52.5759 63.3746 53.4263C63.5981 54.4334 64.1123 55.3509 64.7383 56.1342C67.1305 59.133 71.5794 60.3862 75.1341 58.9092C78.4876 57.5217 80.9915 53.3144 80.5444 49.6666C80.1196 46.1083 76.0283 43.0871 72.7867 42.3709L72.7643 42.3485Z" fill="white"/>
<path d="M74.1057 59.2449C78.6441 56.6042 78.7558 49.5771 74.6422 46.3097C71.6912 43.9599 67.8906 44.4522 64.9842 46.3992C64.1347 47.7196 63.5534 49.219 63.3299 50.7856C63.1957 51.6584 63.1734 52.5759 63.3746 53.4263C63.5981 54.4334 64.1123 55.3509 64.7383 56.1342C66.9069 58.8645 70.7746 60.1177 74.1057 59.2449Z" fill="#423227"/>
<path d="M41.2417 59.2449C43.2314 59.2449 43.2314 56.1342 41.2417 56.1342C39.252 56.1342 39.252 59.2449 41.2417 59.2449Z" fill="white"/>
<path d="M73.1891 51.5688C75.1788 51.5688 75.1788 48.4581 73.1891 48.4581C71.1993 48.4581 71.1993 51.5688 73.1891 51.5688Z" fill="white"/>
<path d="M22.0598 67.4358C22.0598 67.4358 17.2755 63.3627 13.3855 66.7196C9.49547 70.0765 11.977 76.2756 18.684 76.2756C25.3909 76.2756 25.2344 70.7927 25.2344 70.7927L22.0598 67.4358Z" fill="#E9A17A"/>
<path d="M74.6199 23.3261C74.6199 23.3261 80.6338 28.4734 83.473 35.1872C86.3123 41.9233 87.9443 48.0553 87.9443 48.0553C87.9443 48.0553 91.9461 41.5653 91.2531 34.0011C90.6048 27.1082 85.9546 19.7678 80.0972 19.4098C74.2622 19.0517 74.6199 23.3038 74.6199 23.3038V23.3261Z" fill="#B0683F"/>
<path d="M76.4532 37.2908C76.0955 36.4404 75.6036 35.8362 74.8659 35.2767C74.2846 34.8515 73.5245 34.5829 72.8314 34.4039C71.9595 34.2025 71.11 34.2025 70.2157 34.3591C69.4556 34.4934 68.2707 34.762 67.9353 35.5452C68.0695 35.411 68.2036 35.2767 68.3378 35.1424C68.1589 35.2543 67.9801 35.3886 67.8012 35.5229C67.5329 35.7466 67.4435 36.2166 67.5329 36.5299C67.5553 36.6194 67.6 36.709 67.6447 36.7761C67.8236 37.067 68.1813 37.3356 68.539 37.2908C68.6731 37.2908 68.8072 37.2908 68.9414 37.2461C68.6731 37.2908 69.0979 37.2013 68.9414 37.2461C68.7402 37.2013 68.5613 37.1342 68.3601 37.0894C68.7625 37.3132 69.1426 37.3132 69.5674 37.2684C69.6568 37.2684 69.7462 37.2684 69.8356 37.2461C70.0816 37.2237 70.0816 37.2237 69.8356 37.2461C69.8804 37.2461 69.9698 37.2461 70.0145 37.2461C70.171 37.2461 70.3051 37.2461 70.4616 37.2237C71.0876 37.2013 71.6912 37.2013 72.3172 37.2237C72.3843 37.2237 72.4737 37.2237 72.5408 37.2237C72.8091 37.2237 72.2949 37.1789 72.4737 37.2237C72.6078 37.2461 72.7643 37.2684 72.8985 37.3132C73.1891 37.3803 73.435 37.4922 73.7257 37.5817C73.8822 37.6265 73.435 37.4475 73.681 37.5817C73.748 37.6041 73.8151 37.6489 73.8822 37.6713C74.0163 37.7384 74.1281 37.8055 74.2399 37.8951C74.3517 37.9622 74.374 37.9846 74.2399 37.8951C74.3293 37.9622 74.3964 38.007 74.4858 38.0741C74.5752 38.1412 74.5752 38.1412 74.4858 38.0741C74.3517 37.9622 74.5529 38.1188 74.5752 38.1412C74.6423 38.2084 74.7094 38.2531 74.7541 38.3203C75.0671 38.6559 75.626 38.7231 76.006 38.4769C76.3637 38.2531 76.6544 37.716 76.4755 37.2908H76.4532Z" fill="#B0683F"/>
<path d="M36.3679 43.848C36.0996 43.7137 35.8313 43.6018 35.5407 43.557C35.4289 43.557 35.3171 43.4899 35.2054 43.4451C35.0041 43.378 34.7806 43.4004 34.5794 43.4228C34.0652 43.4675 33.7298 43.557 33.2603 43.7808C33.0144 43.8927 32.7685 44.027 32.5226 44.1837C31.3153 44.9669 30.2869 46.2649 29.8398 47.6301C29.7951 47.7643 29.7504 47.8986 29.728 48.0329C29.6833 48.2343 29.6386 48.6595 29.728 48.8833C29.5939 48.5924 29.7727 48.1 29.7057 48.4581C29.6386 48.8162 29.6609 48.9952 29.7057 49.3533C29.7057 49.5099 29.7057 49.0176 29.6833 49.2414C29.6833 49.3756 29.6833 49.5771 29.728 49.7113C29.8845 50.2932 30.4434 50.696 31.0247 50.4499C31.2035 50.3603 31.36 50.2708 31.5165 50.1365C31.5389 50.1142 31.6283 50.047 31.6283 50.0023C31.4718 50.1142 31.4271 50.1365 31.5165 50.0918C31.6283 50.0246 31.7177 49.9351 31.8295 49.868C31.9413 49.7561 32.0307 49.6218 32.1202 49.5099C32.0754 49.5547 32.0307 49.6218 31.986 49.6666C32.0754 49.5547 32.0307 49.5994 31.8519 49.7561C32.1425 49.5771 32.3214 49.3309 32.5002 49.0623C32.5449 48.9952 32.5896 48.9504 32.6344 48.8833C32.2767 49.3756 32.6344 48.8833 32.7685 48.7043C32.8579 48.57 32.9474 48.4133 33.0591 48.2791C33.2156 48.0553 33.3721 47.8315 33.5286 47.6077C33.618 47.4958 33.6851 47.3615 33.7745 47.2496C33.9534 47.0034 33.5063 47.5629 33.7075 47.3391C33.7522 47.272 33.7969 47.2272 33.8416 47.1601C34.0652 46.9139 34.2887 46.6454 34.5123 46.3992C34.6017 46.3097 34.7135 46.1978 34.8029 46.1083C34.8477 46.0635 34.9147 46.0188 34.9594 45.974C35.0712 45.8845 35.0265 45.9069 34.8477 46.0635C34.9594 45.974 35.0712 45.8845 35.183 45.795C35.2277 45.7502 35.2724 45.7054 35.3171 45.6607C35.3395 45.6383 35.3842 45.6159 35.4066 45.5712C35.496 45.4817 35.4736 45.5264 35.3171 45.6383C35.3619 45.6383 35.4066 45.5935 35.4289 45.5712C35.5407 45.504 35.6301 45.4369 35.7196 45.3474C35.9431 45.0788 35.9655 45.0341 35.7866 45.2579C35.5631 45.3474 35.9431 45.1236 35.7866 45.2579C35.8537 45.2131 35.9431 45.1683 36.0102 45.146C36.1443 45.0788 36.2561 45.0117 36.3903 44.9445C36.8374 44.7655 36.7927 44.027 36.3903 43.8256L36.3679 43.848Z" fill="#B0683F"/>
<path d="M19.064 69.0247C19.064 69.0247 22.5963 62.4675 24.5414 52.5535C26.4864 42.6395 24.7202 33.7773 24.7202 33.7773C24.7202 33.7773 34.0876 42.9975 42.4042 38.9245C50.7208 34.8515 42.0465 28.4734 42.0465 28.4734C42.0465 28.4734 49.8266 34.6724 55.4827 32.1883C61.1389 29.7042 53.7166 24.4003 53.7166 24.4003C53.7166 24.4003 70.8864 32.9045 82.5565 24.9374C94.2266 16.9704 90.3365 4.39324 71.9371 0.67828C53.5377 -3.03668 46.1154 9.71952 46.1154 9.71952C46.1154 9.71952 44.5281 -0.91065 37.0834 1.75249C29.661 4.41562 27.3583 16.0976 27.3583 16.0976C27.3583 16.0976 25.4133 8.48866 21.7021 12.2036C17.9909 15.9186 22.4175 25.6536 22.4175 25.6536C22.4175 25.6536 14.1009 16.2766 5.2477 27.4215C-3.60547 38.5888 3.48154 51.6807 7.37157 56.8279C11.2616 61.9752 19.0417 69.047 19.0417 69.047L19.064 69.0247Z" fill="#B0683F"/>
<path d="M84.5686 118.595C84.5686 118.595 83.0931 119.289 81.1033 122.757C79.136 126.226 79.0242 128.285 79.0242 128.285C79.0242 128.285 88.2127 141.041 94.629 143.212C101.045 145.383 107.462 144.488 110.524 138.468C113.587 132.448 101.247 125.622 96.1045 122.847C90.9625 120.072 84.5462 118.595 84.5462 118.595H84.5686Z" fill="#F6DEBE"/>
<path d="M84.1661 118.93C86.6253 120.318 89.2187 121.482 91.7449 122.735C93.2875 123.496 94.8301 124.301 96.2833 125.197C96.9316 125.599 97.58 126.025 98.1836 126.472C98.7202 126.875 99.2567 127.524 99.9274 127.703C100.24 127.793 100.576 127.479 100.464 127.166C100.24 126.517 99.5473 126.114 99.0331 125.689C98.3848 125.197 97.7365 124.727 97.0658 124.301C95.5903 123.339 94.0476 122.489 92.4827 121.683C89.8893 120.34 87.1842 119.199 84.3896 118.416C84.0767 118.326 83.8754 118.774 84.1661 118.93Z" fill="#BA917A"/>
<path d="M101.224 144.309C98.3625 143.749 95.5903 142.63 94.6737 142.227C92.6839 141.332 90.8731 140.034 89.174 138.691C85.351 135.67 82.0423 132.134 79.2924 128.106C79.1359 127.905 78.7335 128.016 78.8453 128.285C79.6948 130.523 81.0586 132.358 82.6235 134.148C84.3897 136.185 86.3571 138.132 88.4809 139.788C90.2471 141.153 92.1027 142.451 94.1818 143.279C98.8096 145.092 101.045 144.286 101.224 144.286V144.309Z" fill="#BA917A"/>
<path d="M87.4302 104.093C87.609 105.078 88.235 106.04 88.6598 106.957C89.4646 108.725 90.2471 110.493 90.9849 112.284C91.8121 114.298 92.8405 116.29 93.4888 118.371C93.8018 119.378 94.0477 120.385 94.2936 121.392C94.4948 122.22 94.5843 123.294 95.1208 123.988C95.2326 124.145 95.4785 124.145 95.5456 123.921C95.8139 123.093 95.4338 122.064 95.2103 121.258C94.9196 120.251 94.5843 119.288 94.2266 118.304C93.4665 116.155 92.9075 113.962 92.058 111.859C91.3426 110.068 90.5825 108.278 89.7776 106.51C89.3529 105.548 88.9952 104.384 88.2797 103.601C87.8997 103.198 87.3408 103.645 87.4302 104.093Z" fill="#BA917A"/>
</svg>
