<svg width="292" height="219" viewBox="0 0 292 219" fill="none" xmlns="http://www.w3.org/2000/svg">
<path d="M110.329 81.6921C110.329 81.6921 103.428 82.4273 97.1041 92.0247C90.78 101.622 86.922 115.909 88.672 127.255C90.4221 138.601 97.2234 147.265 99.3314 149.252C101.439 151.239 103.786 153.703 103.786 153.703L112.576 145.854C112.576 145.854 105.079 133.554 103.547 126.182C102.016 118.81 105.894 111.319 108.002 109.451C110.11 107.583 113.749 105.239 113.749 105.239C113.749 105.239 113.61 80.48 110.349 81.6722L110.329 81.6921Z" fill="#7198B5"/>
<path d="M151.813 145.814C153.424 143.906 154.975 141.84 155.85 139.475C156.825 136.852 156.725 134.011 156.228 131.309C155.731 128.566 154.856 125.844 154.776 123.042C154.776 123.023 154.776 123.003 154.776 122.983C153.663 117.479 154.1 111.518 154.1 105.576C154.1 99.2576 152.628 94.6278 148.89 88.4282C145.29 82.467 137.654 80.3608 137.654 80.3608C137.654 80.3608 141.631 111.021 141.631 121.214C141.631 130.395 145.35 147.582 147.617 150.344C149.049 148.874 150.481 147.424 151.813 145.854V145.814Z" fill="#7198B5"/>
<path d="M129.321 198.252C129.321 198.252 126.994 205.505 126.994 209.141C126.994 212.777 126.656 213.135 131.727 214.248C136.798 215.361 142.188 216.235 145.927 215.539C149.645 214.824 149.944 212.936 148.134 211.605C146.324 210.254 141.969 208.883 140.756 207.631C139.543 206.379 140.438 201.511 140.756 200.676C141.074 199.842 133.199 195.649 129.301 198.252H129.321Z" fill="#7198B5"/>
<path d="M101.141 199.484C101.141 199.484 98.1183 206.478 97.7603 210.095C97.4024 213.711 97.0444 214.029 101.976 215.639C106.928 217.248 112.198 218.639 115.977 218.301C119.755 217.964 120.233 216.116 118.562 214.605C116.892 213.095 112.695 211.307 111.622 209.936C110.528 208.585 111.9 203.816 112.298 203.021C112.695 202.226 105.278 197.298 101.141 199.484Z" fill="#7198B5"/>
<path d="M103.647 140.985C103.647 140.985 103.07 143.906 103.17 151.278C103.289 158.65 102.931 171.407 101.42 181.005C99.8882 190.602 97.4421 204.293 97.4421 204.293C97.4421 204.293 99.9081 206.28 105.755 206.757C111.622 207.234 113.014 206.637 113.014 206.637C113.014 206.637 119.218 188.734 122.261 177.964C125.304 167.195 127.173 154.915 128.346 155.849C129.52 156.782 130.216 168.367 129.162 180.786C128.108 193.185 126.238 205.246 126.238 205.246C126.238 205.246 129.042 206.3 135.267 206.18C141.472 206.061 142.068 204.889 142.068 204.889C142.068 204.889 147.338 191.198 149.208 174.11C151.077 157.021 148.83 138.382 148.83 138.382C148.83 138.382 135.168 132.203 125.324 134.19C115.48 136.177 103.647 140.985 103.647 140.985Z" fill="#82342A"/>
<path d="M139.463 91.0312C138.807 87.2757 137.037 83.8977 134.631 81.0563C133.497 80.4601 132.344 79.9634 131.031 79.6852C130.037 79.4666 129.023 79.3474 128.008 79.3474C127.113 79.3474 126.278 79.5064 125.423 79.6256C125.165 79.6653 124.986 79.3275 125.224 79.1685C125.304 79.1288 125.383 79.0891 125.463 79.0493C125.025 79.0493 124.608 79.0493 124.17 79.0493C119 79.0493 113.889 80.4403 110.369 81.6921C109.951 84.5534 110.249 87.4943 110.965 90.2761C111.741 93.2567 112.954 96.118 114.465 98.8006C115.838 101.245 117.528 103.649 119.497 105.636C121.505 107.683 123.991 109.332 126.875 109.709C129.739 110.087 132.582 109.213 134.75 107.305C136.918 105.378 138.25 102.755 139.006 99.9928C139.801 97.0718 140 93.9919 139.483 91.0113L139.463 91.0312Z" fill="white"/>
<path d="M149.864 142.098C149.924 140.588 150.023 139.078 150.123 137.588C150.302 134.865 150.54 132.143 150.739 129.421C151.316 120.638 151.057 111.716 149.486 103.033C148.711 98.6813 147.577 94.3496 146.046 90.1967C144.753 86.6796 144.455 85.9046 142.566 82.6658C133.776 78.0955 132.901 79.0493 124.15 79.0493C114.784 79.0493 105.636 83.6195 105.636 83.6195C105.636 83.6195 106.928 92.283 107.266 98.7211C107.624 105.159 107.843 110.902 106.789 119.327C105.735 127.752 102.931 142.039 102.931 142.039C102.931 142.039 112.178 145.675 127.412 146.251C140.1 146.748 147.637 143.827 149.804 142.833C149.804 142.595 149.824 142.357 149.844 142.118L149.864 142.098ZM134.79 97.6878C134.412 98.7807 133.974 99.8537 133.457 100.887C132.841 102.139 132.065 103.45 130.832 104.185C128.307 105.696 125.682 103.53 123.991 101.761C122.162 99.8338 120.67 97.6282 118.98 95.6014C117.23 93.4951 115.38 91.3293 114.187 88.8256C113.71 87.8122 113.292 86.6796 113.372 85.547C113.451 84.4938 114.008 83.5003 114.803 82.8247C116.673 81.2152 119.417 81.3146 121.704 81.6126C124.051 81.9305 126.318 82.5267 128.625 83.0234C130.733 82.9439 132.901 83.4407 134.313 85.0899C135.645 86.6597 136.063 88.7859 136.043 90.7928C136.043 93.1375 135.526 95.4822 134.77 97.6878H134.79Z" fill="#7198B5"/>
<path d="M118.145 103.033C114.704 103.192 111.264 103.192 107.843 102.874C107.724 102.874 107.604 102.834 107.465 102.834C107.406 101.483 107.346 100.132 107.266 98.7409C107.266 98.7012 107.266 98.6615 107.266 98.6019C108.798 98.8006 110.349 98.9396 111.9 99.039C115.201 99.2774 118.542 99.3569 121.843 99.2377C122.52 100.112 123.236 100.966 123.991 101.761C124.21 102 124.449 102.238 124.707 102.477C122.52 102.695 120.352 102.934 118.145 103.033Z" fill="#A2CB9C"/>
<path d="M150.063 106.868C147.955 107.563 145.787 108.14 143.64 108.636C140 109.451 136.301 110.007 132.582 110.345C125.025 111.001 117.389 110.782 109.852 109.908C109.076 109.829 108.3 109.729 107.545 109.63C107.505 111.597 107.386 113.703 107.167 115.969C112.238 116.843 117.329 117.598 122.48 117.876C126.437 118.095 130.395 118.055 134.352 117.717C138.031 117.399 141.571 116.485 145.091 115.412C146.981 114.836 148.85 114.24 150.759 113.703C150.6 111.418 150.381 109.153 150.083 106.888L150.063 106.868Z" fill="#A2CB9C"/>
<path d="M147.378 94.2701C145.588 94.9854 143.759 95.6014 141.909 96.1578C139.543 96.8532 137.136 97.4096 134.71 97.8666C134.352 98.8999 133.935 99.9133 133.457 100.887C133.318 101.165 133.179 101.423 133.02 101.702C135.207 101.483 137.395 101.245 139.563 100.907C141.611 100.589 143.659 100.251 145.608 99.5159C146.563 99.1582 147.517 98.7807 148.492 98.423C148.154 97.0321 147.796 95.6412 147.378 94.2701Z" fill="#A2CB9C"/>
<path d="M116.375 76.4463L116.991 89.3422C116.991 89.3422 120.869 94.9059 126.755 93.6939C132.642 92.4818 133.139 89.223 133.139 89.223L131.528 73.585C131.528 73.585 124.588 78.6718 116.394 76.4662L116.375 76.4463Z" fill="#B0683F"/>
<g style="mix-blend-mode:multiply">
<path d="M118.065 83.401C121.466 84.3547 125.045 85.2489 128.605 84.8515C129.997 84.6925 131.349 84.2951 132.582 83.6195L131.548 73.5651C131.548 73.5651 124.608 78.6519 116.414 76.4463L116.732 82.9837C117.19 83.1228 117.647 83.2619 118.105 83.3811L118.065 83.401Z" fill="#AEA7A2"/>
</g>
<path d="M152.887 46.899C152.887 46.899 158.396 42.9249 160.225 45.5676C162.055 48.2104 161.757 51.5089 157.899 53.9728C154.04 56.4368 151.137 55.7016 151.137 55.7016L152.887 46.899Z" fill="#B0683F"/>
<path d="M91.8938 35.4138C89.4676 45.7465 87.9761 69.1737 109.812 78.6718C131.648 88.1699 146.861 72.4722 152.788 56.3772C159.032 39.4078 149.506 18.4246 145.052 16.9741C121.963 9.50279 96.8655 14.1922 91.8938 35.4138Z" fill="#B0683F"/>
<path d="M124.628 48.7469C124.628 48.7469 124.687 48.6674 124.628 48.6674C124.568 48.6674 124.568 48.7469 124.628 48.7469Z" fill="#423227"/>
<g style="mix-blend-mode:multiply">
<path d="M123.673 45.9452C124.13 46.9188 124.011 48.1309 124.051 49.1642C124.091 50.2968 124.091 51.5288 124.548 52.5819C124.986 53.5754 125.94 53.953 126.994 53.8337C128.068 53.6947 129.997 52.7607 129.818 54.6484C129.719 55.7016 129.222 56.5957 128.327 57.1918C127.869 57.4899 127.352 57.6687 126.835 57.7482C126.358 57.8078 125.821 57.6886 125.383 57.9072C125.204 57.9867 125.105 58.2251 125.244 58.4039C125.841 59.1193 127.054 58.861 127.829 58.6225C128.724 58.3245 129.56 57.7284 130.097 56.9534C130.773 55.94 131.469 53.3171 129.858 52.721C129.182 52.4826 128.406 52.6216 127.75 52.8005C127.213 52.9396 126.497 53.2376 126.02 52.8204C125.224 52.1249 125.284 50.6147 125.244 49.6808C125.184 48.2899 125.244 46.7599 124.488 45.508C124.23 45.051 123.454 45.4882 123.693 45.9651L123.673 45.9452Z" fill="#AEA7A2"/>
</g>
<path d="M112.178 43.5806C111.462 43.3024 110.687 43.1037 109.931 43.1434C109.156 43.1832 108.42 43.4614 107.724 43.819C105.377 45.0311 103.547 47.2368 102.792 49.7603C102.573 50.5154 102.434 51.3102 102.493 52.0851C102.573 52.9992 102.891 53.8536 103.349 54.6484C105.079 57.5893 108.818 59.2584 112.139 58.4039C115.261 57.6091 118.005 54.2312 118.065 50.9525C118.125 47.7733 114.923 44.594 112.159 43.5409L112.178 43.5806Z" fill="white"/>
<path d="M141.571 41.0372C140.855 40.759 140.08 40.5603 139.324 40.6C138.549 40.6398 137.813 40.918 137.117 41.2756C134.77 42.4877 132.94 44.6933 132.185 47.2169C131.966 47.972 131.827 48.7668 131.886 49.5417C131.966 50.4558 132.284 51.3102 132.742 52.105C134.472 55.0458 138.21 56.715 141.532 55.8605C144.654 55.0657 147.398 51.6877 147.458 48.4091C147.518 45.2298 144.316 42.0506 141.551 40.9974L141.571 41.0372Z" fill="white"/>
<path d="M93.7432 56.6553C93.7432 56.6553 90.0642 52.4627 86.2061 54.9266C82.348 57.3906 83.7401 63.153 89.6664 64.0074C95.5927 64.8618 96.1297 60.0135 96.1297 60.0135L93.7432 56.6553Z" fill="#B0683F"/>
<path d="M143.739 37.6393C143.6 37.4406 143.838 37.7188 143.739 37.6393C143.699 37.5996 143.659 37.54 143.62 37.5002C143.54 37.4208 143.461 37.3413 143.401 37.2618C143.401 37.2618 143.182 37.0432 143.162 37.0432C143.162 37.0432 143.361 37.1823 143.222 37.083C143.142 37.0432 143.083 36.9836 143.003 36.9439C142.904 36.8843 142.824 36.8246 142.725 36.7849C142.645 36.7452 142.446 36.6856 142.387 36.6259C142.387 36.6259 142.665 36.7253 142.466 36.6657C142.426 36.6657 142.367 36.6259 142.327 36.6061C142.188 36.5663 142.068 36.5266 141.929 36.4869C141.691 36.4272 141.452 36.3875 141.213 36.3478C141.094 36.3279 140.995 36.308 140.875 36.2881C140.816 36.2881 140.736 36.2881 140.676 36.2484C140.816 36.2881 140.935 36.2881 140.716 36.2484C140.239 36.2087 139.762 36.1888 139.304 36.1491C139.085 36.1491 138.867 36.1093 138.668 36.0298C138.23 35.851 139.105 36.0298 138.807 36.0497C138.767 36.0497 138.708 36.0497 138.668 36.0497C138.071 36.01 137.554 35.5132 137.733 34.8972C137.813 34.619 138.012 34.4203 138.25 34.2812C138.29 34.2812 138.33 34.2216 138.369 34.2216C138.29 34.3011 138.21 34.4005 138.131 34.4799C138.191 34.4005 138.25 34.3408 138.31 34.2614C138.548 34.003 138.986 33.864 139.324 33.7845C139.901 33.6652 140.478 33.6454 141.054 33.6851C141.75 33.7447 142.327 33.9037 142.963 34.1819C144.137 34.6985 145.111 35.6324 145.429 36.8843C145.549 37.3214 145.33 37.7983 144.892 37.9771C144.435 38.156 144.017 37.9771 143.739 37.5996V37.6393Z" fill="#423227"/>
<path d="M109.136 38.7521C108.996 38.7918 108.877 38.8316 108.738 38.8912C108.698 38.8912 108.579 38.9508 108.539 38.9707C108.758 38.8316 108.818 38.7918 108.738 38.8514C108.718 38.8514 108.698 38.8912 108.678 38.911C108.42 39.1296 108.102 39.3085 107.823 39.4674C107.704 39.5469 107.565 39.6264 107.445 39.7059C107.346 39.7853 107.246 39.9244 107.465 39.686C107.425 39.7257 107.366 39.7655 107.326 39.8052C107.087 40.0039 106.849 40.2026 106.63 40.4013C106.192 40.8186 105.815 41.3154 105.377 41.7326C105.278 41.832 105.158 41.9512 105.059 42.0506C104.979 42.1102 104.88 42.1897 104.8 42.2493C104.681 42.3089 104.721 42.2692 104.88 42.1698C104.88 42.2095 104.761 42.289 104.721 42.3089C104.721 42.3089 104.403 42.5672 104.383 42.5473C104.383 42.5473 104.582 42.3884 104.403 42.5275C104.204 42.6864 104.025 42.8057 103.786 42.8653C103.488 42.9447 103.05 42.8255 102.911 42.5076C102.732 42.0903 102.732 41.6333 102.812 41.1961C102.832 41.0968 102.891 40.7789 102.851 41.1961C102.851 41.0372 102.871 40.8782 102.931 40.7193C102.991 40.5007 103.11 40.2622 103.229 40.0635C103.587 39.3681 104.164 38.772 104.78 38.2951C105.477 37.7586 106.252 37.3015 107.127 37.1823C107.585 37.1227 108.121 37.1028 108.539 37.3413C108.718 37.4605 108.4 37.3015 108.579 37.3611C108.639 37.3611 108.718 37.4009 108.778 37.4208C108.977 37.5002 109.136 37.5797 109.315 37.699C109.712 37.9771 109.673 38.613 109.175 38.7521H109.136Z" fill="#423227"/>
<path d="M114.286 44.7529C113.173 44.6933 112.039 44.8324 111.065 45.3888C108.062 47.0778 107.545 51.7275 109.434 54.3901C110.389 55.7612 111.88 56.6951 113.451 57.172C113.769 57.2713 114.068 57.3309 114.386 57.3905C116.474 55.9599 118.025 53.4562 118.065 50.9923C118.125 48.6078 116.335 46.2432 114.286 44.7529Z" fill="#423227"/>
<path d="M142.367 41.4147C141.531 41.4545 140.716 41.6333 139.941 41.9711C138.27 42.7262 137.216 44.2761 136.719 46.0048C136.162 47.9521 136.321 49.8199 137.415 51.5486C138.469 53.1979 140.1 54.4696 141.87 55.2644C142.088 55.3638 142.307 55.4432 142.526 55.5227C145.211 54.3305 147.378 51.3499 147.438 48.429C147.498 45.5676 144.892 42.6864 142.347 41.3949L142.367 41.4147Z" fill="#423227"/>
<path d="M114.107 50.7737C115.857 51.032 116.255 48.3098 114.505 48.0514C112.755 47.7931 112.357 50.5154 114.107 50.7737Z" fill="white"/>
<path d="M143.52 47.6739C145.27 47.9322 145.668 45.21 143.918 44.9516C142.168 44.6933 141.77 47.4156 143.52 47.6739Z" fill="white"/>
<path d="M79.6036 32.2346C79.7826 30.7642 80.4587 29.4328 81.5127 28.3996C82.2088 27.724 83.0838 27.2272 83.8196 26.5914C83.4417 24.7633 82.686 22.9948 82.9645 21.1071C83.1633 19.6764 83.919 18.4047 85.0725 17.5304C87.0015 16.06 89.8453 15.6427 92.2716 16.1395C92.2716 14.6095 92.2318 13.0795 92.6892 11.6091C93.246 9.82071 94.6182 8.58874 96.408 8.05224C99.4309 7.1382 103.269 7.93302 105.695 10.0592C106.192 6.64144 107.823 3.26347 111.462 2.3693C115.241 1.45526 118.105 3.7801 120.292 6.52222C121.545 2.76671 126.437 0.0245818 130.136 0.441861C134.074 0.879011 136.659 3.79997 138.031 7.25742C140.577 5.62805 143.62 4.59479 146.642 5.1909C149.208 5.70753 150.679 7.75419 151.654 10.0592C152.37 11.768 152.788 13.5961 153.145 15.4043C153.225 15.8415 153.305 16.2786 153.364 16.7356C153.404 17.0138 153.364 17.6099 153.523 17.8484C153.782 18.2855 154.776 18.365 155.214 18.4644C156.526 18.7823 157.819 19.1797 158.714 20.2527C159.609 21.3257 160.106 22.6769 160.285 24.0678C160.722 27.5849 159.31 30.9033 157.362 33.7249C159.43 35.4735 160.722 37.9175 160.185 40.6596C159.191 45.667 154.418 47.5746 154.279 47.4951C152.708 46.6605 151.734 43.0441 151.256 41.3948C150.66 39.3879 150.819 37.2817 151.773 35.4536C147.915 34.1819 147.339 29.0752 148.154 25.26C144.853 27.0881 140.477 26.4125 138.23 23.3127C137.395 24.803 135.406 25.7171 133.815 25.9356C131.429 26.2734 129.082 25.4985 127.491 23.7698C126.875 26.1145 124.846 27.4657 122.261 27.6445C120.65 27.7439 118.9 27.6842 117.349 27.2272C116.693 27.0285 116.056 26.7702 115.48 26.4324C114.903 26.1145 114.485 25.6376 114.008 25.2203C113.292 27.565 110.826 29.254 108.559 29.8302C106.153 30.4264 103.468 30.3667 101.241 29.2739C101.439 31.102 100.942 32.9698 99.4905 34.2216C98.1382 35.394 96.4677 35.5331 94.8966 35.0959C95.5927 36.5663 96.07 38.156 96.0501 39.8052C96.0501 41.9313 94.9364 43.6998 93.8028 45.4087C93.6438 45.3888 93.4648 45.5478 93.5642 45.7266C94.2801 46.8791 96.0898 49.8 95.7518 51.1711C95.4535 52.3832 94.6978 53.4562 93.8625 54.3504C93.0869 55.2048 92.2119 55.94 91.2772 56.6156C88.3339 55.8407 84.3168 51.7473 82.6264 49.3232C80.5383 46.3625 81.1746 43.1236 83.1633 40.4411C82.169 39.5469 81.3536 38.3944 80.7172 37.2817C79.8223 35.692 79.3649 34.0229 79.5837 32.1948L79.6036 32.2346Z" fill="#423227"/>
<path d="M118.801 62.994C119.894 64.5042 120.988 66.0938 122.5 67.2065C124.111 68.3988 126.02 68.816 127.969 68.4186C129.739 68.061 131.21 67.0277 132.264 65.5772C132.781 64.8817 133.159 64.067 133.437 63.2523C133.696 62.4376 134.094 61.1858 133.676 60.391C133.437 59.9538 132.741 59.8346 132.403 60.232C131.886 60.848 131.946 61.762 131.747 62.5171C131.568 63.1927 131.369 63.8683 131.051 64.4843C130.355 65.7957 129.142 66.67 127.69 67.0078C124.19 67.8424 121.664 64.9612 119.755 62.4575C119.338 61.9011 118.383 62.4376 118.801 63.0139V62.994Z" fill="#423227"/>
<path d="M145.549 88.1301C147.975 94.8463 149.367 101.781 150.083 108.875C150.819 116.267 151.395 123.758 151.057 131.17C150.958 133.335 150.759 135.501 150.421 137.627C150.103 139.555 149.506 141.423 149.248 143.35C149.248 143.489 149.407 143.529 149.447 143.41C150.083 141.86 150.421 140.071 150.719 138.442C151.038 136.733 151.236 134.985 151.376 133.256C151.674 129.322 151.634 125.367 151.495 121.413C151.197 114.121 150.66 106.709 149.268 99.5159C148.492 95.5815 147.418 91.7068 145.847 88.0109C145.787 87.8718 145.529 87.9712 145.588 88.1301H145.549Z" fill="#A2CB9C"/>
<path d="M103.209 122.466C102.255 122.725 101.32 123.042 100.405 123.46C97.7007 124.692 95.3143 126.48 93.2261 128.566C91.9733 129.818 90.8994 131.189 89.905 132.62C92.5301 141.284 97.5615 147.602 99.3314 149.271C101.439 151.259 103.786 153.722 103.786 153.722L112.576 145.874C112.576 145.874 105.079 133.594 103.547 126.202C103.289 124.95 103.19 123.698 103.209 122.466Z" fill="#7198B5"/>
<path d="M104.979 130.414C105.238 133.236 106.451 135.919 107.783 138.422C108.519 139.793 109.315 141.144 110.15 142.436C110.906 143.608 111.641 144.94 112.596 145.973C112.735 146.132 112.974 145.933 112.874 145.754C112.238 144.562 111.323 143.469 110.587 142.337C109.772 141.065 108.996 139.773 108.281 138.442C106.928 135.899 105.795 133.216 105.158 130.414C105.138 130.315 104.959 130.335 104.979 130.434V130.414Z" fill="#A2CB9C"/>
<path d="M104.005 153.901C105.516 152.292 107.266 150.941 108.957 149.53C109.673 148.934 110.349 148.298 111.045 147.682C111.383 147.384 111.721 147.086 112.079 146.808C112.357 146.589 112.835 146.351 112.974 146.033C113.033 145.913 112.974 145.715 112.815 145.735C112.477 145.774 112.178 146.092 111.92 146.291C111.582 146.569 111.264 146.867 110.925 147.165C110.21 147.821 109.494 148.497 108.778 149.172C107.147 150.702 105.357 152.073 103.846 153.742C103.746 153.842 103.905 154.001 104.005 153.901Z" fill="#B0683F"/>
<path d="M105.735 155.71C107.028 154.16 108.499 152.808 110.051 151.517C110.806 150.881 111.582 150.245 112.318 149.589C112.695 149.271 113.053 148.934 113.411 148.596C113.749 148.278 114.167 147.94 114.406 147.543C114.505 147.364 114.286 147.125 114.107 147.245C113.73 147.523 113.411 147.92 113.073 148.258C112.715 148.596 112.357 148.934 111.98 149.252C111.224 149.927 110.428 150.563 109.653 151.219C108.141 152.51 106.59 153.842 105.457 155.491C105.337 155.67 105.616 155.868 105.755 155.71H105.735Z" fill="#B0683F"/>
<path d="M49.6538 198.252C49.6538 198.252 47.3271 205.505 47.3271 209.141C47.3271 212.777 46.989 213.135 52.0602 214.248C57.1313 215.361 62.5207 216.235 66.2594 215.539C69.9783 214.824 70.2766 212.936 68.4669 211.605C66.6572 210.254 62.3019 208.883 61.0888 207.631C59.8757 206.379 60.7706 201.511 61.0888 200.676C61.407 199.842 53.5318 195.649 49.634 198.252H49.6538Z" fill="#423227"/>
<path d="M21.474 199.484C21.474 199.484 18.4512 206.478 18.0932 210.095C17.7353 213.711 17.3773 214.029 22.3093 215.639C27.2611 217.248 32.5311 218.639 36.3097 218.301C40.0882 217.964 40.5655 216.116 38.895 214.605C37.2245 213.095 33.0283 211.307 31.9544 209.936C30.8606 208.585 32.2328 203.816 32.6306 203.021C33.0283 202.226 25.6105 197.298 21.474 199.484Z" fill="#423227"/>
<path d="M23.9798 140.985C23.9798 140.985 23.403 143.906 23.5025 151.278C23.6218 158.65 23.2638 171.407 21.7524 181.005C20.241 190.602 17.775 204.293 17.775 204.293C17.775 204.293 20.241 206.28 26.0878 206.757C31.9544 207.234 33.3465 206.637 33.3465 206.637C33.3465 206.637 39.5512 188.734 42.5939 177.964C45.6366 167.195 47.506 154.915 48.6793 155.849C49.8527 156.783 50.5487 168.367 49.4947 180.786C48.4407 193.185 46.5713 205.246 46.5713 205.246C46.5713 205.246 49.3754 206.3 55.6 206.18C61.8047 206.061 62.4013 204.889 62.4013 204.889C62.4013 204.889 67.6714 191.198 69.5407 174.11C71.4101 157.021 70.018 137.707 70.018 137.707C70.018 137.707 55.5006 132.203 45.6565 134.19C35.8125 136.177 23.9798 140.985 23.9798 140.985Z" fill="#445F8E"/>
<path d="M25.9684 83.6195C25.9684 83.6195 35.0965 79.0493 44.4832 79.0493C53.8698 79.0493 60.2933 79.5262 61.9439 80.2217C63.5746 80.9172 70.1373 95.4424 72.0266 107.842C73.9159 120.241 72.7226 130.891 72.0266 135.938C71.3306 140.986 70.8533 142.496 70.8533 142.496C70.8533 142.496 62.9979 146.827 47.7844 146.231C32.551 145.655 23.3036 142.019 23.3036 142.019C23.3036 142.019 26.1076 127.732 27.1617 119.307C28.2157 110.882 27.977 105.139 27.6389 98.7012C27.281 92.2632 26.0082 83.5997 26.0082 83.5997L25.9684 83.6195Z" fill="#F6DEBE"/>
<path d="M23.3434 123.837C23.3434 123.837 28.2753 123.678 30.7811 127.831C33.2868 131.964 31.8152 135.799 29.0907 137.866C26.3662 139.932 21.2154 139.257 20.7779 137.608C20.3404 135.958 21.295 134.806 20.7382 133.276C20.1813 131.746 17.9739 130.196 17.9739 130.196C17.9739 130.196 19.2665 122.963 23.3434 123.837Z" fill="#E9A17A"/>
<path d="M28.6532 101.88C28.6532 101.88 16.9199 108.736 15.7068 114.757C15.2892 116.843 17.5762 119.863 19.8234 121.314C21.9115 122.665 23.6616 123.48 23.6616 123.48C23.6616 123.48 24.3974 126.301 22.5081 130.037C20.599 133.773 19.6245 134.547 19.6245 134.547C19.6245 134.547 6.93665 131.348 2.32288 122.844C-2.2909 114.339 0.194973 102.874 7.7719 95.7206C15.3687 88.5673 24.7355 83.1029 34.3806 80.7979C37.4432 80.0627 34.0227 86.759 33.5056 91.667C32.9885 96.575 28.6731 101.861 28.6731 101.861L28.6532 101.88Z" fill="#F6DEBE"/>
<path d="M119.019 100.688C118.204 101.026 117.667 101.225 117.667 101.225C117.667 101.225 118.383 101.125 119.119 101.185C119.815 101.245 120.551 101.423 120.63 101.98C120.75 102.695 120.173 103.252 119.636 103.609C119.238 103.868 118.88 104.007 118.88 104.007C118.88 104.007 119.338 103.907 119.835 104.007C120.312 104.066 120.809 104.305 120.889 104.98C120.968 105.715 120.352 106.212 119.755 106.49C119.278 106.749 118.821 106.848 118.821 106.848C118.821 106.848 119.179 106.788 119.497 106.888C119.875 106.987 120.233 107.305 120.054 108.16C119.875 108.974 118.9 109.55 117.647 109.928C117.647 109.928 117.627 109.928 117.607 109.928C117.19 110.067 116.713 110.166 116.255 110.266C115.34 110.445 114.386 110.544 113.531 110.564C110.965 110.683 106.371 110.504 106.371 110.504C106.371 110.504 100.922 107.106 105.556 101.722C105.556 101.722 108.38 101.086 109.494 99.7146C110.607 98.3435 111.979 96.6347 113.889 96.893C114.724 97.0122 115.241 97.3301 115.559 97.6481C115.957 98.0653 116.036 98.4826 116.036 98.4826C116.036 98.4826 116.156 98.423 116.355 98.3435C117.906 97.6878 124.548 94.9854 125.264 96.3764C125.861 97.5487 121.386 99.6351 119.039 100.609L119.019 100.688Z" fill="#E9A17A"/>
<g style="mix-blend-mode:multiply">
<path d="M119.735 106.49C119.258 106.749 118.801 106.848 118.801 106.848C118.801 106.848 117.687 106.967 116.454 107.385C116.096 107.504 115.738 107.663 115.44 107.921C115.141 108.16 114.962 108.497 114.982 108.875C114.982 109.233 115.221 109.491 115.539 109.65C115.937 109.868 116.414 109.948 116.872 109.968C117.11 109.968 117.349 109.968 117.588 109.928C117.17 110.067 116.693 110.166 116.235 110.266C115.997 110.206 115.758 110.147 115.519 110.047C114.962 109.829 114.525 109.392 114.585 108.756C114.624 108.04 115.122 107.583 115.698 107.245C115.758 107.206 115.818 107.186 115.877 107.166C115.778 107.166 115.698 107.166 115.619 107.166C115.221 107.106 114.803 107.007 114.525 106.709C114.187 106.351 114.167 105.874 114.326 105.437C113.61 105.08 113.193 104.424 112.954 103.649C112.795 103.192 112.715 102.695 112.656 102.198C112.616 101.821 112.576 101.384 112.735 101.026C112.775 100.947 112.914 100.966 112.934 101.046C112.994 101.443 112.974 101.861 113.033 102.278C113.093 102.735 113.232 103.172 113.391 103.609C113.67 104.364 114.207 105.159 115.082 105.258C115.977 105.378 116.534 104.563 116.653 103.788C116.812 102.695 116.534 101.582 116.315 100.529C116.116 99.5556 115.877 98.6018 115.559 97.6679C115.957 98.0852 116.036 98.5025 116.036 98.5025C116.036 98.5025 116.792 100.013 116.931 100.847C117.11 100.807 117.289 100.768 117.448 100.748C117.866 100.688 118.303 100.629 118.741 100.629C118.84 100.629 118.94 100.629 119.039 100.629C118.224 100.966 117.687 101.165 117.687 101.165C117.687 101.165 117.727 101.225 117.289 101.284C117.21 101.284 117.11 101.304 117.011 101.324C117.15 102.139 117.289 103.033 117.13 103.848C117.806 103.709 118.482 103.609 119.178 103.55C119.318 103.55 119.497 103.55 119.656 103.53C119.258 103.788 118.9 103.927 118.9 103.927C118.9 103.927 117.667 104.185 116.971 104.344C116.911 104.464 116.852 104.583 116.792 104.702C116.355 105.437 115.519 105.795 114.684 105.537C114.505 105.914 114.505 106.331 114.883 106.59C115.221 106.828 115.698 106.888 116.096 106.908C116.156 106.908 116.215 106.908 116.275 106.908C116.852 106.669 117.508 106.55 118.124 106.471C118.661 106.411 119.218 106.351 119.755 106.391L119.735 106.49Z" fill="#D1B6A7"/>
</g>
<path d="M105.874 112.193C105.874 112.193 101.181 116.763 87.9361 114.896C81.9701 114.061 77.0381 111.458 73.4386 108.875C72.9215 108.517 72.4442 108.14 71.9868 107.782C68.5066 105.04 66.6173 102.596 66.6173 102.596C66.6173 102.596 61.5859 95.4623 60.2933 90.0774C59.0006 84.6925 59.2393 79.7845 59.2393 79.7845C59.2393 79.7845 65.2054 79.6653 71.43 83.8778C77.6347 88.0904 83.9587 95.4623 91.0982 98.2839C98.2376 101.086 104.8 99.5755 104.8 99.5755C104.8 99.5755 105.496 101.682 105.735 105.417C105.974 109.173 105.854 112.213 105.854 112.213L105.874 112.193Z" fill="#F6DEBE"/>
<path d="M72.5834 105.278C72.0862 103.152 71.43 101.086 70.714 99.0191C70.2566 97.7077 69.7794 96.3962 69.2623 95.1046C68.9839 94.429 68.7253 93.7336 68.427 93.0778C68.1486 92.4817 67.8901 91.5876 67.2537 91.3094C67.1543 91.2696 67.035 91.2498 66.9554 91.3094C66.8957 91.369 66.8958 91.4485 66.8958 91.528C66.9156 92.2036 67.3333 92.6805 67.5918 93.2766C67.91 93.9323 68.1486 94.6476 68.427 95.3232C68.964 96.6943 69.481 98.0653 69.9186 99.4761C70.5351 101.423 71.0322 103.43 71.4896 105.417C71.6686 106.192 71.8277 106.987 72.0067 107.782C72.4641 108.14 72.9414 108.497 73.4584 108.875C73.2198 107.663 72.8618 106.431 72.6033 105.298L72.5834 105.278Z" fill="#BA917A"/>
<path d="M37.2245 76.0886L37.841 88.9647C37.841 88.9647 41.7189 94.5284 47.6055 93.3163C53.492 92.1042 53.9892 88.8454 53.9892 88.8454L52.3783 73.2074C52.3783 73.2074 45.4378 78.2942 37.2444 76.0886H37.2245Z" fill="#E9A17A"/>
<g style="mix-blend-mode:multiply">
<path d="M38.895 83.0433C42.2957 83.9971 45.8753 84.8912 49.4351 84.4938C50.8272 84.3349 52.1795 83.9375 53.4125 83.2619L52.3783 73.2074C52.3783 73.2074 45.4378 78.2942 37.2444 76.0886L37.5626 82.626C38.02 82.7651 38.4774 82.9042 38.9348 83.0234L38.895 83.0433Z" fill="#D1B6A7"/>
</g>
<path d="M75.3079 47.8527C75.3079 47.8527 80.9956 44.137 82.7059 46.8592C84.4162 49.5815 83.9588 52.8601 80.0013 55.1452C76.0438 57.4303 73.1602 56.556 73.1602 56.556L75.3079 47.8329V47.8527Z" fill="#E9A17A"/>
<path d="M14.9113 33.5659C12.0078 43.7793 9.44239 67.1072 30.8209 77.5988C52.1993 88.1102 68.1089 73.1081 74.7909 57.3111C81.811 40.6398 75.9046 17.5503 71.5294 15.9011C48.7986 7.37663 20.8774 12.6026 14.9312 33.5659H14.9113Z" fill="#E9A17A"/>
<path d="M47.0089 48.4091C47.0089 48.4091 47.0685 48.3296 47.0089 48.3296C46.9492 48.3296 46.9492 48.4091 47.0089 48.4091Z" fill="#423227"/>
<g style="mix-blend-mode:multiply">
<path d="M46.1736 45.5478C46.5912 46.5413 46.4123 47.7534 46.3924 48.7866C46.3924 49.9193 46.3128 51.1512 46.7305 52.2242C47.1282 53.2376 48.0629 53.6748 49.1169 53.5754C50.2107 53.4959 52.1596 52.6415 51.9011 54.5292C51.7619 55.5823 51.2249 56.4566 50.2902 56.9931C49.8328 57.2713 49.2959 57.4303 48.7589 57.47C48.2816 57.5098 47.7447 57.3707 47.2873 57.5694C47.1083 57.6489 46.989 57.8873 47.1282 58.0463C47.685 58.7815 48.918 58.5828 49.6936 58.3841C50.6084 58.1258 51.4636 57.5694 52.0204 56.8143C52.7562 55.8407 53.5716 53.2575 51.9806 52.5819C51.3243 52.3037 50.5488 52.4031 49.8726 52.562C49.3356 52.6813 48.6197 52.9396 48.1424 52.5024C47.3867 51.7871 47.506 50.2769 47.506 49.3231C47.506 47.9322 47.6254 46.4022 46.9492 45.1305C46.7106 44.6735 45.9151 45.0709 46.1338 45.5478H46.1736Z" fill="#D1B6A7"/>
</g>
<path d="M38.9745 61.5435C38.9745 61.5435 42.3553 63.2722 49.0373 63.3715C54.4664 63.451 57.2108 61.6826 57.2108 61.6826C57.2108 61.6826 58.2052 70.6839 49.0572 71.6377C39.8893 72.6113 38.9745 61.5435 38.9745 61.5435Z" fill="#423227"/>
<path d="M44.9206 64.4247C47.0883 65.6567 49.9918 65.8554 52.3783 65.2592C53.4919 64.9811 54.6454 64.4843 55.4011 63.61C55.759 63.2126 56.0176 62.7357 56.1369 62.1992C54.884 62.7158 52.4976 63.4312 49.0174 63.3716C46.7105 63.3318 44.8013 63.1132 43.2899 62.8152C43.6479 63.4908 44.2445 64.0273 44.9206 64.4048V64.4247Z" fill="white"/>
<path d="M46.9691 70.9422C46.7305 69.9089 46.1736 68.9551 45.4179 68.2398C44.6821 67.5443 43.7474 67.0476 42.7133 66.9085C42.0173 66.829 41.3411 66.9284 40.7047 67.1867C41.878 69.3327 43.8469 71.3396 47.0884 71.6575C47.0685 71.4191 47.0288 71.1806 46.9691 70.9422Z" fill="#CE5456"/>
<path d="M34.7983 42.6665C34.0824 42.3685 33.3267 42.13 32.571 42.13C31.7954 42.13 31.0397 42.3884 30.3436 42.7063C27.9373 43.819 26.0282 45.9253 25.1531 48.429C24.8946 49.1642 24.7156 49.959 24.7554 50.7538C24.7952 51.6678 25.0736 52.5421 25.4912 53.3568C27.0822 56.3771 30.7613 58.2052 34.1023 57.5098C37.2643 56.854 40.1479 53.6151 40.3667 50.3564C40.5854 47.1771 37.5228 43.8588 34.8182 42.6864L34.7983 42.6665Z" fill="white"/>
<path d="M64.2707 41.4743C63.5548 41.1763 62.7991 40.9378 62.0434 40.9378C61.2678 40.9378 60.5121 41.1961 59.8161 41.5141C57.4097 42.6268 55.5006 44.7331 54.6256 47.2368C54.367 47.972 54.188 48.7668 54.2278 49.5616C54.2477 50.4756 54.546 51.3499 54.9636 52.1646C56.5546 55.1849 60.2337 57.013 63.5747 56.3175C66.7367 55.6618 69.6203 52.4229 69.8391 49.1642C70.0578 45.9849 66.9952 42.6666 64.2906 41.4942L64.2707 41.4743Z" fill="white"/>
<path d="M15.7863 54.867C15.7863 54.867 12.2862 50.5154 8.32872 52.8005C4.37122 55.0856 5.48489 60.9076 11.3714 62.0204C17.258 63.1331 18.0137 58.3245 18.0137 58.3245L15.7863 54.8471V54.867Z" fill="#E9A17A"/>
<path d="M69.0635 25.2004C69.0635 25.2004 73.4585 30.6847 74.8108 37.0233C76.1631 43.362 76.5807 49.0052 76.5807 49.0052C76.5807 49.0052 81.1746 44.0177 81.811 37.3015C82.4076 31.1814 79.5638 24.0082 74.5125 22.7166C69.4612 21.425 69.0635 25.2004 69.0635 25.2004Z" fill="#B0683F"/>
<path d="M68.3078 37.5002C67.8305 35.1754 65.1259 33.9434 62.9383 34.0825C62.6202 34.1024 62.3218 34.1421 62.0235 34.2216C61.8644 34.2614 61.6855 34.321 61.5264 34.4203C61.5264 34.4203 61.5264 34.4203 61.5065 34.4203C61.1883 34.6389 61.2082 34.6389 61.586 34.4203C61.4667 34.4601 61.3474 34.5197 61.2281 34.5594C60.7707 34.7979 60.532 35.3542 60.7906 35.8311C60.9298 36.0696 61.1485 36.2285 61.407 36.308C61.4866 36.3279 61.6457 36.3477 61.7451 36.3477C62.0434 36.3477 61.4667 36.2087 61.5264 36.2881C61.6855 36.467 62.0235 36.4471 62.2423 36.467C62.5008 36.4868 61.9639 36.4272 62.2025 36.467C62.3417 36.467 62.4611 36.5067 62.6003 36.5266C62.7196 36.5266 62.8389 36.5266 62.9582 36.5464C62.998 36.5464 63.0577 36.5464 63.0974 36.5464C62.7594 36.5464 62.9383 36.5266 63.0577 36.5464C63.1969 36.5663 63.356 36.5862 63.5151 36.6061C63.694 36.6458 63.177 36.5464 63.4355 36.6061C63.5548 36.6259 63.6543 36.6458 63.7736 36.6657C64.0321 36.7253 64.2907 36.7849 64.5492 36.8445C64.6685 36.8843 64.7878 36.9041 64.9072 36.9439C64.9668 36.9439 65.0265 36.9836 65.0861 37.0035C65.1259 37.0035 65.1458 37.0233 65.1856 37.0432C65.3049 37.083 65.285 37.083 65.0861 37.0035C65.285 37.1426 65.5435 37.2419 65.7623 37.3611C65.822 37.4009 66.0009 37.5797 66.0805 37.5797C65.9612 37.5797 65.9214 37.4406 66.0407 37.5797C66.1004 37.6195 66.1401 37.6791 66.1998 37.7188C66.2992 37.8182 66.3788 37.8976 66.4583 37.997C66.4981 38.0367 66.518 38.0765 66.5578 38.0963C66.3788 37.8976 66.5777 38.1361 66.6174 38.1957C67.1941 39.0899 68.5266 38.5136 68.3078 37.4804V37.5002Z" fill="#B0683F"/>
<path d="M32.1334 36.6259C32.0141 36.5464 31.8948 36.4471 31.7556 36.3875C31.6561 36.3279 31.5368 36.2881 31.4374 36.2484C31.2584 36.1689 31.5567 36.3279 31.3777 36.2087C31.0198 35.9702 30.4231 35.9503 29.9856 36.0099C29.21 36.1093 28.4543 36.4074 27.7981 36.8644C27.0821 37.381 26.4855 37.9374 25.9884 38.6726C25.9088 38.8117 25.8293 38.9508 25.7497 39.0899C25.6503 39.3084 25.531 39.5668 25.531 39.8251C25.5707 39.6065 25.5906 39.5668 25.531 39.7058V39.7853C25.4713 39.9046 25.4713 40.2026 25.4315 40.2622C25.4315 40.3417 25.4315 40.302 25.4514 40.143C25.4514 40.1827 25.4514 40.2225 25.4514 40.2423C25.4315 40.5205 25.3917 40.7391 25.4713 40.9974C25.5906 41.3948 26.0281 41.6531 26.4458 41.5538C26.7242 41.4743 26.9628 41.3154 27.2213 41.1763C27.3009 41.1365 27.4799 40.9776 27.5793 40.8981C27.1617 41.1167 27.0821 41.1763 27.3606 41.0372C27.5197 40.9776 27.6589 40.8981 27.7782 40.759C27.8776 40.6795 27.977 40.5801 28.0765 40.4808C28.5339 40.0635 28.9515 39.5866 29.4089 39.1693C29.4686 39.1296 29.5083 39.07 29.568 39.0303C29.6078 39.0104 29.6277 38.9706 29.6674 38.9508C29.747 38.8912 29.7072 38.911 29.5481 39.0501C29.6078 39.0303 29.6674 38.9706 29.7072 38.9309C29.8066 38.8514 29.926 38.7719 30.0254 38.6925C30.105 38.6328 30.105 38.6328 30.0254 38.6925C29.8265 38.8117 30.0254 38.6925 30.0851 38.6527C30.1447 38.613 30.2243 38.5534 30.2839 38.5136C30.4033 38.4341 30.5226 38.3745 30.6618 38.295C30.9203 38.156 31.2186 38.0169 31.4374 37.838C31.7755 37.5797 31.3578 37.838 31.3578 37.838C31.3578 37.838 31.5567 37.7784 31.5766 37.7784C31.7158 37.7387 31.855 37.6989 31.9942 37.6592C32.5312 37.54 32.4914 36.8842 32.1334 36.6061V36.6259Z" fill="#B0683F"/>
<path d="M12.8829 55.7612C12.8829 55.7612 17.079 50.6346 20.4399 42.3089C23.8008 33.9832 23.7411 25.9754 23.7411 25.9754C23.7411 25.9754 30.3834 35.5728 38.3381 33.4069C46.2929 31.241 39.77 24.2268 39.77 24.2268C39.77 24.2268 45.5372 30.943 50.8868 29.7309C56.2563 28.5188 50.6482 22.6371 50.6482 22.6371C50.6482 22.6371 64.211 32.93 75.7455 27.9227C87.2799 22.9153 85.9873 11.311 70.5351 4.99219C55.0829 -1.32661 46.452 8.549 46.452 8.549C46.452 8.549 46.8299 -0.988812 39.9092 0.0841918C32.9687 1.1572 29.0112 10.9732 29.0112 10.9732C29.0112 10.9732 28.5935 3.99867 24.7156 6.62157C20.8376 9.24446 23.0849 18.4842 23.0849 18.4842C23.0849 18.4842 17.3972 8.90667 7.79179 17.1529C-1.8136 25.3991 2.18368 38.0169 4.7292 43.1434C7.27473 48.27 12.8829 55.7612 12.8829 55.7612Z" fill="#B0683F"/>
<path d="M36.8665 43.9184C35.7528 43.7992 34.6193 43.9184 33.6051 44.4151C30.5226 45.965 29.8066 50.575 31.5567 53.337C32.4516 54.7478 33.8835 55.7413 35.4545 56.2977C35.7528 56.397 36.071 56.4964 36.3892 56.556C38.537 55.2247 40.2075 52.7806 40.3666 50.3365C40.5257 47.972 38.8552 45.508 36.8665 43.9184Z" fill="#423227"/>
<path d="M65.0662 41.8717C64.2309 41.8717 63.4156 42.0108 62.6201 42.3288C60.9098 43.0242 59.7961 44.5145 59.2194 46.2035C58.5631 48.1111 58.6427 49.9987 59.6569 51.7672C60.6314 53.4562 62.2024 54.8074 63.9525 55.6817C64.1514 55.781 64.3701 55.8804 64.5889 55.9797C67.3333 54.9266 69.6203 52.0454 69.8191 49.1244C70.018 46.2631 67.5322 43.2627 65.0662 41.8519V41.8717Z" fill="#423227"/>
<path d="M36.3893 49.9391C38.1393 50.2769 38.6564 47.5745 36.9063 47.2367C35.1563 46.899 34.6392 49.6013 36.3893 49.9391Z" fill="white"/>
<path d="M65.9214 48.1707C67.6714 48.5085 68.1885 45.8061 66.4384 45.4683C64.6884 45.1305 64.1713 47.8329 65.9214 48.1707Z" fill="white"/>
<path d="M227.045 170.553C227.045 170.553 225.832 197.914 225.792 199.325C225.773 200.736 235.955 201.332 235.955 201.332C235.955 201.332 241.742 174.507 241.424 172.738C241.105 170.97 227.045 170.533 227.045 170.533V170.553Z" fill="#A9765A"/>
<path d="M253.893 173.951L253.714 198.351C253.714 198.351 256.876 199.762 259.68 199.583C262.484 199.405 264.254 198.53 264.254 198.53C264.254 198.53 267.237 178.342 267.237 173.951C267.237 169.559 254.768 172.54 253.873 173.951H253.893Z" fill="#A9765A"/>
<path d="M252.66 195.192C252.66 195.192 255.305 196.066 259.163 196.245C263.021 196.424 265.487 195.709 265.487 195.709C265.487 195.709 264.612 201.67 264.791 204.67C264.97 207.651 264.97 208.704 265.845 209.062C266.72 209.419 273.402 210.115 273.919 212.4C274.456 214.685 273.74 216.096 265.487 216.255C257.234 216.434 251.785 215.202 251.427 213.453C251.069 211.704 252.66 195.888 252.66 195.192Z" fill="#423227"/>
<path d="M266.123 208.148C265.586 207.969 264.97 207.889 264.413 207.949C263.856 208.008 263.339 208.207 262.862 208.485C262.385 208.764 261.967 209.121 261.609 209.539C261.251 209.936 260.873 210.413 260.714 210.929C260.654 211.128 260.873 211.267 261.052 211.188C261.49 210.969 261.828 210.592 262.186 210.274C262.544 209.976 262.882 209.678 263.279 209.419C264.075 208.923 264.99 208.664 265.924 208.903C266.422 209.042 266.64 208.287 266.143 208.128L266.123 208.148Z" fill="#B0683F"/>
<path d="M267.853 209.757C267.177 209.976 266.541 210.373 266.044 210.87C265.805 211.108 265.566 211.347 265.367 211.625C265.149 211.903 264.93 212.161 264.791 212.479C264.731 212.618 264.831 212.837 265.01 212.777C265.328 212.678 265.586 212.459 265.845 212.241C266.083 212.022 266.302 211.784 266.541 211.545C266.998 211.108 267.436 210.691 268.052 210.472C268.251 210.413 268.37 210.214 268.311 210.015C268.251 209.817 268.052 209.697 267.853 209.757Z" fill="#B0683F"/>
<path d="M225.156 195.689C225.156 195.689 227.662 196.881 231.48 197.497C235.298 198.113 237.824 197.716 237.824 197.716C237.824 197.716 236.253 203.538 236.074 206.518C235.895 209.499 235.776 210.552 236.611 211.009C237.446 211.466 243.989 212.956 244.247 215.281C244.506 217.606 243.631 218.917 235.418 218.123C227.204 217.328 221.934 215.46 221.795 213.672C221.656 211.883 225.096 196.384 225.176 195.689H225.156Z" fill="#423227"/>
<path d="M236.989 210.154C236.472 209.916 235.875 209.757 235.298 209.757C234.742 209.757 234.205 209.876 233.688 210.115C233.19 210.333 232.733 210.651 232.315 211.009C231.918 211.367 231.48 211.784 231.261 212.281C231.182 212.479 231.381 212.638 231.56 212.579C232.017 212.4 232.395 212.082 232.793 211.824C233.19 211.565 233.568 211.307 233.986 211.108C234.841 210.691 235.776 210.572 236.671 210.91C237.148 211.108 237.446 210.373 236.969 210.154H236.989Z" fill="#B0683F"/>
<path d="M238.5 211.943C237.804 212.062 237.128 212.4 236.571 212.837C236.313 213.036 236.054 213.254 235.815 213.493C235.577 213.731 235.318 213.97 235.139 214.268C235.06 214.407 235.139 214.625 235.318 214.586C235.656 214.526 235.935 214.347 236.213 214.148C236.492 213.97 236.73 213.751 236.989 213.552C237.506 213.155 237.983 212.817 238.6 212.678C238.798 212.638 238.938 212.459 238.918 212.261C238.898 212.062 238.699 211.903 238.5 211.943Z" fill="#B0683F"/>
<path d="M225.255 140.827C225.255 140.827 221.735 147.841 220.105 157.22C218.474 166.598 218.474 172.679 218.474 172.679C218.474 172.679 234.403 179.693 251.049 178.998C267.674 178.302 274.018 173.374 274.018 173.374L270.279 141.065C270.279 141.065 259.978 141.542 246.614 141.999C233.25 142.476 225.295 140.827 225.295 140.827H225.255Z" fill="#B0683F"/>
<path d="M279.428 94.6476C275.908 80.7184 275.808 66.3521 274.456 52.1249C273.819 45.5477 272.169 38.7918 270.518 32.4333C268.887 26.1542 265.427 19.9348 260.157 16.0004C249.518 8.05223 234.841 10.6553 224.321 16.6959C221.179 16.6959 211.931 18.3451 207.496 24.4255C203.479 29.9296 201.809 35.851 201.809 42.3884C201.809 56.7547 204.155 70.823 204.155 85.1098C204.155 92.3824 203.778 98.7807 201.709 105.676C204.891 106.788 208.948 106.729 212.349 107.047C216.804 107.464 221.298 108.06 225.753 108.636C234.165 109.709 243.293 110.802 251.785 109.65C258.248 108.775 264.353 107.802 270.459 105.378C273.243 104.265 275.729 102.655 278.195 100.986C280.72 99.2774 280.183 97.648 279.447 94.6675L279.428 94.6476Z" fill="#423227"/>
<path d="M274.535 135.839C274.038 136.773 273.402 137.667 272.447 138.104C271.214 138.681 269.663 138.283 268.669 137.349C267.674 136.415 267.197 135.024 267.157 133.653C267.118 132.282 267.495 130.951 267.973 129.659C268.529 128.189 269.365 126.659 270.836 126.083C273.163 125.188 275.39 127.056 276.106 129.163C276.842 131.328 275.569 133.912 274.555 135.819L274.535 135.839Z" fill="#A9765A"/>
<path d="M257.83 80.4005C257.83 80.4005 273.183 80.7582 284.896 93.2766C296.093 105.258 291.917 119.029 286.766 126.043C281.615 133.057 275.291 135.402 275.291 135.402C275.291 135.402 272.706 132.6 270.836 129.322C268.967 126.043 270.359 124.175 270.359 124.175C270.359 124.175 273.402 123.937 275.987 119.724C278.572 115.512 277.976 107.782 274.933 105.219C271.89 102.636 269.066 101.245 269.066 101.245L257.83 80.4005Z" fill="#E69430"/>
<path d="M228.935 102.775C228.935 102.775 217.201 109.63 215.988 115.651C215.571 117.737 217.858 120.757 220.105 122.208C222.193 123.559 223.943 124.374 223.943 124.374C223.943 124.374 224.679 127.195 222.79 130.931C220.9 134.667 219.906 135.442 219.906 135.442C219.906 135.442 207.218 132.242 202.604 123.738C197.99 115.233 200.476 103.768 208.053 96.6148C215.65 89.4614 225.017 83.9971 234.662 81.6921C237.725 80.9569 234.304 87.6532 233.787 92.5612C233.27 97.4692 228.954 102.755 228.954 102.755L228.935 102.775Z" fill="#E69430"/>
<path d="M272.308 108.756C270.439 96.3565 263.876 81.8312 262.225 81.1357C261.032 80.6191 257.234 80.2416 251.606 80.0627C251.606 80.0627 251.606 80.0627 251.586 80.0627C250.91 80.0429 250.214 80.023 249.498 80.0031C249.458 80.0031 249.418 80.0031 249.378 80.0031C248.762 80.0031 248.106 79.9832 247.449 79.9832C247.29 79.9832 247.131 79.9832 246.952 79.9832C246.236 79.9832 245.52 79.9832 244.765 79.9832C244.128 79.9832 243.512 80.0031 242.875 80.0428C242.835 80.0428 242.776 80.0428 242.736 80.0428C242.159 80.0826 241.583 80.1422 241.006 80.2018C240.946 80.2018 240.887 80.2018 240.807 80.2217C240.25 80.2813 239.693 80.3806 239.137 80.4601C239.077 80.4601 239.017 80.4601 238.958 80.48C238.401 80.5794 237.824 80.6787 237.287 80.7979C237.267 80.7979 237.227 80.7979 237.207 80.7979C236.054 81.0562 234.94 81.3344 233.886 81.6325C233.886 81.6325 233.847 81.6325 233.827 81.6325C233.33 81.7716 232.832 81.9305 232.355 82.0895C232.355 82.0895 232.315 82.0895 232.295 82.0895C228.656 83.2619 226.23 84.474 226.23 84.474C226.23 84.474 227.523 93.1375 227.861 99.5755C228.219 106.014 228.437 111.756 227.383 120.181C226.329 128.606 223.525 142.893 223.525 142.893C223.525 142.893 232.773 146.529 248.006 147.106C263.239 147.682 271.075 143.35 271.075 143.35C271.075 143.35 271.552 141.82 272.248 136.793C272.944 131.766 274.118 121.115 272.248 108.696L272.308 108.756Z" fill="#E69430"/>
<path d="M223.625 124.712C223.625 124.712 228.557 124.553 231.062 128.706C233.568 132.839 232.097 136.674 229.372 138.74C226.648 140.807 221.497 140.131 221.059 138.482C220.622 136.833 221.576 135.68 221.02 134.15C220.463 132.62 218.255 131.07 218.255 131.07C218.255 131.07 219.548 123.837 223.625 124.712Z" fill="#A9765A"/>
<path d="M208.332 114.419C210.857 114.379 213.562 114.637 216.068 115.372C216.048 115.452 216.028 115.551 216.008 115.631C215.59 117.717 217.877 120.738 220.125 122.188C222.213 123.539 223.963 124.354 223.963 124.354C223.963 124.354 224.699 127.176 222.809 130.911C220.92 134.647 219.926 135.422 219.926 135.422C219.926 135.422 207.238 132.223 202.624 123.718C201.272 121.214 200.536 118.452 200.357 115.611C202.962 114.816 205.687 114.419 208.352 114.379L208.332 114.419Z" fill="#E69430"/>
<path d="M236.989 75.9893L237.605 88.8653C237.605 88.8653 241.483 94.4291 247.37 93.217C253.256 91.985 253.753 88.7461 253.753 88.7461L252.143 73.1081C252.143 73.1081 245.202 78.1949 237.009 75.9893H236.989Z" fill="#A9765A"/>
<path d="M238.779 85.6463C238.779 85.6463 235.259 84.772 233.867 90.2165C232.455 95.661 240.191 101.622 247.39 100.569C254.589 99.5159 257.572 95.3033 257.93 90.3953C258.288 85.4873 254.589 84.772 249.498 84.5932C244.407 84.4143 238.779 85.6463 238.779 85.6463Z" fill="#A9765A"/>
<g style="mix-blend-mode:multiply">
<path d="M238.659 82.9439C242.06 83.8977 245.64 84.7919 249.199 84.3945C250.591 84.2355 251.944 83.8381 253.177 83.1625L252.143 73.1081C252.143 73.1081 245.202 78.1949 237.009 75.9893L237.327 82.5267C237.784 82.6657 238.242 82.8049 238.699 82.9241L238.659 82.9439Z" fill="#D1B6A7"/>
</g>
<path d="M272.905 44.6138C272.905 44.6138 278.095 40.2423 280.124 42.7261C282.172 45.2298 282.092 48.5283 278.433 51.2903C274.774 54.0324 271.811 53.5158 271.811 53.5158L272.885 44.6138H272.905Z" fill="#A9765A"/>
<path d="M211.215 37.7784C209.585 48.27 209.863 71.737 232.375 79.5461C254.887 87.375 268.848 70.5448 273.521 54.0523C278.473 36.6657 269.762 14.4505 265.228 13.3576C241.642 7.6747 214.556 16.2587 211.215 37.7784Z" fill="#A9765A"/>
<path d="M244.864 48.6078C244.864 48.6078 244.924 48.5283 244.864 48.5283C244.804 48.5283 244.804 48.6078 244.864 48.6078Z" fill="#423227"/>
<g style="mix-blend-mode:multiply">
<path d="M243.711 45.8657C244.248 46.7996 244.208 48.0316 244.327 49.0648C244.466 50.1776 244.546 51.4294 245.083 52.4428C245.6 53.3966 246.574 53.7145 247.608 53.4959C248.682 53.2774 250.512 52.2044 250.472 54.092C250.472 55.1452 250.035 56.0791 249.179 56.7348C248.762 57.0527 248.245 57.2912 247.728 57.3905C247.25 57.4899 246.714 57.4104 246.296 57.6489C246.117 57.7482 246.037 57.9866 246.196 58.1456C246.833 58.8013 248.046 58.4635 248.782 58.1456C249.657 57.7879 250.432 57.1322 250.91 56.2977C251.506 55.2445 252.003 52.5819 250.353 52.105C249.677 51.9063 248.901 52.105 248.265 52.3434C247.748 52.5223 247.052 52.8799 246.554 52.5024C245.699 51.8864 245.64 50.3564 245.54 49.4225C245.381 48.0316 245.302 46.5015 244.466 45.3292C244.168 44.892 243.432 45.3888 243.711 45.8458V45.8657Z" fill="#D1B6A7"/>
</g>
<path d="M233.25 44.3754C232.514 44.1568 231.739 44.0177 230.963 44.1171C230.187 44.2164 229.472 44.5542 228.815 44.9516C226.568 46.3426 224.917 48.6674 224.361 51.2506C224.202 52.0255 224.122 52.8203 224.241 53.5953C224.38 54.4895 224.778 55.3439 225.295 56.0791C227.244 58.8808 231.102 60.2519 234.344 59.159C237.406 58.1257 239.872 54.5689 239.693 51.2903C239.514 48.111 236.074 45.1901 233.25 44.3555V44.3754Z" fill="white"/>
<path d="M231.003 59.4769C231.222 59.3577 231.44 59.2186 231.659 59.0795C233.171 58.0661 234.563 56.6951 235.159 54.9465C235.796 53.0787 235.159 50.9923 233.827 49.5815C232.673 48.3495 230.744 47.7732 229.114 47.6143C228.04 47.5149 226.827 47.5547 225.792 47.972C225.136 48.9853 224.639 50.0981 224.381 51.2704C224.221 52.0454 224.142 52.8402 224.261 53.6152C224.4 54.5093 224.798 55.3638 225.315 56.099C226.608 57.9668 228.776 59.1988 231.023 59.4769H231.003Z" fill="#423227"/>
<path d="M261.171 39.6264C260.436 39.4078 259.66 39.2687 258.884 39.368C258.109 39.4674 257.393 39.8052 256.737 40.2026C254.489 41.5935 252.839 43.9184 252.282 46.5015C252.123 47.2765 252.043 48.0713 252.163 48.8462C252.302 49.7404 252.699 50.5948 253.217 51.3301C255.165 54.1318 259.024 55.5028 262.265 54.41C265.328 53.3767 267.794 49.8199 267.615 46.5413C267.436 43.362 263.995 40.4411 261.171 39.6065V39.6264Z" fill="white"/>
<path d="M260.595 54.7478C261.171 54.2311 261.669 53.6152 262.046 52.9396C263.438 50.3564 262.802 47.0778 260.873 44.9516C259.899 43.8786 258.606 43.0838 257.174 42.8454C256.001 42.6467 254.827 42.8056 253.734 43.1832C253.057 44.1966 252.54 45.3292 252.282 46.5214C252.123 47.2964 252.043 48.0912 252.163 48.8661C252.302 49.7603 252.699 50.6147 253.217 51.3499C254.827 53.6748 257.771 54.9862 260.595 54.7478Z" fill="#423227"/>
<path d="M227.145 53.2376C228.915 53.3568 229.094 50.6147 227.324 50.4955C225.554 50.3763 225.375 53.1184 227.145 53.2376Z" fill="white"/>
<path d="M255.126 48.5681C256.896 48.6873 257.075 45.9452 255.305 45.826C253.535 45.7067 253.356 48.4488 255.126 48.5681Z" fill="white"/>
<path d="M214.676 58.8212C214.676 58.8212 210.678 54.9266 207.019 57.6687C203.36 60.4108 205.19 66.054 211.156 66.4515C217.122 66.8489 217.301 61.9806 217.301 61.9806L214.676 58.8013V58.8212Z" fill="#A9765A"/>
<path d="M264.671 35.1356C264.234 33.8242 262.961 32.9698 261.688 32.5922C260.933 32.3737 260.177 32.314 259.401 32.3935C258.705 32.4531 257.691 32.632 257.313 33.2877C257.452 33.1685 257.572 33.0691 257.711 32.9499C257.611 33.0095 257.512 33.0691 257.393 33.1287C257.055 33.3473 256.776 33.705 256.876 34.1421C256.876 34.2216 256.915 34.3011 256.955 34.3607C257.154 34.7581 257.532 34.8972 257.95 34.8773C258.009 34.8773 258.327 34.8773 258.049 34.8773C257.89 34.8177 257.711 34.7581 257.552 34.6985C257.91 34.8972 258.228 34.9369 258.626 34.9369C258.765 34.9369 258.924 34.9369 259.063 34.9171C259.222 34.9171 258.785 34.9171 259.004 34.9171C259.143 34.9171 259.262 34.9171 259.401 34.9171C259.938 34.9171 260.475 34.9767 261.012 35.0363C261.112 35.0363 261.31 35.1356 261.41 35.0959C261.37 35.0959 261.131 35.0363 261.31 35.0959C261.39 35.1158 261.47 35.1356 261.549 35.1555C261.788 35.235 262.006 35.3344 262.225 35.4337C262.424 35.5132 262.265 35.4138 262.205 35.4138C262.225 35.4138 262.345 35.4933 262.364 35.5132C262.464 35.5728 262.583 35.6523 262.683 35.7318C262.782 35.8112 262.862 35.8907 262.961 35.9702C262.842 35.8311 263.041 36.0497 262.961 35.9702C263.021 36.0298 263.061 36.0894 263.12 36.149C263.418 36.5067 263.955 36.5663 264.333 36.3279C264.751 36.0497 264.83 35.6125 264.671 35.1555V35.1356Z" fill="#423227"/>
<path d="M228.795 38.7918C228.557 38.6527 228.338 38.5534 228.079 38.4937C227.582 38.3745 227.92 38.454 227.92 38.454C227.92 38.454 227.801 38.3944 227.781 38.3944C227.602 38.3149 227.423 38.3149 227.224 38.3149C226.787 38.3149 226.449 38.3745 226.031 38.5335C225.792 38.613 225.574 38.7123 225.355 38.8315C224.818 39.1296 224.361 39.5071 223.943 39.9642C223.446 40.4808 223.008 41.0769 222.75 41.7326C222.71 41.8519 222.65 41.9711 222.63 42.0903C222.571 42.2691 222.511 42.6467 222.571 42.8454C222.471 42.5672 222.65 42.1499 222.571 42.4678C222.511 42.746 222.491 42.9447 222.511 43.2428C222.531 43.4415 222.511 42.9646 222.511 43.1633C222.511 43.2825 222.511 43.4614 222.511 43.5806C222.611 44.1568 223.128 44.5145 223.704 44.2959C223.844 44.2363 223.963 44.1767 224.062 44.0773C224.082 44.0575 224.162 43.9979 224.182 43.978C224.023 44.0773 223.983 44.0972 224.082 44.0376C224.182 43.978 224.281 43.9184 224.361 43.8588C224.46 43.7793 224.559 43.6601 224.639 43.5607C224.858 43.3223 224.619 43.6998 224.361 43.7793C224.639 43.6998 224.858 43.3819 225.037 43.1832C225.196 42.9845 225.355 42.7858 225.514 42.5871C225.653 42.4082 225.812 42.2294 225.971 42.0307C226.051 41.9313 226.131 41.832 226.21 41.7326C226.25 41.6929 226.29 41.6333 226.329 41.5935C226.489 41.4147 226.051 41.8717 226.31 41.6333C226.707 41.2359 227.125 40.8782 227.562 40.5404C227.642 40.4808 227.761 40.4013 227.841 40.3417C227.622 40.5404 227.721 40.4212 227.801 40.3616C227.9 40.3218 228 40.2622 228.06 40.1827C228.278 39.9443 228.298 39.9244 228.139 40.1033C227.94 40.1827 228.278 39.984 228.139 40.1033C228.199 40.0635 228.278 40.0436 228.338 40.0039C228.457 39.9443 228.577 39.9045 228.696 39.8449C229.094 39.7058 229.133 39.0501 228.776 38.8514L228.795 38.7918Z" fill="#423227"/>
<path d="M239.475 63.0338C239.475 63.0338 242.855 64.7625 249.537 64.8618C254.967 64.9413 257.711 63.1728 257.711 63.1728C257.711 63.1728 258.705 72.1742 249.557 73.1279C240.389 74.1016 239.475 63.0338 239.475 63.0338Z" fill="#423227"/>
<path d="M245.441 65.915C247.608 67.1469 250.512 67.3456 252.898 66.7495C254.012 66.4713 255.165 65.9746 255.921 65.1003C256.279 64.7029 256.538 64.226 256.657 63.6895C255.404 64.2061 253.018 64.9214 249.537 64.8618C247.23 64.8221 245.321 64.6035 243.81 64.3055C244.168 64.981 244.765 65.5176 245.441 65.8951V65.915Z" fill="white"/>
<path d="M247.489 72.4325C247.25 71.3992 246.694 70.4454 245.938 69.7301C245.202 69.0346 244.267 68.5379 243.233 68.3988C242.537 68.3193 241.861 68.4186 241.225 68.677C242.398 70.823 244.367 72.8299 247.608 73.1478C247.588 72.9094 247.549 72.6709 247.489 72.4325Z" fill="#CE5456"/>
<path d="M276.444 26.2933C273.839 13.4769 261.37 2.92566 248.006 4.49542C242.577 5.13128 237.327 6.60169 232.335 8.82718C227.403 11.0129 221.556 14.689 219.468 19.9944C217.857 18.5041 215.332 19.3585 213.622 20.3918C206.721 24.6043 205.269 34.2216 206.104 41.5935C206.462 44.7331 207.576 47.8527 208.57 50.8134C209.684 54.1715 210.798 57.6489 212.448 60.7884C212.826 61.5236 213.86 60.9871 213.721 60.2916C214.914 58.5033 215.57 56.3573 216.187 54.3305C217.122 51.191 217.818 47.9918 218.434 44.7927C219.568 38.8117 220.483 32.7313 220.821 26.651C220.86 25.8959 220.92 25.0613 220.9 24.2268C223.386 26.6311 226.389 28.5387 229.432 30.1084C233.23 32.0756 237.446 33.6851 241.742 33.9037C242.12 33.9236 242.497 33.4864 242.358 33.1089C241.145 30.0886 239.733 27.1676 238.261 24.2864C244.426 24.8626 250.611 25.8561 256.478 27.8631C261.31 29.5123 265.586 32.1551 268.569 36.3875C270.578 39.2488 272.01 42.5473 273.123 45.8458C273.302 46.3624 273.959 46.4419 274.257 45.9849C277.916 40.3417 277.737 32.6121 276.444 26.2536V26.2933Z" fill="#423227"/>
</svg>
