<svg width="264" height="141" viewBox="0 0 264 141" fill="none" xmlns="http://www.w3.org/2000/svg">
<g filter="url(#filter0_d_116_14293)">
<path d="M1.69121 110.305C4.95303 113.326 247.28 117.1 249.749 110.305C252.229 103.502 262.018 80.4153 254.68 71.9659C239.855 54.9008 17.794 42.5795 5.08337 60.8063C0.963562 68.4234 1.35089 77.8244 0.956299 88.0505C0.869415 99.6589 -1.56699 107.283 1.69121 110.305Z" fill="#F33D6D"/>
<path d="M1.6913 110.305C4.94949 113.323 247.28 117.1 249.749 110.305C251.835 104.58 259.1 87.3122 256.968 76.9595C255.632 86.3243 251.284 96.7965 249.749 101.023C246.024 105.767 1.98814 108.09 0.355438 98.6818C-0.136932 104.406 -0.430176 108.336 1.6913 110.305Z" fill="#D02A6A"/>
<path d="M160.677 109.063C161.26 143.201 212.063 143.194 212.638 109.063C212.055 74.9258 161.253 74.933 160.677 109.063Z" fill="#6D018A"/>
<path d="M176.219 109.063C176.454 122.778 196.865 122.778 197.097 109.063C196.861 95.3489 176.45 95.3489 176.219 109.063Z" fill="#F33D6D"/>
<path d="M160.673 109.06C161.55 145.003 215.429 142.119 212.49 106.317C209.547 136.731 163.751 136.72 160.818 106.317C160.721 107.211 160.673 108.137 160.673 109.06Z" fill="#4A0B76"/>
<path d="M33.4913 109.063C34.0741 143.201 84.8768 143.194 85.4524 109.063C84.8695 74.9258 34.0669 74.933 33.4913 109.063Z" fill="#720185"/>
<path d="M33.4876 109.06C34.3637 145.003 88.2435 142.119 85.3039 106.317C82.3606 136.731 36.5648 136.72 33.6324 106.317C33.5346 107.211 33.4876 108.137 33.4876 109.06Z" fill="#4A0B76"/>
<path d="M49.0329 109.063C49.2682 122.778 69.6791 122.778 69.9108 109.063C69.6755 95.3489 49.2646 95.3489 49.0329 109.063Z" fill="#F33D6D"/>
<path d="M0.959729 88.0503C15.4298 92.986 26.7828 65.246 2.97258 65.9987C1.51 71.7269 1.01403 80.1147 0.959729 88.0503Z" fill="#0AE3D0"/>
<g opacity="0.5">
<path d="M0.959769 88.0503C10.3832 92.3673 21.2258 77.5456 14.8506 69.668C14.456 76.7025 8.06265 84.0807 1.07199 82.7925C1.00683 84.5475 0.97063 86.3062 0.959769 88.0503Z" fill="#5B6DD9"/>
</g>
<path d="M257.363 92.2154C256.182 89.5955 241.864 86.9612 237.846 88.3508C233.824 89.7403 228.393 108.792 232.886 112.563C237.379 116.333 247.588 120.813 250.991 116.022C254.394 111.227 259.871 97.7808 257.363 92.2154Z" fill="#0AE3D0"/>
<g opacity="0.5">
<path d="M232.886 112.563C237.379 116.33 247.592 120.813 250.984 116.018C254.242 111.426 259.401 98.917 257.634 92.9717C256.555 99.0256 253.286 106.259 250.984 109.509C247.617 114.459 233.317 109.469 231.467 103.281C230.902 107.384 231.159 111.108 232.886 112.563Z" fill="#5B6DD9"/>
</g>
<path d="M207.302 61.9931C207.302 61.9931 184.621 14.5754 178.742 8.48892C172.866 2.4061 97.8879 -3.15927 72.8359 2.0949C47.7839 7.34907 43.1428 60.8062 43.1428 60.8062L207.302 61.9931Z" fill="#F33D6D"/>
<path d="M133.507 10.2656V59.4058C152.282 59.5325 175.947 59.7207 194.675 59.8437C189.914 49.9216 175.354 20.2312 171.462 16.3629C170.658 15.5379 168.287 14.7273 164.801 13.9566C156.539 12.1545 143.228 10.8844 133.507 10.2656Z" fill="#0AE3D0"/>
<path d="M61.2585 58.8847C78.5017 59.0078 103.383 59.1887 120.514 59.3153V9.64319C107.952 9.4116 95.419 9.0606 84.4171 11.4091C68.2021 14.0687 61.0522 53.5727 61.2585 58.8847Z" fill="#0AE3D0"/>
<path d="M148.35 11.5177L181.53 59.7533L194.678 59.8437C194.164 55.3857 167.946 18.7404 164.804 13.9602C160.648 13.0556 154.91 12.2125 148.35 11.5177Z" fill="#7DF1E6"/>
<path d="M133.507 10.2656V34.6222L150.645 59.5252L172.624 59.6881L138.88 10.6492C137.113 10.5117 135.321 10.385 133.507 10.2656Z" fill="#7DF1E6"/>
<path d="M84.4171 11.409L117.365 59.2972L120.511 59.3153V42.3949L98.0581 9.75171C92.4938 10.0846 88.3378 10.4465 84.4171 11.409Z" fill="#7DF1E6"/>
<path d="M67.4635 31.4307L86.4769 59.0693L108.455 59.2249L77.9585 14.8938C73.3391 18.744 69.9325 24.9172 67.4635 31.4307Z" fill="#7DF1E6"/>
<g opacity="0.5">
<path d="M133.507 10.2656V20.3253C143.217 20.944 156.543 22.2105 164.801 24.0198C168.287 24.787 170.658 25.6011 171.462 26.4262C174.655 29.7263 183.944 48.029 189.751 59.8075L194.675 59.8437C189.914 49.9216 175.354 20.2312 171.462 16.3629C170.658 15.5379 168.287 14.7273 164.801 13.9566C156.539 12.1545 143.228 10.8844 133.507 10.2656Z" fill="#5B6DD9"/>
</g>
<g opacity="0.5">
<path d="M61.2585 58.8847L62.7211 58.8956C71.7861 17.405 81.3363 19.1637 120.514 19.7028V9.64319C107.952 9.4116 95.419 9.0606 84.4171 11.4091C68.2021 14.0687 61.0522 53.5727 61.2585 58.8847Z" fill="#5B6DD9"/>
</g>
</g>
<defs>
<filter id="filter0_d_116_14293" x="-0.00012207" y="0" width="264" height="140.664" filterUnits="userSpaceOnUse" color-interpolation-filters="sRGB">
<feFlood flood-opacity="0" result="BackgroundImageFix"/>
<feColorMatrix in="SourceAlpha" type="matrix" values="0 0 0 0 0 0 0 0 0 0 0 0 0 0 0 0 0 0 127 0" result="hardAlpha"/>
<feOffset dx="6" dy="6"/>
<feComposite in2="hardAlpha" operator="out"/>
<feColorMatrix type="matrix" values="0 0 0 0 0.807843 0 0 0 0 0.329412 0 0 0 0 0.337255 0 0 0 0.44 0"/>
<feBlend mode="normal" in2="BackgroundImageFix" result="effect1_dropShadow_116_14293"/>
<feBlend mode="normal" in="SourceGraphic" in2="effect1_dropShadow_116_14293" result="shape"/>
</filter>
</defs>
</svg>
