<svg width="405" height="344" viewBox="0 0 405 344" fill="none" xmlns="http://www.w3.org/2000/svg">
<path d="M0.189606 331.001C-10.2367 348.334 415.265 348.334 404.81 330.995C415.237 313.667 -10.2653 313.667 0.189606 331.001Z" fill="#9885C8"/>
<path d="M38.8677 171.797V132.909C38.8677 132.909 103.092 139.142 121.903 172.588L38.8677 171.797Z" fill="#4A2E7F"/>
<path d="M38.8678 171.797H373.132V202.541H38.8678V171.797Z" fill="#FFEE58"/>
<path d="M31.2398 33.7592C27.0308 33.7592 23.6119 37.1828 23.6119 41.3976V226.657V256.802V318.291H38.8677V256.802V226.657V41.384C38.8677 37.1692 35.4487 33.7592 31.2398 33.7592Z" fill="#F7FAFB"/>
<path d="M380.76 33.7592C376.551 33.7592 373.132 37.1828 373.132 41.3976V226.657V256.802V318.291H388.375V256.802V226.657V41.384C388.375 37.1692 384.969 33.7592 380.76 33.7592Z" fill="#F7FAFB"/>
<path d="M38.8678 202.541H373.132V237.501H38.8678V202.541Z" fill="#F7FAFB"/>
<path d="M57.7195 80.1763H68.562V202.541H57.7195V80.1763Z" fill="#F7FAFB"/>
<path d="M89.0347 80.1763H99.8635V202.541H89.0347V80.1763Z" fill="#F7FAFB"/>
<path d="M120.323 80.1763H131.165V202.541H120.323V80.1763Z" fill="#F7FAFB"/>
<path d="M151.638 80.1763H162.467V202.541H151.638V80.1763Z" fill="#F7FAFB"/>
<path d="M182.939 80.1763H193.768V202.541H182.939V80.1763Z" fill="#F7FAFB"/>
<path d="M214.227 80.1763H225.07V202.541H214.227V80.1763Z" fill="#F7FAFB"/>
<path d="M245.542 80.1763H256.371V202.541H245.542V80.1763Z" fill="#F7FAFB"/>
<path d="M276.83 80.1763H287.673V202.541H276.83V80.1763Z" fill="#F7FAFB"/>
<path d="M308.159 80.1763H318.988V202.541H308.159V80.1763Z" fill="#F7FAFB"/>
<path d="M339.447 80.1763H350.29V202.541H339.447V80.1763Z" fill="#F7FAFB"/>
<path d="M38.8678 80.1763H373.132V92.8343H38.8678V80.1763Z" fill="#F7FAFB"/>
<path d="M31.2399 329.135C23.9278 329.135 18.0001 323.199 18.0001 315.877C18.0001 308.554 23.9278 302.618 31.2399 302.618C38.5521 302.618 44.4797 308.554 44.4797 315.877C44.4797 323.199 38.5521 329.135 31.2399 329.135Z" fill="#F7FAFB"/>
<path d="M380.76 329.135C373.448 329.135 367.52 323.199 367.52 315.877C367.52 308.554 373.448 302.618 380.76 302.618C388.072 302.618 394 308.554 394 315.877C394 323.199 388.072 329.135 380.76 329.135Z" fill="#F7FAFB"/>
<path d="M31.2399 24.5521C24.4694 24.5521 18.9808 19.0559 18.9808 12.2761C18.9808 5.49618 24.4694 0 31.2399 0C38.0104 0 43.499 5.49618 43.499 12.2761C43.499 19.0559 38.0104 24.5521 31.2399 24.5521Z" fill="#F7FAFB"/>
<path d="M380.76 24.5521C373.99 24.5521 368.501 19.0559 368.501 12.2761C368.501 5.49618 373.99 0 380.76 0C387.531 0 393.019 5.49618 393.019 12.2761C393.019 19.0559 387.531 24.5521 380.76 24.5521Z" fill="#F7FAFB"/>
<path d="M29.5371 19.0961H32.9424V42.1205H29.5371V19.0961Z" fill="#F7FAFB"/>
<path d="M379.058 19.0961H382.463V42.1205H379.058V19.0961Z" fill="#F7FAFB"/>
</svg>
