<svg width="179" height="181" viewBox="0 0 179 181" fill="none" xmlns="http://www.w3.org/2000/svg">
<g filter="url(#filter0_d_116_14357)">
<path d="M146.184 139.184C144.781 140.587 144.382 142.477 145.298 143.378C146.213 144.294 148.089 143.895 149.507 142.492C150.91 141.089 151.309 139.198 150.393 138.283C149.462 137.382 147.587 137.781 146.184 139.184Z" fill="#E53935"/>
<path d="M29.5081 22.5081C28.1051 23.9111 27.7063 25.8016 28.622 26.7173C29.5377 27.6329 31.4133 27.2342 32.8312 25.8311C34.2342 24.428 34.633 22.5376 33.7173 21.6219C32.7869 20.7062 30.9112 21.105 29.5081 22.5081Z" fill="#E53935"/>
<path d="M89.5 165C43.9365 165 7 128.063 7 82.5C7 36.9365 43.9365 0 89.5 0C135.063 0 172 36.9365 172 82.5C172 128.063 135.063 165 89.5 165Z" fill="#EF5350"/>
<path d="M129.908 42.0918C97.6821 9.8805 53.4783 1.84613 31.1622 24.1622C58.928 -3.60366 107.563 -6.19888e-06 139.774 32.2261C172 64.4374 175.604 113.072 147.838 140.838C170.154 118.522 162.12 74.3179 129.908 42.0918Z" fill="#FAFAFA"/>
<path d="M49.0918 122.908C81.3179 155.12 125.522 163.154 147.838 140.838C120.072 168.604 71.4374 165 39.2261 132.774C7.01472 100.563 3.39632 51.9281 31.1622 24.1622C8.8461 46.4783 16.8805 90.6821 49.0918 122.908Z" fill="#FAFAFA"/>
<path d="M72.8848 99.1152C105.096 131.327 138.651 150.009 147.838 140.838C133.098 155.577 95.0384 141.399 62.827 109.188C30.6157 76.9764 16.4374 38.9018 31.1769 24.177C21.9906 33.3338 40.6734 66.8891 72.8848 99.1152Z" fill="#FAFAFA"/>
<path d="M106.115 65.8848C73.8891 33.6735 40.3337 14.9906 31.1622 24.1622C45.9017 9.42269 83.9616 23.601 116.173 55.8271C148.399 88.0384 162.577 126.098 147.838 140.838C157.009 131.666 138.326 98.1109 106.115 65.8848Z" fill="#FAFAFA"/>
<path d="M31.1622 24.1621C28.105 27.2193 51.7503 55.8122 83.9764 88.0236C116.188 120.25 144.781 143.895 147.838 140.838C150.895 137.781 127.25 109.188 95.0237 76.9763C62.8124 44.7502 34.2194 21.1049 31.1622 24.1621Z" fill="#FAFAFA"/>
<path opacity="0.2" d="M165.383 114.874C161.366 124.296 155.532 133.143 147.838 140.838C115.626 173.049 63.3883 173.049 31.1622 140.838C23.4675 133.143 17.6337 124.311 13.6165 114.874C56.757 144.043 122.243 144.043 165.383 114.874Z" fill="#212121"/>
</g>
<defs>
<filter id="filter0_d_116_14357" x="0" y="0" width="179" height="181" filterUnits="userSpaceOnUse" color-interpolation-filters="sRGB">
<feFlood flood-opacity="0" result="BackgroundImageFix"/>
<feColorMatrix in="SourceAlpha" type="matrix" values="0 0 0 0 0 0 0 0 0 0 0 0 0 0 0 0 0 0 127 0" result="hardAlpha"/>
<feOffset dy="9"/>
<feGaussianBlur stdDeviation="3.5"/>
<feComposite in2="hardAlpha" operator="out"/>
<feColorMatrix type="matrix" values="0 0 0 0 0.945098 0 0 0 0 0.564706 0 0 0 0 0.694118 0 0 0 1 0"/>
<feBlend mode="normal" in2="BackgroundImageFix" result="effect1_dropShadow_116_14357"/>
<feBlend mode="normal" in="SourceGraphic" in2="effect1_dropShadow_116_14357" result="shape"/>
</filter>
</defs>
</svg>
