<svg width="188" height="379" viewBox="0 0 188 379" fill="none" xmlns="http://www.w3.org/2000/svg">
<path d="M1.08707 365.456C-3.70131 382.704 191.714 382.704 186.913 365.45C191.701 348.208 -3.71443 348.208 1.08707 365.456Z" fill="#9885C8"/>
<path d="M4.49623 194.571H178.828V353.962H4.49623V194.571Z" fill="#FFEE58"/>
<path d="M14.4216 205.143H164.918V259.351H14.4216V205.143Z" fill="#FDD835"/>
<path d="M14.4216 280.504H164.918V334.712H14.4216V280.504Z" fill="#FDD835"/>
<path d="M75.8761 307.614C75.8761 315.239 82.0503 325.385 89.659 325.385C97.2784 325.385 103.442 315.239 103.442 307.614C103.442 299.988 97.2678 293.82 89.659 293.82C82.0503 293.809 75.8761 299.988 75.8761 307.614Z" fill="#FFB300"/>
<path d="M75.8761 232.252C75.8761 239.878 82.0503 250.024 89.659 250.024C97.2784 250.024 103.442 239.878 103.442 232.252C103.442 224.627 97.2678 218.458 89.659 218.458C82.0503 218.458 75.8761 224.627 75.8761 232.252Z" fill="#FFB300"/>
<path d="M4.49625 184H187V194.571H4.49625V184Z" fill="#FFEE58"/>
<path d="M89.6696 246.046C82.0575 246.046 75.8867 239.87 75.8867 232.252C75.8867 224.634 82.0575 218.458 89.6696 218.458C97.2817 218.458 103.453 224.634 103.453 232.252C103.453 239.87 97.2817 246.046 89.6696 246.046Z" fill="#FAFAFA"/>
<path d="M76.0625 309.827C74.8385 302.308 79.9368 295.22 87.4499 293.995C94.963 292.77 102.046 297.872 103.27 305.391C104.494 312.91 99.3956 319.999 91.8825 321.224C84.3694 322.449 77.2865 317.346 76.0625 309.827Z" fill="#FAFAFA"/>
<path d="M159.711 372.797L161.57 353.962H144.047L145.906 372.797H159.711Z" fill="#757575"/>
<path d="M19.6182 372.797L17.7585 353.962H35.282L33.4329 372.797H19.6182Z" fill="#757575"/>
<path d="M4.49623 194.571H178.828V200.846H4.49623V194.571Z" fill="#FFB300"/>
<g clip-path="url(#clip0_116_14447)">
<path opacity="0.3" d="M94 188.742C42.0852 188.742 0 185.959 0 182.526C0 179.093 42.0852 176.31 94 176.31C145.915 176.31 188 179.093 188 182.526C188 185.959 145.915 188.742 94 188.742Z" fill="#333C60"/>
<path d="M53.7616 155.04C53.8418 161.746 59.3726 167.118 66.1057 167.038C72.8388 166.958 78.2321 161.45 78.152 154.743C78.0718 148.037 72.541 142.665 65.8079 142.745C59.0748 142.825 53.6815 148.322 53.7616 155.04Z" fill="#945823"/>
<path d="M24.5735 163.343C24.7224 168.635 27.2873 173.573 30.276 177.975C34.8106 184.613 41.4177 190.932 49.4676 191C53.9106 191.057 58.1703 189.152 61.7201 186.472C65.2698 183.826 68.1669 180.427 71.041 177.086C73.7778 173.87 76.5031 170.665 79.2628 167.449C79.7666 166.878 80.2704 166.262 80.5223 165.533C80.7743 164.803 81.3468 162.043 80.8086 158.587C80.488 156.454 79.7437 154.082 78.2436 151.755C77.4192 150.478 75.8962 149.554 74.4305 149.873C74.4305 149.919 74.4305 149.976 73.6747 149.93C67.6516 154.755 59.2581 156.534 51.7922 154.527C45.2537 152.747 38.658 148.277 32.2456 150.558C30.0127 151.367 28.2034 152.93 26.9209 154.892C25.3064 157.332 24.4819 160.377 24.5735 163.343Z" fill="#C78448"/>
<path d="M41.7612 183.461C43.7422 184.944 46.5248 185.913 48.8264 184.898C50.4753 184.168 51.4944 182.537 51.8036 180.872C52.1128 179.207 51.7922 177.496 51.3341 175.866C50.5555 173.048 49.376 170.334 47.8416 167.802C46.5019 165.59 44.83 163.468 42.5055 162.134C40.181 160.799 37.0893 160.389 34.6846 161.621C31.5929 163.206 30.4363 167.049 31.318 170.22C33.3906 177.645 39.7802 181.979 41.7612 183.461Z" fill="#A6662D"/>
<path d="M109.138 163.628C109.413 164.358 109.962 164.951 110.455 165.498C113.306 168.635 116.134 171.76 118.986 174.896C119.455 175.421 119.925 175.923 120.394 176.459C120.417 176.459 120.417 176.481 120.417 176.481C122.948 179.219 125.547 181.876 128.547 184.009C132.166 186.575 136.517 188.365 140.926 188.172C148.998 187.864 155.411 181.351 159.728 174.588C162.591 170.106 165.007 165.088 164.995 159.796C164.995 158.29 164.755 156.762 164.274 155.314C163.117 151.618 160.564 148.425 156.934 147.239C150.487 145.152 144.017 149.805 137.513 151.778C130.104 154.002 121.677 152.474 115.505 147.821C114.772 147.878 114.772 147.832 114.772 147.786C113.283 147.513 111.783 148.482 111.016 149.782C107.26 155.998 108.68 162.465 109.138 163.628Z" fill="#C78448"/>
<path d="M148.414 180.416C146.479 181.956 143.731 183.005 141.395 182.058C139.723 181.374 138.658 179.777 138.303 178.124C137.948 176.47 138.223 174.748 138.624 173.106C139.322 170.277 140.422 167.517 141.876 164.951C143.147 162.704 144.762 160.537 147.052 159.134C149.342 157.732 152.411 157.23 154.85 158.393C157.987 159.887 159.258 163.696 158.468 166.89C156.613 174.349 150.35 178.876 148.414 180.416Z" fill="#A6662D"/>
<path d="M57.2885 131.728C57.6091 157.8 74.4991 168.167 95.1794 167.916C115.86 167.665 132.498 156.899 132.189 130.827C131.868 104.755 114.783 78.6833 94.103 78.9342C73.4228 79.1851 56.9793 105.668 57.2885 131.728Z" fill="#A6662D"/>
<path d="M71.5099 135.844C71.337 121.616 81.6236 109.957 94.4856 109.802C107.348 109.646 117.914 121.055 118.087 135.282C118.26 149.51 107.974 161.169 95.1116 161.324C82.2496 161.479 71.6827 150.071 71.5099 135.844Z" fill="#FFD7B3"/>
<path d="M97.3665 147.912C96.6451 148.163 96.0496 148.539 95.4771 148.938C94.916 149.349 94.4007 149.794 93.9197 150.284C93.4388 150.774 93.0037 151.299 92.6029 151.869C92.2136 152.451 91.8586 153.055 91.6181 153.774C92.3395 153.523 92.935 153.147 93.5075 152.748C94.0686 152.337 94.5839 151.892 95.0648 151.402C95.5458 150.911 95.9809 150.387 96.3817 149.816C96.7596 149.235 97.126 148.63 97.3665 147.912Z" fill="#52341B"/>
<path d="M91.5494 147.98C91.8014 148.699 92.1792 149.292 92.58 149.862C92.9922 150.421 93.4388 150.934 93.9312 151.413C94.4236 151.892 94.9503 152.326 95.5229 152.725C96.1069 153.112 96.7138 153.466 97.4352 153.706C97.1833 152.987 96.8054 152.394 96.4046 151.824C95.9924 151.265 95.5458 150.752 95.0534 150.273C94.561 149.794 94.0343 149.36 93.4617 148.961C92.8777 148.585 92.2708 148.22 91.5494 147.98Z" fill="#52341B"/>
<path d="M123.417 5.31475C114.875 14.0282 117.554 38.5262 117.554 38.5262C117.554 38.5262 142.208 40.6019 150.75 31.8885C159.293 23.175 156.029 14.3133 148.483 6.97988C140.926 -0.364958 131.959 -3.39869 123.417 5.31475Z" fill="#C78448"/>
<path d="M125.02 14.3703C118.127 21.4072 117.554 38.5262 117.554 38.5262C117.554 38.5262 134.731 37.5453 141.624 30.5084C148.517 23.4715 147.109 17.5067 142.517 13.0473C137.937 8.59937 131.914 7.33342 125.02 14.3703Z" fill="#945823"/>
<path d="M63.014 6.04467C71.7624 14.5528 69.6784 39.1078 69.6784 39.1078C69.6784 39.1078 45.082 41.7766 36.3335 33.2685C27.5851 24.7603 30.631 15.8302 37.9939 8.30287C45.3682 0.786952 54.2655 -2.46348 63.014 6.04467Z" fill="#C78448"/>
<path d="M61.6284 15.1345C68.6936 22.0003 69.6783 39.1079 69.6783 39.1079C69.6783 39.1079 52.4906 38.5376 45.4255 31.6718C38.3603 24.806 39.6313 18.8069 44.1086 14.2449C48.5744 9.67148 54.5632 8.26866 61.6284 15.1345Z" fill="#945823"/>
<path d="M43.0551 57.2989C43.3643 82.4013 66.2774 97.5244 94.3206 97.1936C122.364 96.8515 144.91 81.181 144.613 56.0785C144.304 30.9761 121.264 5.94203 93.2213 6.27277C65.1782 6.61492 42.7459 32.1964 43.0551 57.2989Z" fill="#C78448"/>
<path d="M67.8131 70.9189C67.6922 60.9678 79.3178 52.7595 93.7797 52.5852C108.241 52.4109 120.063 60.3366 120.184 70.2877C120.305 80.2389 108.679 88.4471 94.2175 88.6215C79.7557 88.7958 67.934 80.8701 67.8131 70.9189Z" fill="#FFD7B3"/>
<path d="M87.5989 57.8235C87.6103 59.0324 90.4158 59.9676 93.874 59.9334C97.3207 59.8878 100.103 58.8842 100.092 57.6752C100.08 56.4663 97.2748 55.5311 93.8167 55.5653C90.3585 55.5995 87.5874 56.6146 87.5989 57.8235Z" fill="#52341B"/>
<path d="M94.252 57.7415L94.3246 63.7171L93.5231 63.7268L93.4505 57.7511L94.252 57.7415Z" fill="#52341B"/>
<path d="M88.6524 61.7354C89.2134 62.5452 90.0608 63.1383 90.9769 63.5374C91.9044 63.9366 92.9235 64.1077 93.9197 64.1077C94.9274 64.0849 95.9351 63.8796 96.8512 63.4576C97.7558 63.0356 98.5917 62.4197 99.1299 61.5986C97.5611 62.7505 95.7404 63.2751 93.9083 63.2979C92.0762 63.3435 90.244 62.8645 88.6524 61.7354Z" fill="#52341B"/>
<path d="M67.1705 52.771C67.2049 55.2345 69.2317 57.2076 71.705 57.1848C74.1784 57.1506 76.1594 55.1319 76.1365 52.6684C76.1022 50.2049 74.0754 48.2318 71.602 48.2547C69.1172 48.2775 67.1362 50.3076 67.1705 52.771Z" fill="#52341B"/>
<path d="M111.428 52.235C111.462 54.6985 113.489 56.6716 115.963 56.6488C118.436 56.6146 120.417 54.5959 120.394 52.1324C120.36 49.6689 118.333 47.6958 115.86 47.7186C113.386 47.7415 111.394 49.7715 111.428 52.235Z" fill="#52341B"/>
<path opacity="0.3" d="M48.2309 61.7582C48.2996 66.9475 52.5708 71.099 57.7695 71.0305C62.9796 70.9735 67.1477 66.708 67.079 61.5301C67.0103 56.3409 62.7391 52.1894 57.5404 52.2579C52.3418 52.3263 48.1736 56.5804 48.2309 61.7582Z" fill="#D53261"/>
<path opacity="0.3" d="M120.692 60.8915C120.761 66.0808 125.032 70.2322 130.23 70.1638C135.441 70.0953 139.609 65.8413 139.54 60.6634C139.471 55.4741 135.2 51.3227 130.001 51.3911C124.791 51.4481 120.623 55.7022 120.692 60.8915Z" fill="#D53261"/>
<path d="M160.312 135.651C161.342 139.244 162.018 143.156 160.747 146.669C159.361 150.501 155.857 153.227 152.136 154.937C149.559 156.123 146.628 156.922 143.891 156.18C140.788 155.325 138.555 152.656 136.86 149.919C133.689 144.775 131.73 139.004 129.509 133.393C125.913 124.292 121.562 115.487 116.512 107.093C115.264 105.006 113.924 102.816 113.901 100.387C113.753 86.5641 137.799 103.58 141.59 106.842C150.407 114.427 157.106 124.486 160.312 135.651Z" fill="#C78448"/>
<path d="M148.231 143.555C153.178 142.437 157.941 143.452 160.999 145.882C160.93 146.144 160.85 146.406 160.747 146.669C159.361 150.501 155.857 153.227 152.136 154.937C149.559 156.123 146.628 156.922 143.891 156.18C141.28 155.462 139.288 153.455 137.708 151.208C139.414 147.684 143.273 144.684 148.231 143.555Z" fill="#A6662D"/>
<path d="M29.2912 137.237C28.3522 140.852 27.7682 144.775 29.1194 148.265C30.5966 152.063 34.1693 154.709 37.9251 156.329C40.5245 157.446 43.4788 158.188 46.1926 157.367C49.2729 156.443 51.4486 153.706 53.0632 150.934C56.1091 145.722 57.9298 139.905 60.0138 134.237C63.3918 125.056 67.5256 116.137 72.3693 107.629C73.5716 105.519 74.8541 103.295 74.8198 100.866C74.6365 87.0432 51.002 104.63 47.2919 107.983C38.6809 115.772 32.2226 125.991 29.2912 137.237Z" fill="#C78448"/>
<path d="M41.5665 144.844C36.5968 143.84 31.8562 144.969 28.8561 147.478C28.9362 147.741 29.0164 148.003 29.1194 148.254C30.5966 152.052 34.1692 154.698 37.9251 156.317C40.5245 157.435 43.4788 158.176 46.1926 157.355C48.7805 156.58 50.7272 154.515 52.2501 152.234C50.4752 148.756 46.5476 145.848 41.5665 144.844Z" fill="#A6662D"/>
</g>
<defs>
<clipPath id="clip0_116_14447">
<rect width="188" height="191" fill="white" transform="matrix(-1 0 0 1 188 0)"/>
</clipPath>
</defs>
</svg>
