<svg width="189" height="119" viewBox="0 0 189 119" fill="none" xmlns="http://www.w3.org/2000/svg">
<g style="mix-blend-mode:multiply">
<g style="mix-blend-mode:multiply" opacity="0.6">
<path d="M146.163 51.7247L26.4006 35.7931C25.6554 35.7931 25.2296 34.8372 24.9102 33.6688L23.1005 33.4564C23.1005 33.4564 23.1004 33.4564 22.994 33.4564L1.5965 21.0298C1.5965 21.0298 -0.213242 19.8615 0.106125 17.7373C0.106125 17.5248 0.106125 17.3124 0.212585 17.1C0.531952 15.1882 2.34167 14.5509 2.44814 14.5509L26.2941 8.17829C26.2941 8.17829 26.2941 8.17829 26.4006 8.17829L28.1038 8.39072C28.7426 7.11619 29.4878 6.2665 30.233 6.37271L150.102 22.3043C152.657 22.6229 152.124 31.9695 151.485 37.4924C150.74 42.9092 148.824 52.1495 146.163 51.7247Z" fill="#F0A1AE"/>
</g>
<g style="mix-blend-mode:multiply" opacity="0.6">
<path d="M34.2782 104.511L55.2499 91.5536C55.2499 91.5536 55.2499 91.5536 55.3564 91.5536L57.0596 91.235C57.2725 89.8543 57.8048 88.7922 58.55 88.686L78.0313 85.4996L120.401 78.5959L177.78 69.3556C180.335 68.9308 182.57 78.0649 183.422 83.4816C184.274 88.8984 185.125 98.2449 182.57 98.6697L163.196 101.856L82.8218 114.814L63.3405 118C62.5953 118.106 61.9566 117.469 61.3179 116.407L59.5081 116.726C59.5081 116.726 59.5081 116.726 59.4017 116.726L35.3428 110.99C35.3428 110.99 33.3201 110.353 33.0007 108.335C33.0007 108.122 33.0007 107.91 33.0007 107.698C32.7878 105.68 34.2782 104.618 34.3847 104.618L34.2782 104.511Z" fill="#F0A1AE"/>
</g>
</g>
<path d="M29.807 14.6571V14.8695L27.4649 24.9595L26.8262 26.6589L5.53517 14.2322C5.53517 14.2322 3.72543 13.0639 4.36416 11.0459C4.57707 9.34656 6.1739 8.81551 6.1739 8.81551L30.0199 2.44287L30.2328 4.24845L29.807 14.5509V14.7633V14.6571Z" fill="#EB454B"/>
<path d="M30.4457 14.5509V14.3385L30.8715 4.24845L30.6586 2.44287C30.6586 2.23045 30.6586 2.12424 30.4457 2.01803C30.3392 2.01803 30.1263 1.91182 29.9134 2.01803L6.06744 8.39067C6.06744 8.39067 4.15126 9.02793 3.83189 10.9397C3.83189 11.1521 3.72544 11.3646 3.72544 11.577C3.40607 13.595 5.10935 14.7633 5.2158 14.8695L26.6133 27.2962C26.6133 27.2962 26.9327 27.4024 27.0391 27.2962C27.252 27.2962 27.3585 27.0837 27.3585 26.9775L27.9972 25.2782L30.2328 15.4006C30.2328 15.4006 30.2328 15.1881 30.2328 15.0819V14.8695L30.4457 14.5509ZM29.2747 14.5509C29.2747 14.5509 29.2747 14.5509 29.2747 14.6571L26.9327 24.6409L26.6133 25.5968L5.85453 13.595C5.85453 13.595 4.78997 12.8515 4.89643 11.4708C4.89643 11.3646 4.89643 11.2584 4.89643 11.1521C4.89643 11.1521 4.89643 11.1521 4.89643 11.0459C5.10934 9.7714 6.28036 9.34656 6.28036 9.34656L29.3812 3.18635V4.14224L29.0618 14.4447L29.2747 14.5509Z" fill="#8B1F25"/>
<g style="mix-blend-mode:screen" opacity="0.4">
<path d="M27.9973 6.16028C27.465 7.43481 27.0392 8.81554 26.9327 10.3025C21.397 10.3025 10.6451 10.3025 6.4933 10.3025C11.3902 9.3466 22.9939 7.00996 27.9973 6.16028Z" fill="#FBD5D0"/>
</g>
<g style="mix-blend-mode:screen" opacity="0.4">
<path d="M28.8489 8.49694C28.9553 7.75347 29.1682 6.79757 29.3812 5.94789C29.7005 5.94789 30.0199 5.94789 30.1263 5.84167L29.9134 10.3025C29.9134 10.3025 29.0618 10.3025 28.4231 10.3025C28.4231 9.66526 28.636 9.02799 28.7424 8.49694H28.8489Z" fill="#FBD5D0"/>
</g>
<g style="mix-blend-mode:multiply">
<path d="M5.53516 14.1261C5.53516 14.1261 4.04477 13.1702 4.25768 11.4708C10.0063 13.7012 15.6484 15.9317 21.397 18.1621C23.739 19.0118 26.081 19.9677 28.423 20.8174L27.4649 24.8534L26.8262 26.5527L5.53516 14.1261Z" fill="#989A9C"/>
</g>
<path d="M43.3268 28.677L26.8262 26.4465C25.8681 26.3403 25.7617 20.8174 26.6133 14.1261C27.465 7.43483 29.0618 2.1243 30.0199 2.33672L46.5204 4.56715L43.3268 28.677Z" fill="#570707"/>
<path d="M43.9655 28.7832L47.1592 4.67336C47.1592 4.67336 46.9463 4.0361 46.6269 4.0361L30.1263 1.80567C27.7843 1.48704 26.2939 12.0019 25.9746 14.1261C25.6552 16.2503 24.3778 26.7652 26.7198 27.0838L43.2203 29.3142C43.2203 29.3142 43.8591 29.1018 43.8591 28.7832H43.9655ZM45.8817 5.0982L42.7945 28.0397L27.0391 25.9155C26.5069 25.172 26.4004 20.8174 27.252 14.2323C28.1037 7.75347 29.4876 3.50504 30.1263 2.97399L45.8817 5.0982Z" fill="#7C181E"/>
<path d="M29.2748 14.3386C30.3393 6.47896 32.362 0.424959 33.8523 0.63738L60.6791 4.14233L71.2181 5.52307L153.615 16.4628C155.105 16.6752 155.531 23.154 154.466 30.9074C153.402 38.767 151.379 44.9272 149.889 44.7148L67.5986 33.7751L64.8308 33.4565L30.2329 28.8894C28.7425 28.677 28.4231 22.1981 29.3812 14.4448L29.2748 14.3386Z" fill="#EB454B"/>
<path d="M154.998 31.1198C155.744 25.703 156.276 16.3565 153.721 15.9317L33.9587 6.28475e-05C31.4038 -0.318569 29.4876 8.81555 28.7424 14.2323C27.9973 19.7552 27.465 28.9956 30.0199 29.4204L149.782 45.352C152.337 45.6706 154.36 36.5365 154.998 31.1198ZM29.9134 14.4447C31.0844 5.94786 33.1071 1.27459 33.8523 1.16838L153.614 17.1C154.36 17.4186 155.105 22.4105 153.934 30.9074C152.763 39.4042 150.74 44.0775 149.995 44.1837L30.2328 28.2521C29.4876 27.9335 28.7424 22.9416 29.9134 14.4447Z" fill="#8B1F25"/>
<path d="M49.7141 17.0999C50.7786 9.34648 52.3755 3.08006 53.44 3.18627L71.5374 5.62911L78.6699 6.58501L134.133 13.9135C135.091 14.0197 135.091 20.4986 134.133 28.252C133.069 36.0053 131.472 42.2718 130.407 42.1656L74.944 34.7308L73.0278 34.5184L49.7141 31.4383C48.756 31.3321 48.756 24.8532 49.7141 17.0999Z" fill="white"/>
<path d="M134.665 28.3582C135.198 24.5347 135.411 20.9235 135.411 18.2682C135.411 14.3384 134.985 13.4888 134.133 13.3825L53.5465 2.65527C52.8013 2.65527 52.0561 3.29254 51.098 7.00991C50.3528 9.66517 49.7141 13.1701 49.1818 16.9937C48.6495 20.8173 48.3302 24.4285 48.3302 27.0837C48.3302 31.0135 48.8625 31.8632 49.6076 31.9694L130.301 42.6967C131.046 42.6967 131.791 42.0594 132.749 38.342C133.494 35.6868 134.133 32.1818 134.665 28.3582ZM133.92 14.4447C134.452 15.2943 134.559 20.3924 133.494 28.1458C132.43 35.8992 131.046 40.7849 130.301 41.5284L49.8206 30.8011C49.2883 29.9514 49.1818 24.8533 50.2464 17.0999C51.3109 9.34654 52.6948 4.46085 53.44 3.71738L133.92 14.4447Z" fill="#B0B2B5"/>
<path d="M126.468 27.2963C127.32 21.1361 112.842 14.1262 94.106 11.6833C75.4763 9.2405 59.6145 12.2144 58.8693 18.2684C58.0176 24.4286 72.4956 31.4385 91.2317 33.8814C109.861 36.3242 125.723 33.4565 126.575 27.2963H126.468Z" fill="#EB454B"/>
<path d="M127.107 27.4025C127.959 20.8174 113.587 13.7013 94.3189 11.1522C75.0505 8.60318 59.1886 11.6833 58.337 18.2683C57.4853 24.8534 71.8568 31.9695 91.1252 34.5186C110.394 37.0676 126.149 33.9875 127.107 27.4025ZM59.508 18.3746C60.2532 12.6392 76.115 9.87771 94.106 12.2143C112.097 14.6572 126.681 21.4547 125.936 27.19C125.191 32.9254 109.329 35.6869 91.3381 33.3503C73.3472 30.9074 58.7628 24.1099 59.508 18.3746Z" fill="#991531"/>
<g style="mix-blend-mode:screen" opacity="0.4">
<path d="M30.2328 9.24043C30.5522 7.96591 30.8716 6.69138 31.0845 5.62927L154.998 22.0919C154.998 23.154 154.998 24.4286 154.998 25.8093L30.2328 9.24043Z" fill="#FBD5D0"/>
</g>
<g style="mix-blend-mode:multiply">
<path d="M28.7424 21.5608L153.189 38.0234C152.124 42.1657 150.953 44.8209 149.888 44.7147L30.1263 28.7831C29.1682 28.6769 28.6359 25.703 28.7424 21.4546V21.5608Z" fill="#989A9C"/>
</g>
<path d="M62.4888 97.3952V97.6076L63.234 107.91V109.716L39.0687 103.98C39.0687 103.98 37.046 103.343 37.046 101.219C36.8331 99.5194 38.1106 98.5635 38.1106 98.5635L59.0823 85.6058L59.721 87.3052L62.2759 97.289V97.5014L62.4888 97.3952Z" fill="#75C8B6"/>
<path d="M63.1276 97.1828V96.9704L60.5726 87.199L59.9339 85.6059C59.9339 85.6059 59.721 85.2872 59.5081 85.2872C59.2952 85.2872 59.1887 85.2872 58.9758 85.2872L38.0041 98.2449C38.0041 98.2449 36.3008 99.4132 36.6202 101.325C36.6202 101.537 36.6202 101.75 36.6202 101.962C36.9396 103.98 38.8558 104.618 38.9622 104.618L63.0211 110.353C63.0211 110.353 63.3405 110.353 63.4469 110.353C63.5534 110.353 63.6598 110.034 63.6598 109.928V108.123H63.7663L63.1276 98.0325C63.1276 98.0325 63.1276 97.8201 63.1276 97.7139V97.5015V97.1828ZM61.9566 97.5015L62.5953 107.698V108.76L39.1751 103.237C39.1751 103.237 37.8977 102.812 37.6848 101.431C37.6848 101.325 37.6848 101.219 37.6848 101.113V100.9C37.4718 99.6257 38.5364 98.8822 38.5364 98.8822L58.8694 86.2431L59.2952 87.199L61.8501 97.1828L61.9566 97.5015Z" fill="#00A7AC"/>
<g style="mix-blend-mode:screen" opacity="0.4">
<path d="M58.337 89.8542C58.2306 91.235 58.337 92.7219 58.5499 94.1027C53.2272 95.6958 42.901 98.8822 38.9622 100.05C43.4333 97.7138 53.8659 92.1909 58.337 89.8542Z" fill="#FBD5D0"/>
</g>
<g style="mix-blend-mode:screen" opacity="0.4">
<path d="M59.8274 91.766C59.8274 91.0225 59.6145 90.0666 59.6145 89.2169C59.9339 89.0045 60.1468 88.8983 60.2533 88.8983L61.4243 93.2529C61.4243 93.2529 60.6791 93.4654 60.0403 93.6778C60.0403 93.0405 59.9339 92.4033 59.8274 91.8722V91.766Z" fill="#FBD5D0"/>
</g>
<g style="mix-blend-mode:multiply" opacity="0.6">
<path d="M39.0687 103.98C39.0687 103.98 37.4718 103.449 37.1525 101.75C43.2204 102.175 49.3948 102.706 55.4628 103.13C57.9113 103.343 60.4662 103.555 63.0211 103.662L63.234 107.804V109.609L39.0687 103.874V103.98Z" fill="#989A9C"/>
</g>
<path d="M79.5217 107.06L63.1276 109.716C62.063 109.928 60.4662 104.617 59.4016 98.0323C58.3371 91.4473 58.2306 85.8181 59.2952 85.7119L75.6893 83.0566L79.6281 107.06H79.5217Z" fill="#75C8B6"/>
<path d="M80.0539 106.954L76.1151 82.9505C76.1151 82.9505 75.6893 82.4194 75.4764 82.5256L59.0823 85.1809C56.8467 85.4995 58.4435 96.1206 58.7629 98.1386C59.0823 100.263 60.892 110.778 63.234 110.353L79.6281 107.698C79.6281 107.698 80.1604 107.273 80.1604 107.06L80.0539 106.954ZM75.157 83.5877L78.8829 106.423L63.1276 108.972C62.4888 108.441 60.9985 104.193 59.9339 97.7138C58.8694 91.2349 58.9758 86.7741 59.4016 86.0306L75.157 83.4815V83.5877Z" fill="#00A7AC"/>
<g style="mix-blend-mode:multiply" opacity="0.6">
<path d="M79.5217 107.06L63.1276 109.716C62.063 109.928 60.4662 104.618 59.4016 98.0325C58.3371 91.4474 58.2306 85.8182 59.2952 85.712L75.6893 83.0568L79.6281 107.06H79.5217Z" fill="#989A9C"/>
</g>
<path d="M61.9565 97.2889C60.6791 89.5356 60.892 83.0567 62.3823 82.7381L89.1026 78.3835L99.6417 76.6841L181.612 63.514C183.103 63.3015 185.338 69.3556 186.616 77.1089C187.893 84.8623 187.68 91.3412 186.19 91.6598L104.219 104.936L101.451 105.361L66.9599 110.99C65.4696 111.203 63.234 105.149 61.9565 97.3952V97.2889Z" fill="#75C8B6"/>
<path d="M187.148 77.0028C186.296 71.586 184.061 62.4519 181.506 62.8767L62.2759 82.2071C59.721 82.6319 60.4662 91.9785 61.4243 97.3952C62.2759 102.812 64.5115 111.946 67.0664 111.521L186.296 92.1909C188.851 91.766 188.106 82.4195 187.148 77.0028ZM62.4888 97.1828C61.1049 88.6859 61.7436 83.694 62.4888 83.3754L181.719 64.0451C182.464 64.0451 184.593 68.7183 185.977 77.2152C187.361 85.712 186.722 90.7039 185.977 91.0226L66.747 110.353C66.0018 110.353 63.8727 105.68 62.3824 97.1828H62.4888Z" fill="#00A7AC"/>
<path d="M82.2895 93.9965C81.012 86.2431 80.7991 79.7642 81.8637 79.658L99.8546 76.6841L106.987 75.5158L162.237 66.5941C163.302 66.3817 165.112 72.6481 166.389 80.4015C167.667 88.1549 167.88 94.6337 166.815 94.7399L111.565 103.662L109.648 103.98L86.4412 107.698C85.4831 107.804 83.5669 101.644 82.2895 93.8902V93.9965Z" fill="white"/>
<path d="M166.921 80.2953C166.283 76.4717 165.538 72.9668 164.792 70.3115C163.621 66.5941 162.983 65.8507 162.131 65.9569L81.7573 79.0208C81.0121 79.127 80.4798 79.9767 80.6927 83.9065C80.6927 86.6679 81.1185 90.2791 81.7573 93.9965C82.396 97.8201 83.1412 101.325 83.8864 103.98C85.0574 107.698 85.6961 108.441 86.5477 108.335L166.921 95.271C167.667 95.1648 168.199 94.3151 167.986 90.3853C167.986 87.6238 167.56 84.0127 166.921 80.2953ZM162.131 67.2314C162.876 67.8687 164.473 72.7544 165.644 80.5077C166.921 88.2611 166.921 93.3592 166.496 94.2089L86.3348 107.167C85.5896 106.529 84.0993 101.644 82.8218 93.8903C81.5443 86.1369 81.5443 81.0388 81.9702 80.1891L162.131 67.2314Z" fill="#B0B2B5"/>
<path d="M158.724 81.676C157.766 75.5158 141.905 73.073 123.275 76.0469C104.645 79.0208 90.3802 86.4555 91.4448 92.6157C92.4029 98.6697 108.265 101.219 126.894 98.2449C145.524 95.271 159.789 87.8362 158.724 81.676Z" fill="#75C8B6"/>
<path d="M159.363 81.5698C158.299 74.9847 142.437 72.3295 123.168 75.5158C104.006 78.5959 89.7414 86.1368 90.806 92.7219C91.8705 99.2007 107.732 101.962 127.001 98.7759C146.269 95.5896 160.428 88.1548 159.363 81.5698ZM91.977 92.5095C91.0189 86.7741 105.39 79.5518 123.381 76.6841C141.266 73.8164 157.234 76.153 158.192 81.7822C159.15 87.5176 144.779 94.7399 126.788 97.6076C108.903 100.475 92.9351 98.1386 91.977 92.5095Z" fill="#00A7AC"/>
<g style="mix-blend-mode:screen" opacity="0.4">
<path d="M61.3179 92.0846C61.2114 90.7039 61.1049 89.5356 61.1049 88.3673L184.593 68.3997C184.912 69.4618 185.232 70.6301 185.551 71.9046L61.3179 91.9784V92.0846Z" fill="#FBD5D0"/>
</g>
<g style="mix-blend-mode:multiply" opacity="0.6">
<path d="M63.4469 104.299L187.361 84.2251C187.574 88.4735 187.148 91.4474 186.19 91.5536L66.9599 110.884C66.0018 110.99 64.6179 108.335 63.4469 104.299Z" fill="#989A9C"/>
</g>
</svg>
