<svg width="307" height="220" viewBox="0 0 307 220" fill="none" xmlns="http://www.w3.org/2000/svg">
<path d="M110.675 82.8692C110.675 82.8692 103.753 83.6069 97.4089 93.2367C91.065 102.866 87.1948 117.201 88.9503 128.586C90.7059 139.97 97.5286 148.663 99.6432 150.656C101.758 152.65 104.112 155.122 104.112 155.122L112.929 147.247C112.929 147.247 105.409 134.926 103.872 127.509C102.336 120.112 106.226 112.596 108.341 110.722C110.456 108.848 114.107 106.495 114.107 106.495C114.107 106.495 113.967 81.653 110.695 82.8493L110.675 82.8692Z" fill="#7198B5"/>
<path d="M152.29 147.207C153.906 145.293 155.462 143.22 156.34 140.847C157.317 138.215 157.217 135.364 156.719 132.653C156.22 129.901 155.342 127.17 155.262 124.359C155.262 124.339 155.262 124.319 155.262 124.299C154.145 118.776 154.584 112.795 154.584 106.834C154.584 100.494 153.108 95.8485 149.357 89.628C145.746 83.6468 138.086 81.5334 138.086 81.5334C138.086 81.5334 142.076 112.297 142.076 122.525C142.076 131.736 145.806 148.982 148.08 151.753C149.517 150.277 150.953 148.822 152.29 147.247V147.207Z" fill="#7198B5"/>
<path d="M129.727 199.822C129.727 199.822 127.393 207.099 127.393 210.748C127.393 214.396 127.054 214.755 132.141 215.871C137.228 216.988 142.634 217.865 146.385 217.167C150.115 216.45 150.415 214.556 148.599 213.22C146.784 211.864 142.415 210.488 141.198 209.232C139.981 207.976 140.879 203.092 141.198 202.254C141.517 201.417 133.617 197.21 129.707 199.822H129.727Z" fill="#7198B5"/>
<path d="M101.459 201.058C101.459 201.058 98.4263 208.076 98.0672 211.705C97.7081 215.333 97.349 215.652 102.296 217.267C107.244 218.882 112.55 220.278 116.341 219.939C120.131 219.6 120.61 217.746 118.934 216.23C117.259 214.715 113.049 212.921 111.972 211.545C110.875 210.189 112.251 205.404 112.65 204.607C113.049 203.809 105.608 198.865 101.459 201.058Z" fill="#7198B5"/>
<path d="M103.972 142.362C103.972 142.362 103.394 145.293 103.494 152.69C103.593 160.087 103.254 172.887 101.738 182.516C100.202 192.146 97.7482 205.883 97.7482 205.883C97.7482 205.883 100.222 207.877 106.087 208.355C111.972 208.834 113.369 208.235 113.369 208.235C113.369 208.235 119.593 190.272 122.645 179.466C125.697 168.66 127.573 156.338 128.75 157.276C129.927 158.213 130.625 169.836 129.567 182.297C128.51 194.738 126.635 206.84 126.635 206.84C126.635 206.84 129.448 207.897 135.692 207.777C141.936 207.657 142.515 206.481 142.515 206.481C142.515 206.481 147.801 192.744 149.676 175.598C151.552 158.452 149.297 139.751 149.297 139.751C149.297 139.751 135.592 133.55 125.717 135.544C115.842 137.538 103.972 142.362 103.972 142.362Z" fill="#82342A"/>
<path d="M139.901 92.2398C139.243 88.4716 137.467 85.0823 135.053 82.2313C133.916 81.6331 132.759 81.1347 131.443 80.8556C130.445 80.6363 129.428 80.5166 128.41 80.5166C127.513 80.5166 126.675 80.6761 125.817 80.7958C125.558 80.8356 125.378 80.4967 125.617 80.3372C125.697 80.2973 125.777 80.2574 125.857 80.2176C125.418 80.2176 124.999 80.2176 124.56 80.2176C119.373 80.2176 114.246 81.6132 110.715 82.8692C110.296 85.7402 110.595 88.691 111.314 91.4822C112.092 94.4728 113.309 97.3438 114.825 100.035C116.201 102.488 117.897 104.9 119.872 106.894C121.887 108.947 124.381 110.602 127.273 110.981C130.146 111.36 132.999 110.483 135.173 108.569C137.348 106.635 138.684 104.003 139.442 101.232C140.24 98.3008 140.44 95.2105 139.921 92.2199L139.901 92.2398Z" fill="white"/>
<path d="M150.335 143.479C150.395 141.964 150.494 140.448 150.594 138.953C150.774 136.222 151.013 133.49 151.212 130.759C151.791 121.946 151.532 112.995 149.956 104.282C149.178 99.9156 148.041 95.5693 146.504 91.4024C145.208 87.8735 144.908 87.0959 143.013 83.8461C134.196 79.2605 133.318 80.2175 124.54 80.2175C115.144 80.2175 105.967 84.8031 105.967 84.8031C105.967 84.8031 107.264 93.4958 107.603 99.9555C107.962 106.415 108.182 112.177 107.124 120.631C106.067 129.084 103.254 143.419 103.254 143.419C103.254 143.419 112.531 147.068 127.812 147.646C140.54 148.144 148.1 145.213 150.275 144.216C150.275 143.977 150.295 143.738 150.315 143.499L150.335 143.479ZM135.213 98.9188C134.834 100.015 134.395 101.092 133.876 102.129C133.258 103.385 132.48 104.701 131.243 105.438C128.71 106.954 126.076 104.78 124.381 103.006C122.545 101.072 121.049 98.859 119.353 96.8253C117.598 94.712 115.742 92.5388 114.546 90.0466C114.067 89.0298 113.648 87.8934 113.728 86.757C113.807 85.7003 114.366 84.7034 115.164 84.0255C117.039 82.4106 119.792 82.5103 122.086 82.8094C124.44 83.1284 126.715 83.7265 129.029 84.2249C131.143 84.1452 133.318 84.6436 134.734 86.2984C136.071 87.8735 136.49 90.0068 136.47 92.0204C136.47 94.373 135.951 96.7256 135.193 98.9387L135.213 98.9188Z" fill="#7198B5"/>
<path d="M118.515 104.282C115.064 104.442 111.613 104.442 108.182 104.123C108.062 104.123 107.942 104.083 107.803 104.083C107.743 102.727 107.683 101.371 107.603 99.9755C107.603 99.9357 107.603 99.8958 107.603 99.836C109.139 100.035 110.695 100.175 112.251 100.275C115.563 100.514 118.914 100.594 122.226 100.474C122.904 101.351 123.622 102.209 124.38 103.006C124.6 103.245 124.839 103.485 125.099 103.724C122.904 103.943 120.73 104.182 118.515 104.282Z" fill="#A2CB9C"/>
<path d="M150.534 108.13C148.42 108.828 146.245 109.406 144.09 109.904C140.44 110.722 136.729 111.28 132.999 111.619C125.418 112.277 117.757 112.057 110.196 111.18C109.418 111.101 108.64 111.001 107.882 110.901C107.842 112.875 107.723 114.988 107.503 117.261C112.59 118.138 117.697 118.896 122.864 119.175C126.834 119.394 130.804 119.355 134.774 119.016C138.465 118.697 142.016 117.78 145.547 116.703C147.442 116.125 149.317 115.527 151.232 114.988C151.073 112.695 150.853 110.423 150.554 108.15L150.534 108.13Z" fill="#A2CB9C"/>
<path d="M147.841 95.4896C146.046 96.2073 144.21 96.8254 142.355 97.3836C139.981 98.0814 137.567 98.6397 135.133 99.0982C134.774 100.135 134.355 101.152 133.876 102.129C133.737 102.408 133.597 102.667 133.438 102.946C135.632 102.727 137.826 102.488 140.001 102.149C142.056 101.83 144.11 101.491 146.065 100.753C147.023 100.394 147.981 100.015 148.958 99.6565C148.619 98.2609 148.26 96.8652 147.841 95.4896Z" fill="#A2CB9C"/>
<path d="M116.74 77.6059L117.358 90.5452C117.358 90.5452 121.248 96.1277 127.153 94.9115C133.058 93.6953 133.557 90.4256 133.557 90.4256L131.941 74.7349C131.941 74.7349 124.979 79.8389 116.76 77.6258L116.74 77.6059Z" fill="#B0683F"/>
<g style="mix-blend-mode:multiply">
<path d="M118.435 84.5839C121.847 85.5409 125.438 86.4381 129.009 86.0394C130.405 85.8799 131.762 85.4811 132.999 84.8032L131.961 74.7149C131.961 74.7149 124.999 79.8189 116.78 77.6058L117.099 84.1652C117.558 84.3048 118.017 84.4444 118.475 84.564L118.435 84.5839Z" fill="#AEA7A2"/>
</g>
<path d="M153.367 47.9788C153.367 47.9788 158.893 43.9914 160.729 46.643C162.584 49.2947 162.265 52.6043 158.394 55.0765C154.524 57.5488 151.612 56.8111 151.612 56.8111L153.367 47.9788Z" fill="#B0683F"/>
<path d="M92.1825 36.4351C89.7487 46.8025 88.2525 70.3087 110.157 79.8388C132.061 89.3688 147.323 73.6183 153.268 57.469C159.532 40.4425 149.976 19.3886 145.507 17.9332C122.346 10.4367 97.1699 15.142 92.1825 36.4351Z" fill="#B0683F"/>
<path d="M125.019 49.8131C125.019 49.8131 125.079 49.7333 125.019 49.7333C124.959 49.7333 124.959 49.8131 125.019 49.8131Z" fill="#423227"/>
<g style="mix-blend-mode:multiply">
<path d="M124.062 47.0019C124.52 47.9788 124.401 49.195 124.441 50.2318C124.481 51.3682 124.481 52.6043 124.939 53.661C125.378 54.6579 126.336 55.0367 127.393 54.917C128.47 54.7775 130.405 53.8404 130.226 55.7345C130.126 56.7912 129.627 57.6883 128.73 58.2865C128.271 58.5855 127.752 58.765 127.234 58.8447C126.755 58.9045 126.216 58.7849 125.777 59.0042C125.598 59.084 125.498 59.3232 125.638 59.5026C126.236 60.2204 127.453 59.9612 128.231 59.722C129.129 59.4229 129.967 58.8248 130.505 58.0472C131.184 57.0304 131.882 54.3987 130.266 53.8006C129.588 53.5613 128.81 53.7009 128.151 53.8803C127.613 54.0199 126.914 54.3189 126.416 53.9002C125.618 53.2024 125.677 51.6872 125.638 50.7501C125.578 49.3545 125.638 47.8193 124.88 46.5633C124.62 46.1047 123.842 46.5433 124.082 47.0218L124.062 47.0019Z" fill="#AEA7A2"/>
</g>
<path d="M112.531 44.6293C111.813 44.3502 111.035 44.1508 110.277 44.1907C109.499 44.2306 108.76 44.5097 108.062 44.8686C105.708 46.0848 103.873 48.2978 103.115 50.8299C102.895 51.5875 102.756 52.385 102.816 53.1625C102.895 54.0797 103.215 54.937 103.673 55.7345C105.409 58.6852 109.159 60.3599 112.491 59.5026C115.623 58.7051 118.376 55.3158 118.436 52.0261C118.496 48.8361 115.284 45.6461 112.511 44.5895L112.531 44.6293Z" fill="white"/>
<path d="M142.016 42.0774C141.298 41.7982 140.52 41.5989 139.762 41.6387C138.984 41.6786 138.246 41.9577 137.547 42.3166C135.193 43.5328 133.358 45.7458 132.6 48.2779C132.381 49.0355 132.241 49.833 132.301 50.6106C132.381 51.5277 132.7 52.385 133.159 53.1825C134.894 56.1332 138.645 57.808 141.976 56.9507C145.108 56.1532 147.861 52.7638 147.921 49.4741C147.981 46.2842 144.769 43.0942 141.996 42.0375L142.016 42.0774Z" fill="white"/>
<path d="M94.0377 57.7482C94.0377 57.7482 90.3471 53.5414 86.4769 56.0136C82.6067 58.4858 84.0032 64.2677 89.9481 65.125C95.893 65.9823 96.4317 61.1176 96.4317 61.1176L94.0377 57.7482Z" fill="#B0683F"/>
<path d="M144.19 38.6681C144.051 38.4687 144.29 38.7478 144.19 38.6681C144.151 38.6282 144.111 38.5684 144.071 38.5285C143.991 38.4488 143.911 38.369 143.851 38.2893C143.851 38.2893 143.632 38.07 143.612 38.07C143.612 38.07 143.811 38.2095 143.672 38.1098C143.592 38.07 143.532 38.0102 143.452 37.9703C143.353 37.9105 143.273 37.8507 143.173 37.8108C143.093 37.7709 142.894 37.7111 142.834 37.6513C142.834 37.6513 143.113 37.751 142.914 37.6912C142.874 37.6912 142.814 37.6513 142.774 37.6313C142.634 37.5915 142.515 37.5516 142.375 37.5117C142.136 37.4519 141.896 37.412 141.657 37.3722C141.537 37.3522 141.437 37.3323 141.318 37.3123C141.258 37.3123 141.178 37.3123 141.118 37.2725C141.258 37.3123 141.378 37.3123 141.158 37.2725C140.679 37.2326 140.201 37.2127 139.742 37.1728C139.522 37.1728 139.323 37.1329 139.103 37.0532C138.664 36.8737 139.542 37.0532 139.243 37.0731C139.203 37.0731 139.143 37.0731 139.103 37.0731C138.505 37.0332 137.986 36.5348 138.166 35.9167C138.246 35.6376 138.445 35.4382 138.684 35.2987C138.724 35.2987 138.764 35.2389 138.804 35.2389C138.724 35.3186 138.645 35.4183 138.565 35.498L138.744 35.2787C138.984 35.0195 139.423 34.88 139.762 34.8002C140.34 34.6806 140.919 34.6607 141.497 34.7005C142.195 34.7604 142.774 34.9199 143.412 35.199C144.589 35.7174 145.567 36.6544 145.886 37.9105C146.006 38.3491 145.786 38.8276 145.348 39.007C144.889 39.1865 144.47 39.007 144.19 38.6282V38.6681Z" fill="#423227"/>
<path d="M109.478 39.7846C109.339 39.8245 109.219 39.8643 109.079 39.9241C109.04 39.9241 108.92 39.984 108.88 40.0039C109.099 39.8444 109.159 39.8245 109.079 39.8843C109.06 39.8843 109.04 39.9241 109.02 39.9441C108.76 40.1634 108.441 40.3428 108.162 40.5023C108.042 40.5821 107.902 40.6618 107.783 40.7416C107.683 40.8213 107.583 40.9609 107.803 40.7216C107.763 40.7615 107.703 40.8014 107.663 40.8413C107.424 41.0406 107.184 41.24 106.965 41.4394C106.526 41.8581 106.147 42.3565 105.708 42.7752C105.608 42.8749 105.489 42.9945 105.389 43.0942C105.309 43.154 105.209 43.2337 105.13 43.2936C105.01 43.3534 105.05 43.3135 105.209 43.2138C105.209 43.2537 105.09 43.3334 105.05 43.3534C105.05 43.3534 104.731 43.6126 104.711 43.5926C104.711 43.5926 104.91 43.4331 104.731 43.5727C104.531 43.7322 104.351 43.8518 104.112 43.9116C103.813 43.9914 103.374 43.8717 103.234 43.5527C103.055 43.1341 103.055 42.6755 103.135 42.2369C103.155 42.1372 103.214 41.8182 103.174 42.2369C103.174 42.0774 103.194 41.9179 103.254 41.7584C103.314 41.5391 103.434 41.2998 103.554 41.1005C103.913 40.4026 104.491 39.8045 105.11 39.326C105.808 38.7877 106.586 38.3292 107.464 38.2095C107.922 38.1497 108.461 38.1298 108.88 38.369C109.06 38.4887 108.74 38.3292 108.92 38.389C108.98 38.389 109.06 38.4288 109.119 38.4488C109.319 38.5285 109.478 38.6083 109.658 38.7279C110.057 39.007 110.017 39.645 109.518 39.7846H109.478Z" fill="#423227"/>
<path d="M114.645 45.8057C113.528 45.7459 112.391 45.8854 111.413 46.4437C108.401 48.1383 107.882 52.8037 109.778 55.4753C110.735 56.851 112.231 57.788 113.827 58.2665C114.127 58.3662 114.446 58.426 114.765 58.4858C116.86 57.0504 118.416 54.5382 118.456 52.066C118.515 49.6735 116.72 47.301 114.665 45.8057H114.645Z" fill="#423227"/>
<path d="M142.814 42.4562C141.976 42.496 141.158 42.6755 140.38 43.0144C138.704 43.772 137.647 45.3271 137.148 47.0617C136.59 49.0156 136.749 50.8897 137.846 52.6242C138.904 54.279 140.54 55.555 142.315 56.3525C142.535 56.4522 142.754 56.5319 142.973 56.6117C145.667 55.4154 147.841 52.4248 147.901 49.494C147.961 46.6231 145.347 43.7321 142.794 42.4362L142.814 42.4562Z" fill="#423227"/>
<path d="M114.466 51.8467C116.221 52.1058 116.62 49.3744 114.865 49.1152C113.109 48.8561 112.71 51.5875 114.466 51.8467Z" fill="white"/>
<path d="M143.971 48.7365C145.726 48.9957 146.125 46.2642 144.37 46.0051C142.614 45.7459 142.215 48.4773 143.971 48.7365Z" fill="white"/>
<path d="M79.8536 33.2451C80.0331 31.7698 80.7114 30.434 81.7687 29.3972C82.4669 28.7193 83.3447 28.2209 84.0828 27.5829C83.7038 25.7487 82.9457 23.9742 83.225 22.0802C83.4245 20.6447 84.1826 19.3687 85.3396 18.4915C87.2747 17.0161 90.1275 16.5974 92.5613 17.0958C92.5613 15.5607 92.5214 14.0255 92.9803 12.5501C93.5388 10.7558 94.9154 9.51965 96.7108 8.98134C99.7431 8.06422 103.593 8.86171 106.027 10.995C106.526 7.56578 108.162 4.17643 111.812 3.27925C115.603 2.36213 118.476 4.6948 120.67 7.44616C121.927 3.678 126.834 0.926638 130.545 1.34532C134.495 1.78395 137.088 4.71474 138.465 8.18384C141.018 6.54898 144.071 5.51223 147.103 6.11036C149.676 6.62873 151.153 8.68228 152.13 10.995C152.848 12.7096 153.267 14.5439 153.626 16.3582C153.706 16.7968 153.786 17.2354 153.846 17.694C153.886 17.9731 153.846 18.5712 154.005 18.8105C154.265 19.2491 155.262 19.3288 155.701 19.4285C157.018 19.7475 158.315 20.1463 159.212 21.2229C160.11 22.2995 160.609 23.6552 160.788 25.0509C161.227 28.5798 159.811 31.9093 157.856 34.7404C159.93 36.4949 161.227 38.9472 160.689 41.6986C159.691 46.7228 154.903 48.6368 154.764 48.557C153.188 47.7197 152.21 44.0911 151.731 42.4363C151.133 40.4226 151.292 38.3092 152.25 36.475C148.38 35.199 147.801 30.0751 148.619 26.2471C145.308 28.0813 140.919 27.4035 138.664 24.2932C137.826 25.7885 135.832 26.7057 134.236 26.925C131.842 27.2639 129.488 26.4864 127.892 24.7518C127.273 27.1044 125.238 28.4602 122.645 28.6396C121.029 28.7393 119.274 28.6795 117.718 28.2209C117.059 28.0215 116.421 27.7623 115.842 27.4234C115.264 27.1044 114.845 26.6259 114.366 26.2072C113.648 28.5598 111.174 30.2545 108.9 30.8327C106.486 31.4308 103.793 31.371 101.558 30.2745C101.758 32.1087 101.259 33.9828 99.803 35.2389C98.4464 36.4152 96.7706 36.5547 95.1946 36.1161C95.8929 37.5915 96.3717 39.1865 96.3517 40.8413C96.3517 42.9746 95.2345 44.749 94.0974 46.4636C93.9378 46.4437 93.7583 46.6032 93.858 46.7826C94.5762 47.939 96.3916 50.8698 96.0525 52.2454C95.7532 53.4616 94.9951 54.5382 94.1573 55.4354C93.3792 56.2927 92.5015 57.0304 91.5639 57.7083C88.6113 56.9307 84.5816 52.8236 82.8859 50.3913C80.7912 47.4206 81.4296 44.1708 83.4245 41.4793C82.427 40.5821 81.6091 39.4257 80.9707 38.3092C80.073 36.7142 79.6142 35.0395 79.8336 33.2052L79.8536 33.2451Z" fill="#423227"/>
<path d="M119.174 64.1082C120.271 65.6234 121.368 67.2184 122.884 68.3349C124.5 69.5311 126.415 69.9498 128.37 69.5511C130.146 69.1922 131.622 68.1555 132.679 66.7C133.198 66.0022 133.577 65.1848 133.856 64.3674C134.116 63.5499 134.515 62.2939 134.096 61.4964C133.856 61.0578 133.158 60.9381 132.819 61.3369C132.3 61.9549 132.36 62.8721 132.161 63.6297C131.981 64.3075 131.782 64.9854 131.463 65.6035C130.764 66.9193 129.547 67.7966 128.091 68.1355C124.58 68.9729 122.046 66.082 120.131 63.5699C119.712 63.0116 118.755 63.5499 119.174 64.1281V64.1082Z" fill="#423227"/>
<path d="M146.006 89.3289C148.439 96.0677 149.836 103.026 150.554 110.144C151.292 117.56 151.871 125.077 151.532 132.513C151.432 134.686 151.232 136.86 150.893 138.993C150.574 140.927 149.976 142.801 149.716 144.735C149.716 144.874 149.876 144.914 149.916 144.795C150.554 143.24 150.893 141.445 151.192 139.81C151.512 138.096 151.711 136.341 151.851 134.607C152.15 130.659 152.11 126.692 151.97 122.724C151.671 115.407 151.133 107.97 149.736 100.753C148.958 96.8054 147.881 92.9176 146.305 89.2093C146.245 89.0697 145.986 89.1694 146.046 89.3289H146.006Z" fill="#A2CB9C"/>
<path d="M103.533 123.781C102.576 124.04 101.638 124.359 100.72 124.778C98.0073 126.014 95.6134 127.808 93.5187 129.901C92.2619 131.158 91.1846 132.533 90.1871 133.969C92.8205 142.661 97.8676 149.001 99.6431 150.676C101.758 152.67 104.112 155.142 104.112 155.142L112.929 147.267C112.929 147.267 105.409 134.946 103.872 127.529C103.613 126.273 103.513 125.017 103.533 123.781Z" fill="#7198B5"/>
<path d="M105.309 131.756C105.568 134.587 106.785 137.278 108.122 139.79C108.86 141.166 109.658 142.522 110.496 143.818C111.254 144.994 111.992 146.33 112.949 147.367C113.089 147.526 113.328 147.327 113.229 147.147C112.59 145.951 111.673 144.855 110.935 143.718C110.117 142.442 109.339 141.146 108.62 139.81C107.264 137.258 106.127 134.567 105.488 131.756C105.468 131.656 105.289 131.676 105.309 131.776V131.756Z" fill="#A2CB9C"/>
<path d="M104.331 155.322C105.848 153.707 107.603 152.351 109.299 150.935C110.017 150.337 110.695 149.699 111.394 149.081C111.733 148.782 112.072 148.483 112.431 148.204C112.71 147.985 113.189 147.745 113.329 147.426C113.388 147.307 113.329 147.107 113.169 147.127C112.83 147.167 112.531 147.486 112.271 147.686C111.932 147.965 111.613 148.264 111.274 148.563C110.556 149.221 109.837 149.899 109.119 150.577C107.483 152.112 105.688 153.487 104.172 155.162C104.072 155.262 104.232 155.421 104.331 155.322Z" fill="#B0683F"/>
<path d="M106.067 157.156C107.364 155.601 108.84 154.245 110.396 152.949C111.154 152.311 111.932 151.673 112.67 151.015C113.049 150.696 113.408 150.357 113.768 150.018C114.107 149.699 114.526 149.36 114.765 148.962C114.865 148.782 114.645 148.543 114.466 148.663C114.087 148.942 113.768 149.34 113.428 149.679C113.069 150.018 112.71 150.357 112.331 150.676C111.573 151.354 110.775 151.992 109.997 152.65C108.481 153.946 106.925 155.282 105.788 156.937C105.668 157.116 105.947 157.315 106.087 157.156H106.067Z" fill="#B0683F"/>
<path d="M49.8098 199.822C49.8098 199.822 47.4758 207.099 47.4758 210.748C47.4758 214.396 47.1366 214.755 52.2237 215.872C57.3108 216.988 62.7171 217.865 66.4676 217.167C70.1981 216.45 70.4974 214.556 68.682 213.22C66.8666 211.864 62.4977 210.488 61.2807 209.232C60.0638 207.976 60.9616 203.092 61.2807 202.254C61.5999 201.417 53.7 197.21 49.7899 199.822H49.8098Z" fill="#423227"/>
<path d="M21.5414 201.058C21.5414 201.058 18.509 208.076 18.15 211.705C17.7909 215.333 17.4318 215.652 22.3792 217.267C27.3267 218.882 32.6332 220.278 36.4236 219.939C40.214 219.6 40.6928 217.746 39.017 216.23C37.3413 214.715 33.132 212.921 32.0547 211.545C30.9575 210.189 32.334 205.404 32.733 204.607C33.132 203.809 25.6908 198.865 21.5414 201.058Z" fill="#423227"/>
<path d="M24.0551 142.362C24.0551 142.362 23.4766 145.293 23.5764 152.69C23.6761 160.087 23.337 172.887 21.8208 182.516C20.2847 192.146 17.8309 205.883 17.8309 205.883C17.8309 205.883 20.3047 207.877 26.1698 208.355C32.0549 208.834 33.4513 208.236 33.4513 208.236C33.4513 208.236 39.6755 190.272 42.7278 179.466C45.78 168.66 47.6553 156.339 48.8323 157.276C50.0093 158.213 50.7075 169.836 49.6502 182.297C48.5929 194.738 46.7177 206.84 46.7177 206.84C46.7177 206.84 49.5305 207.897 55.7747 207.777C62.0189 207.657 62.5974 206.481 62.5974 206.481C62.5974 206.481 67.884 192.744 69.7592 175.598C71.6345 158.452 70.238 139.073 70.238 139.073C70.238 139.073 55.6749 133.55 45.8 135.544C35.925 137.538 24.0551 142.362 24.0551 142.362Z" fill="#445F8E"/>
<path d="M26.0501 84.8033C26.0501 84.8033 35.2068 80.2177 44.6229 80.2177C54.0391 80.2177 60.4827 80.6962 62.1385 81.394C63.7744 82.0918 70.3577 96.666 72.2529 109.107C74.1281 121.548 72.9511 132.234 72.2529 137.298C71.5546 142.343 71.0758 143.878 71.0758 143.878C71.0758 143.878 63.1958 148.224 47.9345 147.646C32.6533 147.068 23.3768 143.419 23.3768 143.419C23.3768 143.419 26.1897 129.084 27.247 120.631C28.3043 112.177 28.0649 106.415 27.7258 99.9557C27.3867 93.496 26.09 84.8033 26.09 84.8033H26.0501Z" fill="#F6DEBE"/>
<path d="M23.4167 125.156C23.4167 125.156 28.3642 124.997 30.8778 129.164C33.3914 133.311 31.9152 137.159 29.1821 139.232C26.449 141.306 21.2821 140.628 20.8433 138.973C20.4044 137.318 21.3619 136.162 20.8034 134.627C20.2448 133.092 18.0304 131.536 18.0304 131.536C18.0304 131.536 19.3271 124.279 23.4167 125.156Z" fill="#E9A17A"/>
<path d="M28.7432 103.126C28.7432 103.126 16.973 110.004 15.7561 116.045C15.3372 118.139 17.6314 121.169 19.8856 122.624C21.9803 123.98 23.7359 124.798 23.7359 124.798C23.7359 124.798 24.474 127.629 22.5788 131.377C20.6637 135.125 19.6861 135.903 19.6861 135.903C19.6861 135.903 6.95843 132.693 2.33017 124.16C-2.29809 115.626 0.195585 104.123 7.79631 96.9451C15.417 89.7677 24.8131 84.2849 34.4886 81.9722C37.5608 81.2345 34.1295 87.9534 33.6108 92.8779C33.0921 97.8024 28.7631 103.106 28.7631 103.106L28.7432 103.126Z" fill="#F6DEBE"/>
<path d="M119.393 101.929C118.575 102.268 118.037 102.468 118.037 102.468C118.037 102.468 118.755 102.368 119.493 102.428C120.191 102.488 120.929 102.667 121.009 103.225C121.129 103.943 120.55 104.501 120.012 104.86C119.613 105.119 119.254 105.259 119.254 105.259C119.254 105.259 119.713 105.159 120.211 105.259C120.69 105.319 121.189 105.558 121.269 106.236C121.348 106.974 120.73 107.472 120.132 107.751C119.653 108.01 119.194 108.11 119.194 108.11C119.194 108.11 119.533 108.05 119.872 108.15C120.251 108.25 120.61 108.569 120.431 109.426C120.251 110.243 119.274 110.822 118.017 111.2C118.017 111.2 117.997 111.2 117.977 111.2C117.558 111.34 117.079 111.44 116.62 111.539C115.703 111.719 114.745 111.818 113.887 111.838C111.314 111.958 106.706 111.779 106.706 111.779C106.706 111.779 101.239 108.369 105.888 102.966C105.888 102.966 108.72 102.328 109.838 100.953C110.955 99.5769 112.331 97.8623 114.246 98.1214C115.084 98.2411 115.603 98.5601 115.922 98.8791C116.321 99.2977 116.401 99.7164 116.401 99.7164C116.401 99.7164 116.521 99.6566 116.72 99.5769C118.276 98.9189 124.939 96.2075 125.657 97.6031C126.256 98.7794 121.767 100.873 119.413 101.85L119.393 101.929Z" fill="#E9A17A"/>
<g style="mix-blend-mode:multiply">
<path d="M120.112 107.751C119.633 108.01 119.174 108.11 119.174 108.11C119.174 108.11 118.057 108.23 116.82 108.648C116.461 108.768 116.102 108.927 115.802 109.187C115.503 109.426 115.324 109.765 115.344 110.144C115.344 110.502 115.583 110.762 115.902 110.921C116.301 111.14 116.78 111.22 117.239 111.24C117.478 111.24 117.718 111.24 117.957 111.2C117.538 111.34 117.059 111.44 116.6 111.539C116.361 111.479 116.122 111.42 115.882 111.32C115.324 111.101 114.885 110.662 114.945 110.024C114.985 109.306 115.483 108.848 116.062 108.509C116.122 108.469 116.182 108.449 116.241 108.429C116.142 108.429 116.062 108.429 115.982 108.429C115.583 108.369 115.164 108.27 114.885 107.97C114.546 107.612 114.526 107.133 114.685 106.694C113.967 106.336 113.548 105.678 113.309 104.9C113.149 104.442 113.069 103.943 113.01 103.445C112.97 103.066 112.93 102.627 113.089 102.268C113.129 102.189 113.269 102.209 113.289 102.288C113.349 102.687 113.329 103.106 113.389 103.524C113.448 103.983 113.588 104.422 113.748 104.86C114.027 105.618 114.566 106.415 115.443 106.515C116.341 106.635 116.9 105.817 117.019 105.04C117.179 103.943 116.9 102.827 116.68 101.77C116.481 100.793 116.241 99.836 115.922 98.8989C116.321 99.3176 116.401 99.7363 116.401 99.7363C116.401 99.7363 117.159 101.252 117.299 102.089C117.478 102.049 117.658 102.009 117.817 101.989C118.236 101.929 118.675 101.87 119.114 101.87C119.214 101.87 119.314 101.87 119.413 101.87C118.595 102.209 118.057 102.408 118.057 102.408C118.057 102.408 118.097 102.468 117.658 102.528C117.578 102.528 117.478 102.547 117.378 102.567C117.518 103.385 117.658 104.282 117.498 105.099C118.176 104.96 118.855 104.86 119.553 104.8C119.693 104.8 119.872 104.8 120.032 104.78C119.633 105.04 119.274 105.179 119.274 105.179C119.274 105.179 118.037 105.438 117.339 105.598C117.279 105.718 117.219 105.837 117.159 105.957C116.72 106.694 115.882 107.053 115.044 106.794C114.865 107.173 114.865 107.592 115.244 107.851C115.583 108.09 116.062 108.15 116.461 108.17C116.521 108.17 116.581 108.17 116.64 108.17C117.219 107.931 117.877 107.811 118.496 107.731C119.034 107.671 119.593 107.612 120.131 107.651L120.112 107.751Z" fill="#D1B6A7"/>
</g>
<path d="M106.207 113.473C106.207 113.473 101.499 118.059 88.2124 116.185C82.2275 115.347 77.2801 112.736 73.6692 110.144C73.1506 109.785 72.6718 109.406 72.2129 109.047C68.7218 106.296 66.8266 103.843 66.8266 103.843C66.8266 103.843 61.7794 96.686 60.4827 91.2829C59.186 85.8799 59.4254 80.9554 59.4254 80.9554C59.4254 80.9554 65.4102 80.8357 71.6544 85.0625C77.8786 89.2892 84.2225 96.686 91.3843 99.5171C98.5461 102.328 105.129 100.813 105.129 100.813C105.129 100.813 105.828 102.926 106.067 106.675C106.306 110.443 106.187 113.493 106.187 113.493L106.207 113.473Z" fill="#F6DEBE"/>
<path d="M72.8115 106.535C72.3127 104.402 71.6544 102.328 70.9362 100.255C70.4774 98.9388 69.9986 97.623 69.4799 96.3271C69.2006 95.6492 68.9413 94.9514 68.6421 94.2934C68.3628 93.6953 68.1034 92.7981 67.465 92.519C67.3653 92.4791 67.2456 92.4592 67.1658 92.519C67.106 92.5788 67.106 92.6586 67.106 92.7383C67.1259 93.4162 67.5448 93.8947 67.8042 94.4928C68.1234 95.1507 68.3628 95.8685 68.6421 96.5464C69.1807 97.922 69.6994 99.2977 70.1383 100.713C70.7567 102.667 71.2554 104.681 71.7143 106.675C71.8938 107.452 72.0734 108.25 72.233 109.047C72.6918 109.406 73.1706 109.765 73.6893 110.144C73.4499 108.927 73.0908 107.691 72.8314 106.555L72.8115 106.535Z" fill="#BA917A"/>
<path d="M37.3414 77.247L37.9599 90.1664C37.9599 90.1664 41.85 95.7489 47.755 94.5327C53.66 93.2966 54.1588 90.0468 54.1588 90.0468L52.5429 74.3561C52.5429 74.3561 45.5805 79.46 37.3614 77.247H37.3414Z" fill="#E9A17A"/>
<g style="mix-blend-mode:multiply">
<path d="M39.0171 84.2251C42.4285 85.1821 46.0194 86.0992 49.5903 85.6805C50.9868 85.521 52.3433 85.1222 53.5802 84.4444L52.5428 74.3561C52.5428 74.3561 45.5805 79.46 37.3613 77.247L37.6805 83.8064C38.1394 83.9459 38.5982 84.0855 39.057 84.2051L39.0171 84.2251Z" fill="#D1B6A7"/>
</g>
<path d="M75.5446 48.916C75.5446 48.916 81.2501 45.1877 82.9657 47.9391C84.6814 50.6705 84.2225 53.9602 80.2526 56.253C76.2827 58.5458 73.39 57.6685 73.39 57.6685L75.5446 48.916Z" fill="#E9A17A"/>
<path d="M14.9581 34.581C12.0455 44.8288 9.472 68.2353 30.9176 78.7623C52.3632 89.3091 68.3227 74.2564 75.0257 58.4062C82.0679 41.6787 76.1429 18.5115 71.754 16.8567C48.9519 8.30358 20.9429 13.5471 14.978 34.581H14.9581Z" fill="#E9A17A"/>
<path d="M47.1566 49.4742C47.1566 49.4742 47.2164 49.3945 47.1566 49.3945C47.0967 49.3945 47.0967 49.4742 47.1566 49.4742Z" fill="#423227"/>
<g style="mix-blend-mode:multiply">
<path d="M46.3186 46.6032C46.7375 47.6001 46.558 48.8163 46.538 49.853C46.538 50.9895 46.4582 52.2256 46.8772 53.3022C47.2762 54.319 48.2138 54.7576 49.2711 54.6579C50.3683 54.5782 52.3234 53.7209 52.064 55.6149C51.9244 56.6716 51.3857 57.5488 50.4481 58.0872C49.9893 58.3663 49.4506 58.5258 48.932 58.5657C48.4532 58.6055 47.9145 58.466 47.4557 58.6454C47.2762 58.7252 47.1565 58.9644 47.2961 59.1239C47.8547 59.8616 49.0916 59.6622 49.8696 59.4628C50.7873 59.2037 51.6451 58.6454 52.2037 57.8878C52.9418 56.9109 53.7597 54.319 52.1638 53.6411C51.5054 53.362 50.7274 53.4617 50.0491 53.6212C49.5105 53.7408 48.7923 54 48.3135 53.5614C47.5555 52.8436 47.6751 51.3284 47.6751 50.3714C47.6751 48.9758 47.7948 47.4406 47.1166 46.1646C46.8772 45.706 46.0792 46.1048 46.2986 46.5833L46.3186 46.6032Z" fill="#D1B6A7"/>
</g>
<path d="M39.0969 62.6529C39.0969 62.6529 42.4883 64.3874 49.1913 64.4871C54.6375 64.5669 57.3905 62.7924 57.3905 62.7924C57.3905 62.7924 58.388 71.8241 49.2113 72.781C40.0146 73.758 39.0969 62.6529 39.0969 62.6529Z" fill="#423227"/>
<path d="M45.0616 65.5437C47.2361 66.7799 50.1487 66.9792 52.5427 66.3811C53.6598 66.102 54.8169 65.6036 55.575 64.7263C55.9341 64.3276 56.1934 63.8491 56.3131 63.3108C55.0563 63.8291 52.6624 64.5469 49.1712 64.4871C46.8571 64.4472 44.9419 64.2279 43.4258 63.9288C43.7849 64.6067 44.3834 65.145 45.0616 65.5238V65.5437Z" fill="white"/>
<path d="M47.1165 72.0832C46.8771 71.0464 46.3185 70.0894 45.5604 69.3717C44.8223 68.6739 43.8847 68.1755 42.8473 68.0359C42.1491 67.9561 41.4708 68.0558 40.8324 68.315C42.0094 70.4683 43.9844 72.4819 47.2362 72.8009C47.2162 72.5617 47.1763 72.3224 47.1165 72.0832Z" fill="#CE5456"/>
<path d="M34.9076 43.7124C34.1895 43.4133 33.4314 43.174 32.6733 43.174C31.8953 43.174 31.1372 43.4332 30.439 43.7522C28.0251 44.8687 26.1099 46.9821 25.2322 49.4942C24.9728 50.2319 24.7933 51.0294 24.8332 51.8269C24.8531 52.744 25.1524 53.6212 25.5713 54.4387C27.1673 57.4691 30.8579 59.3034 34.2094 58.6056C37.3814 57.9476 40.274 54.6978 40.4935 51.4281C40.7129 48.2381 37.6407 44.9086 34.9276 43.7323L34.9076 43.7124Z" fill="white"/>
<path d="M64.4725 42.5161C63.7543 42.217 62.9962 41.9778 62.2381 41.9778C61.4601 41.9778 60.702 42.237 60.0038 42.556C57.5899 43.6725 55.6748 45.7858 54.797 48.2979C54.5377 49.0356 54.3581 49.8331 54.398 50.6306C54.418 51.5477 54.7172 52.425 55.1361 53.2424C56.7321 56.2729 60.4227 58.1071 63.7742 57.4093C66.9462 56.7514 69.8388 53.5016 70.0583 50.2319C70.2777 47.0419 67.2055 43.7124 64.4924 42.536L64.4725 42.5161Z" fill="white"/>
<path d="M15.8359 55.9539C15.8359 55.9539 12.3248 51.5876 8.35485 53.8804C4.38492 56.1732 5.50209 62.0149 11.4071 63.1314C17.3121 64.2478 18.0702 59.423 18.0702 59.423L15.8359 55.934V55.9539Z" fill="#E9A17A"/>
<path d="M69.2803 26.1874C69.2803 26.1874 73.6891 31.6901 75.0456 38.0501C76.4022 44.4101 76.8211 50.0723 76.8211 50.0723C76.8211 50.0723 81.4295 45.0681 82.0678 38.3292C82.6663 32.1885 79.8136 24.9911 74.7464 23.6952C69.6793 22.3993 69.2803 26.1874 69.2803 26.1874Z" fill="#B0683F"/>
<path d="M68.5223 38.5286C68.0435 36.1959 65.3304 34.9598 63.136 35.1193C62.8168 35.1393 62.5175 35.1791 62.2183 35.2589C62.0587 35.2988 61.8792 35.3586 61.7196 35.4583C61.7196 35.4583 61.7196 35.4583 61.6996 35.4583C61.3804 35.6776 61.4203 35.6776 61.7794 35.4583C61.6597 35.4981 61.54 35.5579 61.4203 35.5978C60.9615 35.8371 60.7221 36.3953 60.9814 36.8738C61.1211 37.1131 61.3405 37.2726 61.5999 37.3523C61.6797 37.3722 61.8393 37.3922 61.939 37.3922C62.2383 37.3922 61.6597 37.2526 61.7196 37.3324C61.8792 37.5118 62.2183 37.4919 62.4377 37.5118C62.6971 37.5317 62.1585 37.4719 62.3978 37.5118C62.5375 37.5118 62.6572 37.5517 62.7968 37.5716C62.9165 37.5716 63.0362 37.5716 63.1559 37.5916C63.1958 37.5916 63.2557 37.5916 63.2956 37.5916C62.9564 37.5916 63.136 37.5716 63.2557 37.5916C63.3953 37.6115 63.5549 37.6314 63.7145 37.6514C63.8941 37.6912 63.3754 37.5916 63.6347 37.6514C63.7544 37.6713 63.8542 37.6912 63.9739 37.7112C64.2332 37.771 64.4925 37.8308 64.7519 37.8906C64.8716 37.9305 64.9913 37.9504 65.111 37.9903C65.1708 37.9903 65.2307 38.0302 65.2905 38.0501C65.3304 38.0501 65.3504 38.07 65.3903 38.09C65.51 38.1299 65.49 38.1299 65.2905 38.0501C65.49 38.1897 65.7493 38.2894 65.9688 38.409C66.0286 38.4489 66.2082 38.6283 66.288 38.6283C66.1683 38.6283 66.1284 38.4887 66.2481 38.6283C66.3079 38.6682 66.3478 38.728 66.4077 38.7679C66.5074 38.8675 66.5872 38.9473 66.667 39.047C66.7069 39.0869 66.7269 39.1267 66.7668 39.1467C66.5872 38.9473 66.7867 39.1865 66.8266 39.2464C67.4051 40.1435 68.7418 39.5654 68.5223 38.5286Z" fill="#B0683F"/>
<path d="M32.2343 37.6514C32.1146 37.5716 31.9949 37.4719 31.8553 37.4121C31.7555 37.3523 31.6358 37.3124 31.5361 37.2726C31.3566 37.1928 31.6558 37.3523 31.4762 37.2327C31.1172 36.9934 30.5187 36.9735 30.0798 37.0333C29.3018 37.133 28.5437 37.4321 27.8854 37.8906C27.1672 38.409 26.5687 38.9672 26.07 39.7049C25.9902 39.8445 25.9104 39.9841 25.8306 40.1236C25.7308 40.3429 25.6111 40.6021 25.6111 40.8613C25.651 40.642 25.671 40.6021 25.6111 40.7417C25.6111 40.7616 25.6111 40.7815 25.5912 40.8214C25.5513 40.941 25.5712 41.2401 25.5114 41.2999C25.5114 41.3797 25.5114 41.3398 25.5313 41.1803C25.5313 41.2202 25.5313 41.26 25.5313 41.28C25.5114 41.5591 25.4715 41.7784 25.5513 42.0376C25.671 42.4364 26.1099 42.6955 26.5288 42.5959C26.8081 42.5161 27.0475 42.3566 27.3068 42.217C27.3866 42.1772 27.5662 42.0177 27.6659 41.9379C27.247 42.1572 27.1672 42.217 27.4465 42.0775C27.6061 42.0177 27.7457 41.9379 27.8654 41.7984C27.9652 41.7186 28.0649 41.6189 28.1646 41.5192C28.6235 41.1005 29.0424 40.6221 29.5013 40.2034C29.5611 40.1635 29.601 40.1037 29.6609 40.0638C29.7008 40.0439 29.7207 40.004 29.7606 39.9841C29.8404 39.9242 29.8005 39.9442 29.6409 40.0837C29.7008 40.0638 29.7606 40.004 29.8005 39.9641C29.9002 39.8844 30.0199 39.8046 30.1197 39.7249C30.1995 39.6451 30.1995 39.6651 30.1197 39.7249C29.9202 39.8445 30.1197 39.7249 30.1795 39.685C30.2394 39.6451 30.3192 39.5853 30.379 39.5454C30.4987 39.4657 30.6184 39.4059 30.7581 39.3261C31.0174 39.1866 31.3167 39.047 31.5361 38.8676C31.8752 38.6084 31.4563 38.8676 31.4563 38.8676C31.4563 38.8676 31.6558 38.8077 31.6757 38.8077C31.8154 38.7679 31.955 38.728 32.0947 38.6881C32.6333 38.5685 32.5934 37.9106 32.2343 37.6314V37.6514Z" fill="#B0683F"/>
<path d="M12.9233 56.851C12.9233 56.851 17.1327 51.7072 20.5041 43.3534C23.8756 34.9997 23.8157 26.9649 23.8157 26.9649C23.8157 26.9649 30.4788 36.5947 38.4586 34.4215C46.4383 32.2483 39.8949 25.2104 39.8949 25.2104C39.8949 25.2104 45.6803 31.9493 51.0467 30.7331C56.433 29.5169 50.8073 23.6154 50.8073 23.6154C50.8073 23.6154 64.4127 33.943 75.9834 28.9188C87.554 23.9145 86.2573 12.2511 70.7567 5.91105C55.256 -0.42904 46.5979 9.47984 46.5979 9.47984C46.5979 9.47984 46.977 -0.0901043 40.0346 0.986514C33.0722 2.06313 29.1023 11.9122 29.1023 11.9122C29.1023 11.9122 28.6834 4.91418 24.7932 7.54591C20.9031 10.1776 23.1574 19.4485 23.1574 19.4485C23.1574 19.4485 17.4519 9.83871 7.8163 18.1127C-1.81926 26.3867 2.19057 39.047 4.7441 44.1908C7.29762 49.3346 12.9233 56.851 12.9233 56.851Z" fill="#B0683F"/>
<path d="M36.9823 44.9684C35.8651 44.8488 34.728 44.9684 33.7106 45.4668C30.6185 47.0219 29.9003 51.6474 31.6558 54.4187C32.5536 55.8343 33.9899 56.8311 35.5659 57.3894C35.8652 57.4891 36.1843 57.5888 36.5035 57.6486C38.6581 56.3128 40.3338 53.8605 40.4934 51.4082C40.653 49.0356 38.9773 46.5634 36.9823 44.9684Z" fill="#423227"/>
<path d="M65.2707 42.9148C64.4328 42.9148 63.6149 43.0544 62.8169 43.3734C61.1013 44.0712 59.9841 45.5665 59.4056 47.2612C58.7472 49.1752 58.827 51.0692 59.8444 52.8436C60.822 54.5383 62.398 55.8941 64.1535 56.7912C64.353 56.8909 64.5724 56.9906 64.7919 57.0903C67.5449 56.0336 69.8391 53.1427 70.0386 50.2119C70.2381 47.3409 67.7444 44.3304 65.2707 42.9148Z" fill="#423227"/>
<path d="M36.5035 51.0094C38.259 51.3484 38.7777 48.6369 37.0222 48.2979C35.2666 47.959 34.7479 50.6705 36.5035 51.0094Z" fill="white"/>
<path d="M66.1284 49.2549C67.8839 49.5939 68.4026 46.8824 66.6471 46.5435C64.8915 46.2045 64.3728 48.916 66.1284 49.2549Z" fill="white"/>
<path d="M289.442 136.301C288.943 137.238 288.305 138.136 287.347 138.574C286.11 139.152 284.554 138.754 283.557 137.817C282.559 136.88 282.081 135.484 282.041 134.108C282.001 132.733 282.38 131.397 282.859 130.101C283.417 128.626 284.255 127.09 285.731 126.512C288.065 125.615 290.3 127.489 291.018 129.602C291.756 131.776 290.479 134.368 289.462 136.281L289.442 136.301Z" fill="#E9A17A"/>
<path d="M272.684 80.6762C272.684 80.6762 288.085 81.0351 299.836 93.5956C311.067 105.618 306.878 119.434 301.711 126.472C296.544 133.51 290.2 135.863 290.2 135.863C290.2 135.863 287.607 133.052 285.731 129.762C283.856 126.472 285.253 124.598 285.253 124.598C285.253 124.598 288.305 124.359 290.898 120.132C293.492 115.906 292.893 108.15 289.841 105.578C286.789 102.986 283.956 101.591 283.956 101.591L272.684 80.6762Z" fill="#CE5456"/>
<path d="M243.698 103.126C243.698 103.126 231.928 110.004 230.711 116.045C230.292 118.138 232.586 121.169 234.84 122.624C236.935 123.98 238.691 124.798 238.691 124.798C238.691 124.798 239.429 127.629 237.534 131.377C235.619 135.125 234.641 135.903 234.641 135.903C234.641 135.903 221.913 132.693 217.285 124.16C212.657 115.626 215.15 104.122 222.751 96.945C230.372 89.7676 239.768 84.2848 249.443 81.9721C252.516 81.2344 249.084 87.9533 248.566 92.8778C248.047 97.8024 243.718 103.106 243.718 103.106L243.698 103.126Z" fill="#CE5456"/>
<path d="M264.785 199.822C264.785 199.822 262.45 207.099 262.45 210.748C262.45 214.396 262.111 214.755 267.198 215.871C272.286 216.988 277.692 217.865 281.442 217.167C285.193 216.47 285.472 214.556 283.657 213.22C281.841 211.864 277.472 210.488 276.255 209.232C275.039 207.976 275.936 203.092 276.255 202.254C276.575 201.417 268.675 197.21 264.765 199.822H264.785Z" fill="#CE5456"/>
<path d="M236.516 201.058C236.516 201.058 233.484 208.076 233.125 211.705C232.766 215.333 232.407 215.652 237.354 217.267C242.301 218.882 247.608 220.278 251.398 219.939C255.189 219.6 255.668 217.746 253.992 216.23C252.316 214.715 248.107 212.921 247.029 211.545C245.932 210.189 247.309 205.404 247.708 204.607C248.107 203.809 240.666 198.865 236.516 201.058Z" fill="#CE5456"/>
<path d="M284.893 174.023C284.834 174.541 284.794 175.08 284.734 175.598C284.255 179.944 283.557 184.091 282.779 187.82C280.505 198.825 277.552 206.481 277.552 206.481C277.552 206.481 276.974 207.657 270.729 207.777C264.505 207.897 261.672 206.84 261.672 206.84C261.672 206.84 263.548 194.738 264.605 182.297C265.662 169.856 264.964 158.213 263.787 157.276C262.69 156.398 260.954 167.204 258.221 177.452C258.042 178.13 257.862 178.808 257.663 179.466C257.024 181.779 256.206 184.41 255.368 187.122C252.236 197.13 248.386 208.235 248.386 208.235C248.386 208.235 246.97 208.814 241.105 208.355C235.219 207.897 232.746 205.883 232.746 205.883C232.746 205.883 235.219 192.146 236.736 182.516C238.272 172.886 238.611 160.087 238.491 152.69C238.371 145.293 238.95 142.362 238.95 142.362C238.95 142.362 250.82 137.557 260.695 135.544C270.57 133.55 285.133 139.073 285.133 139.073C285.133 139.073 286.469 157.295 284.834 174.043L284.893 174.023Z" fill="#423227"/>
<path d="M287.188 109.127C285.312 96.6859 278.729 82.1116 277.073 81.4138C275.876 80.8955 272.066 80.5166 266.42 80.3372C266.42 80.3372 266.42 80.3372 266.4 80.3372C265.722 80.3173 265.024 80.2973 264.306 80.2774C264.266 80.2774 264.226 80.2774 264.186 80.2774C263.567 80.2774 262.909 80.2575 262.251 80.2575C262.091 80.2575 261.932 80.2575 261.752 80.2575C261.034 80.2575 260.316 80.2575 259.558 80.2575C258.919 80.2575 258.301 80.2774 257.662 80.3173C257.623 80.3173 257.563 80.3173 257.523 80.3173C256.944 80.3571 256.366 80.417 255.787 80.4768C255.727 80.4768 255.668 80.4768 255.588 80.4967C255.029 80.5565 254.471 80.6562 253.912 80.736C253.852 80.736 253.792 80.736 253.732 80.7559C253.174 80.8556 252.595 80.9553 252.057 81.0749C252.037 81.0749 251.997 81.0749 251.977 81.0749C250.82 81.3341 249.703 81.6132 248.645 81.9123C248.645 81.9123 248.605 81.9123 248.585 81.9123C248.087 82.0518 247.588 82.2113 247.109 82.3708C247.109 82.3708 247.069 82.3708 247.049 82.3708C243.399 83.5471 240.965 84.7633 240.965 84.7633C240.965 84.7633 242.262 93.456 242.601 99.9157C242.96 106.375 243.179 112.137 242.122 120.591C241.065 129.044 238.252 143.379 238.252 143.379C238.252 143.379 247.528 147.028 262.809 147.606C278.091 148.184 285.951 143.838 285.951 143.838C285.951 143.838 286.43 142.303 287.128 137.258C287.826 132.214 289.003 121.528 287.128 109.067L287.188 109.127Z" fill="#F6DEBE"/>
<path d="M242.86 104.202C244.676 99.5968 247.05 95.1906 249.822 91.1034C252.476 87.1758 255.528 83.5073 258.959 80.2376C258.54 80.2376 258.101 80.2376 257.683 80.2774C257.643 80.2774 257.583 80.2774 257.543 80.2774C256.964 80.3173 256.386 80.3771 255.807 80.4369C255.747 80.4369 255.688 80.4369 255.608 80.4569C255.049 80.5167 254.491 80.6164 253.932 80.6961C253.872 80.6961 253.812 80.6961 253.753 80.7161C253.194 80.8158 252.615 80.9154 252.077 81.0351C252.057 81.0351 252.017 81.0351 251.997 81.0351C250.84 81.2942 249.723 81.5734 248.665 81.8724C248.665 81.8724 248.626 81.8724 248.606 81.8724C248.107 82.012 247.608 82.1715 247.129 82.331C247.129 82.331 247.089 82.331 247.069 82.331C243.419 83.5073 240.985 84.7235 240.985 84.7235C240.985 84.7235 236.835 92.0006 237.314 96.2074C237.594 98.6198 242.78 102.707 242.84 104.123L242.86 104.202Z" fill="#CE5456"/>
<path d="M260.974 80.5964C263.807 81.8524 266.54 83.3278 269.153 85.0026C274.041 88.1327 278.55 91.9408 282.26 96.4267C283.397 97.8023 284.435 99.2378 285.372 100.733C287.527 91.1433 278.39 81.9521 277.093 81.4138C275.896 80.8955 272.086 80.5166 266.44 80.3372C266.44 80.3372 266.44 80.3372 266.42 80.3372C265.742 80.3173 265.044 80.2973 264.326 80.2774C264.286 80.2774 264.246 80.2774 264.206 80.2774C263.587 80.2774 262.929 80.2575 262.271 80.2575C262.111 80.2575 261.952 80.2575 261.772 80.2575C261.493 80.2575 261.174 80.2575 260.894 80.2575C260.914 80.3771 260.934 80.4967 260.954 80.6163L260.974 80.5964Z" fill="#CE5456"/>
<path d="M238.371 125.156C238.371 125.156 243.319 124.997 245.833 129.164C248.346 133.311 246.87 137.159 244.137 139.232C241.404 141.306 236.237 140.628 235.798 138.973C235.359 137.318 236.317 136.162 235.758 134.627C235.199 133.091 232.985 131.536 232.985 131.536C232.985 131.536 234.282 124.279 238.371 125.156Z" fill="#E9A17A"/>
<path d="M223.03 114.809C225.564 114.769 228.277 115.028 230.791 115.766C230.771 115.846 230.751 115.945 230.731 116.025C230.312 118.119 232.606 121.149 234.86 122.604C236.955 123.96 238.711 124.778 238.711 124.778C238.711 124.778 239.449 127.609 237.554 131.357C235.638 135.105 234.661 135.883 234.661 135.883C234.661 135.883 221.933 132.673 217.305 124.14C215.948 121.628 215.21 118.856 215.031 116.005C217.644 115.208 220.377 114.809 223.05 114.769L223.03 114.809Z" fill="#CE5456"/>
<path d="M253.533 75.7117L254.152 88.651C254.152 88.651 258.042 94.2335 263.947 93.0173C269.852 91.8011 270.35 88.5314 270.35 88.5314L268.735 72.8407C268.735 72.8407 261.772 77.9446 253.553 75.7316L253.533 75.7117Z" fill="#E9A17A"/>
<g style="mix-blend-mode:multiply">
<path d="M255.209 82.6698C258.62 83.6268 262.211 84.524 265.782 84.1252C267.178 83.9657 268.535 83.567 269.772 82.8891L268.734 72.8008C268.734 72.8008 261.772 77.9048 253.553 75.6917L253.872 82.2511C254.331 82.3907 254.79 82.5303 255.249 82.6499L255.209 82.6698Z" fill="#D1B6A7"/>
</g>
<path d="M288.165 41.4194C288.165 41.4194 292.993 36.6145 295.227 38.9472C297.481 41.2799 297.681 44.5895 294.27 47.6399C290.838 50.6903 287.846 50.4311 287.846 50.4311L288.185 41.4394L288.165 41.4194Z" fill="#E9A17A"/>
<path d="M225.923 39.7248C225.165 50.3514 227.419 73.7978 250.56 79.7391C273.702 85.6804 286.27 67.6969 289.581 50.81C293.073 33.0059 282.519 11.5333 277.891 10.8156C253.832 7.10724 227.479 17.9332 225.923 39.7447V39.7248Z" fill="#E9A17A"/>
<path d="M260.475 47.7396C260.475 47.7396 260.535 47.6598 260.475 47.6598C260.415 47.6598 260.415 47.7396 260.475 47.7396Z" fill="#423227"/>
<g style="mix-blend-mode:multiply">
<path d="M259.079 45.1278C259.697 46.005 259.757 47.2412 259.957 48.258C260.176 49.3745 260.376 50.5906 260.994 51.5676C261.592 52.4847 262.59 52.704 263.607 52.4249C264.665 52.1258 266.4 50.8897 266.52 52.7838C266.6 53.8404 266.241 54.8174 265.443 55.5351C265.044 55.894 264.565 56.1731 264.046 56.3127C263.587 56.4522 263.029 56.4323 262.63 56.6915C262.47 56.8111 262.41 57.0504 262.57 57.1899C263.268 57.788 264.445 57.3494 265.163 56.9905C266.001 56.5519 266.739 55.8342 267.138 54.9769C267.657 53.8604 267.936 51.1688 266.241 50.8299C265.542 50.6903 264.784 50.9495 264.166 51.2286C263.667 51.4479 263.009 51.8666 262.47 51.5277C261.572 50.9695 261.393 49.4741 261.193 48.5371C260.914 47.1614 260.715 45.6462 259.777 44.5297C259.438 44.1309 258.76 44.6692 259.059 45.1079L259.079 45.1278Z" fill="#D1B6A7"/>
</g>
<path d="M248.506 44.4898C247.748 44.3303 246.97 44.2705 246.212 44.43C245.453 44.5895 244.755 44.9883 244.137 45.4468C242.002 47.0219 240.546 49.4941 240.207 52.1258C240.107 52.9034 240.087 53.7208 240.287 54.4784C240.506 55.3557 240.965 56.1731 241.543 56.8709C243.718 59.5226 247.708 60.5593 250.86 59.1837C253.832 57.8877 256.007 54.1196 255.548 50.8698C255.109 47.7197 251.418 45.068 248.526 44.4699L248.506 44.4898Z" fill="white"/>
<path d="M247.528 59.7818C247.728 59.6422 247.947 59.4827 248.147 59.3232C249.563 58.1868 250.86 56.6915 251.299 54.8971C251.777 52.9632 250.959 50.9495 249.523 49.6336C248.266 48.4972 246.291 48.0985 244.636 48.0586C243.558 48.0586 242.341 48.1981 241.344 48.6966C240.765 49.7533 240.366 50.9096 240.207 52.1059C240.107 52.8834 240.087 53.7009 240.287 54.4585C240.506 55.3357 240.965 56.1532 241.543 56.851C243 58.6254 245.254 59.6621 247.528 59.7419V59.7818Z" fill="#423227"/>
<path d="M276.036 37.412C275.278 37.2525 274.5 37.1927 273.742 37.3522C272.984 37.5117 272.286 37.9104 271.667 38.369C269.533 39.944 268.076 42.4163 267.737 45.048C267.637 45.8255 267.617 46.643 267.817 47.4006C268.036 48.2778 268.495 49.0953 269.074 49.7931C271.248 52.4448 275.238 53.4815 278.39 52.1058C281.363 50.8099 283.537 47.0417 283.078 43.7919C282.639 40.6418 278.949 37.9902 276.056 37.392L276.036 37.412Z" fill="white"/>
<path d="M276.714 52.5844C277.253 52.0062 277.712 51.3682 278.011 50.6504C279.188 47.9589 278.29 44.729 276.176 42.7552C275.118 41.7584 273.762 41.0805 272.285 40.9609C271.108 40.8612 269.951 41.1204 268.874 41.5789C268.276 42.6555 267.877 43.8318 267.717 45.048C267.617 45.8256 267.597 46.643 267.797 47.4006C268.016 48.2779 268.475 49.0953 269.054 49.7931C270.869 51.9862 273.921 53.0629 276.714 52.5844Z" fill="#423227"/>
<path d="M243.139 53.8604C244.915 53.8405 244.875 51.0692 243.1 51.0891C241.324 51.109 241.364 53.8803 243.139 53.8604Z" fill="white"/>
<path d="M270.729 46.8623C272.505 46.8424 272.465 44.0711 270.69 44.091C268.914 44.111 268.954 46.8823 270.729 46.8623Z" fill="white"/>
<path d="M231.15 60.4796C231.15 60.4796 226.821 56.9108 223.409 59.9811C219.978 63.0316 222.292 68.5143 228.277 68.4346C234.282 68.3349 234.042 63.4502 234.042 63.4502L231.15 60.4995V60.4796Z" fill="#E9A17A"/>
<path d="M279.148 32.647C278.589 31.371 277.273 30.6134 275.956 30.3542C275.178 30.1947 274.42 30.2146 273.662 30.3542C272.984 30.4738 271.966 30.733 271.647 31.4109C271.767 31.2913 271.886 31.1716 272.006 31.052C271.906 31.1318 271.807 31.1916 271.707 31.2713C271.388 31.5106 271.148 31.8894 271.288 32.3081C271.308 32.3878 271.348 32.4676 271.388 32.5274C271.627 32.9062 272.006 33.0258 272.425 32.9461C272.485 32.9461 272.804 32.9261 272.525 32.9461C272.345 32.9062 272.186 32.8464 272.006 32.8065C272.365 32.9859 272.704 32.9859 273.103 32.966C273.243 32.966 273.403 32.9261 273.542 32.9062C273.702 32.8862 273.263 32.9261 273.482 32.9062C273.622 32.9062 273.742 32.8862 273.881 32.8663C274.42 32.8264 274.959 32.8264 275.497 32.8663C275.597 32.8663 275.797 32.9261 275.896 32.9062C275.856 32.9062 275.617 32.8663 275.797 32.9062C275.876 32.9062 275.956 32.9261 276.036 32.9461C276.275 33.0059 276.515 33.0856 276.734 33.1654C276.934 33.2451 276.774 33.1255 276.714 33.1654C276.734 33.1654 276.854 33.2252 276.894 33.2451C277.013 33.3049 277.113 33.3647 277.233 33.4445C277.333 33.5043 277.432 33.5841 277.532 33.6638C277.412 33.5442 277.632 33.7236 277.532 33.6638C277.592 33.7236 277.652 33.7635 277.692 33.8233C278.011 34.1423 278.55 34.1822 278.909 33.9031C279.308 33.5841 279.328 33.1454 279.148 32.7068V32.647Z" fill="#82342A"/>
<path d="M243.598 39.2662C243.359 39.1466 243.119 39.0668 242.86 39.027C242.361 38.9472 242.7 39.007 242.7 38.9871C242.7 38.9871 242.581 38.9472 242.561 38.9273C242.361 38.8675 242.202 38.8874 242.002 38.9073C241.563 38.9671 241.244 39.0469 240.825 39.2263C240.606 39.326 240.386 39.4456 240.187 39.5852C239.668 39.9241 239.249 40.3628 238.87 40.8413C238.431 41.3995 238.032 42.0176 237.813 42.7154C237.773 42.835 237.733 42.9546 237.713 43.0742C237.673 43.2537 237.633 43.6325 237.713 43.8319C237.593 43.5527 237.733 43.1341 237.693 43.4531C237.653 43.7521 237.653 43.9515 237.693 44.2306C237.733 44.43 237.693 43.9515 237.693 44.1509C237.693 44.2705 237.693 44.4499 237.733 44.5695C237.893 45.1477 238.431 45.4667 238.99 45.1876C239.11 45.1278 239.229 45.048 239.329 44.9484C239.349 44.9284 239.429 44.8686 239.429 44.8287C239.269 44.9284 239.249 44.9484 239.329 44.8885C239.429 44.8287 239.509 44.749 239.608 44.6892C239.708 44.5895 239.788 44.4699 239.868 44.3702C240.067 44.111 239.868 44.5097 239.608 44.6094C239.888 44.5097 240.067 44.1708 240.227 43.9515C240.386 43.7521 240.506 43.5328 240.666 43.3135C240.805 43.1141 240.945 42.9147 241.065 42.7154C241.124 42.6157 241.204 42.4961 241.284 42.3964C241.324 42.3366 241.364 42.2967 241.404 42.2369C241.543 42.0375 241.164 42.5359 241.384 42.2767C241.743 41.8381 242.122 41.4593 242.541 41.0805C242.621 41.0008 242.72 40.9409 242.8 40.8413C242.601 41.0606 242.68 40.9409 242.76 40.8811C242.86 40.8213 242.94 40.7615 243 40.6818C243.199 40.4425 243.219 40.4026 243.06 40.602C242.88 40.6818 243.199 40.4824 243.06 40.602C243.119 40.5621 243.199 40.5223 243.259 40.5023C243.379 40.4425 243.478 40.3827 243.598 40.3229C243.977 40.1434 243.977 39.5054 243.598 39.326V39.2662Z" fill="#82342A"/>
<path d="M291.197 35.5977C291.158 32.4476 291.138 29.2975 290.898 26.1674C290.699 23.5157 290.32 20.9438 289.701 18.3519C288.863 14.8031 286.809 12.3109 283.896 9.97821C280.804 7.50598 276.315 8.86172 275.078 9.26047C274.32 7.52592 274.021 3.00013 272.684 1.78395C269.792 -0.867718 264.804 0.0892759 261.014 0.567773C258.56 0.886771 256.186 1.60452 253.832 2.36214C251.339 3.15963 248.825 3.95713 246.371 4.85431C243.798 5.79137 241.184 6.68855 238.651 7.74523C236.596 8.60254 234.581 9.61934 232.925 11.1346C228.975 14.6834 228.876 19.7276 229.255 24.6122C226.502 24.4328 223.769 25.0907 221.674 27.0446C219.958 28.6396 218.681 30.8526 218.402 33.1454C216.726 47.3409 228.497 61.3568 229.654 62.6528C229.933 62.9718 230.312 62.9119 230.571 62.7126C230.571 62.7126 230.611 62.6926 230.631 62.6727C230.751 62.5531 230.831 62.3936 230.871 62.2341C232.167 59.3432 232.925 56.3127 233.304 53.1626C233.683 50.0324 234.003 46.8025 234.003 43.6524C234.003 40.8413 233.663 38.05 233.324 35.2787C233.125 33.6239 232.666 31.7299 232.786 30.0153C241.184 31.6302 250.022 30.7729 258.241 28.5997C261.054 27.862 263.827 26.925 266.5 25.7487C269.513 24.4328 272.605 22.6384 274.679 20.0466C275.098 19.5282 275.457 18.95 275.757 18.3718C275.956 18.4715 276.136 18.5912 276.315 18.7108C277.333 19.3887 278.25 20.226 279.108 21.1232C280.983 23.1169 282.539 25.3699 283.876 27.7624C286.41 32.2881 288.444 37.3522 289.502 42.4363C289.641 43.1341 290.519 42.9546 290.739 42.4363C291.078 41.6587 291.098 40.7017 291.138 39.8643C291.237 38.4488 291.237 37.0133 291.217 35.5977H291.197Z" fill="#82342A"/>
<path d="M259.917 64.148C261.094 66.6402 264.066 68.0956 266.74 68.0159C268.036 67.976 269.313 67.5374 270.231 66.6203C271.109 65.7231 271.587 64.5269 271.787 63.3107C271.907 62.6129 271.966 61.8951 271.966 61.1774C271.966 60.4397 271.927 59.7419 271.408 59.1836C271.208 58.9444 270.75 59.0042 270.61 59.2833C270.151 60.2204 270.47 61.3568 270.39 62.3736C270.331 63.3506 270.071 64.3275 269.533 65.1449C268.276 67.0788 265.603 66.7997 263.747 66.0421C262.57 65.5636 261.373 64.806 260.795 63.6496C260.496 63.0515 259.618 63.5699 259.897 64.168L259.917 64.148Z" fill="#423227"/>
<path d="M284.893 174.023C284.834 174.541 284.794 175.08 284.734 175.598C284.255 179.944 283.557 184.091 282.779 187.82C282.34 187.999 281.881 188.139 281.382 188.258C280.086 188.557 278.709 187.899 277.851 186.903C276.973 185.906 276.574 184.59 276.335 183.274C276.136 182.098 276.076 180.881 276.156 179.685C276.255 178.349 276.515 177.053 276.954 175.777C277.313 174.741 277.791 173.724 278.569 172.946C279.347 172.169 280.445 171.67 281.542 171.83C282.061 171.91 282.579 172.129 283.018 172.408C283.716 172.847 284.355 173.405 284.893 174.023Z" fill="#B0683F"/>
<path d="M258.261 177.452C257.782 176.077 257.044 174.84 256.126 173.963C252.216 170.235 248.665 174.721 247.488 178.429C246.371 181.958 246.032 187.82 251.039 188.298C252.536 188.438 254.092 187.959 255.428 187.122L258.281 177.452H258.261Z" fill="#B0683F"/>
</svg>
