<svg width="221" height="220" viewBox="0 0 221 220" fill="none" xmlns="http://www.w3.org/2000/svg">
<path d="M49.9067 199.266C49.9067 199.266 47.5681 206.556 47.5681 210.211C47.5681 213.866 47.2283 214.225 52.3253 215.344C57.4222 216.462 62.8391 217.341 66.5968 216.642C70.3346 215.923 70.6344 214.025 68.8155 212.687C66.9966 211.329 62.6192 209.951 61.3999 208.693C60.1806 207.435 61.0801 202.541 61.3999 201.703C61.7197 200.864 53.8044 196.65 49.8867 199.266H49.9067Z" fill="#423227"/>
<path d="M21.5833 200.524C21.5833 200.524 18.5451 207.554 18.1853 211.189C17.8255 214.824 17.4657 215.144 22.4228 216.761C27.3999 218.379 32.6967 219.777 36.4945 219.438C40.2922 219.098 40.772 217.241 39.093 215.723C37.4139 214.205 33.1964 212.407 32.1171 211.029C31.0177 209.671 32.3969 204.878 32.7967 204.079C33.1964 203.28 25.7408 198.327 21.5833 200.524Z" fill="#423227"/>
<path d="M24.1019 141.707C24.1019 141.707 23.5222 144.642 23.6221 152.052C23.7421 159.462 23.3823 172.284 21.8632 181.93C20.3241 191.577 17.8655 205.338 17.8655 205.338C17.8655 205.338 20.3441 207.335 26.2206 207.814C32.1171 208.293 33.5163 207.694 33.5163 207.694C33.5163 207.694 39.7526 189.699 42.8108 178.875C45.869 168.05 47.7479 155.707 48.9272 156.646C50.1065 157.584 50.8061 169.228 49.7467 181.711C48.6873 194.173 46.8085 206.296 46.8085 206.296C46.8085 206.296 49.6268 207.355 55.8831 207.235C62.1194 207.115 62.7191 205.937 62.7191 205.937C62.7191 205.937 68.0159 192.176 69.8948 175C71.7737 157.824 70.3746 138.411 70.3746 138.411C70.3746 138.411 55.7832 132.879 45.889 134.876C35.9948 136.873 24.1019 141.707 24.1019 141.707Z" fill="#445F8E"/>
<path d="M26.1008 84.0671C26.1008 84.0671 35.2754 79.4736 44.7098 79.4736C54.1442 79.4736 60.6004 79.9529 62.2594 80.6519C63.8985 81.3509 70.4946 95.9505 72.3935 108.413C74.2724 120.876 73.093 131.581 72.3935 136.654C71.6939 141.707 71.2142 143.244 71.2142 143.244C71.2142 143.244 63.3188 147.598 48.0278 147.019C32.7169 146.44 23.4224 142.785 23.4224 142.785C23.4224 142.785 26.2407 128.425 27.3001 119.957C28.3595 111.489 28.1196 105.717 27.7798 99.2459C27.44 92.775 26.1408 84.0671 26.1408 84.0671H26.1008Z" fill="#F6DEBE"/>
<path d="M23.4623 124.471C23.4623 124.471 28.4194 124.311 30.9379 128.485C33.4564 132.639 31.9773 136.494 29.2389 138.571C26.5005 140.648 21.3236 139.969 20.8838 138.311C20.4441 136.654 21.4035 135.495 20.8438 133.957C20.2842 132.42 18.0655 130.862 18.0655 130.862C18.0655 130.862 19.3647 123.592 23.4623 124.471Z" fill="#E9A17A"/>
<path d="M28.7991 102.401C28.7991 102.401 17.006 109.292 15.7868 115.343C15.367 117.44 17.6657 120.476 19.9243 121.934C22.0231 123.292 23.782 124.111 23.782 124.111C23.782 124.111 24.5216 126.947 22.6227 130.702C20.7239 134.457 19.7244 135.236 19.7244 135.236C19.7244 135.236 6.97197 132.02 2.3347 123.472C-2.30256 114.924 0.195965 103.4 7.81147 96.2101C15.447 89.0202 24.8614 83.5279 34.5557 81.2111C37.6339 80.4722 34.1959 87.2027 33.6762 92.1358C33.1565 97.0689 28.8191 102.382 28.8191 102.382L28.7991 102.401Z" fill="#F6DEBE"/>
<path d="M119.626 101.203C118.806 101.543 118.266 101.742 118.266 101.742C118.266 101.742 118.986 101.642 119.726 101.702C120.425 101.762 121.165 101.942 121.245 102.501C121.365 103.22 120.785 103.779 120.245 104.139C119.845 104.399 119.486 104.538 119.486 104.538C119.486 104.538 119.945 104.439 120.445 104.538C120.925 104.598 121.425 104.838 121.504 105.517C121.584 106.256 120.965 106.755 120.365 107.035C119.885 107.295 119.426 107.394 119.426 107.394C119.426 107.394 119.785 107.335 120.105 107.434C120.485 107.534 120.845 107.854 120.665 108.713C120.485 109.531 119.506 110.111 118.246 110.49C118.246 110.49 118.226 110.49 118.206 110.49C117.787 110.63 117.307 110.73 116.847 110.83C115.928 111.009 114.968 111.109 114.109 111.129C111.53 111.249 106.913 111.069 106.913 111.069C106.913 111.069 101.436 107.654 106.094 102.242C106.094 102.242 108.932 101.603 110.051 100.224C111.171 98.8464 112.55 97.1288 114.469 97.3884C115.308 97.5083 115.828 97.8278 116.148 98.1474C116.547 98.5668 116.627 98.9862 116.627 98.9862C116.627 98.9862 116.747 98.9263 116.947 98.8464C118.506 98.1873 125.182 95.4711 125.902 96.8692C126.502 98.0475 122.004 100.145 119.646 101.123L119.626 101.203Z" fill="#E9A17A"/>
<g style="mix-blend-mode:multiply">
<path d="M120.345 107.055C119.865 107.315 119.406 107.415 119.406 107.415C119.406 107.415 118.286 107.534 117.047 107.954C116.687 108.074 116.327 108.233 116.028 108.493C115.728 108.733 115.548 109.072 115.568 109.452C115.568 109.811 115.808 110.071 116.128 110.231C116.527 110.45 117.007 110.53 117.467 110.55C117.707 110.55 117.947 110.55 118.186 110.51C117.767 110.65 117.287 110.75 116.827 110.85C116.587 110.79 116.347 110.73 116.108 110.63C115.548 110.41 115.108 109.971 115.168 109.332C115.208 108.613 115.708 108.153 116.287 107.814C116.347 107.774 116.407 107.754 116.467 107.734C116.367 107.734 116.287 107.734 116.208 107.734C115.808 107.674 115.388 107.574 115.108 107.275C114.768 106.915 114.748 106.436 114.908 105.997C114.189 105.637 113.769 104.978 113.529 104.199C113.369 103.74 113.289 103.24 113.229 102.741C113.189 102.362 113.149 101.922 113.309 101.563C113.349 101.483 113.489 101.503 113.509 101.583C113.569 101.982 113.549 102.402 113.609 102.821C113.669 103.28 113.809 103.72 113.969 104.159C114.249 104.918 114.788 105.717 115.668 105.817C116.567 105.937 117.127 105.118 117.247 104.339C117.407 103.24 117.127 102.122 116.907 101.063C116.707 100.085 116.467 99.1261 116.148 98.1874C116.547 98.6068 116.627 99.0263 116.627 99.0263C116.627 99.0263 117.387 100.544 117.527 101.383C117.707 101.343 117.887 101.303 118.046 101.283C118.466 101.223 118.906 101.163 119.346 101.163C119.446 101.163 119.546 101.163 119.646 101.163C118.826 101.503 118.286 101.703 118.286 101.703C118.286 101.703 118.326 101.762 117.887 101.822C117.807 101.822 117.707 101.842 117.607 101.862C117.747 102.681 117.887 103.58 117.727 104.399C118.406 104.259 119.086 104.159 119.785 104.099C119.925 104.099 120.105 104.099 120.265 104.079C119.865 104.339 119.506 104.479 119.506 104.479C119.506 104.479 118.266 104.738 117.567 104.898C117.507 105.018 117.447 105.138 117.387 105.258C116.947 105.997 116.108 106.356 115.268 106.096C115.088 106.476 115.088 106.895 115.468 107.155C115.808 107.395 116.287 107.454 116.687 107.474C116.747 107.474 116.807 107.474 116.867 107.474C117.447 107.235 118.106 107.115 118.726 107.035C119.266 106.975 119.825 106.915 120.365 106.955L120.345 107.055Z" fill="#D1B6A7"/>
</g>
<path d="M106.413 112.767C106.413 112.767 101.696 117.36 88.3839 115.483C82.3874 114.644 77.4303 112.028 73.8125 109.432C73.2928 109.072 72.813 108.693 72.3533 108.333C68.8554 105.577 66.9565 103.12 66.9565 103.12C66.9565 103.12 61.8995 95.9504 60.6003 90.538C59.301 85.1256 59.5409 80.1925 59.5409 80.1925C59.5409 80.1925 65.5373 80.0726 71.7937 84.3067C78.03 88.5408 84.3862 95.9504 91.562 98.7865C98.7378 101.603 105.334 100.085 105.334 100.085C105.334 100.085 106.033 102.202 106.273 105.956C106.513 109.731 106.393 112.787 106.393 112.787L106.413 112.767Z" fill="#F6DEBE"/>
<path d="M72.9531 105.837C72.4534 103.7 71.7938 101.623 71.0742 99.5456C70.6145 98.2274 70.1347 96.9092 69.615 95.6111C69.3352 94.932 69.0754 94.233 68.7755 93.5739C68.4957 92.9747 68.2359 92.076 67.5962 91.7964C67.4963 91.7564 67.3764 91.7365 67.2964 91.7964C67.2364 91.8563 67.2365 91.9362 67.2365 92.0161C67.2564 92.6951 67.6762 93.1745 67.936 93.7736C68.2558 94.4327 68.4957 95.1517 68.7755 95.8307C69.3152 97.2088 69.8349 98.5869 70.2747 100.005C70.8943 101.962 71.394 103.979 71.8537 105.977C72.0336 106.755 72.2135 107.554 72.3734 108.353C72.8331 108.713 73.3129 109.072 73.8326 109.452C73.5927 108.233 73.2329 106.995 72.9731 105.857L72.9531 105.837Z" fill="#BA917A"/>
<path d="M37.4141 76.4778L38.0337 89.4197C38.0337 89.4197 41.9314 95.0119 47.8479 93.7936C53.7644 92.5553 54.2641 89.2999 54.2641 89.2999L52.6451 73.5819C52.6451 73.5819 45.6692 78.6947 37.4341 76.4778H37.4141Z" fill="#E9A17A"/>
<g style="mix-blend-mode:multiply">
<path d="M39.093 83.4681C42.511 84.4267 46.1089 85.3454 49.6868 84.926C51.086 84.7662 52.4452 84.3668 53.6844 83.6877L52.645 73.5819C52.645 73.5819 45.6692 78.6947 37.434 76.4778L37.7538 83.0486C38.2136 83.1884 38.6733 83.3282 39.133 83.4481L39.093 83.4681Z" fill="#D1B6A7"/>
</g>
<path d="M75.6914 48.0975C75.6914 48.0975 81.408 44.3627 83.127 47.1189C84.846 49.855 84.3863 53.1504 80.4086 55.4472C76.4309 57.744 73.5327 56.8652 73.5327 56.8652L75.6914 48.0975Z" fill="#E9A17A"/>
<path d="M14.9873 33.7376C12.0691 44.0033 9.49058 67.4505 30.9779 77.9957C52.4652 88.5609 68.4558 73.482 75.1718 57.6042C82.2277 40.8477 76.2912 17.6401 71.8938 15.9824C49.0472 7.41443 20.9838 12.6671 15.0073 33.7376H14.9873Z" fill="#E9A17A"/>
<path d="M47.2486 48.6573C47.2486 48.6573 47.3091 48.5768 47.2486 48.5768C47.1881 48.5768 47.1881 48.6573 47.2486 48.6573Z" fill="#423227"/>
<g style="mix-blend-mode:multiply">
<path d="M46.4088 45.8007C46.8285 46.7993 46.6486 48.0176 46.6287 49.0562C46.6287 50.1946 46.5487 51.4329 46.9685 52.5114C47.3682 53.5299 48.3077 53.9693 49.367 53.8695C50.4664 53.7896 52.4252 52.9308 52.1654 54.8281C52.0255 55.8866 51.4858 56.7654 50.5463 57.3047C50.0866 57.5843 49.5469 57.744 49.0272 57.784C48.5475 57.8239 48.0078 57.6841 47.5481 57.8639C47.3682 57.9438 47.2483 58.1834 47.3882 58.3432C47.9479 59.0822 49.1872 58.8824 49.9667 58.6827C50.8861 58.4231 51.7456 57.8639 52.3053 57.1049C53.0449 56.1263 53.8644 53.5299 52.2653 52.8509C51.6057 52.5713 50.8262 52.6711 50.1466 52.8309C49.6069 52.9507 48.8873 53.2104 48.4076 52.771C47.6481 52.052 47.768 50.5341 47.768 49.5755C47.768 48.1774 47.8879 46.6396 47.2083 45.3614C46.9685 44.902 46.1689 45.3014 46.3888 45.7808L46.4088 45.8007Z" fill="#D1B6A7"/>
</g>
<path d="M39.173 61.8782C39.173 61.8782 42.571 63.6158 49.287 63.7156C54.7438 63.7955 57.5022 62.018 57.5022 62.018C57.5022 62.018 58.5016 71.0654 49.307 72.024C40.0924 73.0027 39.173 61.8782 39.173 61.8782Z" fill="#423227"/>
<path d="M45.1493 64.7541C47.3281 65.9923 50.2463 66.1921 52.6449 65.5929C53.7643 65.3133 54.9236 64.814 55.6831 63.9352C56.0429 63.5358 56.3028 63.0565 56.4227 62.5172C55.1634 63.0365 52.7649 63.7555 49.2669 63.6956C46.9483 63.6556 45.0294 63.4359 43.5103 63.1363C43.8701 63.8154 44.4697 64.3546 45.1493 64.7341V64.7541Z" fill="white"/>
<path d="M47.2081 71.325C46.9683 70.2864 46.4086 69.3277 45.6491 68.6088C44.9095 67.9097 43.9701 67.4104 42.9307 67.2706C42.2311 67.1907 41.5515 67.2906 40.9119 67.5502C42.0912 69.7072 44.07 71.7244 47.3281 72.0439C47.3081 71.8043 47.2681 71.5646 47.2081 71.325Z" fill="#CE5456"/>
<path d="M34.9755 42.8848C34.2559 42.5853 33.4964 42.3456 32.7368 42.3456C31.9573 42.3456 31.1977 42.6052 30.4982 42.9248C28.0796 44.0432 26.1607 46.1603 25.2812 48.6767C25.0214 49.4157 24.8415 50.2146 24.8815 51.0135C24.9215 51.9322 25.2013 52.8109 25.621 53.6298C27.2201 56.6656 30.9179 58.503 34.2759 57.804C37.4541 57.1449 40.3523 53.8894 40.5722 50.614C40.7921 47.4185 37.7139 44.0832 34.9955 42.9048L34.9755 42.8848Z" fill="white"/>
<path d="M64.598 41.6864C63.8784 41.3869 63.1189 41.1472 62.3593 41.1472C61.5798 41.1472 60.8202 41.4068 60.1207 41.7264C57.7021 42.8448 55.7832 44.9619 54.9037 47.4783C54.6439 48.2173 54.464 49.0162 54.504 49.8151C54.524 50.7338 54.8238 51.6126 55.2435 52.4314C56.8426 55.4672 60.5404 57.3046 63.8984 56.6056C67.0766 55.9465 69.9748 52.6911 70.1947 49.4156C70.4146 46.2201 67.3364 42.8848 64.618 41.7064L64.598 41.6864Z" fill="white"/>
<path d="M15.8667 55.1476C15.8667 55.1476 12.3488 50.7737 8.37112 53.0705C4.39347 55.3673 5.51281 61.2191 11.4293 62.3376C17.3458 63.456 18.1054 58.6228 18.1054 58.6228L15.8667 55.1276V55.1476Z" fill="#E9A17A"/>
<path d="M69.4151 25.3493C69.4151 25.3493 73.8325 30.8616 75.1917 37.2326C76.5509 43.6037 76.9706 49.2758 76.9706 49.2758C76.9706 49.2758 81.5879 44.2628 82.2275 37.5122C82.8272 31.3609 79.9689 24.1509 74.8919 22.8528C69.8149 21.5546 69.4151 25.3493 69.4151 25.3493Z" fill="#B0683F"/>
<path d="M68.6557 37.712C68.1759 35.3752 65.4575 34.137 63.2588 34.2968C62.939 34.3167 62.6392 34.3567 62.3394 34.4366C62.1795 34.4765 61.9996 34.5364 61.8397 34.6363C61.8397 34.6363 61.8397 34.6363 61.8197 34.6363C61.4999 34.856 61.5399 34.856 61.8996 34.6363C61.7797 34.6762 61.6598 34.7361 61.5399 34.7761C61.0801 35.0158 60.8403 35.575 61.1001 36.0543C61.24 36.294 61.4599 36.4537 61.7197 36.5336C61.7997 36.5536 61.9596 36.5736 62.0595 36.5736C62.3594 36.5736 61.7797 36.4338 61.8397 36.5137C61.9996 36.6934 62.3394 36.6734 62.5593 36.6934C62.8191 36.7134 62.2794 36.6535 62.5193 36.6934C62.6592 36.6934 62.7791 36.7333 62.919 36.7533C63.039 36.7533 63.1589 36.7533 63.2788 36.7733C63.3188 36.7733 63.3788 36.7733 63.4187 36.7733C63.0789 36.7733 63.2588 36.7533 63.3788 36.7733C63.5187 36.7933 63.6786 36.8132 63.8385 36.8332C64.0184 36.8732 63.4987 36.7733 63.7585 36.8332C63.8785 36.8532 63.9784 36.8732 64.0983 36.8931C64.3582 36.953 64.618 37.013 64.8779 37.0729C64.9978 37.1128 65.1177 37.1328 65.2377 37.1727C65.2976 37.1727 65.3576 37.2127 65.4176 37.2326C65.4575 37.2326 65.4775 37.2526 65.5175 37.2726C65.6374 37.3125 65.6175 37.3125 65.4176 37.2326C65.6175 37.3725 65.8773 37.4723 66.0972 37.5921C66.1571 37.6321 66.337 37.8118 66.417 37.8118C66.2971 37.8118 66.2571 37.672 66.377 37.8118C66.437 37.8518 66.4769 37.9117 66.5369 37.9516C66.6368 38.0515 66.7168 38.1314 66.7968 38.2313C66.8367 38.2712 66.8567 38.3111 66.8967 38.3311C66.7168 38.1314 66.9167 38.3711 66.9567 38.431C67.5363 39.3297 68.8755 38.7505 68.6557 37.712Z" fill="#B0683F"/>
<path d="M32.297 36.8133C32.1771 36.7334 32.0572 36.6335 31.9173 36.5736C31.8173 36.5137 31.6974 36.4737 31.5975 36.4338C31.4176 36.3539 31.7174 36.5137 31.5375 36.3939C31.1777 36.1542 30.5781 36.1342 30.1383 36.1941C29.3588 36.294 28.5992 36.5936 27.9396 37.0529C27.22 37.5722 26.6204 38.1314 26.1207 38.8704C26.0407 39.0102 25.9608 39.15 25.8808 39.2898C25.7809 39.5095 25.661 39.7691 25.661 40.0288C25.7009 39.8091 25.7209 39.7691 25.661 39.9089C25.661 39.9289 25.661 39.9489 25.641 39.9888C25.601 40.1087 25.621 40.4082 25.561 40.4682C25.561 40.548 25.561 40.5081 25.581 40.3483C25.581 40.3883 25.581 40.4282 25.581 40.4482C25.561 40.7278 25.521 40.9475 25.601 41.2071C25.7209 41.6066 26.1607 41.8662 26.5804 41.7663C26.8602 41.6865 27.1001 41.5267 27.36 41.3869C27.4399 41.3469 27.6198 41.1872 27.7197 41.1073C27.3 41.327 27.22 41.3869 27.4999 41.2471C27.6598 41.1872 27.7997 41.1073 27.9196 40.9675C28.0196 40.8876 28.1195 40.7877 28.2194 40.6879C28.6792 40.2684 29.0989 39.7891 29.5587 39.3697C29.6186 39.3298 29.6586 39.2698 29.7186 39.2299C29.7585 39.2099 29.7785 39.17 29.8185 39.15C29.8985 39.0901 29.8585 39.1101 29.6986 39.2499C29.7585 39.2299 29.8185 39.17 29.8585 39.13C29.9584 39.0501 30.0783 38.9703 30.1783 38.8904C30.2582 38.8105 30.2582 38.8305 30.1783 38.8904C29.9784 39.0102 30.1783 38.8904 30.2383 38.8504C30.2982 38.8105 30.3782 38.7506 30.4381 38.7106C30.5581 38.6307 30.678 38.5708 30.8179 38.4909C31.0778 38.3511 31.3776 38.2113 31.5975 38.0316C31.9373 37.7719 31.5175 38.0316 31.5175 38.0316C31.5175 38.0316 31.7174 37.9717 31.7374 37.9717C31.8773 37.9317 32.0172 37.8918 32.1571 37.8518C32.6968 37.732 32.6568 37.0729 32.297 36.7933V36.8133Z" fill="#B0683F"/>
<path d="M12.9484 56.0464C12.9484 56.0464 17.1659 50.8936 20.5439 42.5253C23.9219 34.157 23.862 26.1082 23.862 26.1082C23.862 26.1082 30.538 35.7547 38.5333 33.5778C46.5286 31.4008 39.9725 24.3507 39.9725 24.3507C39.9725 24.3507 45.769 31.1013 51.1459 29.883C56.5227 28.6647 50.906 22.7529 50.906 22.7529C50.906 22.7529 64.538 33.0985 76.1311 28.0655C87.7243 23.0525 86.425 11.3689 70.8942 5.01774C55.3634 -1.33337 46.6885 8.59274 46.6885 8.59274C46.6885 8.59274 47.0683 -0.993846 40.1124 0.0846452C33.1365 1.16314 29.1588 11.0293 29.1588 11.0293C29.1588 11.0293 28.7391 4.01914 24.8414 6.65545C20.9437 9.29177 23.2024 18.5788 23.2024 18.5788C23.2024 18.5788 17.4857 8.95224 7.83143 17.2406C-1.82287 25.5291 2.19476 38.2113 4.75325 43.3641C7.31174 48.5169 12.9484 56.0464 12.9484 56.0464Z" fill="#B0683F"/>
<path d="M37.0543 44.1631C35.935 44.0432 34.7957 44.1631 33.7763 44.6624C30.6781 46.2202 29.9585 50.8537 31.7175 53.6298C32.6169 55.0478 34.0561 56.0464 35.6352 56.6057C35.935 56.7055 36.2548 56.8054 36.5746 56.8653C38.7333 55.5272 40.4123 53.0706 40.5722 50.614C40.7321 48.2374 39.0531 45.7608 37.0543 44.1631Z" fill="#423227"/>
<path d="M65.3975 42.1059C64.558 42.1059 63.7385 42.2457 62.939 42.5652C61.22 43.2642 60.1007 44.7621 59.521 46.4598C58.8614 48.3771 58.9413 50.2744 59.9607 52.0519C60.9402 53.7496 62.5192 55.1077 64.2782 56.0064C64.4781 56.1063 64.6979 56.2061 64.9178 56.306C67.6762 55.2475 69.9748 52.3515 70.1747 49.4156C70.3746 46.5397 67.8761 43.5239 65.3975 42.1059Z" fill="#423227"/>
<path d="M36.5747 50.1944C38.3337 50.534 38.8534 47.8178 37.0944 47.4782C35.3354 47.1387 34.8157 49.8549 36.5747 50.1944Z" fill="white"/>
<path d="M66.257 48.4371C68.016 48.7766 68.5357 46.0604 66.7767 45.7209C65.0177 45.3814 64.498 48.0976 66.257 48.4371Z" fill="white"/>
<path d="M146.35 135.655C146.849 136.594 147.489 137.492 148.448 137.932C149.688 138.511 151.247 138.112 152.246 137.173C153.246 136.234 153.725 134.836 153.765 133.458C153.805 132.08 153.426 130.742 152.946 129.444C152.386 127.966 151.547 126.428 150.067 125.849C147.729 124.95 145.49 126.827 144.771 128.944C144.031 131.121 145.31 133.718 146.33 135.635L146.35 135.655Z" fill="#B0683F"/>
<path d="M163.16 79.9128C163.16 79.9128 147.729 80.2723 135.956 92.8547C124.702 104.898 128.9 118.739 134.077 125.789C139.254 132.839 145.61 135.196 145.61 135.196C145.61 135.196 148.208 132.379 150.087 129.084C151.966 125.789 150.567 123.911 150.567 123.911C150.567 123.911 147.509 123.672 144.91 119.438C142.312 115.203 142.912 107.434 145.97 104.858C149.028 102.262 151.866 100.864 151.866 100.864L163.16 79.9128Z" fill="#7198B5"/>
<path d="M192.183 102.401C192.183 102.401 203.976 109.292 205.195 115.343C205.615 117.44 203.316 120.476 201.057 121.934C198.959 123.292 197.2 124.111 197.2 124.111C197.2 124.111 196.46 126.947 198.359 130.702C200.278 134.457 201.257 135.236 201.257 135.236C201.257 135.236 214.01 132.02 218.647 123.472C223.284 114.924 220.786 103.4 213.17 96.2101C205.535 89.0202 196.12 83.5279 186.426 81.2111C183.348 80.4721 186.786 87.2027 187.306 92.1358C187.825 97.0689 192.163 102.381 192.163 102.381L192.183 102.401Z" fill="#7198B5"/>
<path d="M171.055 199.266C171.055 199.266 173.394 206.556 173.394 210.211C173.394 213.866 173.734 214.225 168.637 215.343C163.54 216.462 158.123 217.341 154.365 216.642C150.607 215.943 150.327 214.025 152.146 212.687C153.965 211.329 158.343 209.951 159.562 208.693C160.781 207.435 159.882 202.541 159.562 201.703C159.242 200.864 167.157 196.65 171.075 199.266H171.055Z" fill="#7198B5"/>
<path d="M199.398 200.524C199.398 200.524 202.437 207.554 202.796 211.189C203.156 214.824 203.516 215.144 198.559 216.761C193.582 218.379 188.285 219.777 184.487 219.438C180.689 219.098 180.21 217.241 181.889 215.723C183.568 214.205 187.785 212.408 188.865 211.029C189.964 209.671 188.585 204.878 188.185 204.079C187.785 203.28 195.241 198.327 199.398 200.524Z" fill="#7198B5"/>
<path d="M196.88 141.707C196.88 141.707 197.459 144.642 197.36 152.052C197.24 159.462 197.599 172.284 199.118 181.93C200.638 191.577 203.116 205.338 203.116 205.338C203.116 205.338 200.638 207.335 194.761 207.814C188.865 208.293 187.465 207.694 187.465 207.694C187.465 207.694 181.229 189.699 178.171 178.875C175.113 168.05 173.234 155.707 172.054 156.646C170.875 157.584 170.176 169.228 171.235 181.711C172.294 194.173 174.173 206.296 174.173 206.296C174.173 206.296 171.355 207.355 165.099 207.235C158.862 207.115 158.263 205.937 158.263 205.937C158.263 205.937 152.966 192.176 151.087 175C149.208 157.824 150.607 138.411 150.607 138.411C150.607 138.411 165.198 132.879 175.093 134.876C184.987 136.873 196.88 141.707 196.88 141.707Z" fill="#82342A"/>
<path d="M160.881 91.4967C160.361 94.4925 160.561 97.5882 161.361 100.524C162.12 103.3 163.46 105.956 165.638 107.874C167.797 109.791 170.675 110.67 173.554 110.29C176.452 109.911 178.95 108.253 180.969 106.196C182.948 104.179 184.647 101.782 186.026 99.3258C187.525 96.6295 188.765 93.7535 189.544 90.7577C190.264 87.9616 190.564 85.0058 190.144 82.1298C186.586 80.8716 181.469 79.4735 176.272 79.4735C172.934 79.4735 169.956 79.5334 167.437 79.6333C164.119 82.8288 161.681 86.8632 160.881 91.4967Z" fill="white"/>
<path d="M193.702 119.937C192.642 111.469 192.882 105.697 193.222 99.2259C193.582 92.755 194.861 84.0472 194.861 84.0472C194.861 84.0472 185.686 79.4536 176.252 79.4536C166.818 79.4536 160.361 79.9329 158.702 80.6319C157.043 81.331 150.467 95.9305 148.568 108.393C146.689 120.856 147.869 131.561 148.568 136.634C149.268 141.687 149.748 143.224 149.748 143.224C149.748 143.224 157.643 147.578 172.934 146.999C188.225 146.42 197.539 142.765 197.539 142.765C197.539 142.765 194.721 128.405 193.662 119.937H193.702ZM186.286 89.2998C185.087 91.8163 183.228 93.9733 181.469 96.0903C179.77 98.1275 178.271 100.364 176.432 102.282C174.733 104.059 172.094 106.236 169.556 104.718C168.317 103.979 167.537 102.661 166.918 101.403C166.398 100.364 165.958 99.2858 165.578 98.1874C164.819 95.9705 164.319 93.6138 164.299 91.2571C164.299 89.2399 164.699 87.1029 166.038 85.5251C167.477 83.8674 169.656 83.3481 171.755 83.448C174.073 82.9487 176.372 82.3296 178.711 82.03C181.009 81.7304 183.788 81.6305 185.646 83.2483C186.446 83.9473 187.006 84.9259 187.086 85.9844C187.166 87.1229 186.746 88.2613 186.266 89.2798L186.286 89.2998Z" fill="#7198B5"/>
<path d="M183.967 77.2368L183.348 90.1987C183.348 90.1987 179.45 95.7909 173.534 94.5726C167.617 93.3343 167.117 90.0789 167.117 90.0789L168.736 74.3609C168.736 74.3609 175.712 79.4737 183.947 77.2568L183.967 77.2368Z" fill="#B0683F"/>
<g style="mix-blend-mode:multiply">
<path d="M182.268 84.227C178.85 85.1856 175.253 86.1043 171.675 85.6849C170.276 85.5251 168.916 85.1257 167.677 84.4466L168.716 74.3408C168.716 74.3408 175.692 79.4536 183.927 77.2367L183.608 83.8075C183.148 83.9473 182.688 84.0872 182.228 84.207L182.268 84.227Z" fill="#AEA7A2"/>
</g>
<path d="M147.269 47.5382C147.269 47.5382 141.732 43.5437 139.893 46.2C138.035 48.8563 138.354 52.1717 142.232 54.6482C146.11 57.1247 149.028 56.3858 149.028 56.3858L147.269 47.5382Z" fill="#B0683F"/>
<path d="M208.573 35.9744C211.011 46.3599 212.511 69.9069 190.564 79.4536C168.616 89.0002 153.325 73.2223 147.369 57.0449C141.093 39.9888 150.667 18.8983 155.144 17.4403C178.351 9.93081 203.576 14.6442 208.573 35.9744Z" fill="#B0683F"/>
<path d="M175.673 49.3962C175.673 49.3962 175.733 49.3157 175.673 49.3157C175.612 49.3157 175.612 49.3962 175.673 49.3962Z" fill="#423227"/>
<g style="mix-blend-mode:multiply">
<path d="M176.632 46.5795C176.172 47.5582 176.292 48.7765 176.252 49.815C176.212 50.9534 176.212 52.1917 175.752 53.2502C175.312 54.2488 174.353 54.6283 173.294 54.5085C172.214 54.3687 170.275 53.43 170.455 55.3273C170.555 56.3858 171.055 57.2846 171.954 57.8837C172.414 58.1833 172.934 58.3631 173.454 58.423C173.933 58.4829 174.473 58.3631 174.913 58.5828C175.093 58.6626 175.193 58.9023 175.053 59.0821C174.453 59.8011 173.234 59.5414 172.454 59.3018C171.555 59.0022 170.715 58.403 170.176 57.6241C169.496 56.6055 168.796 53.9692 170.415 53.37C171.095 53.1304 171.875 53.2702 172.534 53.4499C173.074 53.5897 173.793 53.8893 174.273 53.4699C175.073 52.7709 175.013 51.253 175.053 50.3143C175.113 48.9163 175.053 47.3784 175.812 46.1202C176.072 45.6608 176.852 46.1002 176.612 46.5795H176.632Z" fill="#AEA7A2"/>
</g>
<path d="M183.308 63.7555C183.308 63.7555 179.83 65.3333 173.114 65.1136C167.657 64.9339 164.979 63.0365 164.979 63.0365C164.979 63.0365 164.179 69.9269 173.434 70.2065C182.708 70.4661 183.308 63.7555 183.308 63.7555Z" fill="#423227"/>
<path d="M177.171 66.3718C174.933 67.5102 172.014 67.5702 169.636 66.8711C168.517 66.5316 167.397 65.9924 166.678 65.0737C166.338 64.6542 166.098 64.1549 165.998 63.6357C167.237 64.2149 169.576 65.0337 173.094 65.1535C175.412 65.2334 177.331 65.0936 178.87 64.8739C178.491 65.533 177.851 66.0523 177.171 66.3918V66.3718Z" fill="white"/>
<path d="M188.185 44.2028C188.905 43.9232 189.684 43.7235 190.444 43.7634C191.223 43.8033 191.963 44.083 192.662 44.4424C195.021 45.6607 196.86 47.8776 197.619 50.4141C197.839 51.173 197.979 51.9719 197.919 52.7508C197.839 53.6695 197.519 54.5283 197.06 55.3272C195.321 58.2831 191.563 59.9607 188.225 59.1019C185.087 58.3031 182.328 54.9078 182.268 51.6124C182.208 48.4169 185.427 45.2214 188.205 44.1628L188.185 44.2028Z" fill="white"/>
<path d="M158.642 41.6464C159.362 41.3668 160.142 41.1671 160.901 41.2071C161.681 41.247 162.42 41.5266 163.12 41.8861C165.478 43.1044 167.317 45.3213 168.077 47.8578C168.297 48.6167 168.437 49.4156 168.377 50.1945C168.297 51.1132 167.977 51.972 167.517 52.7709C165.778 55.7267 162.02 57.4044 158.682 56.5456C155.544 55.7467 152.786 52.3515 152.726 49.0561C152.666 45.8605 155.884 42.665 158.662 41.6065L158.642 41.6464Z" fill="white"/>
<path d="M206.714 57.3246C206.714 57.3246 210.412 53.1105 214.29 55.587C218.167 58.0635 216.768 63.8554 210.812 64.7142C204.855 65.573 204.315 60.6998 204.315 60.6998L206.714 57.3246Z" fill="#B0683F"/>
<path d="M156.464 38.2312C156.364 38.3111 156.604 38.0315 156.464 38.2312C156.504 38.1912 156.544 38.1313 156.584 38.0914C156.664 38.0115 156.744 37.9316 156.804 37.8517C156.804 37.8517 157.023 37.632 157.043 37.632C157.043 37.632 156.844 37.7718 156.983 37.672C157.063 37.632 157.123 37.5721 157.203 37.5322C157.303 37.4723 157.383 37.4123 157.483 37.3724C157.563 37.3324 157.763 37.2725 157.823 37.2126C157.823 37.2126 157.543 37.3125 157.743 37.2526C157.783 37.2526 157.843 37.2126 157.883 37.1926C158.023 37.1527 158.143 37.1128 158.283 37.0728C158.523 37.0129 158.762 36.9729 159.002 36.933C159.122 36.913 159.222 36.8931 159.342 36.8731C159.402 36.8731 159.482 36.8731 159.542 36.8331C159.402 36.8731 159.282 36.8731 159.502 36.8331C159.982 36.7932 160.461 36.7732 160.921 36.7333C161.141 36.7333 161.341 36.6933 161.561 36.6135C162 36.4337 161.121 36.6135 161.421 36.6334C161.461 36.6334 161.521 36.6334 161.561 36.6334C162.16 36.5935 162.68 36.0942 162.5 35.475C162.42 35.1954 162.22 34.9957 161.98 34.8559C161.941 34.8559 161.901 34.796 161.861 34.796C161.94 34.8759 162.02 34.9757 162.1 35.0556C162.04 34.9757 161.98 34.9158 161.921 34.8359C161.681 34.5763 161.241 34.4365 160.901 34.3566C160.321 34.2368 159.742 34.2168 159.162 34.2567C158.463 34.3167 157.883 34.4764 157.243 34.756C156.064 35.2753 155.085 36.214 154.765 37.4723C154.645 37.9116 154.865 38.391 155.304 38.5707C155.764 38.7505 156.184 38.5707 156.464 38.1912V38.2312Z" fill="#423227"/>
<path d="M191.243 39.3297C191.383 39.3696 191.503 39.4096 191.643 39.4695C191.683 39.4695 191.803 39.5294 191.843 39.5494C191.623 39.3896 191.563 39.3696 191.643 39.4295C191.663 39.4295 191.683 39.4695 191.703 39.4895C191.963 39.7091 192.282 39.8889 192.562 40.0487C192.682 40.1286 192.822 40.2084 192.942 40.2883C193.042 40.3682 193.142 40.528 192.922 40.2684C192.962 40.3083 193.022 40.3482 193.062 40.3882C193.302 40.5879 193.542 40.7876 193.762 40.9874C194.201 41.4068 194.581 41.9061 195.021 42.3255C195.121 42.4253 195.241 42.5452 195.341 42.645C195.421 42.705 195.521 42.7848 195.601 42.8448C195.72 42.9047 195.68 42.8647 195.521 42.7649C195.521 42.8048 195.641 42.8847 195.68 42.9047C195.68 42.9047 196 43.1643 196.02 43.1443C196.02 43.1443 195.82 42.9846 196 43.1244C196.2 43.2841 196.38 43.404 196.62 43.4639C196.92 43.5438 197.359 43.4239 197.499 43.1044C197.679 42.685 197.679 42.2256 197.599 41.7862C197.579 41.6864 197.519 41.3668 197.559 41.7862C197.559 41.6265 197.539 41.4667 197.479 41.3069C197.419 41.0872 197.3 40.8476 197.18 40.6478C196.82 39.9488 196.24 39.3496 195.621 38.8703C194.921 38.3311 194.141 37.8717 193.262 37.7519C192.802 37.692 192.262 37.672 191.843 37.9117C191.663 38.0315 191.983 37.8717 191.803 37.9316C191.743 37.9316 191.663 37.9716 191.603 37.9915C191.403 38.0714 191.243 38.1513 191.063 38.2712C190.663 38.5508 190.703 39.1899 191.203 39.3297H191.243Z" fill="#423227"/>
<path d="M186.066 45.3613C187.185 45.3014 188.325 45.4412 189.304 46.0004C192.322 47.698 192.842 52.3715 190.943 55.0477C189.984 56.4258 188.485 57.3645 186.886 57.8438C186.586 57.9437 186.266 58.0036 185.946 58.0635C183.847 56.6255 182.288 54.109 182.248 51.6325C182.188 49.2359 183.987 46.8592 186.046 45.3613H186.066Z" fill="#423227"/>
<path d="M157.843 42.0059C158.682 42.0459 159.502 42.2256 160.281 42.5652C161.961 43.3241 163.02 44.8819 163.52 46.6195C164.079 48.5768 163.919 50.4541 162.82 52.1917C161.761 53.8494 160.122 55.1276 158.343 55.9265C158.123 56.0263 157.903 56.1062 157.683 56.1861C154.985 54.9878 152.806 51.992 152.746 49.0561C152.686 46.1801 155.304 43.2842 157.863 41.986L157.843 42.0059Z" fill="#423227"/>
<path d="M186.246 51.4327C184.487 51.6924 184.087 48.9562 185.846 48.6966C187.605 48.4369 188.005 51.1731 186.246 51.4327Z" fill="white"/>
<path d="M156.683 48.2971C154.924 48.5567 154.525 45.8205 156.284 45.5609C158.043 45.3013 158.442 48.0374 156.683 48.2971Z" fill="white"/>
<path d="M220.926 32.7788C220.746 31.3009 220.066 29.9628 219.007 28.9242C218.307 28.2452 217.428 27.7459 216.688 27.1068C217.068 25.2694 217.827 23.4918 217.548 21.5945C217.348 20.1565 216.588 18.8783 215.429 17.9995C213.49 16.5216 210.632 16.1022 208.193 16.6015C208.193 15.0636 208.233 13.5258 207.773 12.0478C207.214 10.2504 205.835 9.01209 204.036 8.47285C200.997 7.55413 197.14 8.35301 194.701 10.49C194.201 7.05483 192.562 3.65958 188.905 2.76084C185.107 1.84212 182.229 4.17885 180.03 6.935C178.771 3.16028 173.853 0.404132 170.136 0.823546C166.178 1.26293 163.58 4.19882 162.2 7.67396C159.642 6.03625 156.584 4.99771 153.545 5.59687C150.967 6.11614 149.488 8.17327 148.508 10.49C147.789 12.2076 147.369 14.0451 147.009 15.8625C146.929 16.3019 146.849 16.7413 146.789 17.2006C146.749 17.4802 146.789 18.0794 146.63 18.3191C146.37 18.7585 145.37 18.8383 144.931 18.9382C143.611 19.2578 142.312 19.6572 141.413 20.7357C140.513 21.8142 140.013 23.1723 139.834 24.5703C139.394 28.1054 140.813 31.4407 142.772 34.2768C140.693 36.0343 139.394 38.4909 139.933 41.247C140.933 46.28 145.73 48.1973 145.87 48.1174C147.449 47.2786 148.428 43.6437 148.908 41.986C149.508 39.9688 149.348 37.8518 148.388 36.0143C152.266 34.7361 152.846 29.6033 152.026 25.7687C155.344 27.6061 159.742 26.927 162 23.8114C162.84 25.3093 164.839 26.228 166.438 26.4477C168.836 26.7872 171.195 26.0083 172.794 24.2707C173.414 26.6275 175.452 27.9856 178.051 28.1653C179.67 28.2652 181.429 28.2052 182.988 27.7459C183.648 27.5462 184.287 27.2865 184.867 26.947C185.447 26.6275 185.866 26.1481 186.346 25.7287C187.066 28.0854 189.544 29.783 191.823 30.3622C194.241 30.9614 196.94 30.9015 199.179 29.803C198.979 31.6404 199.478 33.5178 200.937 34.7761C202.297 35.9544 203.976 36.0942 205.555 35.6548C204.855 37.1328 204.375 38.7305 204.395 40.3882C204.395 42.5252 205.515 44.3027 206.654 46.0203C206.814 46.0004 206.994 46.1601 206.894 46.3399C206.174 47.4983 204.355 50.4342 204.695 51.8122C204.995 53.0305 205.755 54.109 206.594 55.0078C207.374 55.8666 208.253 56.6055 209.193 57.2846C212.151 56.5057 216.188 52.3914 217.887 49.9548C219.986 46.979 219.347 43.7235 217.348 41.0273C218.347 40.1286 219.167 38.9702 219.806 37.8518C220.706 36.254 221.166 34.5763 220.946 32.7389L220.926 32.7788Z" fill="#423227"/>
<path d="M182.308 103.56C185.766 103.72 189.224 103.72 192.662 103.4C192.782 103.4 192.902 103.36 193.042 103.36C193.102 102.002 193.162 100.644 193.242 99.2459C193.242 99.206 193.242 99.1661 193.242 99.1061C191.703 99.3059 190.144 99.4457 188.585 99.5455C185.267 99.7852 181.909 99.8651 178.591 99.7452C177.911 100.624 177.191 101.483 176.432 102.282C176.212 102.521 175.972 102.761 175.712 103.001C177.911 103.22 180.09 103.46 182.308 103.56Z" fill="#A2CB9C"/>
<path d="M155.224 116.003C158.762 117.081 162.32 118 166.018 118.319C169.976 118.659 173.973 118.699 177.951 118.479C183.128 118.199 188.245 117.461 193.342 116.562C193.142 114.285 193.022 112.188 192.962 110.191C192.183 110.291 191.403 110.39 190.644 110.47C183.068 111.349 175.393 111.569 167.797 110.91C164.059 110.59 160.341 110.011 156.684 109.192C154.045 108.593 151.407 107.874 148.868 106.955C148.788 107.435 148.688 107.914 148.628 108.393C148.348 110.251 148.149 112.068 147.989 113.846C150.427 114.465 152.826 115.244 155.244 115.983L155.224 116.003Z" fill="#A2CB9C"/>
<path d="M154.685 100.025C156.644 100.764 158.702 101.103 160.761 101.423C162.94 101.762 165.139 102.002 167.337 102.222C167.177 101.942 167.037 101.682 166.897 101.403C166.418 100.424 165.998 99.4056 165.638 98.3671C163.2 97.9077 160.781 97.3485 158.402 96.6495C156.304 96.0304 154.185 95.3114 152.146 94.4526C151.686 95.7907 151.247 97.1688 150.827 98.5868C152.126 99.0062 153.385 99.5455 154.665 100.025H154.685Z" fill="#A2CB9C"/>
<path d="M197.519 124.471C197.519 124.471 192.562 124.311 190.044 128.485C187.525 132.639 189.004 136.494 191.743 138.571C194.481 140.648 199.658 139.969 200.098 138.311C200.538 136.654 199.578 135.495 200.138 133.957C200.698 132.42 202.916 130.862 202.916 130.862C202.916 130.862 201.617 123.592 197.519 124.471Z" fill="#B0683F"/>
<path d="M212.91 114.105C210.372 114.065 207.653 114.325 205.135 115.064C205.155 115.144 205.175 115.243 205.195 115.323C205.615 117.42 203.316 120.456 201.057 121.914C198.958 123.272 197.2 124.091 197.2 124.091C197.2 124.091 196.46 126.927 198.359 130.682C200.278 134.437 201.257 135.216 201.257 135.216C201.257 135.216 214.01 132 218.647 123.452C220.006 120.936 220.746 118.159 220.926 115.303C218.307 114.505 215.569 114.105 212.89 114.065L212.91 114.105Z" fill="#7198B5"/>
</svg>
