<svg width="402" height="219" viewBox="0 0 402 219" fill="none" xmlns="http://www.w3.org/2000/svg">
<path d="M116.061 81.7074C116.061 81.7074 108.801 82.4425 102.149 92.0394C95.4961 101.636 91.4376 115.922 93.2786 127.268C95.1195 138.613 102.274 147.276 104.492 149.263C106.709 151.25 109.178 153.714 109.178 153.714L118.424 145.865C118.424 145.865 110.538 133.566 108.927 126.195C107.316 118.823 111.395 111.333 113.613 109.465C115.83 107.597 119.659 105.253 119.659 105.253C119.659 105.253 119.512 80.4953 116.081 81.6875L116.061 81.7074Z" fill="#7198B5"/>
<path d="M159.7 145.806C161.394 143.898 163.026 141.832 163.947 139.467C164.972 136.845 164.867 134.003 164.344 131.301C163.821 128.559 162.901 125.837 162.817 123.036C162.817 123.016 162.817 122.996 162.817 122.976C161.645 117.472 162.106 111.511 162.106 105.57C162.106 99.252 160.557 94.6224 156.625 88.4232C152.838 82.4624 144.805 80.3562 144.805 80.3562C144.805 80.3562 148.989 111.015 148.989 121.208C148.989 130.387 152.901 147.574 155.286 150.336C156.792 148.866 158.298 147.415 159.7 145.846V145.806Z" fill="#7198B5"/>
<path d="M136.039 198.241C136.039 198.241 133.591 205.493 133.591 209.129C133.591 212.765 133.236 213.123 138.57 214.236C143.905 215.348 149.574 216.223 153.507 215.527C157.419 214.812 157.733 212.924 155.829 211.593C153.926 210.242 149.344 208.871 148.068 207.619C146.792 206.368 147.733 201.5 148.068 200.665C148.403 199.831 140.118 195.638 136.018 198.241H136.039Z" fill="#7198B5"/>
<path d="M106.395 199.493C106.395 199.493 103.216 206.487 102.839 210.103C102.462 213.719 102.086 214.037 107.274 215.647C112.483 217.256 118.027 218.647 122.002 218.309C125.977 217.971 126.479 216.123 124.721 214.613C122.964 213.103 118.55 211.315 117.42 209.944C116.27 208.593 117.713 203.824 118.132 203.029C118.55 202.235 110.747 197.307 106.395 199.493Z" fill="#7198B5"/>
<path d="M109.031 140.978C109.031 140.978 108.425 143.898 108.529 151.27C108.655 158.641 108.278 171.397 106.688 180.994C105.098 190.591 102.504 204.281 102.504 204.281C102.504 204.281 105.098 206.268 111.249 206.745C117.42 207.222 118.885 206.626 118.885 206.626C118.885 206.626 125.412 188.724 128.612 177.954C131.813 167.185 133.78 154.906 135.014 155.84C136.248 156.774 136.98 168.357 135.872 180.776C134.763 193.174 132.796 205.235 132.796 205.235C132.796 205.235 135.746 206.288 142.294 206.169C148.821 206.05 149.449 204.877 149.449 204.877C149.449 204.877 154.993 191.187 156.959 174.1C158.926 157.012 156.562 138.375 156.562 138.375C156.562 138.375 142.19 132.195 131.834 134.182C121.479 136.169 109.031 140.978 109.031 140.978Z" fill="#82342A"/>
<path d="M146.708 91.0261C146.018 87.2708 144.156 83.893 141.625 81.0517C140.432 80.4556 139.219 79.9589 137.838 79.6807C136.792 79.4621 135.725 79.3429 134.658 79.3429C133.717 79.3429 132.838 79.5019 131.939 79.6211C131.667 79.6608 131.478 79.3231 131.729 79.1641C131.813 79.1244 131.897 79.0846 131.98 79.0449C131.52 79.0449 131.081 79.0449 130.621 79.0449C125.181 79.0449 119.805 80.4357 116.102 81.6875C115.663 84.5487 115.977 87.4894 116.73 90.2711C117.546 93.2515 118.822 96.1126 120.412 98.795C121.855 101.239 123.633 103.643 125.704 105.63C127.817 107.677 130.432 109.326 133.466 109.703C136.478 110.081 139.47 109.207 141.75 107.299C144.03 105.372 145.432 102.749 146.227 99.9872C147.064 97.0664 147.273 93.9866 146.729 91.0062L146.708 91.0261Z" fill="white"/>
<path d="M157.649 142.11C157.712 140.6 157.817 139.09 157.921 137.6C158.11 134.878 158.361 132.156 158.57 129.433C159.177 120.651 158.905 111.73 157.252 103.047C156.436 98.6956 155.244 94.3641 153.633 90.2114C152.273 86.6946 151.959 85.9196 149.972 82.6809C140.725 78.111 139.805 79.0647 130.6 79.0647C120.746 79.0647 111.123 83.6347 111.123 83.6347C111.123 83.6347 112.483 92.2977 112.839 98.7354C113.215 105.173 113.445 110.915 112.337 119.34C111.228 127.764 108.278 142.05 108.278 142.05C108.278 142.05 118.006 145.687 134.031 146.263C147.378 146.76 155.306 143.839 157.587 142.845C157.587 142.607 157.608 142.368 157.629 142.13L157.649 142.11ZM141.792 97.6823C141.395 98.7751 140.934 99.848 140.39 100.881C139.742 102.133 138.926 103.444 137.629 104.18C134.972 105.69 132.211 103.524 130.432 101.755C128.508 99.8282 126.939 97.6227 125.161 95.596C123.32 93.4899 121.374 91.3241 120.119 88.8206C119.617 87.8072 119.177 86.6747 119.261 85.5421C119.345 84.4891 119.931 83.4956 120.767 82.82C122.734 81.2106 125.621 81.31 128.027 81.608C130.495 81.9259 132.88 82.522 135.307 83.0187C137.524 82.9392 139.805 83.436 141.29 85.0851C142.692 86.6548 143.131 88.7808 143.11 90.7876C143.11 93.1322 142.566 95.4768 141.771 97.6823H141.792Z" fill="#7198B5"/>
<path d="M124.282 103.027C120.663 103.186 117.044 103.186 113.445 102.868C113.32 102.868 113.194 102.828 113.048 102.828C112.985 101.477 112.922 100.126 112.839 98.7354C112.839 98.6957 112.839 98.6559 112.839 98.5963C114.449 98.795 116.081 98.9341 117.713 99.0334C121.186 99.2719 124.7 99.3513 128.173 99.2321C128.884 100.106 129.637 100.961 130.432 101.756C130.663 101.994 130.914 102.232 131.186 102.471C128.884 102.689 126.604 102.928 124.282 103.027Z" fill="#A2CB9C"/>
<path d="M157.859 106.882C155.641 107.577 153.361 108.153 151.102 108.65C147.273 109.465 143.382 110.021 139.47 110.359C131.52 111.015 123.487 110.796 115.558 109.922C114.742 109.842 113.927 109.743 113.132 109.644C113.09 111.611 112.964 113.717 112.734 115.982C118.069 116.856 123.424 117.611 128.843 117.889C133.006 118.108 137.169 118.068 141.332 117.73C145.202 117.413 148.926 116.499 152.629 115.426C154.616 114.849 156.583 114.253 158.591 113.717C158.424 111.432 158.193 109.167 157.88 106.902L157.859 106.882Z" fill="#A2CB9C"/>
<path d="M155.034 94.2648C153.152 94.9801 151.227 95.596 149.281 96.1524C146.792 96.8478 144.261 97.4042 141.708 97.8612C141.332 98.8944 140.893 99.9077 140.39 100.881C140.244 101.159 140.098 101.418 139.93 101.696C142.231 101.477 144.533 101.239 146.813 100.901C148.968 100.583 151.122 100.245 153.173 99.5103C154.177 99.1527 155.181 98.7751 156.206 98.4175C155.85 97.0266 155.474 95.6358 155.034 94.2648Z" fill="#A2CB9C"/>
<path d="M122.42 76.4619L123.069 89.3571C123.069 89.3571 127.148 94.9205 133.34 93.7085C139.533 92.4965 140.056 89.2379 140.056 89.2379L138.361 73.6007C138.361 73.6007 131.06 78.6873 122.441 76.4818L122.42 76.4619Z" fill="#B0683F"/>
<g style="mix-blend-mode:multiply">
<path d="M124.198 83.3963C127.776 84.35 131.541 85.2441 135.286 84.8468C136.75 84.6878 138.173 84.2904 139.47 83.6149L138.382 73.561C138.382 73.561 131.081 78.6475 122.462 76.442L122.797 82.979C123.278 83.1181 123.759 83.2572 124.24 83.3764L124.198 83.3963Z" fill="#AEA7A2"/>
</g>
<path d="M160.829 46.9162C160.829 46.9162 166.624 42.9423 168.549 45.585C170.473 48.2276 170.16 51.5259 166.101 53.9897C162.043 56.4535 158.988 55.7183 158.988 55.7183L160.829 46.9162Z" fill="#B0683F"/>
<path d="M96.6674 35.4118C94.1152 45.7439 92.5462 69.1698 115.516 78.6674C138.487 88.1649 154.49 72.4681 160.725 56.374C167.294 39.4056 157.273 18.4236 152.587 16.9731C128.299 9.50223 101.897 14.1914 96.6674 35.4118Z" fill="#B0683F"/>
<path d="M131.102 48.764C131.102 48.764 131.165 48.6846 131.102 48.6846C131.039 48.6846 131.039 48.764 131.102 48.764Z" fill="#423227"/>
<g style="mix-blend-mode:multiply">
<path d="M130.098 45.9625C130.579 46.9361 130.453 48.1481 130.495 49.1813C130.537 50.3138 130.537 51.5457 131.018 52.5988C131.478 53.5923 132.483 53.9698 133.591 53.8506C134.721 53.7115 136.75 52.7776 136.562 54.6652C136.457 55.7183 135.934 56.6124 134.993 57.2085C134.512 57.5065 133.968 57.6854 133.424 57.7648C132.922 57.8245 132.357 57.7052 131.897 57.9238C131.709 58.0033 131.604 58.2417 131.75 58.4205C132.378 59.1358 133.654 58.8775 134.47 58.6391C135.411 58.3411 136.29 57.745 136.855 56.9701C137.566 55.9567 138.298 53.334 136.604 52.7379C135.893 52.4995 135.077 52.6386 134.386 52.8174C133.821 52.9565 133.068 53.2545 132.566 52.8373C131.729 52.1418 131.792 50.6318 131.75 49.6979C131.688 48.307 131.75 46.7771 130.955 45.5253C130.683 45.0683 129.868 45.5055 130.119 45.9823L130.098 45.9625Z" fill="#AEA7A2"/>
</g>
<path d="M118.006 43.598C117.253 43.3198 116.437 43.1211 115.642 43.1608C114.826 43.2006 114.052 43.4788 113.32 43.8364C110.851 45.0484 108.927 47.2539 108.132 49.7773C107.901 50.5324 107.755 51.3271 107.818 52.102C107.901 53.016 108.236 53.8704 108.717 54.6652C110.537 57.6059 114.47 59.2749 117.964 58.4205C121.248 57.6257 124.135 54.2479 124.198 50.9695C124.261 47.7904 120.893 44.6113 117.985 43.5582L118.006 43.598Z" fill="white"/>
<path d="M148.926 41.0547C148.173 40.7766 147.357 40.5779 146.562 40.6176C145.746 40.6573 144.972 40.9355 144.24 41.2932C141.771 42.5052 139.846 44.7107 139.052 47.2341C138.821 47.9891 138.675 48.7839 138.738 49.5588C138.821 50.4728 139.156 51.3272 139.637 52.1219C141.457 55.0626 145.411 56.7316 148.884 55.8772C152.168 55.0825 155.055 51.7047 155.118 48.4262C155.181 45.2472 151.813 42.0681 148.905 41.015L148.926 41.0547Z" fill="white"/>
<path d="M98.613 56.6521C98.613 56.6521 94.7428 52.4597 90.6843 54.9235C86.6258 57.3873 88.0902 63.1494 94.3244 64.0038C100.559 64.8582 101.123 60.0101 101.123 60.0101L98.613 56.6521Z" fill="#B0683F"/>
<path d="M151.206 37.6571C151.06 37.4584 151.311 37.7365 151.206 37.6571C151.164 37.6173 151.122 37.5577 151.081 37.518C150.997 37.4385 150.913 37.359 150.85 37.2796C150.85 37.2796 150.62 37.061 150.599 37.061C150.599 37.061 150.809 37.2001 150.662 37.1007C150.578 37.061 150.516 37.0014 150.432 36.9616C150.327 36.902 150.244 36.8424 150.139 36.8027C150.055 36.7629 149.846 36.7033 149.783 36.6437C149.783 36.6437 150.076 36.7431 149.867 36.6835C149.825 36.6835 149.763 36.6437 149.721 36.6239C149.574 36.5841 149.449 36.5444 149.302 36.5046C149.051 36.445 148.8 36.4053 148.549 36.3656C148.424 36.3457 148.319 36.3258 148.194 36.306C148.131 36.306 148.047 36.306 147.984 36.2662C148.131 36.306 148.256 36.306 148.026 36.2662C147.524 36.2265 147.022 36.2066 146.541 36.1669C146.311 36.1669 146.081 36.1271 145.871 36.0477C145.411 35.8688 146.332 36.0477 146.018 36.0675C145.976 36.0675 145.913 36.0675 145.871 36.0675C145.244 36.0278 144.7 35.531 144.888 34.9151C144.972 34.6369 145.181 34.4382 145.432 34.2992C145.474 34.2992 145.516 34.2395 145.558 34.2395C145.474 34.319 145.39 34.4184 145.307 34.4978C145.369 34.4184 145.432 34.3588 145.495 34.2793C145.746 34.021 146.206 33.8819 146.562 33.8024C147.168 33.6832 147.775 33.6633 148.382 33.7031C149.114 33.7627 149.721 33.9216 150.39 34.1998C151.624 34.7164 152.65 35.6503 152.984 36.902C153.11 37.3392 152.88 37.816 152.419 37.9948C151.938 38.1737 151.499 37.9948 151.206 37.6173V37.6571Z" fill="#423227"/>
<path d="M114.805 38.7499C114.659 38.7896 114.533 38.8293 114.387 38.8889C114.345 38.8889 114.219 38.9485 114.178 38.9684C114.408 38.8095 114.471 38.7896 114.387 38.8492C114.366 38.8492 114.345 38.8889 114.324 38.9088C114.052 39.1274 113.717 39.3062 113.404 39.4652C113.278 39.5446 113.132 39.6241 113.006 39.7036C112.902 39.7831 112.797 39.9221 113.048 39.6837C113.006 39.7235 112.943 39.7632 112.902 39.8029C112.65 40.0016 112.399 40.2003 112.169 40.399C111.709 40.8163 111.312 41.313 110.851 41.7303C110.747 41.8296 110.621 41.9488 110.517 42.0482C110.433 42.1078 110.328 42.1872 110.245 42.2469C110.119 42.3065 110.161 42.2667 110.328 42.1674C110.328 42.2071 110.203 42.2866 110.161 42.3065C110.161 42.3065 109.826 42.5648 109.805 42.5449C109.805 42.5449 110.015 42.3859 109.826 42.525C109.617 42.684 109.429 42.8032 109.178 42.8628C108.864 42.9423 108.404 42.8231 108.257 42.5052C108.069 42.0879 108.069 41.6309 108.153 41.1938C108.153 41.0944 108.236 40.7765 108.195 41.1938C108.195 41.0348 108.215 40.8759 108.278 40.7169C108.341 40.4984 108.466 40.2599 108.592 40.0612C108.969 39.3658 109.575 38.7697 110.224 38.2929C110.956 37.7564 111.772 37.2994 112.692 37.1802C113.173 37.1206 113.738 37.1007 114.178 37.3391C114.366 37.4584 114.031 37.2994 114.219 37.359C114.282 37.359 114.366 37.3987 114.429 37.4186C114.638 37.4981 114.805 37.5776 114.994 37.6968C115.412 37.9749 115.37 38.6108 114.847 38.7499H114.805Z" fill="#423227"/>
<path d="M120.224 44.7504C119.052 44.6908 117.86 44.8299 116.835 45.3862C113.676 47.0751 113.132 51.7245 115.119 54.387C116.123 55.758 117.692 56.6919 119.366 57.1687C119.68 57.2681 120.014 57.3277 120.349 57.3873C122.546 55.9567 124.177 53.4532 124.219 50.9894C124.282 48.6051 122.399 46.2406 120.245 44.7504H120.224Z" fill="#423227"/>
<path d="M149.763 41.4124C148.884 41.4521 148.026 41.6309 147.21 41.9687C145.453 42.7237 144.344 44.2735 143.821 46.0022C143.236 47.9494 143.403 49.8171 144.554 51.5457C145.662 53.1949 147.378 54.4665 149.24 55.2613C149.47 55.3606 149.7 55.4401 149.93 55.5196C152.754 54.3274 155.035 51.347 155.097 48.4262C155.16 45.5651 152.42 42.684 149.742 41.3925L149.763 41.4124Z" fill="#423227"/>
<path d="M120.035 50.7709C121.876 51.0292 122.295 48.3071 120.454 48.0488C118.613 47.7905 118.194 50.5125 120.035 50.7709Z" fill="white"/>
<path d="M150.976 47.6712C152.817 47.9295 153.235 45.2074 151.394 44.9491C149.553 44.6908 149.135 47.4129 150.976 47.6712Z" fill="white"/>
<path d="M83.7389 32.2327C83.9272 30.7624 84.6385 29.4312 85.7473 28.398C86.4795 27.7224 87.3999 27.2257 88.174 26.5898C87.7765 24.7619 86.9815 22.9935 87.2744 21.1059C87.4836 19.6753 88.2786 18.4037 89.4919 17.5294C91.5212 16.0591 94.5128 15.6418 97.065 16.1386C97.065 14.6086 97.0232 13.0787 97.5043 11.6084C98.0901 9.82014 99.5336 8.58824 101.416 8.05177C104.596 7.13778 108.634 7.93255 111.186 10.0586C111.709 6.64104 113.425 3.26326 117.253 2.36914C121.228 1.45515 124.24 3.77986 126.541 6.52183C127.859 2.76652 133.006 0.0245572 136.897 0.441813C141.039 0.878938 143.759 3.79973 145.202 7.25699C147.88 5.62771 151.081 4.5945 154.26 5.19058C156.959 5.70718 158.507 7.75373 159.532 10.0586C160.285 11.7673 160.725 13.5953 161.101 15.4034C161.185 15.8405 161.269 16.2777 161.331 16.7347C161.373 17.0128 161.331 17.6089 161.499 17.8473C161.771 18.2845 162.817 18.3639 163.277 18.4633C164.658 18.7812 166.018 19.1786 166.959 20.2515C167.9 21.3245 168.423 22.6756 168.612 24.0664C169.072 27.5833 167.587 30.9015 165.536 33.7229C167.712 35.4714 169.072 37.9154 168.507 40.6573C167.461 45.6644 162.44 47.5719 162.294 47.4924C160.641 46.6579 159.616 43.0416 159.114 41.3925C158.486 39.3857 158.654 37.2795 159.658 35.4516C155.599 34.1799 154.993 29.0735 155.85 25.2586C152.378 27.0866 147.775 26.411 145.411 23.3114C144.533 24.8016 142.441 25.7156 140.767 25.9342C138.257 26.2719 135.788 25.497 134.114 23.7684C133.466 26.113 131.332 27.4641 128.592 27.6429C126.897 27.7423 125.056 27.6827 123.424 27.2257C122.734 27.027 122.064 26.7687 121.458 26.4309C120.851 26.113 120.412 25.6361 119.91 25.2189C119.157 27.5634 116.563 29.2523 114.178 29.8285C111.646 30.4246 108.822 30.365 106.479 29.2722C106.688 31.1002 106.165 32.9679 104.638 34.2197C103.216 35.392 101.458 35.531 99.8055 35.0939C100.538 36.5643 101.04 38.1538 101.019 39.803C101.019 41.929 99.8474 43.6973 98.6549 45.4061C98.4876 45.3862 98.2993 45.5452 98.4039 45.724C99.157 46.8764 101.061 49.7972 100.705 51.1682C100.391 52.3802 99.5963 53.4532 98.7177 54.3473C97.9018 55.2017 96.9813 55.9368 95.9981 56.6124C92.9019 55.8375 88.6761 51.7444 86.8979 49.3204C84.7012 46.3598 85.3707 43.1211 87.4627 40.4388C86.4167 39.5447 85.559 38.3922 84.8895 37.2795C83.9481 35.69 83.467 34.021 83.6971 32.193L83.7389 32.2327Z" fill="#423227"/>
<path d="M124.972 62.9905C126.123 64.5006 127.274 66.0901 128.863 67.2028C130.558 68.3949 132.566 68.8122 134.616 68.4148C136.478 68.0572 138.026 67.024 139.135 65.5735C139.679 64.8781 140.077 64.0634 140.369 63.2488C140.641 62.4341 141.06 61.1824 140.621 60.3876C140.37 59.9505 139.637 59.8313 139.282 60.2286C138.738 60.8446 138.8 61.7586 138.591 62.5136C138.403 63.1892 138.194 63.8647 137.859 64.4807C137.127 65.7921 135.851 66.6663 134.324 67.0041C130.642 67.8386 127.985 64.9575 125.976 62.454C125.537 61.8977 124.533 62.4341 124.972 63.0104V62.9905Z" fill="#423227"/>
<path d="M153.11 88.1252C155.662 94.841 157.127 101.775 157.88 108.869C158.654 116.26 159.26 123.751 158.905 131.162C158.8 133.328 158.591 135.494 158.235 137.62C157.901 139.547 157.273 141.415 157.001 143.342C157.001 143.481 157.168 143.521 157.21 143.402C157.88 141.852 158.235 140.064 158.549 138.434C158.884 136.726 159.093 134.977 159.239 133.248C159.553 129.314 159.511 125.36 159.365 121.406C159.051 114.114 158.486 106.703 157.022 99.5103C156.206 95.5762 155.076 91.7017 153.424 88.006C153.361 87.8669 153.089 87.9662 153.152 88.1252H153.11Z" fill="#A2CB9C"/>
<path d="M108.571 122.479C107.567 122.738 106.584 123.055 105.621 123.473C102.776 124.705 100.266 126.493 98.0691 128.579C96.7511 129.831 95.6214 131.202 94.5754 132.632C97.3369 141.295 102.63 147.614 104.492 149.283C106.709 151.27 109.178 153.734 109.178 153.734L118.424 145.885C118.424 145.885 110.537 133.606 108.927 126.215C108.655 124.963 108.55 123.711 108.571 122.479Z" fill="#7198B5"/>
<path d="M110.433 130.427C110.705 133.248 111.981 135.931 113.383 138.434C114.157 139.805 114.994 141.137 115.872 142.448C116.667 143.62 117.441 144.951 118.445 145.985C118.592 146.144 118.843 145.945 118.738 145.766C118.069 144.574 117.107 143.481 116.332 142.349C115.475 141.077 114.659 139.785 113.906 138.454C112.483 135.911 111.291 133.229 110.621 130.427C110.6 130.328 110.412 130.347 110.433 130.447V130.427Z" fill="#A2CB9C"/>
<path d="M109.408 153.913C110.998 152.303 112.839 150.952 114.617 149.541C115.37 148.945 116.081 148.309 116.813 147.693C117.169 147.395 117.525 147.097 117.901 146.819C118.194 146.601 118.696 146.362 118.843 146.044C118.905 145.925 118.843 145.726 118.675 145.746C118.32 145.786 118.006 146.104 117.734 146.303C117.378 146.581 117.044 146.879 116.688 147.177C115.935 147.832 115.182 148.508 114.429 149.184C112.713 150.714 110.83 152.085 109.24 153.754C109.136 153.853 109.303 154.012 109.408 153.913Z" fill="#B0683F"/>
<path d="M111.228 155.721C112.588 154.171 114.136 152.82 115.768 151.528C116.563 150.892 117.378 150.257 118.152 149.601C118.55 149.283 118.927 148.945 119.303 148.607C119.659 148.29 120.098 147.952 120.349 147.554C120.454 147.376 120.224 147.137 120.035 147.256C119.638 147.534 119.303 147.932 118.947 148.27C118.571 148.607 118.194 148.945 117.797 149.263C117.002 149.939 116.165 150.574 115.349 151.25C113.759 152.542 112.128 153.873 110.935 155.522C110.81 155.701 111.102 155.899 111.249 155.74L111.228 155.721Z" fill="#B0683F"/>
<path d="M52.2333 198.241C52.2333 198.241 49.7857 205.493 49.7857 209.129C49.7857 212.765 49.43 213.123 54.7647 214.236C60.0993 215.348 65.7686 216.223 69.7016 215.527C73.6136 214.812 73.9274 212.924 72.0237 211.593C70.12 210.242 65.5385 208.871 64.2624 207.619C62.9862 206.368 63.9276 201.5 64.2624 200.665C64.5971 199.831 56.3127 195.638 52.2124 198.241H52.2333Z" fill="#423227"/>
<path d="M22.5895 199.493C22.5895 199.493 19.4096 206.487 19.0331 210.103C18.6565 213.719 18.2799 214.037 23.4681 215.647C28.6772 217.256 34.221 218.647 38.1959 218.309C42.1707 217.971 42.6727 216.123 40.9155 214.613C39.1582 213.103 34.744 211.315 33.6144 209.944C32.4638 208.593 33.9072 203.824 34.3256 203.029C34.744 202.235 26.9409 197.307 22.5895 199.493Z" fill="#423227"/>
<path d="M25.2255 140.978C25.2255 140.978 24.6189 143.898 24.7235 151.27C24.849 158.641 24.4724 171.398 22.8825 180.994C21.2926 190.591 18.6985 204.281 18.6985 204.281C18.6985 204.281 21.2926 206.268 27.4431 206.745C33.6145 207.222 35.0789 206.626 35.0789 206.626C35.0789 206.626 41.606 188.724 44.8067 177.954C48.0075 167.185 49.974 154.906 51.2083 155.84C52.4426 156.774 53.1748 168.358 52.066 180.776C50.9572 193.174 48.9907 205.235 48.9907 205.235C48.9907 205.235 51.9405 206.288 58.4885 206.169C65.0155 206.05 65.6431 204.877 65.6431 204.877C65.6431 204.877 71.1869 191.187 73.1534 174.1C75.1199 157.012 73.6555 137.699 73.6555 137.699C73.6555 137.699 58.3839 132.195 48.0284 134.182C37.673 136.169 25.2255 140.978 25.2255 140.978Z" fill="#445F8E"/>
<path d="M27.3174 83.6347C27.3174 83.6347 36.9198 79.0648 46.794 79.0648C56.6683 79.0648 63.4255 79.5416 65.1618 80.237C66.8773 80.9325 73.7809 95.4569 75.7683 107.855C77.7348 120.254 76.5005 130.904 75.7683 135.951C75.0361 140.978 74.534 142.508 74.534 142.508C74.534 142.508 66.2706 146.839 50.2668 146.243C34.242 145.667 24.5142 142.031 24.5142 142.031C24.5142 142.031 27.4639 127.745 28.5727 119.32C29.6814 110.895 29.4304 105.153 29.0747 98.7155C28.6982 92.2779 27.3593 83.6148 27.3593 83.6148L27.3174 83.6347Z" fill="#F6DEBE"/>
<path d="M24.5561 123.83C24.5561 123.83 29.7443 123.671 32.3802 127.824C35.0162 131.957 33.4681 135.792 30.602 137.858C27.736 139.925 22.3177 139.249 21.8574 137.6C21.3972 135.951 22.4014 134.798 21.8156 133.268C21.2298 131.738 18.9077 130.189 18.9077 130.189C18.9077 130.189 20.2675 122.956 24.5561 123.83Z" fill="#E9A17A"/>
<path d="M30.1417 101.875C30.1417 101.875 17.7989 108.73 16.5228 114.75C16.0834 116.836 18.4892 119.856 20.8532 121.307C23.0498 122.658 24.8908 123.473 24.8908 123.473C24.8908 123.473 25.6648 126.294 23.6774 130.03C21.6691 133.765 20.644 134.54 20.644 134.54C20.644 134.54 7.297 131.341 2.44355 122.837C-2.40991 114.333 0.205102 102.868 8.17565 95.7153C16.1671 88.5623 26.0205 83.0982 36.1667 80.7934C39.3884 80.0582 35.7901 86.7542 35.2462 91.6619C34.7023 96.5696 30.1626 101.855 30.1626 101.855L30.1417 101.875Z" fill="#F6DEBE"/>
<path d="M125.202 100.683C124.345 101.02 123.78 101.219 123.78 101.219C123.78 101.219 124.533 101.12 125.307 101.179C126.039 101.239 126.813 101.418 126.897 101.974C127.023 102.689 126.416 103.246 125.851 103.603C125.433 103.862 125.056 104.001 125.056 104.001C125.056 104.001 125.537 103.901 126.06 104.001C126.562 104.06 127.085 104.299 127.169 104.974C127.253 105.71 126.604 106.206 125.976 106.484C125.474 106.743 124.993 106.842 124.993 106.842C124.993 106.842 125.37 106.782 125.705 106.882C126.102 106.981 126.479 107.299 126.29 108.153C126.102 108.968 125.077 109.544 123.759 109.922C123.759 109.922 123.738 109.922 123.717 109.922C123.278 110.061 122.776 110.16 122.295 110.26C121.332 110.438 120.328 110.538 119.429 110.558C116.73 110.677 111.897 110.498 111.897 110.498C111.897 110.498 106.165 107.1 111.04 101.716C111.04 101.716 114.01 101.08 115.182 99.709C116.353 98.338 117.797 96.6293 119.805 96.8876C120.684 97.0068 121.228 97.3247 121.562 97.6426C121.981 98.0599 122.064 98.4771 122.064 98.4771C122.064 98.4771 122.19 98.4175 122.399 98.338C124.031 97.6823 131.018 94.9801 131.771 96.371C132.399 97.5432 127.692 99.6295 125.223 100.603L125.202 100.683Z" fill="#E9A17A"/>
<g style="mix-blend-mode:multiply">
<path d="M125.956 106.504C125.454 106.763 124.972 106.862 124.972 106.862C124.972 106.862 123.801 106.981 122.504 107.398C122.127 107.518 121.751 107.677 121.437 107.935C121.123 108.173 120.935 108.511 120.956 108.889C120.956 109.246 121.207 109.505 121.542 109.664C121.96 109.882 122.462 109.962 122.943 109.981C123.194 109.981 123.445 109.981 123.696 109.942C123.257 110.081 122.755 110.18 122.274 110.279C122.023 110.22 121.772 110.16 121.521 110.061C120.935 109.842 120.475 109.405 120.537 108.769C120.579 108.054 121.102 107.597 121.709 107.259C121.772 107.22 121.834 107.2 121.897 107.18C121.793 107.18 121.709 107.18 121.625 107.18C121.207 107.12 120.767 107.021 120.475 106.723C120.119 106.365 120.119 105.888 120.265 105.451C119.512 105.094 119.073 104.438 118.822 103.663C118.655 103.206 118.571 102.709 118.508 102.213C118.466 101.835 118.424 101.398 118.592 101.04C118.634 100.961 118.78 100.981 118.801 101.06C118.864 101.458 118.843 101.875 118.906 102.292C118.968 102.749 119.115 103.186 119.282 103.623C119.575 104.378 120.14 105.173 121.06 105.272C122.002 105.392 122.588 104.577 122.713 103.802C122.88 102.709 122.588 101.597 122.357 100.544C122.148 99.5699 121.897 98.6162 121.562 97.6823C121.981 98.0996 122.065 98.5168 122.065 98.5168C122.065 98.5168 122.86 100.027 123.006 100.861C123.194 100.822 123.383 100.782 123.55 100.762C123.989 100.702 124.449 100.643 124.91 100.643C125.014 100.643 125.119 100.643 125.223 100.643C124.366 100.981 123.801 101.179 123.801 101.179C123.801 101.179 123.843 101.239 123.383 101.299C123.299 101.299 123.194 101.318 123.09 101.338C123.236 102.153 123.383 103.047 123.215 103.862C123.926 103.723 124.638 103.623 125.37 103.564C125.516 103.564 125.705 103.564 125.872 103.544C125.454 103.802 125.077 103.941 125.077 103.941C125.077 103.941 123.78 104.199 123.048 104.358C122.985 104.478 122.922 104.597 122.86 104.716C122.399 105.451 121.521 105.809 120.642 105.551C120.454 105.928 120.454 106.345 120.851 106.604C121.207 106.842 121.709 106.902 122.127 106.922C122.19 106.922 122.253 106.922 122.316 106.922C122.922 106.683 123.613 106.564 124.261 106.484C124.826 106.425 125.412 106.365 125.977 106.405L125.956 106.504Z" fill="#D1B6A7"/>
</g>
<path d="M111.374 112.187C111.374 112.187 106.437 116.757 92.5045 114.889C86.2285 114.055 81.0403 111.452 77.2538 108.869C76.7098 108.511 76.2078 108.134 75.7266 107.776C72.0656 105.034 70.0782 102.59 70.0782 102.59C70.0782 102.59 64.7854 95.457 63.4256 90.0724C62.0658 84.6878 62.3168 79.7801 62.3168 79.7801C62.3168 79.7801 68.5929 79.6608 75.1408 83.8731C81.6679 88.0854 88.3205 95.4569 95.8308 98.2784C103.341 101.08 110.245 99.5699 110.245 99.5699C110.245 99.5699 110.977 101.676 111.228 105.411C111.479 109.167 111.353 112.207 111.353 112.207L111.374 112.187Z" fill="#F6DEBE"/>
<path d="M76.3542 105.292C75.8312 103.166 75.1409 101.1 74.3877 99.0335C73.9066 97.7221 73.4045 96.4107 72.8606 95.1192C72.5677 94.4436 72.2957 93.7482 71.9819 93.0925C71.6891 92.4964 71.4171 91.6023 70.7477 91.3241C70.6431 91.2844 70.5175 91.2645 70.4339 91.3241C70.3711 91.3838 70.3711 91.4632 70.3711 91.5427C70.392 92.2183 70.8313 92.6951 71.1033 93.2912C71.438 93.9469 71.6891 94.6622 71.9819 95.3378C72.5468 96.7087 73.0907 98.0797 73.5509 99.4904C74.1995 101.438 74.7225 103.444 75.2036 105.431C75.3919 106.206 75.5802 107.001 75.7476 107.796C76.2287 108.153 76.7308 108.511 77.2747 108.889C77.0237 107.677 76.6471 106.445 76.3752 105.312L76.3542 105.292Z" fill="#BA917A"/>
<path d="M39.1582 76.0843L39.8067 88.9597C39.8067 88.9597 43.8861 94.5231 50.0785 93.3111C56.2708 92.0792 56.7938 88.8405 56.7938 88.8405L55.0993 73.2033C55.0993 73.2033 47.7982 78.2898 39.1791 76.0843H39.1582Z" fill="#E9A17A"/>
<g style="mix-blend-mode:multiply">
<path d="M40.9156 83.0386C44.4929 83.9923 48.2585 84.8865 52.0032 84.4891C53.4676 84.3301 54.8902 83.9327 56.1872 83.2572L55.0994 73.2033C55.0994 73.2033 47.7983 78.2898 39.1792 76.0843L39.5139 82.6214C39.9951 82.7604 40.4762 82.8995 40.9574 83.0187L40.9156 83.0386Z" fill="#D1B6A7"/>
</g>
<path d="M79.2201 47.85C79.2201 47.85 85.2032 44.1345 87.0023 46.8566C88.8014 49.5787 88.3203 52.8571 84.1572 55.1421C79.9941 57.4271 76.9607 56.5528 76.9607 56.5528L79.2201 47.8302V47.85Z" fill="#E9A17A"/>
<path d="M15.6858 33.564C12.6315 43.7768 9.93278 67.1034 32.4219 77.5944C54.9109 88.1053 71.647 73.104 78.6761 57.3078C86.0609 40.6375 79.8476 17.5493 75.2452 15.9002C51.3336 7.37622 21.9618 12.6019 15.7067 33.564H15.6858Z" fill="#E9A17A"/>
<path d="M49.4509 48.4064C49.4509 48.4064 49.5136 48.3269 49.4509 48.3269C49.3881 48.3269 49.3881 48.4064 49.4509 48.4064Z" fill="#423227"/>
<g style="mix-blend-mode:multiply">
<path d="M48.5723 45.5651C49.0116 46.5585 48.8233 47.7705 48.8024 48.8038C48.8024 49.9363 48.7187 51.1682 49.158 52.2411C49.5764 53.2545 50.5597 53.6916 51.6684 53.5923C52.819 53.5128 54.8692 52.6584 54.5972 54.546C54.4508 55.5991 53.8859 56.4733 52.9027 57.0098C52.4215 57.288 51.8567 57.4469 51.3128 57.4867C50.8107 57.5264 50.2459 57.3873 49.7647 57.586C49.5764 57.6655 49.4509 57.9039 49.5973 58.0629C50.1831 58.798 51.4801 58.5993 52.296 58.4006C53.2583 58.1423 54.1579 57.586 54.7437 56.831C55.5177 55.8574 56.3754 53.2744 54.7018 52.5988C54.0115 52.3206 53.1956 52.42 52.4843 52.5789C51.9195 52.6981 51.1663 52.9564 50.6643 52.5193C49.8693 51.804 49.9948 50.294 49.9948 49.3402C49.9948 47.9494 50.1203 46.4194 49.4091 45.1478C49.158 44.6908 48.3212 45.0882 48.5513 45.5651H48.5723Z" fill="#D1B6A7"/>
</g>
<path d="M40.9993 61.5599C40.9993 61.5599 44.5557 63.2885 51.5848 63.3879C57.296 63.4674 60.183 61.699 60.183 61.699C60.183 61.699 61.229 70.6998 51.6057 71.6535C41.9616 72.6271 40.9993 61.5599 40.9993 61.5599Z" fill="#423227"/>
<path d="M47.2543 64.421C49.5346 65.6529 52.5889 65.8516 55.0993 65.2556C56.2708 64.9774 57.4842 64.4806 58.2791 63.6064C58.6557 63.209 58.9277 62.7322 59.0532 62.1957C57.7352 62.7123 55.2248 63.4276 51.5638 63.368C49.1371 63.3282 47.1287 63.1097 45.5388 62.8116C45.9154 63.4872 46.543 64.0237 47.2543 64.4012V64.421Z" fill="white"/>
<path d="M49.4092 70.9581C49.1581 69.9249 48.5724 68.9712 47.7774 68.2559C47.0034 67.5604 46.0201 67.0637 44.9323 66.9246C44.2001 66.8451 43.4888 66.9445 42.8193 67.2028C44.0536 69.3487 46.1247 71.3555 49.5347 71.6734C49.5138 71.435 49.4719 71.1965 49.4092 70.9581Z" fill="#CE5456"/>
<path d="M36.6061 42.6641C35.853 42.3661 35.058 42.1277 34.263 42.1277C33.4472 42.1277 32.6522 42.386 31.92 42.7039C29.3887 43.8166 27.3803 45.9227 26.4599 48.4262C26.1879 49.1614 25.9996 49.9562 26.0415 50.7509C26.0624 51.6649 26.3762 52.5392 26.8155 53.3538C28.4891 56.374 32.3593 58.2019 35.8739 57.5065C39.2002 56.8508 42.2336 53.6121 42.4637 50.3536C42.6938 47.1745 39.4721 43.8563 36.627 42.684L36.6061 42.6641Z" fill="white"/>
<path d="M67.6095 41.472C66.8564 41.1739 66.0614 40.9355 65.2665 40.9355C64.4506 40.9355 63.6556 41.1938 62.9234 41.5117C60.3921 42.6244 58.3838 44.7305 57.4633 47.2341C57.1913 47.9692 57.003 48.764 57.0449 49.5588C57.0658 50.4728 57.3796 51.347 57.8189 52.1617C59.4925 55.1818 63.3627 57.0098 66.8773 56.3144C70.2036 55.6587 73.237 52.42 73.4671 49.1614C73.6973 45.9823 70.4756 42.6641 67.6304 41.4918L67.6095 41.472Z" fill="white"/>
<path d="M16.6063 54.8639C16.6063 54.8639 12.9244 50.5125 8.76127 52.7975C4.59818 55.0825 5.7697 60.9042 11.962 62.0169C18.1335 63.1494 18.9493 58.3212 18.9493 58.3212L16.6063 54.844V54.8639Z" fill="#E9A17A"/>
<path d="M72.6514 25.2189C72.6514 25.2189 77.2747 30.7028 78.6973 37.0411C80.1198 43.3794 80.5591 49.0223 80.5591 49.0223C80.5591 49.0223 85.3917 44.0351 86.0611 37.3193C86.6887 31.1996 83.6972 24.0267 78.3835 22.7352C73.0698 21.4437 72.6514 25.2189 72.6514 25.2189Z" fill="#B0683F"/>
<path d="M71.8563 37.518C71.3542 35.1933 68.5091 33.9614 66.2079 34.1004C65.8732 34.1203 65.5594 34.1601 65.2456 34.2395C65.0782 34.2793 64.8899 34.3389 64.7226 34.4382C64.7226 34.4382 64.7226 34.4382 64.7017 34.4382C64.3669 34.6568 64.3879 34.6568 64.7853 34.4382C64.6598 34.478 64.5343 34.5376 64.4088 34.5773C63.9276 34.8157 63.6766 35.3721 63.9485 35.849C64.095 36.0874 64.3251 36.2463 64.5971 36.3258C64.6807 36.3457 64.8481 36.3655 64.9527 36.3655C65.2665 36.3655 64.6598 36.2265 64.7226 36.3059C64.8899 36.4848 65.2456 36.4649 65.4757 36.4848C65.7477 36.5046 65.1828 36.445 65.4339 36.4848C65.5803 36.4848 65.7058 36.5245 65.8523 36.5444C65.9778 36.5444 66.1033 36.5444 66.2288 36.5642C66.2707 36.5642 66.3334 36.5642 66.3753 36.5642C66.0196 36.5642 66.2079 36.5444 66.3334 36.5642C66.4799 36.5841 66.6472 36.604 66.8146 36.6239C67.0029 36.6636 66.459 36.5642 66.7309 36.6239C66.8564 36.6437 66.961 36.6636 67.0866 36.6835C67.3585 36.7431 67.6305 36.8027 67.9024 36.8623C68.028 36.902 68.1535 36.9219 68.279 36.9616C68.3418 36.9616 68.4045 37.0014 68.4673 37.0212C68.5091 37.0212 68.53 37.0411 68.5719 37.061C68.6974 37.1007 68.6765 37.1007 68.4673 37.0212C68.6765 37.1603 68.9484 37.2597 69.1786 37.3789C69.2413 37.4186 69.4296 37.5974 69.5133 37.5974C69.3878 37.5974 69.3459 37.4584 69.4714 37.5974C69.5342 37.6372 69.576 37.6968 69.6388 37.7365C69.7434 37.8359 69.8271 37.9154 69.9108 38.0147C69.9526 38.0544 69.9735 38.0942 70.0154 38.1141C69.8271 37.9154 70.0363 38.1538 70.0781 38.2134C70.6848 39.1075 72.0865 38.5313 71.8563 37.4981V37.518Z" fill="#B0683F"/>
<path d="M33.8027 36.6239C33.6771 36.5444 33.5516 36.4451 33.4052 36.3854C33.3006 36.3258 33.1751 36.2861 33.0705 36.2464C32.8822 36.1669 33.196 36.3258 33.0077 36.2066C32.6311 35.9682 32.0035 35.9483 31.5433 36.0079C30.7274 36.1073 29.9325 36.4053 29.2421 36.8623C28.489 37.3789 27.8614 37.9352 27.3384 38.6704C27.2547 38.8095 27.171 38.9486 27.0873 39.0877C26.9827 39.3062 26.8572 39.5645 26.8572 39.8228C26.899 39.6043 26.92 39.5645 26.8572 39.7036V39.7831C26.7944 39.9023 26.7944 40.2004 26.7526 40.26C26.7526 40.3394 26.7526 40.2997 26.7735 40.1407C26.7735 40.1805 26.7735 40.2202 26.7735 40.2401C26.7526 40.5183 26.7108 40.7368 26.7944 40.9951C26.92 41.3925 27.3802 41.6508 27.8195 41.5515C28.1124 41.472 28.3634 41.313 28.6354 41.1739C28.7191 41.1342 28.9074 40.9753 29.012 40.8958C28.5727 41.1143 28.489 41.174 28.7819 41.0349C28.9492 40.9753 29.0957 40.8958 29.2212 40.7567C29.3258 40.6772 29.4304 40.5779 29.535 40.4785C30.0161 40.0613 30.4555 39.5844 30.9366 39.1671C30.9994 39.1274 31.0412 39.0678 31.104 39.0281C31.1458 39.0082 31.1667 38.9685 31.2086 38.9486C31.2923 38.889 31.2504 38.9088 31.0831 39.0479C31.1458 39.0281 31.2086 38.9685 31.2504 38.9287C31.355 38.8492 31.4805 38.7698 31.5851 38.6903C31.6688 38.6307 31.6688 38.6307 31.5851 38.6903C31.3759 38.8095 31.5851 38.6903 31.6479 38.6505C31.7107 38.6108 31.7943 38.5512 31.8571 38.5115C31.9826 38.432 32.1081 38.3724 32.2546 38.2929C32.5265 38.1538 32.8403 38.0147 33.0705 37.8359C33.4261 37.5776 32.9868 37.8359 32.9868 37.8359C32.9868 37.8359 33.196 37.7763 33.2169 37.7763C33.3633 37.7366 33.5098 37.6968 33.6562 37.6571C34.2211 37.5379 34.1792 36.8822 33.8027 36.604V36.6239Z" fill="#B0683F"/>
<path d="M13.5521 55.758C13.5521 55.758 17.9662 50.6318 21.5017 42.3065C25.0372 33.9813 24.9744 25.9739 24.9744 25.9739C24.9744 25.9739 31.9617 35.5708 40.3298 33.405C48.6978 31.2393 41.836 24.2254 41.836 24.2254C41.836 24.2254 47.9028 30.9412 53.5303 29.7292C59.1787 28.5172 53.2793 22.6359 53.2793 22.6359C53.2793 22.6359 67.5468 32.9282 79.6804 27.9211C91.814 22.9339 90.4542 11.3104 74.1993 4.99191C57.9445 -1.32654 48.8652 8.54852 48.8652 8.54852C48.8652 8.54852 49.2626 -0.988757 41.9824 0.0841871C34.6813 1.15713 30.5182 10.9726 30.5182 10.9726C30.5182 10.9726 30.0789 3.99844 25.9995 6.62119C21.9201 9.24395 24.2841 18.4832 24.2841 18.4832C24.2841 18.4832 18.3009 8.90617 8.19654 17.1519C-1.90785 25.3977 2.29708 38.0147 4.97485 43.141C7.65262 48.2673 13.5521 55.758 13.5521 55.758Z" fill="#B0683F"/>
<path d="M38.7817 43.9358C37.6102 43.8166 36.4177 43.9358 35.3508 44.4325C32.1082 45.9823 31.3551 50.592 33.196 53.3538C34.1374 54.7646 35.6437 55.758 37.2964 56.3144C37.6102 56.4137 37.9449 56.5131 38.2796 56.5727C40.539 55.2414 42.2962 52.7975 42.4636 50.3536C42.631 47.9891 40.8737 45.5253 38.7817 43.9358Z" fill="#423227"/>
<path d="M68.4463 41.8892C67.5677 41.8892 66.7099 42.0283 65.8731 42.3462C64.074 43.0417 62.9025 44.5319 62.2958 46.2208C61.6055 48.1282 61.6891 50.0158 62.7561 51.7842C63.7811 53.4731 65.4338 54.8242 67.2748 55.7183C67.484 55.8176 67.7141 55.917 67.9442 56.0163C70.8312 54.9633 73.237 52.0822 73.4462 49.1614C73.6554 46.3002 71.0404 43.3 68.4463 41.8892Z" fill="#423227"/>
<path d="M38.2796 49.9363C40.1205 50.2741 40.6645 47.5719 38.8235 47.2341C36.9825 46.8963 36.4386 49.5985 38.2796 49.9363Z" fill="white"/>
<path d="M69.346 48.1878C71.187 48.5256 71.7309 45.8234 69.8899 45.4856C68.0489 45.1478 67.505 47.85 69.346 48.1878Z" fill="white"/>
<path d="M243.757 170.563C243.757 170.563 242.481 197.923 242.439 199.334C242.418 200.745 253.129 201.341 253.129 201.341C253.129 201.341 259.217 174.517 258.882 172.749C258.547 170.98 243.757 170.543 243.757 170.543V170.563Z" fill="#A9765A"/>
<path d="M271.999 173.961L271.81 198.36C271.81 198.36 275.137 199.771 278.086 199.592C281.036 199.413 282.898 198.539 282.898 198.539C282.898 198.539 286.036 178.352 286.036 173.961C286.036 169.57 272.919 172.55 271.978 173.961H271.999Z" fill="#A9765A"/>
<path d="M270.702 195.201C270.702 195.201 273.484 196.075 277.542 196.254C281.601 196.433 284.195 195.737 284.195 195.737C284.195 195.737 283.275 201.698 283.463 204.699C283.651 207.679 283.651 208.732 284.572 209.09C285.492 209.447 292.521 210.143 293.065 212.428C293.63 214.713 292.877 216.123 284.195 216.282C275.513 216.461 269.781 215.229 269.405 213.481C269.028 211.732 270.702 195.916 270.702 195.221V195.201Z" fill="#423227"/>
<path d="M284.865 208.156C284.3 207.977 283.651 207.898 283.065 207.957C282.48 208.017 281.936 208.215 281.434 208.494C280.932 208.772 280.492 209.129 280.116 209.547C279.739 209.944 279.342 210.421 279.174 210.938C279.112 211.136 279.342 211.275 279.53 211.196C279.99 210.977 280.346 210.6 280.722 210.282C281.099 209.984 281.455 209.686 281.873 209.427C282.71 208.911 283.672 208.672 284.655 208.911C285.178 209.05 285.409 208.295 284.886 208.136L284.865 208.156Z" fill="#B0683F"/>
<path d="M286.685 209.765C285.973 209.984 285.304 210.381 284.781 210.878C284.53 211.116 284.279 211.355 284.07 211.633C283.839 211.911 283.609 212.169 283.463 212.487C283.4 212.626 283.505 212.845 283.693 212.785C284.028 212.686 284.3 212.467 284.572 212.249C284.823 212.03 285.053 211.792 285.304 211.553C285.785 211.096 286.245 210.699 286.894 210.481C287.103 210.421 287.228 210.222 287.166 210.024C287.103 209.825 286.894 209.706 286.685 209.765Z" fill="#B0683F"/>
<path d="M241.748 195.678C241.748 195.678 244.384 196.87 248.401 197.486C252.418 198.122 255.074 197.705 255.074 197.705C255.074 197.705 253.422 203.526 253.233 206.507C253.045 209.487 252.92 210.54 253.798 210.997C254.677 211.454 261.56 212.944 261.832 215.269C262.104 217.594 261.183 218.905 252.543 218.11C243.903 217.316 238.359 215.448 238.213 213.66C238.066 211.871 241.686 196.373 241.769 195.678H241.748Z" fill="#423227"/>
<path d="M254.196 210.143C253.652 209.904 253.024 209.745 252.418 209.745C251.832 209.745 251.267 209.865 250.723 210.103C250.2 210.322 249.719 210.639 249.28 210.997C248.861 211.355 248.401 211.772 248.171 212.269C248.087 212.467 248.296 212.626 248.485 212.567C248.966 212.388 249.363 212.07 249.782 211.812C250.2 211.553 250.598 211.295 251.037 211.096C251.936 210.679 252.92 210.56 253.861 210.898C254.363 211.096 254.677 210.361 254.175 210.143H254.196Z" fill="#B0683F"/>
<path d="M255.807 211.951C255.074 212.07 254.363 212.408 253.777 212.845C253.505 213.044 253.234 213.262 252.982 213.501C252.731 213.739 252.459 213.978 252.271 214.276C252.188 214.415 252.271 214.633 252.459 214.593C252.815 214.534 253.108 214.355 253.401 214.156C253.694 213.978 253.945 213.759 254.217 213.56C254.761 213.163 255.263 212.825 255.911 212.686C256.12 212.646 256.267 212.467 256.246 212.269C256.225 212.07 256.016 211.911 255.807 211.951Z" fill="#B0683F"/>
<path d="M241.853 140.839C241.853 140.839 238.15 147.852 236.435 157.231C234.719 166.609 234.719 172.689 234.719 172.689C234.719 172.689 251.476 179.703 268.986 179.008C286.475 178.312 293.149 173.384 293.149 173.384L289.216 141.077C289.216 141.077 278.379 141.554 264.321 142.011C250.263 142.488 241.895 140.839 241.895 140.839H241.853Z" fill="#B0683F"/>
<path d="M299.76 94.6622C296.057 80.7338 295.952 66.3683 294.53 52.1419C293.86 45.5651 292.124 38.8095 290.387 32.4514C288.672 26.1726 285.032 19.9535 279.488 16.0194C268.296 8.07169 252.857 10.6746 241.79 16.7148C238.485 16.7148 228.757 18.364 224.092 24.444C219.866 29.9478 218.108 35.8689 218.108 42.4059C218.108 56.7714 220.577 70.8389 220.577 85.1249C220.577 92.3971 220.18 98.795 218.004 105.69C221.351 106.802 225.619 106.743 229.196 107.061C233.882 107.478 238.61 108.074 243.296 108.65C252.145 109.723 261.748 110.816 270.681 109.664C277.48 108.789 283.902 107.816 290.325 105.392C293.253 104.279 295.868 102.67 298.462 101.001C301.119 99.2918 300.554 97.6625 299.78 94.6821L299.76 94.6622Z" fill="#423227"/>
<path d="M293.714 135.851C293.191 136.785 292.521 137.679 291.517 138.116C290.22 138.693 288.588 138.295 287.542 137.361C286.496 136.428 285.994 135.037 285.952 133.666C285.91 132.295 286.308 130.963 286.81 129.672C287.396 128.202 288.274 126.672 289.822 126.095C292.27 125.201 294.613 127.069 295.366 129.175C296.14 131.341 294.801 133.924 293.735 135.831L293.714 135.851Z" fill="#A9765A"/>
<path d="M276.141 80.396C276.141 80.396 292.291 80.7537 304.613 93.2713C316.391 105.253 311.998 119.022 306.58 126.036C301.161 133.05 294.509 135.394 294.509 135.394C294.509 135.394 291.789 132.593 289.823 129.314C287.856 126.036 289.321 124.168 289.321 124.168C289.321 124.168 292.521 123.93 295.241 119.717C297.961 115.505 297.333 107.776 294.132 105.213C290.931 102.63 287.961 101.239 287.961 101.239L276.141 80.396Z" fill="#E69430"/>
<path d="M245.744 102.769C245.744 102.769 233.401 109.624 232.125 115.644C231.686 117.73 234.092 120.751 236.456 122.201C238.652 123.552 240.493 124.367 240.493 124.367C240.493 124.367 241.267 127.188 239.28 130.924C237.292 134.659 236.246 135.434 236.246 135.434C236.246 135.434 222.899 132.235 218.046 123.731C213.192 115.227 215.807 103.762 223.778 96.6094C231.769 89.4564 241.623 83.9924 251.769 81.6875C254.991 80.9523 251.392 87.6483 250.849 92.556C250.305 97.4638 245.765 102.749 245.765 102.749L245.744 102.769Z" fill="#E69430"/>
<path d="M291.35 108.75C289.383 96.3511 282.48 81.8266 280.743 81.1312C279.488 80.6146 275.492 80.2371 269.572 80.0583C269.572 80.0583 269.572 80.0583 269.551 80.0583C268.84 80.0384 268.108 80.0185 267.354 79.9987C267.313 79.9987 267.271 79.9987 267.229 79.9987C266.58 79.9987 265.89 79.9788 265.2 79.9788C265.032 79.9788 264.865 79.9788 264.677 79.9788C263.924 79.9788 263.17 79.9788 262.375 79.9788C261.706 79.9788 261.058 79.9987 260.388 80.0384C260.346 80.0384 260.283 80.0384 260.242 80.0384C259.635 80.0781 259.028 80.1377 258.422 80.1974C258.359 80.1974 258.296 80.1974 258.212 80.2172C257.627 80.2768 257.041 80.3762 256.455 80.4557C256.392 80.4557 256.33 80.4557 256.267 80.4755C255.681 80.5749 255.074 80.6742 254.51 80.7934C254.489 80.7934 254.447 80.7934 254.426 80.7934C253.212 81.0517 252.041 81.3299 250.932 81.6279C250.932 81.6279 250.89 81.6279 250.869 81.6279C250.346 81.767 249.823 81.926 249.321 82.0849C249.321 82.0849 249.28 82.0849 249.259 82.0849C245.43 83.2572 242.878 84.4693 242.878 84.4693C242.878 84.4693 244.238 93.1323 244.593 99.5699C244.949 106.008 245.2 111.75 244.091 120.174C242.983 128.599 240.033 142.885 240.033 142.885C240.033 142.885 249.761 146.521 265.785 147.097C281.81 147.674 290.053 143.362 290.053 143.362C290.053 143.362 290.555 141.832 291.287 136.805C292.019 131.778 293.253 121.128 291.287 108.71L291.35 108.75Z" fill="#E69430"/>
<path d="M240.158 124.725C240.158 124.725 245.347 124.566 247.983 128.718C250.618 132.851 249.07 136.686 246.204 138.752C243.338 140.819 237.92 140.143 237.46 138.494C236.999 136.845 238.004 135.692 237.418 134.162C236.832 132.632 234.51 131.083 234.51 131.083C234.51 131.083 235.87 123.85 240.158 124.725Z" fill="#A9765A"/>
<path d="M224.071 114.412C226.728 114.373 229.573 114.631 232.209 115.366C232.188 115.446 232.167 115.545 232.146 115.624C231.707 117.711 234.112 120.731 236.476 122.181C238.673 123.532 240.514 124.347 240.514 124.347C240.514 124.347 241.288 127.168 239.301 130.904C237.313 134.639 236.267 135.414 236.267 135.414C236.267 135.414 222.92 132.215 218.067 123.711C216.644 121.208 215.87 118.446 215.682 115.604C218.422 114.81 221.288 114.412 224.092 114.373L224.071 114.412Z" fill="#E69430"/>
<path d="M254.217 76.0049L254.865 88.8802C254.865 88.8802 258.944 94.4436 265.137 93.2316C271.329 91.9997 271.852 88.761 271.852 88.761L270.158 73.1238C270.158 73.1238 262.857 78.2104 254.237 76.0049H254.217Z" fill="#A9765A"/>
<path d="M256.099 85.6415C256.099 85.6415 252.396 84.7672 250.932 90.2114C249.447 95.6556 257.585 101.616 265.158 100.563C272.731 99.5103 275.869 95.298 276.245 90.3903C276.622 85.4825 272.731 84.7672 267.375 84.5884C262.02 84.4096 256.099 85.6415 256.099 85.6415Z" fill="#A9765A"/>
<g style="mix-blend-mode:multiply">
<path d="M255.974 82.9393C259.551 83.893 263.317 84.7871 267.061 84.3898C268.526 84.2308 269.948 83.8334 271.245 83.1578L270.158 73.104C270.158 73.104 262.856 78.1905 254.237 75.985L254.572 82.522C255.053 82.6611 255.534 82.8002 256.016 82.9194L255.974 82.9393Z" fill="#D1B6A7"/>
</g>
<path d="M293.442 46.4393C293.442 46.4393 299.174 42.386 301.14 45.0087C303.128 47.6315 302.835 50.9298 298.818 53.4532C294.802 55.9766 291.726 55.2812 291.726 55.2812L293.442 46.4592V46.4393Z" fill="#A9765A"/>
<path d="M229.112 35.8291C226.728 46.2009 225.493 69.6268 248.61 78.8263C271.727 88.0258 287.479 72.0906 293.483 55.917C299.801 38.8691 292.124 16.1585 287.417 14.7875C263.003 7.6544 234.029 14.5491 229.112 35.8291Z" fill="#A9765A"/>
<path d="M263.756 48.7044C263.756 48.7044 263.819 48.6249 263.756 48.6249C263.693 48.6249 263.693 48.7044 263.756 48.7044Z" fill="#423227"/>
<g style="mix-blend-mode:multiply">
<path d="M262.71 45.9028C263.212 46.8565 263.087 48.0884 263.149 49.1216C263.212 50.2542 263.233 51.4861 263.735 52.5392C264.216 53.5326 265.221 53.8903 266.329 53.7512C267.459 53.5922 269.467 52.6385 269.3 54.5261C269.216 55.5792 268.714 56.4932 267.773 57.0892C267.313 57.3873 266.769 57.586 266.204 57.6655C265.702 57.7251 265.137 57.6257 264.677 57.8443C264.488 57.9238 264.384 58.1622 264.551 58.341C265.179 59.0364 266.476 58.7781 267.271 58.5198C268.212 58.2218 269.07 57.6058 269.614 56.8111C270.325 55.7977 271.015 53.1551 269.3 52.5789C268.589 52.3405 267.773 52.4994 267.082 52.6783C266.518 52.8372 265.785 53.1352 265.262 52.718C264.405 52.0424 264.447 50.5324 264.405 49.5985C264.321 48.2077 264.342 46.6777 263.547 45.4458C263.254 45.0087 262.459 45.4458 262.71 45.9028Z" fill="#D1B6A7"/>
</g>
<path d="M231.393 57.0297C231.393 57.0297 227.46 52.8969 223.422 55.4203C219.406 57.9437 220.954 63.6859 227.188 64.4409C233.422 65.196 233.924 60.3479 233.924 60.3479L231.372 57.0297H231.393Z" fill="#A9765A"/>
<path d="M284.864 37.2001C284.488 35.8489 283.212 34.935 281.894 34.478C281.12 34.2197 280.325 34.1203 279.509 34.1402C278.777 34.16 277.689 34.2793 277.25 34.8952C277.396 34.7959 277.542 34.6965 277.689 34.5972C277.584 34.6568 277.459 34.6965 277.354 34.7561C276.978 34.9548 276.685 35.2926 276.748 35.7297C276.748 35.8092 276.768 35.8887 276.81 35.9682C276.999 36.3854 277.375 36.5444 277.835 36.5444C277.898 36.5444 278.233 36.5642 277.94 36.5444C277.773 36.4649 277.605 36.4053 277.438 36.3258C277.794 36.5444 278.128 36.604 278.547 36.6238C278.693 36.6238 278.86 36.6238 279.007 36.6238C279.174 36.6238 278.714 36.6238 278.944 36.6238C279.091 36.6238 279.216 36.6238 279.363 36.6437C279.927 36.6835 280.492 36.7629 281.057 36.8623C281.162 36.8821 281.371 36.9616 281.475 36.9616C281.434 36.9616 281.203 36.8821 281.371 36.9418C281.455 36.9616 281.538 37.0014 281.601 37.0212C281.852 37.1007 282.061 37.2199 282.291 37.3391C282.501 37.4385 282.333 37.3193 282.27 37.3193C282.291 37.3193 282.417 37.3987 282.438 37.4186C282.542 37.4981 282.647 37.5776 282.752 37.6571C282.856 37.7365 282.94 37.8359 283.044 37.9154C282.94 37.7763 283.128 37.9948 283.044 37.9154C283.086 37.975 283.149 38.0346 283.191 38.0942C283.484 38.4518 284.028 38.571 284.446 38.3326C284.906 38.0743 285.011 37.6372 284.885 37.1802L284.864 37.2001Z" fill="#423227"/>
<path d="M247.501 37.9153C247.271 37.7763 247.041 37.6372 246.769 37.5577C246.246 37.4186 246.623 37.518 246.602 37.4981C246.602 37.4981 246.476 37.4385 246.455 37.4186C246.267 37.3391 246.079 37.3193 245.89 37.3193C245.43 37.3193 245.074 37.3193 244.635 37.4583C244.384 37.518 244.133 37.6173 243.903 37.7166C243.317 37.9749 242.815 38.3326 242.334 38.7498C241.79 39.2466 241.288 39.8029 240.953 40.4586C240.89 40.5778 240.849 40.6772 240.807 40.7964C240.744 40.9752 240.639 41.3329 240.702 41.5316C240.619 41.2534 240.849 40.8361 240.744 41.154C240.66 41.4322 240.619 41.6309 240.639 41.9289C240.639 42.1276 240.66 41.6508 240.639 41.8495C240.639 41.9687 240.598 42.1475 240.639 42.2667C240.723 42.8628 241.225 43.2403 241.853 43.0615C241.999 43.0218 242.125 42.9621 242.229 42.8628C242.25 42.8429 242.334 42.8032 242.355 42.7635C242.188 42.8429 242.146 42.8628 242.25 42.8231C242.355 42.7635 242.459 42.7237 242.564 42.6641C242.69 42.5846 242.773 42.4853 242.878 42.3859C243.129 42.1475 242.836 42.525 242.585 42.5846C242.899 42.525 243.129 42.227 243.338 42.0283C243.526 41.8495 243.694 41.6508 243.882 41.4521C244.049 41.2733 244.217 41.1143 244.384 40.9156C244.468 40.8163 244.572 40.7169 244.656 40.6374C244.698 40.5977 244.761 40.5381 244.803 40.4983C244.97 40.3195 244.489 40.7567 244.782 40.5381C245.221 40.1606 245.681 39.8228 246.183 39.5248C246.288 39.4651 246.392 39.4055 246.476 39.3261C246.246 39.5049 246.33 39.4055 246.434 39.3459C246.539 39.3062 246.643 39.2466 246.727 39.187C246.957 38.9684 246.999 38.9485 246.811 39.1075C246.602 39.1671 246.978 39.0082 246.811 39.1075C246.895 39.0876 246.957 39.0479 247.041 39.028C247.167 38.9883 247.292 38.9287 247.418 38.9088C247.836 38.7896 247.941 38.1538 247.564 37.9153H247.501Z" fill="#423227"/>
<path d="M298.358 28.398C296.454 15.4432 284.049 4.13755 269.928 4.89259C264.196 5.19063 258.568 6.34305 253.192 8.2505C247.878 10.1381 241.497 13.4364 238.945 18.6024C237.355 17.0129 234.635 17.7083 232.774 18.6422C225.263 22.4173 223.109 31.9149 223.506 39.346C223.673 42.4854 224.657 45.6843 225.493 48.7045C226.435 52.122 227.397 55.6587 228.924 58.8974C229.28 59.6525 230.41 59.1955 230.305 58.4802C231.686 56.7714 232.502 54.6851 233.276 52.6783C234.468 49.6184 235.41 46.4592 236.246 43.2801C237.836 37.3789 239.196 31.3784 239.928 25.3183C240.012 24.5632 240.137 23.7486 240.179 22.9141C242.648 25.4573 245.66 27.5436 248.757 29.312C252.606 31.4976 256.936 33.3653 261.434 33.8621C261.832 33.9018 262.25 33.4845 262.124 33.107C261.058 30.0273 259.76 27.027 258.401 24.0466C264.823 25.0003 271.267 26.3713 277.291 28.7358C282.25 30.683 286.58 33.5839 289.446 37.9949C291.371 40.9753 292.668 44.3531 293.609 47.711C293.756 48.2276 294.446 48.3667 294.781 47.9296C298.986 42.5052 299.299 34.7959 298.358 28.3781V28.398Z" fill="#423227"/>
<path d="M250.932 43.9557C250.179 43.6775 249.384 43.4589 248.568 43.4987C247.752 43.5185 246.957 43.7967 246.225 44.1345C243.736 45.3266 241.79 47.4924 240.953 50.0158C240.702 50.7708 240.556 51.5656 240.598 52.3405C240.66 53.2545 240.995 54.1288 241.476 54.9037C243.255 57.8841 247.167 59.573 250.66 58.7782C253.966 58.0231 256.873 54.705 256.999 51.4265C257.125 48.2474 253.798 45.0286 250.911 43.9358L250.932 43.9557Z" fill="white"/>
<path d="M281.873 41.8297C281.12 41.5515 280.325 41.3329 279.509 41.3727C278.693 41.3925 277.898 41.6707 277.166 42.0085C274.676 43.2006 272.731 45.3664 271.894 47.8898C271.643 48.6448 271.497 49.4396 271.538 50.2145C271.601 51.1285 271.936 52.0028 272.417 52.7777C274.195 55.7581 278.107 57.4469 281.601 56.6522C284.906 55.8971 287.814 52.579 287.94 49.3005C288.065 46.1214 284.739 42.8827 281.852 41.8098L281.873 41.8297Z" fill="white"/>
<path d="M253.15 45.1479C251.978 45.0684 250.786 45.2075 249.74 45.7439C246.56 47.3931 245.953 52.0226 247.899 54.7249C248.882 56.0959 250.43 57.0695 252.104 57.5463C252.417 57.6457 252.752 57.7251 253.087 57.7847C255.304 56.374 256.957 53.8904 257.062 51.4464C257.145 49.0621 255.304 46.6579 253.171 45.1479H253.15Z" fill="#423227"/>
<path d="M282.731 42.2072C281.852 42.2469 280.994 42.4059 280.178 42.7436C278.4 43.4788 277.291 45.0087 276.727 46.7374C276.099 48.6647 276.246 50.5523 277.375 52.2809C278.463 53.9499 280.158 55.2414 282.019 56.0561C282.25 56.1554 282.459 56.2548 282.689 56.3343C285.534 55.1818 287.856 52.2412 287.961 49.3204C288.065 46.4592 285.367 43.5384 282.71 42.2072H282.731Z" fill="#423227"/>
<path d="M252.857 51.1683C254.698 51.4464 255.158 48.7243 253.317 48.4462C251.476 48.168 251.016 50.8901 252.857 51.1683Z" fill="white"/>
<path d="M283.839 48.466C285.68 48.7442 286.141 46.0221 284.3 45.7439C282.459 45.4658 281.998 48.1879 283.839 48.466Z" fill="white"/>
<path d="M274.321 63.6263C273.505 65.3152 272.731 67.1034 271.434 68.4943C270.032 69.9845 268.149 70.7991 266.057 70.7991C264.154 70.7991 262.417 70.1037 261.037 68.8917C260.367 68.3155 259.781 67.6002 259.321 66.8451C258.882 66.11 258.192 64.9575 258.463 64.1032C258.61 63.6462 259.3 63.368 259.74 63.6859C260.388 64.1826 260.556 65.0768 260.911 65.7722C261.246 66.408 261.581 67.024 262.062 67.5604C263.066 68.7128 264.488 69.3089 266.057 69.3487C269.844 69.448 271.831 66.11 273.254 63.2687C273.568 62.6527 274.656 62.9706 274.342 63.6064L274.321 63.6263Z" fill="#423227"/>
<path d="M335.115 145.885C333.42 143.978 331.788 141.911 330.868 139.547C329.843 136.924 329.947 134.083 330.47 131.381C330.993 128.639 331.914 125.917 331.998 123.115C331.998 123.095 331.998 123.075 331.998 123.055C333.169 117.552 332.709 111.591 332.709 105.65C332.709 99.3315 334.257 94.7019 338.19 88.5027C341.976 82.5419 350.01 80.4357 350.01 80.4357C350.01 80.4357 345.826 111.094 345.826 121.287C345.826 130.467 341.914 147.654 339.529 150.415C338.022 148.945 336.516 147.495 335.115 145.925V145.885Z" fill="#CE5456"/>
<path d="M358.901 198.241C358.901 198.241 361.348 205.493 361.348 209.129C361.348 212.765 361.704 213.123 356.369 214.236C351.035 215.348 345.365 216.223 341.432 215.527C337.52 214.812 337.207 212.924 339.11 211.593C341.014 210.242 345.596 208.871 346.872 207.619C348.148 206.367 347.206 201.499 346.872 200.665C346.537 199.83 354.821 195.638 358.922 198.241H358.901Z" fill="#CE5456"/>
<path d="M388.544 199.493C388.544 199.493 391.724 206.487 392.101 210.103C392.477 213.719 392.854 214.037 387.666 215.646C382.457 217.256 376.913 218.647 372.938 218.309C368.963 217.971 368.461 216.123 370.218 214.613C371.976 213.103 376.39 211.315 377.519 209.944C378.67 208.593 377.227 203.824 376.808 203.029C376.39 202.235 384.193 197.307 388.544 199.493Z" fill="#CE5456"/>
<path d="M337.813 172.55C337.876 173.066 337.918 173.603 337.981 174.12C338.483 178.451 339.215 182.584 340.031 186.299C342.416 197.267 345.512 204.897 345.512 204.897C345.512 204.897 346.118 206.069 352.666 206.189C359.214 206.308 362.164 205.255 362.164 205.255C362.164 205.255 360.198 193.194 359.089 180.796C357.98 168.397 358.712 156.794 359.947 155.86C361.097 154.985 362.917 165.755 365.783 175.967C365.972 176.643 366.16 177.319 366.369 177.974C367.039 180.279 367.896 182.902 368.775 185.604C372.059 195.578 376.097 206.646 376.097 206.646C376.097 206.646 377.582 207.222 383.733 206.765C389.904 206.308 392.498 204.301 392.498 204.301C392.498 204.301 389.904 190.611 388.314 181.014C386.703 171.417 386.348 158.661 386.473 151.29C386.599 143.918 385.992 140.997 385.992 140.997C385.992 140.997 373.545 136.209 363.189 134.202C352.834 132.215 337.562 137.719 337.562 137.719C337.562 137.719 336.161 155.88 337.876 172.57L337.813 172.55Z" fill="#423227"/>
<path d="M337.813 172.55C337.876 173.067 337.918 173.603 337.981 174.12C338.483 178.451 339.215 182.584 340.031 186.299C340.491 186.478 340.972 186.617 341.495 186.737C342.855 187.035 344.298 186.379 345.198 185.386C346.118 184.392 346.537 183.081 346.788 181.769C346.997 180.597 347.06 179.385 346.976 178.193C346.872 176.862 346.6 175.57 346.139 174.298C345.763 173.265 345.261 172.252 344.445 171.477C343.629 170.702 342.478 170.205 341.328 170.364C340.784 170.444 340.24 170.662 339.78 170.94C339.047 171.378 338.378 171.934 337.813 172.55Z" fill="#B0683F"/>
<path d="M368.733 185.584C370.135 186.419 371.766 186.896 373.336 186.756C378.607 186.299 378.231 180.438 377.059 176.921C375.804 173.225 372.08 168.775 368.001 172.47C367.039 173.345 366.265 174.577 365.762 175.928L368.754 185.564L368.733 185.584Z" fill="#B0683F"/>
<path d="M378.754 81.767C378.754 81.767 386.013 82.5022 392.666 92.099C399.318 101.696 403.377 115.982 401.536 127.327C399.695 138.673 392.54 147.336 390.323 149.323C388.105 151.31 385.636 153.773 385.636 153.773L376.39 145.925C376.39 145.925 384.277 133.626 385.888 126.254C387.498 118.883 383.419 111.392 381.201 109.524C378.984 107.657 375.156 105.312 375.156 105.312C375.156 105.312 375.302 80.555 378.733 81.7471L378.754 81.767Z" fill="#CE5456"/>
<path d="M386.515 142.09C386.515 142.09 376.787 145.726 360.762 146.302C347.415 146.779 339.487 143.878 337.206 142.885C337.206 142.647 337.185 142.408 337.165 142.17C337.102 140.66 336.997 139.15 336.893 137.639C336.704 134.917 336.453 132.195 336.244 129.473C335.637 120.691 335.909 111.77 337.562 103.087C338.378 98.7155 339.57 94.4038 341.181 90.2511C342.541 86.7343 342.855 85.9395 344.842 82.7207C354.089 78.1706 355.009 79.1045 364.193 79.1045H364.235C364.905 79.1045 365.553 79.1243 366.202 79.1641C366.264 79.1641 366.306 79.1641 366.348 79.1641C366.955 79.2038 367.582 79.2435 368.168 79.323C368.231 79.323 368.294 79.323 368.377 79.3429C368.963 79.4025 369.549 79.5018 370.135 79.5813C370.197 79.5813 370.26 79.6012 370.323 79.6211C370.93 79.7204 371.515 79.8197 372.08 79.939C372.122 79.939 372.143 79.939 372.185 79.9588C373.419 80.1973 374.57 80.4953 375.678 80.7933C375.678 80.7933 375.72 80.7933 375.741 80.7933C376.264 80.9324 376.787 81.0914 377.268 81.2503C377.268 81.2503 377.31 81.2503 377.331 81.2503C381.159 82.4226 383.712 83.6347 383.712 83.6347C383.712 83.6347 382.352 92.2977 381.996 98.7353C381.787 102.371 381.62 105.769 381.703 109.564C381.766 112.485 381.996 115.664 382.477 119.32C383.586 127.745 386.536 142.031 386.536 142.031L386.515 142.09Z" fill="#F6DEBE"/>
<path d="M388.042 100.365C387.833 104.001 384.151 106.325 381.682 109.624C380.072 105.968 372.331 94.4038 368.084 88.0655C364.444 82.6412 366.411 81.3894 366.411 81.3894L364.172 79.1045H364.214C364.884 79.1045 365.532 79.1243 366.181 79.1641C366.243 79.1641 366.285 79.1641 366.327 79.1641C366.934 79.2038 367.561 79.2435 368.147 79.323C368.21 79.323 368.273 79.323 368.356 79.3429C368.942 79.4025 369.528 79.5018 370.114 79.5813C370.176 79.5813 370.239 79.6012 370.302 79.6211C370.909 79.7204 371.494 79.8198 372.059 79.939C372.101 79.939 372.122 79.939 372.164 79.9588C373.398 80.1973 374.549 80.4953 375.657 80.7934C375.657 80.7934 375.699 80.7934 375.72 80.7934C376.243 80.9324 376.766 81.0914 377.247 81.2503C377.247 81.2503 377.289 81.2503 377.31 81.2503C381.139 82.4226 383.691 83.6347 383.691 83.6347C383.691 83.6347 388.419 93.8674 388.042 100.305V100.365Z" fill="#CE5456"/>
<path d="M351.809 88.0854C353.88 85.5819 354.214 82.6412 359.026 81.9458C362.018 81.5087 356.139 80.7735 358.566 79.0647C354.026 79.0051 351.767 79.3429 344.863 82.7405C342.876 85.9792 341.37 87.9066 339.989 91.4234C338.378 95.5761 338.399 98.7552 337.583 103.107C337.562 103.226 337.541 103.345 337.52 103.464C339.278 99.1725 348.817 91.7016 351.83 88.0854H351.809Z" fill="#CE5456"/>
<path d="M386.243 122.539C387.247 122.797 388.23 123.115 389.193 123.532C392.038 124.764 394.548 126.552 396.745 128.639C398.063 129.89 399.193 131.261 400.239 132.692C397.477 141.355 392.184 147.674 390.322 149.343C388.105 151.329 385.636 153.793 385.636 153.793L376.39 145.945C376.39 145.945 384.277 133.666 385.887 126.274C386.159 125.022 386.264 123.771 386.243 122.539Z" fill="#CE5456"/>
<path d="M369.193 74.3358L368.545 87.231C368.545 87.231 364.465 92.7944 358.273 91.5824C352.081 90.3505 351.558 87.1118 351.558 87.1118L353.252 71.4746C353.252 71.4746 360.553 76.5612 369.172 74.3557L369.193 74.3358Z" fill="#E9A17A"/>
<g style="mix-blend-mode:multiply">
<path d="M367.415 81.2702C363.838 82.224 360.072 83.1181 356.327 82.7207C354.863 82.5617 353.44 82.1643 352.143 81.4888L353.231 71.4349C353.231 71.4349 360.532 76.5215 369.151 74.316L368.817 80.853C368.336 80.992 367.854 81.1311 367.373 81.2503L367.415 81.2702Z" fill="#D1B6A7"/>
</g>
<path d="M327.5 44.9093C327.5 44.9093 321.684 40.9554 319.759 43.6178C317.834 46.2803 318.19 49.5588 322.249 52.0027C326.307 54.4466 329.382 53.6916 329.382 53.6916L327.5 44.8895V44.9093Z" fill="#E9A17A"/>
<path d="M391.599 33.107C394.214 43.439 395.908 66.8451 372.98 76.4618C350.051 86.0786 333.985 70.4414 327.646 54.387C320.973 37.4583 328.19 14.6086 332.876 13.1582C357.122 5.58795 386.264 11.9461 391.599 33.1268V33.107Z" fill="#E9A17A"/>
<path d="M357.227 46.6181C357.227 46.6181 357.29 46.5386 357.227 46.5386C357.164 46.5386 357.164 46.6181 357.227 46.6181Z" fill="#423227"/>
<g style="mix-blend-mode:multiply">
<path d="M358.21 43.7966C357.729 44.7702 357.876 45.9823 357.834 47.0353C357.792 48.1679 357.813 49.3998 357.332 50.4529C356.871 51.4463 355.867 51.8437 354.758 51.7245C353.629 51.5854 351.599 50.6714 351.809 52.559C351.913 53.6121 352.436 54.5062 353.378 55.1023C353.859 55.4003 354.403 55.5792 354.947 55.6388C355.449 55.6984 356.014 55.5792 356.474 55.7977C356.662 55.8772 356.767 56.1156 356.62 56.2944C355.993 57.0097 354.717 56.7713 353.901 56.513C352.959 56.2348 352.081 55.6388 351.516 54.844C350.784 53.8307 350.051 51.2278 351.746 50.6118C352.457 50.3535 353.273 50.4926 353.963 50.6714C354.528 50.8105 355.281 51.1086 355.784 50.6714C356.62 49.976 356.558 48.4659 356.578 47.5321C356.62 46.1412 356.578 44.6113 357.353 43.3595C357.624 42.9025 358.44 43.3396 358.189 43.8165L358.21 43.7966Z" fill="#D1B6A7"/>
</g>
<path d="M345.449 38.9287C344.78 38.5114 344.027 38.1538 343.232 38.0147C342.437 37.8955 341.6 38.0147 340.805 38.1935C338.106 38.8691 335.742 40.6176 334.382 42.9224C333.985 43.6179 333.65 44.353 333.546 45.1279C333.42 46.022 333.546 46.9559 333.838 47.8103C334.947 51.0689 338.42 53.4929 342.018 53.3936C345.407 53.2942 348.985 50.592 349.8 47.4129C350.595 44.3332 348.022 40.5182 345.428 38.9088L345.449 38.9287Z" fill="white"/>
<path d="M338.566 52.7379C338.817 52.6783 339.089 52.6187 339.34 52.5392C341.161 52.0226 343.001 51.1086 344.131 49.5986C345.345 47.9891 345.324 45.8234 344.424 44.0749C343.65 42.5449 341.872 41.4521 340.282 40.8362C339.236 40.4189 338.002 40.1209 336.83 40.2202C335.847 40.9951 335.01 41.9091 334.403 42.9622C334.006 43.6576 333.671 44.3928 333.567 45.1677C333.441 46.0618 333.567 46.9957 333.859 47.8501C334.592 50.0158 336.391 51.804 338.566 52.7379Z" fill="#423227"/>
<path d="M375.009 42.5052C374.34 42.0879 373.587 41.7303 372.792 41.5912C371.997 41.472 371.16 41.5912 370.365 41.77C367.666 42.4456 365.302 44.1941 363.942 46.5188C363.545 47.2142 363.21 47.9494 363.106 48.7243C362.98 49.6184 363.106 50.5523 363.398 51.4066C364.507 54.6652 367.98 57.0893 371.578 56.9899C374.967 56.8906 378.545 54.1883 379.36 51.0092C380.155 47.9295 377.582 44.1146 374.988 42.5052H375.009Z" fill="white"/>
<path d="M369.779 56.8111C370.532 56.4733 371.223 56.0561 371.808 55.4997C374.005 53.4333 374.361 50.1151 373.084 47.5123C372.436 46.2009 371.369 45.0683 369.988 44.4126C368.88 43.8762 367.645 43.6974 366.411 43.7371C365.428 44.512 364.57 45.4459 363.942 46.5188C363.545 47.2142 363.21 47.9494 363.106 48.7243C362.98 49.6184 363.106 50.5523 363.398 51.4067C364.319 54.1089 366.871 56.215 369.779 56.7912V56.8111Z" fill="#423227"/>
<path d="M336.579 45.6445C338.315 46.2803 339.361 43.6973 337.604 43.0615C335.868 42.4257 334.822 45.0087 336.579 45.6445Z" fill="white"/>
<path d="M366.181 49.3005C367.917 49.9363 368.963 47.3533 367.206 46.7175C365.469 46.0816 364.423 48.6647 366.181 49.3005Z" fill="white"/>
<path d="M389.758 54.3473C389.758 54.3473 393.607 50.135 397.686 52.5789C401.745 55.0228 400.322 60.7849 394.088 61.6791C387.875 62.5533 387.268 57.7251 387.268 57.7251L389.758 54.3473Z" fill="#E9A17A"/>
<path d="M335.303 34.8157C335.658 33.4646 336.893 32.5109 338.211 32.034C338.985 31.7559 339.759 31.6367 340.595 31.6565C341.328 31.6565 342.415 31.7559 342.876 32.3718C342.729 32.2725 342.583 32.1731 342.436 32.0738C342.541 32.1334 342.667 32.1731 342.771 32.2327C343.148 32.4116 343.461 32.7493 343.399 33.1865C343.399 33.2659 343.378 33.3454 343.336 33.4249C343.148 33.8421 342.771 34.0011 342.332 34.021C342.269 34.021 341.934 34.0607 342.227 34.021C342.395 33.9415 342.562 33.8819 342.729 33.8024C342.374 34.0408 342.039 34.1005 341.62 34.1203C341.474 34.1203 341.307 34.1203 341.16 34.1203C340.993 34.1203 341.453 34.1203 341.223 34.1203C341.077 34.1203 340.951 34.1402 340.805 34.1601C340.24 34.2197 339.675 34.2991 339.131 34.4184C339.026 34.4382 338.838 34.5376 338.734 34.5177C338.775 34.5177 339.005 34.4184 338.838 34.4978C338.754 34.5177 338.671 34.5574 338.608 34.5773C338.357 34.6767 338.148 34.776 337.918 34.8952C337.729 34.9946 337.876 34.8754 337.939 34.8754C337.918 34.8754 337.792 34.9548 337.771 34.9747C337.667 35.0542 337.562 35.1337 337.457 35.2131C337.353 35.2926 337.269 35.392 337.185 35.4714C337.102 35.5509 337.29 35.3324 337.185 35.4714C337.144 35.531 337.081 35.5907 337.039 35.6503C336.767 36.0278 336.202 36.147 335.784 35.9284C335.324 35.69 335.219 35.2529 335.324 34.7959L335.303 34.8157Z" fill="#82342A"/>
<path d="M373.252 35.531C373.482 35.3721 373.712 35.2529 373.984 35.1734C374.486 35.0144 374.13 35.1336 374.13 35.1138C374.13 35.1138 374.256 35.0542 374.277 35.0343C374.465 34.9548 374.653 34.935 374.842 34.9151C375.302 34.8952 375.657 34.9151 376.118 35.0343C376.369 35.0939 376.62 35.1734 376.85 35.2727C377.436 35.5112 377.959 35.8688 378.44 36.2861C379.005 36.7629 379.507 37.3193 379.841 37.9551C379.904 38.0743 379.946 38.1737 380.009 38.2929C380.093 38.4717 380.197 38.8293 380.134 39.028C380.218 38.7499 379.988 38.3326 380.093 38.6505C380.197 38.9287 380.218 39.1274 380.218 39.4254C380.218 39.6241 380.176 39.1472 380.218 39.3459C380.218 39.4652 380.26 39.644 380.239 39.7632C380.176 40.3593 379.674 40.7567 379.047 40.5778C378.9 40.5381 378.775 40.4785 378.649 40.399C378.628 40.3791 378.544 40.3394 378.524 40.2997C378.691 40.3792 378.733 40.399 378.649 40.3593C378.544 40.3195 378.44 40.2599 378.335 40.2003C378.21 40.1208 378.105 40.0215 378.001 39.9222C377.749 39.7036 378.042 40.0612 378.293 40.101C377.98 40.0414 377.749 39.7433 377.54 39.5446C377.352 39.3658 377.164 39.1671 376.975 38.9883C376.808 38.8095 376.62 38.6505 376.452 38.4717C376.369 38.3723 376.264 38.273 376.18 38.1935C376.139 38.1538 376.076 38.0942 376.034 38.0544C375.846 37.8955 376.348 38.3127 376.055 38.0743C375.616 37.6968 375.155 37.3789 374.632 37.0808C374.528 37.0212 374.423 36.9616 374.319 36.902C374.549 37.0808 374.465 36.9815 374.36 36.9219C374.256 36.8821 374.151 36.8225 374.068 36.7629C373.837 36.5444 373.796 36.5245 373.984 36.6835C373.817 36.5841 374.193 36.7431 373.984 36.6835C373.9 36.6636 373.837 36.6437 373.754 36.604C373.628 36.5642 373.503 36.5245 373.377 36.4848C372.959 36.3854 372.854 35.7297 373.21 35.5112L373.252 35.531Z" fill="#82342A"/>
<path d="M325.052 44.2934C325.24 45.108 325.387 46.0419 325.847 46.7771C326.161 47.2539 327.081 47.3135 327.144 46.5982C327.5 41.4322 329.173 35.0939 331.119 30.2855C332.144 27.7423 333.42 25.2983 335.073 23.073C335.826 22.0795 336.642 21.1258 337.604 20.2913C337.771 20.1522 337.96 20.0131 338.148 19.874C338.545 20.4105 339.006 20.9271 339.508 21.3841C342.06 23.6492 345.533 24.9804 348.838 25.8547C351.767 26.6296 354.8 27.166 357.834 27.5038C366.683 28.4973 375.992 28.0999 384.465 25.3381C384.841 27.0071 384.653 28.9543 384.674 30.6034C384.716 33.3851 384.779 36.1867 385.197 38.9486C385.657 42.0482 386.452 45.2074 387.331 48.2275C388.21 51.2874 389.423 54.1685 391.201 56.8508C391.264 57.0098 391.369 57.1489 391.515 57.2482C391.515 57.2482 391.557 57.2681 391.578 57.2879C391.871 57.4469 392.268 57.4469 392.519 57.1091C393.523 55.6785 403.69 40.1805 399.862 26.4309C399.234 24.2055 397.582 22.1987 395.574 20.8675C393.126 19.2382 390.197 18.9799 387.352 19.5362C387.017 14.6484 386.18 9.70091 381.557 6.74038C379.611 5.48861 377.373 4.75345 375.114 4.21698C372.331 3.54142 369.486 3.02482 366.683 2.44861C363.984 1.91213 361.286 1.47501 358.566 1.03788C356.014 0.620627 353.44 0.24311 350.846 0.282849C346.83 0.342457 341.537 0.104025 338.922 3.12416C337.73 4.51502 338.064 9.02535 337.541 10.8335C336.202 10.6149 331.328 9.8996 328.483 12.7807C325.805 15.4829 324.027 18.2248 323.671 21.8609C323.42 24.5036 322.834 32.034 324.069 39.2863C324.299 40.6971 324.759 42.9622 325.052 44.353V44.2934Z" fill="#82342A"/>
<path d="M364.34 62.7321C364.34 62.7321 363.21 69.3685 353.566 68.4545C343.922 67.5405 345.282 60.7651 345.282 60.7651C345.282 60.7651 345.595 61.0234 346.265 61.381C347.499 62.0367 349.905 63.0302 353.608 63.3878C356.955 63.7057 359.549 63.5865 361.369 63.3481C363.336 63.0898 364.361 62.7321 364.361 62.7321H364.34Z" fill="#423227"/>
<path d="M361.369 63.3282C360.888 63.8448 360.26 64.2422 359.591 64.5403C356.83 65.7324 353.294 65.6728 350.449 64.7986C349.11 64.3813 347.792 63.7256 346.934 62.6725C346.621 62.2752 346.39 61.838 346.265 61.3612C347.499 62.0168 349.905 63.0103 353.608 63.368C356.955 63.6859 359.549 63.5667 361.369 63.3282Z" fill="white"/>
</svg>
